<?xml version="1.0" encoding="utf-8"?>
<!-- Generator: Adobe Illustrator 27.8.1, SVG Export Plug-In . SVG Version: 6.00 Build 0)  -->
<svg version="1.1" id="分離模式" xmlns="http://www.w3.org/2000/svg" xmlns:xlink="http://www.w3.org/1999/xlink" x="0px"
	 y="0px" viewBox="0 0 911.6 283" style="enable-background:new 0 0 911.6 283;" xml:space="preserve">
<style type="text/css">
	
		.st0{clip-path:url(#SVGID_00000089566265151753602460000015777902445609400454_);fill:none;stroke:#BA1019;stroke-width:67;stroke-miterlimit:10;}
	.st1{fill:#05367B;}
	.st2{fill:#FFF798;}
	.st3{fill:#BA1019;}
	.st4{fill:none;stroke:#05367B;stroke-miterlimit:10;}
	
		.st5{clip-path:url(#SVGID_00000182493605220983335890000010444089241210020519_);fill:none;stroke:#BA1019;stroke-width:67;stroke-miterlimit:10;}
</style>
<g>
	<g>
		<defs>
			<rect id="SVGID_1_" x="135.6" width="662.2" height="297.5"/>
		</defs>
		<clipPath id="SVGID_00000160894229333315649600000004435190606668842651_">
			<use xlink:href="#SVGID_1_"  style="overflow:visible;"/>
		</clipPath>
		
			<circle style="clip-path:url(#SVGID_00000160894229333315649600000004435190606668842651_);fill:none;stroke:#BA1019;stroke-width:67;stroke-miterlimit:10;" cx="456.8" cy="0" r="248.2"/>
	</g>
</g>
<g>
	<path class="st1" d="M339.4,49.5c5.8-4.6,10.2-8.6,10.2-11.8c0-2.1-1.5-3.5-3.7-3.5c-1.9,0-3.4,1-4.9,2.7l-1.8-1.7
		c1.9-2.1,4.2-3.4,6.9-3.4c3.8,0,6.5,2.2,6.5,5.9c0,3.8-3.7,7.5-8.2,11.2c1-0.1,2-0.2,3-0.2h6.2v2.5h-14v-1.7H339.4z"/>
	<path class="st1" d="M358.8,41.6c0-6.6,2.9-9.8,7.3-9.8s7.3,3.2,7.3,9.8s-2.9,10-7.3,10S358.8,48.1,358.8,41.6z M370.4,41.6
		c0-5.5-1.9-7.4-4.3-7.4s-4.3,1.9-4.3,7.4s1.9,7.6,4.3,7.6S370.4,47.1,370.4,41.6z"/>
	<path class="st1" d="M378.9,49.5c5.8-4.6,10.2-8.6,10.2-11.8c0-2.1-1.5-3.5-3.7-3.5c-1.9,0-3.4,1-4.9,2.7l-1.8-1.7
		c1.9-2.1,4.2-3.4,6.9-3.4c3.8,0,6.5,2.2,6.5,5.9c0,3.8-3.7,7.5-8.2,11.2c1-0.1,2-0.2,3-0.2h6.2v2.5h-14v-1.7H378.9z"/>
	<path class="st1" d="M413,46.1h-2.8v5.1h-2.8v-5.1h-9.5v-2l8.5-12h3.8v11.7h2.8V46.1z M407.4,43.8v-5.6c0-1.1,0.1-2.4,0.1-3.7h-0.1
		c-0.8,1.3-1.4,2.5-2.1,3.5l-4.2,5.8H407.4z"/>
	<path class="st1" d="M440.2,47.6h-9.1v5.7h-2.5v-5.7h-11.9v-2.3h4.2v-6.9h7.6v-3.6h-6c-1.1,1.9-2.4,3.6-3.7,4.9
		c-0.5-0.4-1.5-1.2-2.1-1.6c2.4-2.1,4.5-5.4,5.7-8.8l2.4,0.7c-0.3,0.8-0.7,1.7-1,2.4h15.1v2.3H431v3.6h7.3v2.3H431v4.6h9.1v2.4
		H440.2z M428.6,45.2v-4.6h-5.2v4.6H428.6z"/>
	<path class="st1" d="M453.1,42.6c0.5,0.9,1,2.1,1.3,2.8l-1,0.4h0.3v2.4c0,2-0.5,3.8-3.7,5c-0.2-0.4-0.8-1.1-1.1-1.4
		c1.5-0.5,2.3-1.1,2.7-1.8h-3.2v-3.7h1.6v2.3h2.1c0-0.1,0-0.3,0-0.4v-2.3h1.1c-0.1-0.2-0.2-0.5-0.3-0.7c-3.8,0.4-4.5,0.5-4.8,0.7
		c-0.1-0.3-0.3-1.1-0.5-1.5c0.4,0,0.9-0.3,1.4-0.7c0.3-0.2,0.8-0.6,1.4-1.2c-1.5,0.1-1.9,0.2-2.2,0.3c-0.1-0.3-0.3-1.1-0.5-1.5
		c0.3-0.1,0.5-0.2,0.8-0.5c0.3-0.2,1.1-1.2,1.7-2.2h-4v14.7h-2.3V30.4h9.6v8.1h-2.8l1,0.5c-0.6,0.8-1.2,1.6-1.9,2.2l1.7-0.1
		c0.4-0.4,0.7-0.8,1.1-1.3l1.3,0.9c-1.1,1.2-2.4,2.4-3.7,3.3l2.2-0.2c-0.2-0.3-0.3-0.7-0.4-1L453.1,42.6z M446.1,32.2v1.6h5.1v-1.6
		H446.1z M446.1,36.9h5.1v-1.5h-5.1V36.9z M465.3,50.4c0,1.2-0.2,2-1,2.3c-0.8,0.4-1.9,0.5-3.6,0.5c-0.1-0.6-0.4-1.7-0.7-2.4
		c1,0,2.1,0,2.4,0c0.4,0,0.5-0.1,0.5-0.5V38.5h-5.4l1,0.5c-0.6,0.8-1.2,1.5-1.9,2.2l1.6-0.1c0.4-0.4,0.8-0.8,1.1-1.3l1.3,0.9
		c-1.1,1.2-2.4,2.4-3.7,3.4l2.1-0.2c-0.2-0.3-0.3-0.7-0.5-0.9l1.2-0.4c0.5,0.9,1.1,2.1,1.4,2.8l-1.2,0.5c-0.1-0.2-0.2-0.5-0.3-0.9
		c-3.8,0.4-4.5,0.5-4.9,0.7c-0.1-0.3-0.3-1.1-0.4-1.5c0.4-0.1,0.8-0.3,1.4-0.8c0.2-0.2,0.8-0.6,1.4-1.2c-1.5,0.1-2,0.2-2.2,0.3
		c-0.1-0.3-0.3-1.1-0.5-1.5c0.3-0.1,0.5-0.2,0.8-0.5c0.3-0.2,1.2-1.2,1.7-2.2h-1.6v-8.1h9.9v20.2H465.3z M458.9,50.7V50h-2.1v3h-1.7
		v-7.1h1.7v2.7h2.1v-2.3h1.6v4.5L458.9,50.7L458.9,50.7z M457.7,32.2v1.6h5.3v-1.6H457.7z M463,36.9v-1.5h-5.3v1.5H463z"/>
	<path class="st1" d="M482,38.4c-0.2,3.7-0.7,6.7-1.5,9c2,2.8,4.7,3.4,7.8,3.5c0.7,0,3.2,0,4.1,0c-0.3,0.5-0.6,1.4-0.7,2h-3.6
		c-3.4,0-6.3-0.6-8.5-3.4c-0.8,1.7-2,3-3.3,4c-0.2-0.5-0.7-1.2-1.1-1.6c0.6-0.4,1.1-0.8,1.6-1.4c-2.8,0.8-5.7,1.6-7.9,2.1l-0.4-2.2
		c0.9-0.2,2.2-0.5,3.5-0.8v-7.1h-3.2v-2.1h3.2V38h-1.9v-1.2c-0.4,0.5-0.8,0.9-1.2,1.2c-0.1-0.5-0.5-1.9-0.8-2.5
		c1.7-1.5,3.5-3.8,4.6-6.2l1.5,0.9c-0.1,0.3-0.3,0.6-0.4,1c1.3,1,2.6,2.2,3.4,3.1l-0.9,2c-0.8-1-2.2-2.3-3.5-3.4
		c-0.6,1.1-1.4,2.2-2.1,3.1h5.3v2h-2.4v2.4h2.8v2.1h-2.8v6.7l3.1-0.7l0.1,1.8c0.6-0.7,1.1-1.6,1.5-2.6c-0.7-1.2-1.2-2.7-1.6-4.5
		l1.6-0.6c0.2,1,0.5,1.9,0.8,2.7c0.4-1.4,0.6-3,0.8-4.8h-2.2c-0.2,0.2-0.4,0.3-0.4,0.5c-0.2-0.4-0.7-1.2-1-1.6
		c0.4-0.1,1.1-0.9,1.5-1.7c0.3-0.6,1.1-2.4,1.7-4.5h-2.7V31h3.3l0.7-0.3l1.3,0.8c-0.7,2.5-1.7,5-2.7,7h1.1l0.3-0.1H482z M470.8,43.6
		c0.3,1.5,0.7,3.4,0.8,4.6l-1.5,0.5c-0.1-1.3-0.4-3.2-0.8-4.7L470.8,43.6z M474.2,47.8c0.3-1.2,0.7-3.2,0.9-4.5l1.5,0.5
		c-0.4,1.6-0.8,3.4-1.2,4.5L474.2,47.8z M485.4,33.1h-2.8v-1.7h2.8v-1.9h1.9v1.9h3.7v3.4h1.5v1.8H491v3.5h-3.7v1.7h4.1v1.8h-4.1v1.8
		h4.6v1.9h-4.6v2.8h-1.9v-2.8h-3.5v-1.9h3.5v-1.8h-2.9v-1.8h2.9v-1.7h-2.8v-1.7h2.8v-1.8h-3.6v-1.8h3.6V33.1z M487.2,33.1v1.7h2
		v-1.7H487.2z M489.2,36.7h-2v1.8h2V36.7z"/>
	<path class="st1" d="M502.9,42.9c-0.8,0.3-1.7,0.5-2.5,0.7v6.8c0,1.2-0.3,1.9-1,2.2c-0.8,0.4-1.9,0.4-3.7,0.4
		c-0.1-0.6-0.4-1.6-0.7-2.2c1.1,0,2.2,0,2.5,0c0.4,0,0.5-0.1,0.5-0.5v-6.1l-3,0.8l-0.6-2.3c1-0.2,2.3-0.5,3.7-0.9v-5.1h-3.4v-2.2
		h3.3v-5.1h2.3v5.1h3v2.2h-3v4.5l2.2-0.6L502.9,42.9z M516.7,41.3c-1,3.2-2.7,5.6-4.8,7.5c1.8,1.1,4,1.9,6.5,2.4
		c-0.5,0.5-1.2,1.6-1.5,2.2c-2.7-0.6-5-1.7-7-3c-2.2,1.4-4.7,2.4-7.4,3c-0.2-0.7-0.7-1.7-1.2-2.2c2.4-0.5,4.6-1.2,6.6-2.4
		c-1.6-1.6-2.9-3.4-4-5.5l0.7-0.2h-1.3v-2.3h11.4l0.4-0.1L516.7,41.3z M507.9,33.2c0,2.4-0.7,5.3-4.1,7c-0.3-0.5-1.1-1.4-1.6-1.8
		c3-1.5,3.4-3.5,3.4-5.3v-2.8h8.6v5.8c0,0.7,0.1,1,0.5,1h1.7c0.4,0,1-0.1,1.4-0.2c0,0.6,0.1,1.5,0.2,2c-0.4,0.1-0.9,0.2-1.5,0.2
		h-1.9c-2.1,0-2.6-0.9-2.6-3.1v-3.6h-4v0.8H507.9z M506.3,43c0.9,1.7,2.1,3.1,3.6,4.4c1.5-1.2,2.7-2.7,3.6-4.4H506.3z"/>
	<path class="st1" d="M536.8,33.3c0,0.2,0,0.4-0.1,0.6c1.4,1.4,4.2,2.3,7.6,2.5c-0.5,0.5-1.1,1.4-1.3,2c-3-0.4-5.3-1.4-7-2.9
		c-0.9,1.2-3,2.3-7.5,2.9c-0.2-0.5-0.8-1.4-1.2-1.8h-6.6v-1.9h7.5v1.7c5.6-0.7,6.2-2.2,6.2-3.3v-0.3h-2.2c-0.6,0.9-1.2,1.8-1.9,2.4
		c-0.4-0.3-1.3-1-1.8-1.2c1.4-1.2,2.4-3,3-4.8l2.2,0.5c-0.2,0.4-0.3,0.9-0.5,1.3h8.1l0.3-0.1l1.7,0.5c-0.6,1.4-1.5,2.9-2.3,3.8
		l-1.9-0.7c0.3-0.5,0.7-1.1,1.1-1.8h-3.6v0.6H536.8z M536.6,49.1c2.7,0.9,5.6,2,7.3,2.8l-2.2,1.3c-1.6-0.9-4.3-2-7-2.9l1.5-1.2h-7.8
		l2.2,1c-2.1,1.3-5.4,2.5-8,3.2c-0.4-0.5-1.3-1.4-1.8-1.8c2.7-0.5,5.7-1.4,7.5-2.4h-4.2V38.6h17v10.5L536.6,49.1L536.6,49.1z
		 M527.7,32.7h-6.4v-1.8h6.4V32.7z M526.5,41.7h12.2v-1.5h-12.2V41.7z M526.5,44.6h12.2v-1.5h-12.2V44.6z M526.5,47.6h12.2V46h-12.2
		V47.6z"/>
	<path class="st1" d="M354,88.3h12.7c8.2,0,13.8,2.1,13.8,8.7c0,3.2-1.8,6.4-5.2,7.6v0.2c4.3,0.9,7.2,3.6,7.2,8.2
		c0,7.1-5.6,10.2-14.8,10.2h-13.8L354,88.3L354,88.3z M366.7,102.6c4.5,0,7-1.5,7-4.6c0-3.3-2.3-4.4-6.8-4.4H361v9H366.7z
		 M367.6,117.9c5.2,0,8-1.4,8-5.3c0-3.4-2.6-4.8-8-4.8h-6.7v10.1H367.6z"/>
	<path class="st1" d="M406.2,88.3H430v5.8h-17v8.2h13v5.8h-13v9.3h17.6v5.8h-24.4L406.2,88.3L406.2,88.3z"/>
	<path class="st1" d="M452.8,118.6l4-4.8c2.8,2.3,7,4,10.7,4c3.6,0,6.8-1.2,6.8-3.8c0-2.7-3-3.7-6.7-4.9l-5-1.7
		c-3.9-1.3-8.2-4.3-8.2-9.5c0-5.8,5.5-10.1,13.2-10.1c4.9,0,9.5,1.6,12.8,4.6l-3.7,4.6c-2.7-2-5.6-3.2-9.3-3.2
		c-3.2,0-6.1,1.2-6.1,3.7c0,2.4,3.4,3.5,6.8,4.6l4.9,1.7c4.6,1.6,8.2,4.5,8.2,9.7c0,5.9-5.3,10.4-14,10.4
		C461.8,123.8,456.6,122,452.8,118.6z"/>
	<path class="st1" d="M513.3,94.1h-11.6v-5.8h30.4v5.8h-11.7v29.1h-7V94.1H513.3z"/>
</g>
<circle class="st2" cx="338.1" cy="218.6" r="17.9"/>
<g>
	<g>
		<path class="st1" d="M330.5,209h14.6v3.5h-10.4v5h8v3.6h-8v5.7h10.8v3.6h-15V209z"/>
	</g>
</g>
<circle class="st2" cx="576.6" cy="218.6" r="17.9"/>
<g>
	<g>
		<path class="st1" d="M567,227.6l2.5-3c1.7,1.4,4.3,2.5,6.6,2.5c2.2,0,4.2-0.8,4.2-2.3c0-1.6-1.8-2.3-4.1-3l-3.1-1.1
			c-2.4-0.8-5-2.7-5-5.9c0-3.5,3.4-6.2,8.1-6.2c3,0,5.8,1,7.9,2.8l-2.2,2.8c-1.6-1.2-3.5-2-5.7-2c-2,0-3.7,0.7-3.7,2.3
			c0,1.5,2.1,2.1,4.2,2.8l3,1c2.8,1,5,2.8,5,5.9c0,3.6-3.3,6.4-8.6,6.4C572.5,230.8,569.3,229.7,567,227.6z"/>
	</g>
</g>
<circle class="st2" cx="211.1" cy="42.8" r="17.9"/>
<g>
	<g>
		<path class="st1" d="M202.5,33.2h7.8c5,0,8.5,1.3,8.5,5.3c0,2-1.1,4-3.2,4.6v0.1c2.6,0.5,4.4,2.2,4.4,5c0,4.4-3.4,6.3-9.1,6.3
			h-8.5V33.2H202.5z M210.3,42c2.8,0,4.3-0.9,4.3-2.8c0-2-1.4-2.7-4.2-2.7h-3.6V42H210.3z M210.9,51.3c3.2,0,4.9-0.9,4.9-3.3
			c0-2.1-1.6-2.9-4.9-2.9h-4.1v6.2H210.9z"/>
	</g>
</g>
<circle class="st2" cx="703.6" cy="42.8" r="17.9"/>
<g>
	<g>
		<path class="st1" d="M700.6,36.8h-7.2v-3.5H712v3.5h-7.2v17.9h-4.3V36.8H700.6z"/>
	</g>
</g>
<g>
	<g>
		<path class="st3" d="M1.6,25h5.9c3.6,0,6.4,1.1,6.4,4.4c0,1.6-0.9,3.3-2.4,3.8v0.1c1.9,0.5,3.3,1.8,3.3,4.2c0,3.6-3,5.2-6.9,5.2
			H1.6V25z M7.2,32.3c2.3,0,3.2-0.9,3.2-2.3c0-1.6-1.1-2.2-3.2-2.2H5.1v4.5H7.2z M7.6,40.1c2.4,0,3.7-0.9,3.7-2.7
			c0-1.7-1.3-2.5-3.7-2.5H5.1v5.2H7.6z"/>
		<path class="st1" d="M16.8,36.1c0-4.5,3.1-7.1,6.5-7.1s6.5,2.6,6.5,7.1s-3.1,7.1-6.5,7.1S16.8,40.5,16.8,36.1z M26.1,36.1
			c0-2.5-1-4.2-2.9-4.2s-2.9,1.7-2.9,4.2s1,4.2,2.9,4.2S26.1,38.6,26.1,36.1z"/>
		<path class="st1" d="M32.7,29.4h2.9l0.3,1.8H36c1.2-1.2,2.5-2.1,4.4-2.1c2.9,0,4.2,2,4.2,5.4v8.4h-3.5V35c0-2.1-0.6-2.8-1.9-2.8
			c-1.1,0-1.8,0.5-2.8,1.5v9.2h-3.7V29.4z"/>
		<path class="st1" d="M47.3,36.1c0-4.4,2.7-7.1,5.6-7.1c1.5,0,2.4,0.6,3.4,1.5l-0.1-2.1v-4.7h3.5v19.2h-2.9l-0.3-1.4h-0.1
			c-1,1-2.3,1.7-3.7,1.7C49.5,43.1,47.3,40.5,47.3,36.1z M56.2,38.8v-5.9c-0.8-0.7-1.7-1-2.5-1c-1.5,0-2.8,1.4-2.8,4.1
			c0,2.8,1,4.2,2.8,4.2C54.6,40.2,55.4,39.8,56.2,38.8z"/>
		<path class="st1" d="M69.3,25h5.8c3.9,0,7,1.4,7,5.6c0,4.1-3,5.9-6.9,5.9h-2.4v6.3h-3.6L69.3,25L69.3,25z M74.9,33.7
			c2.4,0,3.6-1,3.6-3.1s-1.3-2.8-3.7-2.8h-2v5.8h2.1V33.7z"/>
		<path class="st1" d="M84.7,25.3c0-1.2,0.8-1.9,2.1-1.9c1.2,0,2,0.8,2,1.9c0,1.2-0.8,1.9-2,1.9C85.5,27.2,84.7,26.4,84.7,25.3z
			 M85,29.4h3.5v13.4H85V29.4z"/>
		<path class="st1" d="M91.4,36.1c0-4.5,3.2-7.1,6.9-7.1c1.7,0,2.9,0.6,3.9,1.5l-1.7,2.3c-0.7-0.6-1.3-0.9-2-0.9
			c-2.1,0-3.5,1.7-3.5,4.2s1.4,4.2,3.3,4.2c1,0,1.9-0.5,2.6-1.1l1.4,2.3c-1.3,1.1-2.9,1.6-4.4,1.6C94.3,43.1,91.4,40.5,91.4,36.1z"
			/>
		<path class="st1" d="M104.9,23.6h3.5v11.5h0.1l4.6-5.8h3.9l-4.6,5.5l5,7.9h-3.8l-3.3-5.6l-1.9,2.2v3.4h-3.5V23.6z"/>
		<path class="st1" d="M119.2,25.3c0-1.2,0.8-1.9,2.1-1.9c1.2,0,2,0.8,2,1.9c0,1.2-0.8,1.9-2,1.9C120,27.2,119.2,26.4,119.2,25.3z
			 M119.4,29.4h3.5v13.4h-3.5V29.4z"/>
		<path class="st1" d="M126.7,29.4h2.9l0.3,1.8h0.1c1.2-1.2,2.5-2.1,4.4-2.1c2.9,0,4.2,2,4.2,5.4v8.4h-3.5V35c0-2.1-0.6-2.8-1.9-2.8
			c-1.1,0-1.8,0.5-2.8,1.5v9.2h-3.7V29.4z"/>
		<path class="st1" d="M141.2,45.2c0-1.1,0.7-2.1,1.9-2.8v-0.1c-0.7-0.5-1.2-1.2-1.2-2.3c0-1,0.7-1.9,1.5-2.5v-0.1
			c-0.9-0.7-1.8-1.9-1.8-3.5c0-3.1,2.6-4.8,5.4-4.8c0.7,0,1.5,0.1,2,0.3h4.8V32h-2.3c0.3,0.5,0.6,1.2,0.6,2c0,3-2.3,4.6-5.2,4.6
			c-0.5,0-1.2-0.1-1.7-0.3c-0.4,0.3-0.6,0.6-0.6,1.2c0,0.7,0.5,1.1,2.1,1.1h2.3c3.2,0,5,1,5,3.4c0,2.7-2.8,4.8-7.3,4.8
			C143.7,48.6,141.2,47.6,141.2,45.2z M150.8,44.5c0-1-0.8-1.2-2.2-1.2H147c-0.8,0-1.4-0.1-1.9-0.2c-0.6,0.5-0.9,1-0.9,1.6
			c0,1.1,1.2,1.8,3.2,1.8C149.4,46.4,150.8,45.5,150.8,44.5z M149.2,33.9c0-1.6-0.9-2.4-2.1-2.4s-2.1,0.9-2.1,2.4
			c0,1.6,0.9,2.5,2.1,2.5C148.2,36.4,149.2,35.5,149.2,33.9z"/>
		<path class="st1" d="M6.8,63.1c-0.3,1.8-0.6,3.5-1.1,4.9c1.4,2.5,4.1,2.8,8.1,2.9c2.5,0,6.5-0.1,9.2-0.4c-0.4,0.6-0.7,1.9-0.9,2.6
			c-2.5,0.2-5.6,0.2-8.4,0.2c-4.4,0-7.2-0.5-9-3c-0.8,1.5-1.7,2.6-2.8,3.4c-0.4-0.6-1.3-1.6-1.8-1.9c2-1.4,3.4-3.7,4-6.9H2.5
			c-0.5,0-1.2,0.2-1.4,0.4C1,64.7,0.5,63.5,0.2,63c0.4-0.1,0.8-0.3,1.2-0.8c0.4-0.4,1.2-1.8,1.9-3H0.6v-2.3h4.2l0.4-0.1l1.7,0.7
			c-0.7,1.3-2.1,3.6-3.1,5.2h1.3l0.5-0.1L6.8,63.1z M3.9,56.5c-0.6-1-2-2.7-3.1-3.9l2.1-1.3c1.1,1.2,2.5,2.6,3.2,3.6L3.9,56.5z
			 M14.1,57.2c-0.2,0.6-0.4,1.5-0.4,1.9c-4.9,0.8-5.7,1-6.1,1.2c-0.1-0.6-0.6-1.6-0.9-2.1c0.4-0.2,0.8-0.6,0.8-1.6V52h6.6v4.6H9.7
			v1.2L14.1,57.2z M22.2,66.8h-4.4c1.5,0.7,3,1.6,4,2.3l-2.5,1.2c-0.9-0.7-2.4-1.8-3.8-2.5l1.5-1h-5l2,0.7c-1.2,1.1-3.1,2.2-4.7,2.9
			c-0.5-0.5-1.5-1.3-2.1-1.7c1.5-0.5,3.1-1.2,4.1-1.9H6.9v-2.1h3.8v-1.5H7.8v-2.1h2.9V60h2.6v1.3h2.6V60h2.6v1.3h3v2.1h-3v1.5h3.8
			v1.9H22.2z M9.6,53.8v1.1h2.1v-1.1H9.6z M13.2,64.8h2.6v-1.5h-2.6V64.8z M17.6,59.6c-2.2,0-2.7-0.8-2.7-2.9V52h6.8v4.6h-4.6v0.1
			c0,0.7,0.1,0.9,0.6,0.9h2.5c0.5,0,1.2,0,1.7-0.1c0,0.6,0.1,1.4,0.2,1.9c-0.4,0.1-1.1,0.2-1.8,0.2H17.6z M17.2,53.8v1.1h2.1v-1.1
			H17.2z"/>
		<path class="st1" d="M31.7,63.9c-0.7,0.2-1.5,0.5-2.2,0.7v6c0,1.3-0.2,2-1,2.5c-0.7,0.5-1.8,0.6-3.3,0.6c-0.1-0.7-0.4-1.9-0.7-2.7
			c0.9,0,1.7,0,2,0s0.4-0.1,0.4-0.4v-5.3L24.7,66l-0.6-2.8c0.8-0.2,1.8-0.4,2.8-0.7v-4.1h-2.5v-2.6h2.5v-4.5h2.6v4.5h2.1v2.6h-2.1
			v3.4c0.6-0.2,1.2-0.4,1.8-0.5L31.7,63.9z M46.5,70.7h-6.1v3h-2.7v-3h-6.1v-2.1h6.1v-1.1h-5.2v-2.1h2.6c-0.1-0.5-0.3-1-0.5-1.4
			l1.8-0.4H32v-2.1h5.7v-1.1h-4.8v-2h4.8v-0.9h-5.1v-5.4h13.2v5.4h-5.5v0.9h5.1v2h-5.1v1.1h5.8v2.1h-3.8l1.8,0.4l-0.8,1.4h2.3v2.1
			h-5.2v1.1h6.1L46.5,70.7z M36.3,54h-1.4v1.6h1.4V54z M37,63.6c0.3,0.6,0.6,1.3,0.7,1.8h3.2c0.3-0.6,0.5-1.2,0.7-1.8H37z
			 M38.4,55.5h1.5V54h-1.5V55.5z M42,55.5h1.5V54H42V55.5z"/>
		<path class="st1" d="M57.3,58.6c-0.1,2.5-0.4,5.4-1.7,8.3c1.2,1.1,2.2,2.1,2.9,2.9l-1.9,2.4c-0.6-0.8-1.5-1.7-2.4-2.7
			c-1,1.5-2.3,2.9-4.1,4.2c-0.4-0.6-1.4-1.5-2-2c1.8-1.3,3.1-2.7,4.1-4.2c-1.2-1.1-2.5-2.3-3.6-3.2c0.4-1.4,0.8-3.3,1.1-5.2
			l-1.3,0.1l-0.3-2.7c0.6,0,1.3,0,2-0.1c0.2-1.7,0.4-3.5,0.5-5.1l2.8,0.1c-0.1,1.5-0.3,3.2-0.6,4.8l1.7-0.1v-1.5h2.7V56l1.2-0.1v2.6
			L57.3,58.6z M52.5,58.9c-0.3,1.6-0.6,3.1-0.9,4.5c0.6,0.5,1.2,1,1.8,1.6c0.8-2.2,1.1-4.3,1.2-6.2L52.5,58.9z M70.6,63.8h-4.8v6.7
			c0,1.5-0.3,2.2-1.3,2.6c-1,0.4-2.3,0.5-4.2,0.5c-0.1-0.8-0.6-2-1-2.7c1.2,0,2.6,0,3,0s0.5-0.1,0.5-0.5v-6.7h-5V61h5v-2.3
			c1-0.9,2.1-2.3,2.9-3.5h-7v-2.6h8.9l0.7-0.1l1.9,1.4c-1.1,1.8-2.7,3.8-4.4,5.4v1.8h4.8L70.6,63.8L70.6,63.8z"/>
		<path class="st1" d="M79.8,52.1c-0.6,1.5-1.3,3-2.1,4.4v17.1h-2.8V60.9c-0.6,0.7-1.2,1.4-1.8,2c-0.2-0.7-1-2.2-1.5-2.9
			c2.1-2.1,4.2-5.4,5.4-8.7L79.8,52.1z M86.3,70.5c-1.4,1.3-3.7,2.5-5.5,3.2c-0.5-0.6-1.6-1.5-2.3-2c1.9-0.5,3.9-1.4,5-2.3
			L86.3,70.5z M85.3,54.2H80v-1.8h5.3v-1.2h2.9v1.2h5.5v1.8h-5.5V55h5v1.7h-5v0.8h6.3v1.9H79v-1.9h6.3v-0.8h-4.8V55h4.8V54.2z
			 M90.3,69.4c1.6,0.9,3.4,2.1,4.3,3L92,73.9c-0.9-0.9-2.8-2.4-4.4-3.3L90.3,69.4h-9.6v-9.2H93v9.2H90.3z M90.1,61.9h-6.7v0.9h6.7
			V61.9z M90.1,64.3h-6.7v1h6.7V64.3z M90.1,66.7h-6.7v1h6.7V66.7z"/>
	</g>
</g>
<g>
	<g>
		<path class="st3" d="M752.4,28h-5v-3H761v3h-5v14.8h-3.6V28z"/>
		<path class="st1" d="M760.8,36.1c0-4.3,3.1-7.1,6.3-7.1c3.7,0,5.6,2.7,5.6,6.4c0,0.7-0.1,1.3-0.2,1.6h-8.3
			c0.3,2.2,1.7,3.4,3.7,3.4c1.1,0,2.1-0.3,3-0.9l1.2,2.2c-1.3,0.9-3,1.5-4.7,1.5C763.7,43.1,760.8,40.5,760.8,36.1z M769.6,34.7
			c0-1.8-0.8-3-2.5-3c-1.4,0-2.7,1-2.9,3H769.6z"/>
		<path class="st1" d="M775.5,29.4h2.9l0.3,2.4h0.1c1-1.8,2.4-2.7,3.8-2.7c0.7,0,1.2,0.1,1.6,0.3l-0.6,3c-0.5-0.1-0.9-0.2-1.4-0.2
			c-1.1,0-2.3,0.7-3.1,2.6v8h-3.5L775.5,29.4L775.5,29.4z"/>
		<path class="st1" d="M786,29.4h2.9l0.3,1.8h0.1c1.1-1.2,2.4-2.1,4.1-2.1c1.9,0,3,0.9,3.7,2.4c1.2-1.3,2.5-2.4,4.3-2.4
			c2.9,0,4.2,2,4.2,5.4v8.4h-3.5V35c0-2.1-0.6-2.8-1.9-2.8c-0.8,0-1.6,0.5-2.6,1.5v9.2h-3.5V35c0-2.1-0.6-2.8-1.9-2.8
			c-0.8,0-1.6,0.5-2.6,1.5v9.2h-3.5L786,29.4L786,29.4z"/>
		<path class="st1" d="M808.9,25.3c0-1.2,0.8-1.9,2.1-1.9c1.2,0,2,0.8,2,1.9c0,1.2-0.8,1.9-2,1.9C809.7,27.2,808.9,26.4,808.9,25.3z
			 M809.1,29.4h3.5v13.4h-3.5V29.4z"/>
		<path class="st1" d="M816.4,29.4h2.9l0.3,1.8h0.1c1.2-1.2,2.5-2.1,4.4-2.1c2.9,0,4.2,2,4.2,5.4v8.4h-3.5V35c0-2.1-0.6-2.8-1.9-2.8
			c-1.1,0-1.8,0.5-2.8,1.5v9.2h-3.5V29.4H816.4z"/>
		<path class="st1" d="M831.2,39.2c0-2.9,2.3-4.4,7.8-5c-0.1-1.3-0.6-2.3-2.3-2.3c-1.2,0-2.4,0.6-3.7,1.3l-1.3-2.3
			c1.6-1,3.5-1.8,5.6-1.8c3.4,0,5.2,2,5.2,5.9v7.8h-2.9l-0.2-1.4h-0.1c-1.2,1-2.5,1.8-4.1,1.8C832.7,43.1,831.2,41.4,831.2,39.2z
			 M838.9,39.1v-2.7c-3.3,0.4-4.4,1.3-4.4,2.5c0,1.1,0.7,1.5,1.8,1.5C837.3,40.4,838,39.9,838.9,39.1z"/>
		<path class="st1" d="M846,39V23.6h3.5v15.5c0,0.8,0.4,1.1,0.7,1.1c0.1,0,0.2,0,0.5,0l0.4,2.6c-0.4,0.2-1,0.3-1.8,0.3
			C846.9,43.1,846,41.5,846,39z"/>
		<path class="st1" d="M859.3,25h6.2c3.7,0,6.7,1.3,6.7,5.4c0,2.7-1.3,4.3-3.4,5.1l4.2,7.3h-4l-3.6-6.7h-2.5v6.7h-3.6L859.3,25
			L859.3,25z M865.2,33.3c2.3,0,3.6-1,3.6-2.9s-1.3-2.6-3.6-2.6h-2.3v5.4h2.3V33.3z"/>
		<path class="st1" d="M874.5,39.2c0-2.9,2.3-4.4,7.8-5c-0.1-1.3-0.6-2.3-2.3-2.3c-1.2,0-2.4,0.6-3.7,1.3l-1.3-2.3
			c1.6-1,3.5-1.8,5.6-1.8c3.4,0,5.2,2,5.2,5.9v7.8h-2.9l-0.2-1.4h-0.1c-1.2,1-2.5,1.8-4.1,1.8C876.1,43.1,874.5,41.4,874.5,39.2z
			 M882.3,39.1v-2.7c-3.3,0.4-4.4,1.3-4.4,2.5c0,1.1,0.7,1.5,1.8,1.5C880.7,40.4,881.4,39.9,882.3,39.1z"/>
		<path class="st1" d="M889.4,38.1v-6h-1.9v-2.6l2.1-0.2l0.4-3.6h2.9v3.6h3.3v2.8h-3.3v6c0,1.5,0.6,2.3,1.8,2.3c0.4,0,1-0.1,1.3-0.3
			l0.6,2.6c-0.7,0.2-1.7,0.5-2.8,0.5C890.6,43.1,889.4,41.1,889.4,38.1z"/>
		<path class="st1" d="M897.7,36.1c0-4.3,3.1-7.1,6.3-7.1c3.7,0,5.6,2.7,5.6,6.4c0,0.7-0.1,1.3-0.2,1.6h-8.3
			c0.3,2.2,1.7,3.4,3.7,3.4c1.1,0,2.1-0.3,3-0.9l1.2,2.2c-1.3,0.9-3,1.5-4.7,1.5C900.6,43.1,897.7,40.5,897.7,36.1z M906.6,34.7
			c0-1.8-0.8-3-2.5-3c-1.4,0-2.7,1-2.9,3H906.6z"/>
		<path class="st1" d="M754.2,66.3c0-0.3-0.1-0.8-0.2-1.2c-4.3,0.7-5.1,0.9-5.6,1.2c-0.1-0.5-0.6-1.8-0.9-2.5
			c0.6-0.2,1.2-0.7,1.9-1.6c0.3-0.3,0.8-1,1.5-1.9c-1.8,0.2-2.3,0.3-2.7,0.5c-0.1-0.5-0.6-1.7-0.9-2.4c0.5-0.1,0.9-0.6,1.4-1.3
			c0.5-0.6,2-3.3,2.9-5.9l2.5,1.1c-0.9,2-2.1,4.2-3.4,5.9l1.6-0.1c0.6-1,1.2-2.2,1.8-3.3l2.4,1.5c-0.9,1.7-2,3.4-3.2,4.9l1.8-0.5
			c0.6,1.6,1.2,3.7,1.3,5L754.2,66.3z M750.6,67.4c-0.2,2.1-0.6,4.4-1.1,5.9c-0.5-0.3-1.6-0.6-2.2-0.8c0.6-1.4,0.8-3.6,1-5.5
			L750.6,67.4z M753.2,67c0.3,1.7,0.6,3.8,0.6,5.2l-2.1,0.4c0-1.4-0.3-3.6-0.6-5.2L753.2,67z M753.5,63.1c-0.1-0.6-0.3-1.2-0.5-1.6
			c-0.5,0.6-1,1.3-1.6,1.9L753.5,63.1z M755.6,66.3c0.6,1.4,1.2,3.1,1.4,4.3l-2,0.7c-0.2-1.2-0.8-3-1.3-4.4L755.6,66.3z M768.9,54.5
			c-0.9,2.3-2.3,4.3-3.9,6c1.6,1.2,3.4,2.2,5.3,2.8c-0.6,0.6-1.4,1.6-1.8,2.3c-1.9-0.8-3.8-1.9-5.4-3.3c-1.7,1.4-3.5,2.4-5.4,3.2
			c-0.3-0.7-1.2-1.8-1.7-2.3c1.9-0.7,3.7-1.7,5.2-2.9c-0.6-0.7-1.2-1.4-1.7-2.2c-0.6,0.6-1.2,1.2-1.8,1.8c-0.4-0.6-1.3-1.4-1.9-1.8
			c2.4-2,4-4.7,4.8-6.9l2.8,0.5c-0.2,0.6-0.5,1.2-0.8,1.8h4.2l0.4-0.1L768.9,54.5z M759.2,68.1c3.1,0.8,6.8,2.4,9,3.6l-1.7,2.2
			c-2.1-1.3-5.9-2.9-9-3.8L759.2,68.1z M761.8,64c1.7,0.7,3.8,1.8,4.9,2.6l-1.7,2c-1.1-0.9-3.2-2.1-4.9-2.8L761.8,64z M761,56.1
			c0.6,0.9,1.2,1.8,2,2.6c0.8-0.8,1.5-1.7,2.1-2.7L761,56.1L761,56.1z"/>
		<path class="st1" d="M779.6,67l0.3,2.6c-2.7,0.6-5.5,1.3-7.8,1.9l-0.6-2.8c1.2-0.2,2.7-0.5,4.4-0.9c0.5-2.5,0.9-6.2,1.1-8.9
			l2.4,0.4c-0.4,2.6-0.9,5.8-1.3,8.1L779.6,67z M779.8,58.1h-8.1v-2.6h3.5c-0.3-1-0.8-2.3-1.3-3.3l2.4-0.6c0.6,1,1.2,2.4,1.5,3.4
			l-1.8,0.6h3.8L779.8,58.1L779.8,58.1z M773,67.3c0-2.2-0.4-5.4-0.7-8l2.1-0.4c0.4,2.5,0.8,5.8,0.8,7.9L773,67.3z M788.1,62.3
			l-0.6,1.5h5.8v7.5c0,1.1-0.1,1.7-0.8,2c-0.6,0.4-1.4,0.4-2.4,0.4c-0.1-0.6-0.4-1.4-0.6-2.1v1.8h-2.1v-7.3h-1.3v7.3h-2.2v-7.3h-1.2
			v7.5h-2.5v-9.9h4.5c0.1-0.5,0.2-1,0.3-1.5h-5.3v-2.5h14.2v2.5h-5.8V62.3z M793,58.5h-12.6v-6.1h2.6v3.7h2.2v-4.8h2.7v4.8h2.3v-3.7
			h2.7L793,58.5L793,58.5z M790.8,66.2h-1.3v5.4c0.5,0,0.9,0,1.1,0c0.2,0,0.3-0.1,0.3-0.3L790.8,66.2L790.8,66.2z"/>
		<path class="st1" d="M803.1,62.3c1.2,0.9,3.6,2.9,4.2,3.4l-1.7,2.4c-0.6-0.7-1.6-1.8-2.5-2.8v8.3h-2.8V65
			c-1.1,2.2-2.4,4.2-3.7,5.6c-0.3-0.8-1-2.1-1.4-2.8c1.7-1.7,3.5-4.4,4.6-6.9h-4v-2.6h4.6v-3c-1.4,0.3-2.7,0.5-4,0.6
			c-0.1-0.6-0.5-1.6-0.8-2.2c3.5-0.5,7.3-1.4,9.6-2.5l2,2.2c-1.2,0.5-2.6,0.9-4.1,1.2v3.6h4.1v2.6h-4.1L803.1,62.3L803.1,62.3z
			 M811.2,67.6h-2.8V54.2h2.8V67.6z M816.9,51.7v18.5c0,1.7-0.3,2.4-1.3,2.9s-2.6,0.6-4.8,0.6c-0.1-0.8-0.6-2.1-1-3
			c1.6,0.1,3.1,0.1,3.6,0.1s0.6-0.2,0.6-0.6V51.7H816.9z"/>
		<path class="st1" d="M834.2,65.5c-0.1-0.3-0.3-0.7-0.5-1.2c-5.7,0.6-6.6,0.7-7.2,1c-0.1-0.5-0.5-1.7-0.8-2.3
			c-1.6,0.8-3.3,1.7-4.7,2.4l-1.4-2.3c1.5-0.6,3.8-1.5,6-2.4l0.5,2.1l-0.4,0.2c0.6-0.1,1.2-0.6,2-1.2c0.4-0.3,1.1-0.9,1.9-1.7
			c-1.8,0.1-2.4,0.3-2.7,0.4c-0.1-0.5-0.5-1.6-0.8-2.2c0.4-0.1,0.7-0.4,1.1-0.8c0.2-0.3,0.7-0.9,1.3-1.7h-8.2v-2.6h8.9
			c-0.3-0.5-0.6-1-0.8-1.4l2.9-0.7c0.5,0.6,1,1.4,1.3,2h8.5v2.6h-9.9c-0.5,0.7-1.1,1.5-1.7,2.1l2.2-0.1c0.6-0.6,1.1-1.3,1.5-1.9
			l2.2,1.3c-1.6,1.9-3.6,3.8-5.5,5.3l2.5-0.2c-0.3-0.4-0.5-0.8-0.8-1.2l2.1-0.7c0.4,0.5,0.8,1,1.1,1.6l1.6-1.3
			c1.6,0.8,3.7,2.1,4.8,3l-2.1,1.7c-0.8-0.8-2.4-1.9-3.8-2.8c0.4,0.7,0.7,1.4,0.9,2L834.2,65.5z M841.6,69.3h-9.4v4.4h-3v-4.4h-9.4
			v-2.6h9.4V65h3v1.6h9.4V69.3z M824,60.5c-0.7-0.8-2.3-1.9-3.5-2.7l1.9-1.5c1.2,0.7,2.9,1.8,3.7,2.5L824,60.5z M835.2,59.2
			c1-0.7,2.3-2,3.1-3l2.4,1.4c-1,1.1-2.4,2.2-3.3,2.9L835.2,59.2z"/>
	</g>
</g>
<g>
	<g>
		<path class="st3" d="M91.5,218.7h10.9v3h-7.3v4.1h6.2v3h-6.2v4.8h7.6v3H91.5V218.7z"/>
		<path class="st1" d="M105.3,232.9c0-2.9,2.3-4.4,7.8-5c-0.1-1.3-0.6-2.3-2.3-2.3c-1.2,0-2.4,0.6-3.7,1.3l-1.3-2.3
			c1.6-1,3.5-1.8,5.6-1.8c3.4,0,5.2,2,5.2,5.9v7.8h-2.9l-0.2-1.4h-0.1c-1.2,1-2.5,1.8-4.1,1.8C106.8,236.9,105.3,235.1,105.3,232.9z
			 M113,232.8v-2.7c-3.3,0.4-4.4,1.3-4.4,2.5c0,1.1,0.7,1.5,1.8,1.5C111.4,234.1,112.1,233.6,113,232.8z"/>
		<path class="st1" d="M120.1,223.1h2.9l0.3,2.4h0.1c1-1.8,2.4-2.7,3.8-2.7c0.7,0,1.2,0.1,1.6,0.3l-0.6,3c-0.5-0.1-0.9-0.2-1.4-0.2
			c-1.1,0-2.3,0.7-3.1,2.6v8h-3.5v-13.4H120.1z"/>
		<path class="st1" d="M130.6,223.1h2.9l0.3,1.8h0.1c1.2-1.2,2.5-2.1,4.4-2.1c2.9,0,4.2,2,4.2,5.4v8.4H139v-7.9
			c0-2.1-0.6-2.8-1.9-2.8c-1.1,0-1.8,0.5-2.8,1.5v9.2h-3.5v-13.5H130.6z"/>
		<path class="st1" d="M145.7,219c0-1.2,0.8-1.9,2.1-1.9c1.2,0,2,0.8,2,1.9c0,1.2-0.8,1.9-2,1.9C146.5,220.9,145.7,220.1,145.7,219z
			 M146,223.1h3.5v13.4H146V223.1z"/>
		<path class="st1" d="M153.3,223.1h2.9l0.3,1.8h0.1c1.2-1.2,2.5-2.1,4.4-2.1c2.9,0,4.2,2,4.2,5.4v8.4h-3.5v-7.9
			c0-2.1-0.6-2.8-1.9-2.8c-1.1,0-1.8,0.5-2.8,1.5v9.2h-3.5v-13.5H153.3z"/>
		<path class="st1" d="M167.8,238.9c0-1.1,0.7-2.1,1.9-2.8V236c-0.7-0.5-1.2-1.2-1.2-2.3c0-1,0.7-1.9,1.5-2.5v-0.1
			c-0.9-0.7-1.8-1.9-1.8-3.5c0-3.1,2.6-4.8,5.4-4.8c0.7,0,1.5,0.1,2,0.3h4.8v2.6h-2.3c0.3,0.5,0.6,1.2,0.6,2c0,3-2.3,4.6-5.2,4.6
			c-0.5,0-1.2-0.1-1.7-0.3c-0.4,0.3-0.6,0.6-0.6,1.2c0,0.7,0.5,1.1,2.1,1.1h2.3c3.2,0,5,1,5,3.4c0,2.7-2.8,4.8-7.3,4.8
			C170.2,242.3,167.8,241.3,167.8,238.9z M177.3,238.2c0-1-0.8-1.2-2.2-1.2h-1.6c-0.8,0-1.4-0.1-1.9-0.2c-0.6,0.5-0.9,1-0.9,1.6
			c0,1.1,1.2,1.8,3.2,1.8C175.9,240.1,177.3,239.2,177.3,238.2z M175.7,227.6c0-1.6-0.9-2.4-2.1-2.4s-2.1,0.9-2.1,2.4
			c0,1.6,0.9,2.5,2.1,2.5S175.7,229.2,175.7,227.6z"/>
		<path class="st1" d="M188.7,218.7h6.2c3.7,0,6.7,1.3,6.7,5.4c0,2.7-1.3,4.3-3.4,5.1l4.2,7.3h-4l-3.6-6.7h-2.5v6.7h-3.6V218.7z
			 M194.6,227c2.3,0,3.6-1,3.6-2.9s-1.3-2.6-3.6-2.6h-2.3v5.4h2.3V227z"/>
		<path class="st1" d="M203.7,229.8c0-4.3,3.1-7.1,6.3-7.1c3.7,0,5.6,2.7,5.6,6.4c0,0.7-0.1,1.3-0.2,1.6h-8.3
			c0.3,2.2,1.7,3.4,3.7,3.4c1.1,0,2.1-0.3,3-0.9l1.2,2.2c-1.3,0.9-3,1.5-4.7,1.5C206.6,236.9,203.7,234.2,203.7,229.8z M212.5,228.4
			c0-1.8-0.8-3-2.5-3c-1.4,0-2.7,1-2.9,3H212.5z"/>
		<path class="st1" d="M216.8,223.1h3.6l2,6.7c0.4,1.3,0.7,2.7,1.1,4.1h0.1c0.4-1.4,0.7-2.8,1.1-4.1l2-6.7h3.4l-4.5,13.4h-4.1
			L216.8,223.1z"/>
		<path class="st1" d="M231.9,219c0-1.2,0.8-1.9,2.1-1.9c1.2,0,2,0.8,2,1.9c0,1.2-0.8,1.9-2,1.9C232.7,220.9,231.9,220.1,231.9,219z
			 M232.2,223.1h3.5v13.4h-3.5V223.1z"/>
		<path class="st1" d="M238.2,235l1.6-2.2c1.2,0.9,2.4,1.5,3.6,1.5c1.3,0,1.9-0.6,1.9-1.4c0-1-1.4-1.5-2.8-2
			c-1.7-0.6-3.6-1.7-3.6-3.9c0-2.4,1.9-4.1,5-4.1c1.9,0,3.5,0.8,4.6,1.7l-1.6,2.1c-1-0.7-1.9-1.2-2.9-1.2c-1.2,0-1.8,0.5-1.8,1.3
			c0,1,1.2,1.3,2.7,1.9c1.8,0.7,3.7,1.6,3.7,4.1c0,2.4-1.8,4.2-5.4,4.2C241.5,236.9,239.5,236.1,238.2,235z"/>
		<path class="st1" d="M250.5,229.8c0-4.3,3.1-7.1,6.3-7.1c3.7,0,5.6,2.7,5.6,6.4c0,0.7-0.1,1.3-0.2,1.6h-8.3
			c0.3,2.2,1.7,3.4,3.7,3.4c1.1,0,2.1-0.3,3-0.9l1.2,2.2c-1.3,0.9-3,1.5-4.7,1.5C253.4,236.9,250.5,234.2,250.5,229.8z M259.4,228.4
			c0-1.8-0.8-3-2.5-3c-1.4,0-2.7,1-2.9,3H259.4z"/>
		<path class="st1" d="M98.9,254.3c-0.2,0.2-0.4,0.4-0.6,0.6c-0.2-0.3-0.7-0.8-1.2-1.2c0.2,1.4,0.3,2.8,0.3,4.2
			c0,3.3-0.3,6.4-1.3,7.9c-0.4,0.5-0.8,0.8-1.4,0.9c-0.9,0.2-1.9,0.3-3.1,0.2c0-0.9-0.3-1.9-0.7-2.7c1.2,0.1,2.1,0.1,2.6,0
			c0.3,0,0.5-0.2,0.7-0.4c0.5-0.7,0.7-2.9,0.7-5.7c-1,1.4-2.2,2.7-3.3,3.6c-0.3-0.7-1-1.8-1.5-2.4c1.7-1,3.6-3.1,4.6-5.2
			c-0.1-0.8-0.3-1.6-0.6-2.3c-0.9,0.9-1.8,1.8-2.7,2.5c-0.3-0.7-1-1.9-1.5-2.5c0.9-0.6,1.9-1.5,2.9-2.4c-0.6-0.9-1.3-1.7-2.2-2.5
			l1.9-1.5c0.8,0.7,1.5,1.4,2.1,2.1c0.6-0.7,1-1.4,1.4-2l2,1.4c-0.6,0.9-1.2,1.9-2,2.9c0.5,1,0.8,2,1.1,3c1.1-1,2.2-2.3,3-3.5
			l1.4,0.5v-1.2H98v-2h3.5V245h2.5v4.8l1.5-0.8c0.2,0.2,0.4,0.4,0.6,0.7V245h2.6v1.5h3.7v2h-3.7v1.3h-2.5c0.4,0.5,0.8,1,1.1,1.3h4.2
			v1.7h-4.6v0.7h4.1v1.4h-4.1v0.8h4.1v1.4h-4.1v0.8h4.9v1.7h-10.3v0.5h-2.4v-5.8H98.9z M111.8,261.4c-1,1.3-2.4,2.3-4,3.2
			c1.6,0.3,3.2,0.5,4.9,0.7c-0.6,0.5-1.3,1.5-1.6,2.2c-2.4-0.3-4.7-0.7-6.8-1.4c-2.1,0.6-4.3,1.1-6.6,1.4c-0.2-0.6-0.8-1.7-1.2-2.2
			c1.6-0.1,3.1-0.3,4.6-0.6c-0.9-0.5-1.7-1.1-2.4-1.7l1-0.4h-1.5v-2h11.5l0.4-0.1L111.8,261.4z M104.3,252.8h-2.9v0.7h2.9V252.8z
			 M104.3,254.9h-2.9v0.8h2.9V254.9z M104.3,257.2h-2.9v0.8h2.9V257.2z M101.5,249.8l0.8,0.3c-0.2,0.4-0.5,0.7-0.7,1.1h2.7
			c-0.3-0.4-0.6-0.8-1-1.1l0.5-0.2L101.5,249.8L101.5,249.8z M101.8,262.5c0.8,0.5,1.7,0.9,2.7,1.2c1-0.3,1.9-0.7,2.7-1.2H101.8z"/>
		<path class="st1" d="M121.7,256c1.2,0.9,3.6,2.9,4.2,3.4l-1.7,2.4c-0.6-0.7-1.6-1.8-2.5-2.8v8.3h-2.8v-8.6
			c-1.1,2.2-2.4,4.2-3.7,5.6c-0.3-0.8-1-2.1-1.4-2.8c1.7-1.7,3.5-4.4,4.6-6.9h-4V252h4.6v-3c-1.4,0.3-2.7,0.5-4,0.6
			c-0.1-0.6-0.5-1.6-0.8-2.2c3.5-0.5,7.3-1.4,9.6-2.5l2,2.2c-1.2,0.5-2.6,0.9-4.1,1.2v3.6h4.1v2.6h-4.1V256z M129.8,261.3H127v-13.4
			h2.8V261.3z M135.5,245.4v18.5c0,1.7-0.3,2.4-1.3,2.9s-2.6,0.6-4.8,0.6c-0.1-0.8-0.6-2.1-1-3c1.6,0.1,3.1,0.1,3.6,0.1
			s0.6-0.2,0.6-0.6v-18.5H135.5z"/>
		<path class="st1" d="M160.2,263.3v2.9h-21.8v-2.9h8.6v-18.1h3.1v6.9h8.5v2.9h-8.5v8.3L160.2,263.3L160.2,263.3z"/>
		<path class="st1" d="M169,245.8c-0.5,1.5-1.1,3-1.8,4.5v17h-2.7v-12c-0.5,0.7-1,1.4-1.5,2c-0.2-0.7-0.9-2.3-1.4-3.1
			c1.9-2.3,3.7-5.8,4.8-9.3L169,245.8z M182.4,249.7c-0.7,1.4-1.6,2.5-2.7,3.5c1.5,0.7,3.2,1.3,5.2,1.6c-0.5,0.5-1.2,1.6-1.5,2.3
			c-2.2-0.5-4.1-1.3-5.7-2.3c-1.6,1.1-3.5,1.9-5.5,2.5c-0.2-0.4-0.8-1.2-1.2-1.7v7.8h-2.5V248h2.5v2.5c1.6-1.5,2.9-3.5,3.6-5.6
			l2.6,0.6c-0.2,0.6-0.5,1.2-0.8,1.8h7.8v2.3h-1.8V249.7z M171,255c1.7-0.4,3.2-1,4.6-1.8c-0.7-0.6-1.3-1.2-1.8-1.8
			c-0.4,0.5-0.9,1-1.4,1.4c-0.3-0.3-0.9-0.8-1.4-1.2L171,255L171,255z M184.4,261.9c-2.5,2.9-6.7,4.5-11.6,5.4
			c-0.3-0.7-0.9-1.6-1.4-2.3c4.4-0.6,8.6-1.9,10.6-4.2L184.4,261.9z M179.9,256.9c-1.5,1.5-3.9,2.6-6.1,3.4c-0.3-0.5-1-1.2-1.5-1.6
			c2-0.5,4.3-1.5,5.5-2.6L179.9,256.9z M182.2,259c-1.9,2.1-5.1,3.5-8.4,4.3c-0.3-0.5-0.9-1.3-1.4-1.8c3-0.6,6.1-1.8,7.7-3.4
			L182.2,259z M175.2,249.7c0.6,0.8,1.4,1.5,2.3,2.2c0.8-0.6,1.4-1.4,1.9-2.2H175.2z"/>
	</g>
</g>
<g>
	<g>
		<path class="st3" d="M639.7,234.3l2-2.4c1.3,1.2,3,2,4.5,2c1.8,0,2.8-0.8,2.8-2c0-1.3-1.1-1.7-2.7-2.4l-2.4-1
			c-1.8-0.7-3.6-2.2-3.6-4.8c0-2.9,2.5-5.1,6.1-5.1c2.1,0,4.1,0.8,5.6,2.3l-1.8,2.2c-1.1-0.9-2.3-1.5-3.8-1.5
			c-1.6,0-2.5,0.7-2.5,1.9c0,1.3,1.2,1.7,2.8,2.3l2.3,1c2.2,0.9,3.6,2.3,3.6,4.8c0,2.9-2.4,5.4-6.5,5.4
			C643.8,236.9,641.4,235.9,639.7,234.3z"/>
		<path class="st1" d="M654.7,229.8c0-4.5,3.1-7.1,6.5-7.1s6.5,2.6,6.5,7.1s-3.1,7.1-6.5,7.1S654.7,234.3,654.7,229.8z M664,229.8
			c0-2.5-1-4.2-2.9-4.2s-2.9,1.7-2.9,4.2s1,4.2,2.9,4.2S664,232.3,664,229.8z"/>
		<path class="st1" d="M671,225.9h-1.8v-2.6l1.8-0.1V222c0-2.8,1.3-5,4.7-5c1,0,1.9,0.2,2.5,0.5l-0.6,2.6c-0.5-0.2-1-0.3-1.4-0.3
			c-1.1,0-1.6,0.6-1.6,2.1v1.2h2.5v2.8h-2.5v10.7h-3.5v-10.7H671z"/>
		<path class="st1" d="M679.9,231.8v-6H678v-2.6l2.1-0.2l0.4-3.6h2.9v3.6h3.3v2.8h-3.3v6c0,1.5,0.6,2.3,1.8,2.3c0.4,0,1-0.1,1.3-0.3
			l0.6,2.6c-0.7,0.2-1.7,0.5-2.8,0.5C681.1,236.9,679.9,234.8,679.9,231.8z"/>
		<path class="st1" d="M688.2,223.1h3.5l1.5,6.6c0.3,1.3,0.4,2.6,0.7,3.9h0.1c0.3-1.3,0.5-2.6,0.8-3.9l1.6-6.6h3.1l1.7,6.6
			c0.3,1.3,0.6,2.6,0.8,3.9h0.1c0.2-1.3,0.4-2.6,0.7-3.9l1.5-6.6h3.3l-3.3,13.4h-4.2l-1.4-5.9c-0.3-1.3-0.5-2.5-0.8-3.9h-0.1
			c-0.3,1.4-0.5,2.7-0.7,3.9l-1.4,5.9h-4L688.2,223.1z"/>
		<path class="st1" d="M709.2,232.9c0-2.9,2.3-4.4,7.8-5c-0.1-1.3-0.6-2.3-2.3-2.3c-1.2,0-2.4,0.6-3.7,1.3l-1.3-2.3
			c1.6-1,3.5-1.8,5.6-1.8c3.4,0,5.2,2,5.2,5.9v7.8h-2.9l-0.2-1.4h-0.1c-1.2,1-2.5,1.8-4.1,1.8C710.8,236.9,709.2,235.1,709.2,232.9z
			 M716.9,232.8v-2.7c-3.3,0.4-4.4,1.3-4.4,2.5c0,1.1,0.7,1.5,1.8,1.5C715.3,234.1,716.1,233.6,716.9,232.8z"/>
		<path class="st1" d="M724,223.1h2.9l0.3,2.4h0.1c1-1.8,2.4-2.7,3.8-2.7c0.7,0,1.2,0.1,1.6,0.3l-0.6,3c-0.5-0.1-0.9-0.2-1.4-0.2
			c-1.1,0-2.3,0.7-3.1,2.6v8h-3.5L724,223.1L724,223.1z"/>
		<path class="st1" d="M733.4,229.8c0-4.3,3.1-7.1,6.3-7.1c3.7,0,5.6,2.7,5.6,6.4c0,0.7-0.1,1.3-0.2,1.6h-8.3
			c0.3,2.2,1.7,3.4,3.7,3.4c1.1,0,2.1-0.3,3-0.9l1.2,2.2c-1.3,0.9-3,1.5-4.7,1.5C736.3,236.9,733.4,234.2,733.4,229.8z M742.2,228.4
			c0-1.8-0.8-3-2.5-3c-1.4,0-2.7,1-2.9,3H742.2z"/>
		<path class="st1" d="M757.3,218.7h4.2l5.7,17.8h-3.7l-1.2-4.6h-5.8l-1.2,4.6h-3.6L757.3,218.7z M757.2,229.2h4.2l-0.5-1.9
			c-0.6-1.8-1-3.9-1.5-5.8h-0.1c-0.5,1.9-1,4-1.5,5.8L757.2,229.2z"/>
		<path class="st1" d="M769.3,218.7h3.6v17.8h-3.6V218.7z"/>
		<path class="st1" d="M646,263.6v3.8h-2.3v-3.8h-4.1v-2.5h4.1v-1.4h-3.5V251h3.5v-1.3h-3.9v-2.5h3.9V245h2.4v2.3h4v2.5h-4v1.3h3.5
			v8.7H646v1.4h4.2v2.5L646,263.6L646,263.6z M642.2,254.4h1.7V253h-1.7V254.4z M642.2,257.7h1.7v-1.4h-1.7V257.7z M647.5,253h-1.7
			v1.4h1.7V253z M647.5,256.3h-1.7v1.4h1.7V256.3z M662.2,264.9c-0.6,0.6-1.5,1.7-1.9,2.4c-2.1-1.2-3.6-3.3-4.5-5.9
			c-0.8,2.1-2.3,4.2-4.8,5.9c-0.5-0.6-1.5-1.6-2.2-2.1c4.9-3.2,5.3-7.8,5.3-10.7v-1.1h2.8v1.2c0,0.5,0,1.1,0,1.7
			C657.7,260.1,659.3,263.4,662.2,264.9z M654,251.8c-0.5,1.7-1.1,3.2-1.9,4.3c-0.5-0.4-1.7-1.3-2.3-1.6c1.6-2.2,2.4-5.8,2.8-9.6
			l2.8,0.4c-0.2,1.3-0.4,2.7-0.7,4h4.8l0.4-0.1l1.9,0.5c-0.4,2.4-1,5.1-1.5,6.9L658,256c0.2-1.1,0.5-2.6,0.8-4.1L654,251.8
			L654,251.8z"/>
		<path class="st1" d="M672.3,256.3v8.6c0,1-0.2,1.6-0.8,2s-1.5,0.4-2.8,0.4c-0.1-0.6-0.4-1.5-0.6-2.1c0.7,0,1.4,0,1.6,0
			c0.2,0,0.3-0.1,0.3-0.3v-2.2c-0.8,0.5-1.6,1-2.3,1.5l-0.6-1.3c-0.2,1.6-0.6,3.4-1.4,4.6c-0.4-0.4-1.5-1.1-2-1.4
			c1.2-1.8,1.3-4.2,1.3-6.1v-3.7h-1.3v-3.7h0.9v-6.8h7.8v6.8h1v3.7H672.3z M671.2,254.5h-5.5v1h5.5V254.5z M666.8,252.6h0.9v-3.8
			h2.3v-1h-3.3L666.8,252.6L666.8,252.6z M667.1,260c0,0.7,0,1.4-0.1,2.2c0.8-0.3,1.8-0.8,2.9-1.3v-1.1l-1,1.1
			c-0.4-0.4-1.2-1.1-1.8-1.6L667.1,260L667.1,260z M667.1,258.7l0.8-0.8c0.7,0.5,1.5,1,2,1.4v-2h-2.8V258.7z M670,252.6v-2.2h-0.9
			v2.2H670z M685.9,265v2.1h-12.7V265h2.8c-0.2-0.6-0.4-1.2-0.6-1.8l1.5-0.5h-2.5V258h10.3v4.7H682l1.8,0.5
			c-0.4,0.6-0.7,1.2-1.1,1.7L685.9,265L685.9,265z M685.7,257.3h-12.2v-2h12.2V257.3z M685.2,254.4h-11.4v-7.7h2.8V245h2.2v1.7h1.1
			V245h2.2v1.7h3.1L685.2,254.4L685.2,254.4z M675.9,249.7h1.2v-1.1h-1.2V249.7z M675.9,252.5h1.2v-1.1h-1.2V252.5z M676.9,261h5.2
			v-1.2h-5.2V261z M677.7,262.7c0.3,0.7,0.6,1.5,0.8,2.2h1.9c0.3-0.7,0.6-1.5,0.8-2.2H677.7z M680,249.7v-1.1h-1.2v1.1H680z
			 M678.9,251.4v1.1h1.2v-1.1H678.9z M683,248.6h-1.3v1.1h1.3V248.6z M683,251.4h-1.3v1.1h1.3V251.4z"/>
		<path class="st1" d="M696.8,256.9c-0.7-0.6-2-1.6-3.1-2.3c-0.9,1.2-2.3,2.4-4.4,3.5c-0.4-0.6-1.2-1.5-1.8-1.9
			c2.4-1,3.7-2.1,4.3-3.3h-4v-2.2h1.6c-0.6-0.4-1.3-0.8-1.8-1c1.2-1.2,2.2-2.9,2.6-4.7l2.5,0.5c-0.1,0.5-0.3,0.9-0.5,1.4h6v2.2h-3.1
			v1.1c0,0.2,0,0.3,0,0.5h3.7v2.2h-4c1,0.5,3.4,1.9,4,2.3L696.8,256.9z M692.3,250.6c0-0.2,0-0.4,0-0.5v-1h-1.2
			c-0.3,0.6-0.7,1.1-1.1,1.6h2.3V250.6z M690.9,257.3h15.6v10.1h-2.9v-0.8h-9.9v0.8h-2.8V257.3z M693.7,259.5v1.3h9.9v-1.3H693.7z
			 M703.6,264.3v-1.4h-9.9v1.4H703.6z M708.6,246.7v9.1h-9.1v-9.1H708.6z M705.8,249.3h-3.6v4.1h3.6V249.3z"/>
		<path class="st1" d="M722,264.8c0,1.2-0.2,1.8-1,2.2c-0.8,0.4-1.8,0.4-3.3,0.4c-0.1-0.7-0.5-1.6-0.9-2.2c0.9,0,1.8,0,2.1,0
			s0.4-0.1,0.4-0.4v-2.4c-1.2,0.9-2.4,1.7-3.5,2.4l-0.6-1.7c-0.3,1.6-0.8,3.3-1.7,4.5c-0.4-0.6-1.5-1.6-2-1.9
			c1.3-1.9,1.4-4.5,1.4-6.6v-5.4h9.1V264.8z M720.7,246.8c1,1.7,2.3,4.1,2.9,5.5l-2.5,1c-0.1-0.4-0.4-0.9-0.6-1.5
			c-6.1,0.6-7.1,0.7-7.8,1c-0.1-0.6-0.6-1.8-0.9-2.6c0.4-0.1,0.8-0.4,1.3-1c0.5-0.5,1.9-2.4,2.8-4.3l2.9,0.8c-0.8,1.4-1.9,2.8-3,4
			l3.5-0.3c-0.4-0.7-0.7-1.4-1-1.9L720.7,246.8z M715.6,259c0,0.9,0,2-0.2,3.1c1.1-0.5,2.5-1.2,3.9-2v-0.8l-1.2,1.1
			c-0.6-0.6-1.7-1.6-2.6-2.3L715.6,259L715.6,259z M715.6,256v1.7l1.2-1c0.8,0.6,1.8,1.4,2.6,2V256H715.6z M727.4,255.6
			c-2.9,0-3.6-1.1-3.6-3.7V245h2.8v2.8h5.9v2.4h-5.9v1.6c0,0.9,0.1,1.2,0.9,1.2h3.5c0.7,0,1.7-0.1,2.2-0.2c0,0.7,0.2,1.8,0.3,2.4
			c-0.5,0.2-1.5,0.2-2.4,0.2h-3.7V255.6z M730.5,264.7c0.8,0,1-0.4,1.1-2.6c0.6,0.4,1.7,0.9,2.5,1c-0.3,3.1-1,4.1-3.3,4.1h-3.4
			c-2.8,0-3.5-0.8-3.5-3.5v-7.5h2.8v2.4h6.1v2.5h-6.1v2.6c0,0.8,0.2,1,1.1,1H730.5z"/>
	</g>
</g>
<line class="st4" x1="336.1" y1="72.2" x2="549.4" y2="72.2"/>
<line class="st4" x1="336.1" y1="137.1" x2="549.4" y2="137.1"/>
<g>
	<g>
		<defs>
			<rect id="SVGID_00000121242274622989310240000007358963651623344303_" x="135.6" y="671.7" width="662.2" height="297.5"/>
		</defs>
		<clipPath id="SVGID_00000149344609080827194930000011167848061139992193_">
			<use xlink:href="#SVGID_00000121242274622989310240000007358963651623344303_"  style="overflow:visible;"/>
		</clipPath>
		
			<circle style="clip-path:url(#SVGID_00000149344609080827194930000011167848061139992193_);fill:none;stroke:#BA1019;stroke-width:67;stroke-miterlimit:10;" cx="456.8" cy="671.7" r="248.2"/>
	</g>
</g>
<text transform="matrix(1 0 0 1 323.9702 721.4956)" class="st1" style="font-family:'SourceHanSansTC-Medium-B5pc-H'; font-size:26px;">２０２４年關鍵投資</text>
<text transform="matrix(1 0 0 1 325.8702 790.9757)" class="st1" style="font-family:'SourceHanSansTC-Bold-B5pc-H'; font-size:47px; letter-spacing:13;">ＢＥＳＴ</text>
<circle class="st2" cx="338.1" cy="890.3" r="17.9"/>
<g>
	
		<text transform="matrix(1 0 0 1 322.8779 902.1016)" class="st1" style="font-family:'SourceHanSansTC-Bold-B5pc-H'; font-size:28.841px;">Ｅ</text>
</g>
<circle class="st2" cx="576.6" cy="890.3" r="17.9"/>
<g>
	
		<text transform="matrix(1 0 0 1 561.3596 902.1016)" class="st1" style="font-family:'SourceHanSansTC-Bold-B5pc-H'; font-size:28.841px;">Ｓ</text>
</g>
<circle class="st2" cx="211.1" cy="714.5" r="17.9"/>
<g>
	
		<text transform="matrix(1 0 0 1 195.8885 726.2968)" class="st1" style="font-family:'SourceHanSansTC-Bold-B5pc-H'; font-size:28.841px;">Ｂ</text>
</g>
<circle class="st2" cx="703.6" cy="714.5" r="17.9"/>
<g>
	
		<text transform="matrix(1 0 0 1 688.3868 726.2968)" class="st1" style="font-family:'SourceHanSansTC-Bold-B5pc-H'; font-size:28.841px;">Ｔ</text>
</g>
<g>
	
		<text transform="matrix(1 0 0 1 -0.5518 714.4651)" class="st3" style="font-family:'SourceHanSansTC-Bold-B5pc-H'; font-size:24px;">B</text>
	
		<text transform="matrix(1 0 0 1 15.7482 714.4651)" class="st1" style="font-family:'SourceHanSansTC-Bold-B5pc-H'; font-size:24px;">ond Picking</text>
	
		<text transform="matrix(1 0 0 1 -0.5518 742.0873)" class="st1" style="font-family:'SourceHanSansTC-Bold-B5pc-H'; font-size:24px;">選擇好債</text>
</g>
<g>
	
		<text transform="matrix(1 0 0 1 746.7245 714.4651)" class="st3" style="font-family:'SourceHanSansTC-Bold-B5pc-H'; font-size:24px;">T</text>
	
		<text transform="matrix(1 0 0 1 761.7245 714.4651)" class="st1" style="font-family:'SourceHanSansTC-Bold-B5pc-H'; font-size:24px;">erminal Rate</text>
	
		<text transform="matrix(1 0 0 1 746.7245 742.0873)" class="st1" style="font-family:'SourceHanSansTC-Bold-B5pc-H'; font-size:24px;">終端利率</text>
</g>
<g>
	
		<text transform="matrix(1 0 0 1 89.3062 908.1799)" class="st3" style="font-family:'SourceHanSansTC-Bold-B5pc-H'; font-size:24px;">E</text>
	
		<text transform="matrix(1 0 0 1 104.1061 908.1799)" class="st1" style="font-family:'SourceHanSansTC-Bold-B5pc-H'; font-size:24px;">arning Revise</text>
	
		<text transform="matrix(1 0 0 1 89.3062 935.8022)" class="st1" style="font-family:'SourceHanSansTC-Bold-B5pc-H'; font-size:24px;">獲利上修</text>
</g>
<g>
	
		<text transform="matrix(1 0 0 1 638.6818 908.1798)" class="st3" style="font-family:'SourceHanSansTC-Bold-B5pc-H'; font-size:24px;">S</text>
	
		<text transform="matrix(1 0 0 1 653.6818 908.1798)" class="st1" style="font-family:'SourceHanSansTC-Bold-B5pc-H'; font-size:24px;">oftware AI</text>
	
		<text transform="matrix(1 0 0 1 638.6818 935.8021)" class="st1" style="font-family:'SourceHanSansTC-Bold-B5pc-H'; font-size:24px;">軟體智能</text>
</g>
<line class="st4" x1="336.1" y1="743.8" x2="549.4" y2="743.8"/>
<line class="st4" x1="336.1" y1="808.8" x2="549.4" y2="808.8"/>
</svg>
