<?xml version="1.0" encoding="utf-8"?>
<!-- Generator: Adobe Illustrator 27.8.1, SVG Export Plug-In . SVG Version: 6.00 Build 0)  -->
<svg version="1.1" id="分離模式" xmlns="http://www.w3.org/2000/svg" xmlns:xlink="http://www.w3.org/1999/xlink" x="0px"
	 y="0px" viewBox="0 0 860 516" style="enable-background:new 0 0 860 516;" xml:space="preserve">
<style type="text/css">
	.st0{fill:#ADADAD;}
	.st1{fill:#3C3C3B;}
	.st2{fill:#FFFFFF;stroke:#000000;stroke-miterlimit:10;}
	.st3{fill:#FFC9A4;}
	.st4{fill:#D8ADD8;}
	.st5{fill:#7A167F;}
	.st6{fill:#CCEA78;}
	.st7{fill:#BA1019;}
	.st8{fill:#FFFFFF;}
	.st9{fill:#E85E00;}
	.st10{fill:#A622AA;}
	.st11{fill:#799907;}
</style>
<text transform="matrix(1 0 0 1 17.7789 815.2591)"><tspan x="0" y="0" style="font-family:'SourceHanSansTC-Medium-B5pc-H'; font-size:19.6495px;">14</tspan><tspan x="0" y="45.8" style="font-family:'SourceHanSansTC-Medium-B5pc-H'; font-size:19.6495px;">12</tspan><tspan x="0" y="91.7" style="font-family:'SourceHanSansTC-Medium-B5pc-H'; font-size:19.6495px;">10</tspan><tspan x="11.2" y="137.5" style="font-family:'SourceHanSansTC-Medium-B5pc-H'; font-size:19.6495px;">8</tspan><tspan x="11.2" y="183.4" style="font-family:'SourceHanSansTC-Medium-B5pc-H'; font-size:19.6495px;">6</tspan><tspan x="11.2" y="229.2" style="font-family:'SourceHanSansTC-Medium-B5pc-H'; font-size:19.6495px;">4</tspan><tspan x="11.2" y="275.1" style="font-family:'SourceHanSansTC-Medium-B5pc-H'; font-size:19.6495px;">2</tspan><tspan x="11.2" y="320.9" style="font-family:'SourceHanSansTC-Medium-B5pc-H'; font-size:19.6495px;">0</tspan></text>
<text transform="matrix(1 0 0 1 3.8707 765.678)" style="font-family:'SourceHanSansTC-Medium-B5pc-H'; font-size:15.283px;">到期殖利率，%</text>
<text transform="matrix(1 0 0 1 291.9161 712.5809)" class="st7" style="font-family:'SourceHanSansTC-Medium-B5pc-H'; font-size:21.0743px;">不同債券面對金融壓力相關性</text>
<text transform="matrix(1 0 0 1 347.1519 737.9437)" style="font-family:'SourceHanSansTC-Medium-B5pc-H'; font-size:15.8057px;">(金融壓力與債券關聯圖)</text>
<text transform="matrix(1 0 0 1 715.4434 1121.8577)" style="font-family:'SourceHanSansTC-Medium-B5pc-H'; font-size:15.283px;">高盛金融壓力相關性</text>
<text transform="matrix(1 0 0 1 52.713 1172.4558)"><tspan x="0" y="0" style="font-family:'SourceHanSansTC-Medium-B5pc-H'; font-size:19.6495px; letter-spacing:49;">0</tspan><tspan x="60.3" y="0" style="font-family:'SourceHanSansTC-Medium-B5pc-H'; font-size:19.6495px;">0.</tspan><tspan x="77.4" y="0" style="font-family:'SourceHanSansTC-Medium-B5pc-H'; font-size:19.6495px; letter-spacing:49;">1</tspan><tspan x="137.7" y="0" style="font-family:'SourceHanSansTC-Medium-B5pc-H'; font-size:19.6495px;">0.</tspan><tspan x="154.8" y="0" style="font-family:'SourceHanSansTC-Medium-B5pc-H'; font-size:19.6495px; letter-spacing:49;">2</tspan><tspan x="215.1" y="0" style="font-family:'SourceHanSansTC-Medium-B5pc-H'; font-size:19.6495px;">0.</tspan><tspan x="232.1" y="0" style="font-family:'SourceHanSansTC-Medium-B5pc-H'; font-size:19.6495px; letter-spacing:49;">3</tspan><tspan x="292.5" y="0" style="font-family:'SourceHanSansTC-Medium-B5pc-H'; font-size:19.6495px;">0.</tspan><tspan x="309.5" y="0" style="font-family:'SourceHanSansTC-Medium-B5pc-H'; font-size:19.6495px; letter-spacing:49;">4</tspan><tspan x="369.8" y="0" style="font-family:'SourceHanSansTC-Medium-B5pc-H'; font-size:19.6495px;">0.</tspan><tspan x="386.9" y="0" style="font-family:'SourceHanSansTC-Medium-B5pc-H'; font-size:19.6495px; letter-spacing:49;">5</tspan><tspan x="447.2" y="0" style="font-family:'SourceHanSansTC-Medium-B5pc-H'; font-size:19.6495px;">0.</tspan><tspan x="464.3" y="0" style="font-family:'SourceHanSansTC-Medium-B5pc-H'; font-size:19.6495px; letter-spacing:49;">6</tspan><tspan x="524.6" y="0" style="font-family:'SourceHanSansTC-Medium-B5pc-H'; font-size:19.6495px;">0.</tspan><tspan x="541.7" y="0" style="font-family:'SourceHanSansTC-Medium-B5pc-H'; font-size:19.6495px; letter-spacing:49;">7</tspan><tspan x="602" y="0" style="font-family:'SourceHanSansTC-Medium-B5pc-H'; font-size:19.6495px;">0.</tspan><tspan x="619" y="0" style="font-family:'SourceHanSansTC-Medium-B5pc-H'; font-size:19.6495px; letter-spacing:49;">8</tspan><tspan x="679.4" y="0" style="font-family:'SourceHanSansTC-Medium-B5pc-H'; font-size:19.6495px;">0.</tspan><tspan x="696.4" y="0" style="font-family:'SourceHanSansTC-Medium-B5pc-H'; font-size:19.6495px; letter-spacing:49;">9</tspan><tspan x="756.7" y="0" style="font-family:'SourceHanSansTC-Medium-B5pc-H'; font-size:19.6495px;">1</tspan></text>
<rect x="476" y="788.1" transform="matrix(-1 -1.224647e-16 1.224647e-16 -1 1257.0092 1605.1062)" class="st0" width="305.1" height="29"/>
<path class="st1" d="M829.2,1145.3H62.2c-3.2,0-8.8,1.1-8.8-4.4s8.3-4.4,8.3-4.4h767.4c3.2,0,5.7,2,5.7,4.4
	C834.9,1143.3,832.3,1145.3,829.2,1145.3z"/>
<g>
	<polygon class="st0" points="768.1,780.7 775.9,803.2 768.1,825.7 811.9,803.2 	"/>
</g>
<line class="st2" x1="438.1" y1="793.2" x2="438.1" y2="1130.1"/>
<text transform="matrix(1 0 0 1 516.9048 808.952)" class="st8" style="font-family:'SourceHanSansTC-Medium-B5pc-H'; font-size:15.283px;">受到 High For Longer 影響較大</text>
<rect x="102.1" y="788.1" class="st0" width="305.1" height="29"/>
<g>
	<polygon class="st0" points="115.1,825.7 107.2,803.2 115.1,780.7 71.3,803.2 	"/>
</g>
<text transform="matrix(1 0 0 1 139.4068 808.952)" class="st8" style="font-family:'SourceHanSansTC-Medium-B5pc-H'; font-size:15.283px;">受到 High For Longer 影響較小</text>
<circle class="st3" cx="94.6" cy="1006.7" r="8"/>
<text transform="matrix(1 0 0 1 110.9005 1011.8361)" class="st9" style="font-family:'SourceHanSansTC-Regular-B5pc-H'; font-size:15.8057px;">美國投資等級債</text>
<circle class="st3" cx="651.8" cy="908.4" r="8"/>
<text transform="matrix(1 0 0 1 667.684 913.5569)" class="st9" style="font-family:'SourceHanSansTC-Regular-B5pc-H'; font-size:15.8057px;">美國非投資等級債</text>
<circle class="st4" cx="323.6" cy="1030.4" r="8"/>
<text transform="matrix(1 0 0 1 340.697 1036.8888)" class="st10" style="font-family:'SourceHanSansTC-Regular-B5pc-H'; font-size:15.8057px;">歐洲投資等級債</text>
<circle class="st5" cx="628.5" cy="931.2" r="8"/>
<text transform="matrix(1 0 0 1 645.2325 937.6849)" class="st5" style="font-family:'SourceHanSansTC-Regular-B5pc-H'; font-size:15.8057px;">歐洲非投資等級債</text>
<circle class="st6" cx="481.1" cy="937.1" r="8"/>
<g>
	
		<text transform="matrix(1 0 0 1 494.4254 943.5042)" class="st11" style="font-family:'SourceHanSansTC-Regular-B5pc-H'; font-size:15.8057px;">EM 投資等級債</text>
</g>
<circle class="st6" cx="579.4" cy="874.8" r="8"/>
<g>
	
		<text transform="matrix(1 0 0 1 591.5049 881.2201)" class="st11" style="font-family:'SourceHanSansTC-Regular-B5pc-H'; font-size:15.8057px;">非EM 投資等級債</text>
</g>
<g>
	
		<text transform="matrix(1 0 0 1 228.712 1223.7063)" style="fill:#494949; font-family:'SourceHanSansTC-Normal-B5pc-H'; font-size:13.0997px;">資料來源：Bloomberg、 Goldman Sachs，統計時間為2023年11月27日</text>
</g>
<g>
	<path d="M19.5,135.2h3.2v-9.7H20V124c1.4-0.2,2.3-0.6,3.1-1.1h1.7v12.2h2.8v1.9h-8.3V135.2z"/>
	<path d="M35.6,133.3h-6.3v-1.5l5.8-8.8h2.6v8.6h1.8v1.7h-1.8v3.7h-2.1V133.3z M35.6,131.5V128c0-0.8,0.1-2,0.1-2.8h-0.1
		c-0.4,0.7-0.7,1.4-1.2,2.1l-2.8,4.3H35.6z"/>
	<path d="M19.5,181h3.2v-9.7H20v-1.4c1.4-0.2,2.3-0.6,3.1-1.1h1.7V181h2.8v1.9h-8.3V181z"/>
	<path d="M29.8,181.6c4-4,6.5-6.5,6.5-8.7c0-1.5-0.8-2.6-2.5-2.6c-1.1,0-2.1,0.7-2.8,1.6l-1.3-1.3c1.2-1.3,2.5-2.2,4.4-2.2
		c2.7,0,4.4,1.7,4.4,4.2c0,2.6-2.3,5.2-5.3,8.3c0.7-0.1,1.7-0.1,2.4-0.1h3.7v1.9h-9.3V181.6z"/>
	<path d="M19.5,226.8h3.2v-9.7H20v-1.4c1.4-0.2,2.3-0.6,3.1-1.1h1.7v12.2h2.8v1.9h-8.3V226.8z"/>
	<path d="M29.9,221.6c0-4.7,1.8-7.3,4.7-7.3c2.9,0,4.7,2.5,4.7,7.3c0,4.7-1.8,7.4-4.7,7.4C31.7,229,29.9,226.4,29.9,221.6z
		 M37.1,221.6c0-4-1-5.5-2.5-5.5c-1.5,0-2.5,1.4-2.5,5.5c0,4,1,5.6,2.5,5.6C36.1,227.2,37.1,225.7,37.1,221.6z"/>
	<path d="M29.9,271c0-1.8,1.3-3,2.6-3.7v-0.1c-1.1-0.8-1.9-1.8-1.9-3.3c0-2.2,1.8-3.7,4.1-3.7c2.5,0,4.1,1.6,4.1,3.8
		c0,1.5-1,2.7-1.9,3.3v0.1c1.3,0.7,2.4,1.7,2.4,3.6c0,2.1-1.9,3.8-4.7,3.8C31.9,274.8,29.9,273.2,29.9,271z M37.1,271
		c0-1.7-1.6-2.2-3.6-3c-1,0.7-1.7,1.7-1.7,2.8c0,1.4,1.2,2.4,2.8,2.4C36.1,273.2,37.1,272.3,37.1,271z M36.8,264.1
		c0-1.3-0.8-2.3-2.2-2.3c-1.2,0-2.1,0.8-2.1,2.1c0,1.5,1.4,2.2,3,2.8C36.4,265.9,36.8,265.1,36.8,264.1z"/>
	<path d="M30,313.9c0-5.5,2.6-7.8,5.5-7.8c1.6,0,2.8,0.7,3.6,1.6l-1.2,1.4c-0.5-0.6-1.4-1.1-2.3-1.1c-1.8,0-3.4,1.4-3.5,5.5
		c0.8-1,2.1-1.7,3.1-1.7c2.4,0,4.1,1.4,4.1,4.3c0,2.8-2,4.6-4.3,4.6C32.2,320.7,30,318.5,30,313.9z M32.2,315.1
		c0.2,2.6,1.3,3.8,2.8,3.8c1.3,0,2.3-1.1,2.3-2.8c0-1.7-0.9-2.7-2.4-2.7C34,313.4,33,313.9,32.2,315.1z"/>
	<path d="M35.6,362.5h-6.3V361l5.8-8.8h2.6v8.6h1.8v1.7h-1.8v3.7h-2.1V362.5z M35.6,360.8v-3.6c0-0.8,0.1-2,0.1-2.8h-0.1
		c-0.4,0.7-0.7,1.4-1.2,2.1l-2.8,4.3H35.6z"/>
	<path d="M29.8,410.8c4-4,6.5-6.5,6.5-8.7c0-1.5-0.8-2.6-2.5-2.6c-1.1,0-2.1,0.7-2.8,1.6l-1.3-1.3c1.2-1.3,2.5-2.2,4.4-2.2
		c2.7,0,4.4,1.7,4.4,4.2c0,2.6-2.3,5.2-5.3,8.3c0.7-0.1,1.7-0.1,2.4-0.1h3.7v1.9h-9.3V410.8z"/>
	<path d="M29.9,450.9c0-4.7,1.8-7.3,4.7-7.3c2.9,0,4.7,2.5,4.7,7.3c0,4.7-1.8,7.4-4.7,7.4C31.7,458.2,29.9,455.6,29.9,450.9z
		 M37.1,450.9c0-4-1-5.5-2.5-5.5c-1.5,0-2.5,1.4-2.5,5.5c0,4,1,5.6,2.5,5.6C36.1,456.4,37.1,454.9,37.1,450.9z"/>
</g>
<g>
	<path d="M17.2,85.8c1-0.2,2-0.4,3.1-0.5l0.1,1.2c-2.7,0.5-5.6,1.1-7.6,1.4l-0.3-1.3c0.9-0.1,2.1-0.3,3.4-0.6v-2.4H13v-1.2h2.9V81
		h1.3v1.5h2.9v1.2h-2.9V85.8z M12.6,75.6h7.8v1.2h-4.1c-0.4,0.9-1,1.8-1.6,2.5l3.4-0.3c-0.3-0.5-0.7-1-1-1.4l1-0.6
		c0.8,1,1.8,2.4,2.2,3.3L19.3,81c-0.1-0.2-0.3-0.6-0.4-0.8c-4.5,0.4-5.1,0.5-5.5,0.6c-0.1-0.3-0.3-0.9-0.5-1.3
		c0.2-0.1,0.5-0.3,0.7-0.7c0.2-0.3,0.7-1.1,1.1-2h-2.2V75.6z M22.5,85.1h-1.3V76h1.3V85.1z M25.5,74.8v11.8c0,0.8-0.2,1.2-0.7,1.4
		c-0.5,0.2-1.3,0.3-2.5,0.3c-0.1-0.4-0.3-1-0.5-1.4c0.9,0,1.7,0,1.9,0c0.3,0,0.3-0.1,0.3-0.3V74.8H25.5z"/>
	<path d="M30.8,85.6c-0.6,1.1-1.4,2.3-2.3,3.1c-0.2-0.2-0.8-0.6-1.1-0.8c0.8-0.7,1.6-1.6,2-2.6L30.8,85.6z M34.9,85h-7.4v-1.2h1.4
		v-6h-1.2v-1.2h1.2v-1.8h1.3v1.8h2.4v-1.8h1.3v1.8h1.1v1.2h-1.1v6h1V85z M30.1,77.8v1.1h2.4v-1.1H30.1z M30.1,81.3h2.4V80h-2.4V81.3
		z M30.1,83.7h2.4v-1.3h-2.4V83.7z M32.7,85.2c0.6,0.7,1.3,1.6,1.7,2.2l-1.1,0.7c-0.3-0.6-1-1.6-1.6-2.3L32.7,85.2z M41,87
		c0,0.7-0.2,1.2-0.6,1.4c-0.5,0.2-1.2,0.3-2.3,0.3c0-0.4-0.2-1-0.4-1.3c0.7,0,1.5,0,1.7,0c0.2,0,0.3-0.1,0.3-0.3v-3.4h-2.8
		c-0.2,1.8-0.5,3.8-1.4,5.2c-0.2-0.3-0.8-0.7-1.1-0.8c1.2-2,1.3-4.8,1.3-7v-5.5H41V87z M39.6,82.3V80h-2.7v0.8c0,0.4,0,0.9,0,1.4
		H39.6z M36.9,76.6v2.2h2.7v-2.2H36.9z"/>
	<path d="M48.2,78.6c-0.5,5-2,8.3-4.3,10c-0.2-0.3-0.7-0.8-1-1c1.1-0.8,2.1-2,2.8-3.6c-0.4-0.5-0.9-1.1-1.5-1.6
		c-0.2,0.4-0.4,0.7-0.6,1.1c-0.2-0.3-0.6-0.8-0.9-1.1c1-1.4,1.7-3.5,2-5.7h-1.6v-1.3h5.2v1.3h-2.3c-0.1,0.6-0.2,1.2-0.4,1.7h1.6
		l0.2,0L48.2,78.6z M45.2,79.7c-0.2,0.6-0.4,1.1-0.5,1.6c0.5,0.4,1,0.9,1.4,1.4c0.3-0.9,0.5-1.9,0.6-3H45.2z M56.7,87.1v1.2h-9.2
		v-1.2h1.5v-8.5h2c0.1-0.4,0.1-0.7,0.2-1.1h-2.8v-1.2h3c0.1-0.6,0.1-1.1,0.2-1.6l1.6,0.1c-0.1,0.5-0.2,1-0.3,1.6h3.5v1.2h-3.8
		c-0.1,0.4-0.2,0.8-0.3,1.1h3.3v8.5H56.7z M50.2,79.6v1.1h3.9v-1.1H50.2z M54.2,81.7h-3.9v1.1h3.9V81.7z M50.2,83.8v1.1h3.9v-1.1
		H50.2z M50.2,87.1h3.9v-1.1h-3.9V87.1z"/>
	<path d="M62.6,79.1h2.8v1.3h-2.8v1c0.7,0.6,2.4,1.9,2.8,2.3L64.6,85c-0.4-0.5-1.2-1.3-2-2v5.7h-1.4v-6.1c-0.7,1.6-1.7,3.1-2.6,4.1
		c-0.2-0.4-0.5-1-0.7-1.4c1.2-1.1,2.4-3,3.1-4.8h-2.8v-1.3h3.1v-2.3c-0.9,0.2-1.9,0.3-2.8,0.4c-0.1-0.3-0.3-0.8-0.4-1.1
		c2.2-0.3,4.8-0.9,6.2-1.5l1,1.1c-0.8,0.3-1.7,0.6-2.7,0.8V79.1z M67.7,84.8h-1.4v-8.4h1.4V84.8z M71.4,74.9v11.9
		c0,0.9-0.2,1.3-0.7,1.5c-0.6,0.2-1.5,0.3-2.9,0.3c-0.1-0.4-0.3-1.1-0.5-1.5c1,0,2,0,2.3,0c0.3,0,0.4-0.1,0.4-0.4V74.9H71.4z"/>
	<path d="M87.1,85.6H81v3h-1.5v-3h-6.1v-1.3h6.1v-1.1H81v1.1h6.1V85.6z M77.5,81.6c-1.1,0.6-2.3,1.3-3.3,1.7l-0.7-1.1
		c1-0.4,2.4-1,3.8-1.6L77.5,81.6z M82.7,83.4c-0.1-0.2-0.2-0.5-0.4-0.8c-3.8,0.4-4.4,0.4-4.7,0.6c0-0.2-0.2-0.9-0.4-1.2
		c0.4,0,0.7-0.3,1.3-0.8c0.3-0.2,0.8-0.7,1.5-1.3c-1.5,0.1-1.8,0.2-2,0.3c-0.1-0.3-0.3-0.8-0.4-1.1c0.2,0,0.4-0.2,0.7-0.5
		c0.2-0.2,0.6-0.7,1-1.3h-5.4v-1.3h6c-0.2-0.4-0.4-0.7-0.6-1.1l1.4-0.3c0.3,0.4,0.7,1,0.9,1.4H87v1.3h-6.3c-0.4,0.6-0.8,1.1-1.3,1.6
		l1.7-0.1c0.4-0.4,0.7-0.8,1-1.2l1.1,0.6c-1.1,1.3-2.4,2.6-3.7,3.6l2.2-0.2c-0.2-0.3-0.4-0.6-0.6-0.9l1-0.4c0.7,0.8,1.4,1.9,1.7,2.6
		L82.7,83.4z M76.2,80.2c-0.5-0.5-1.5-1.3-2.3-1.8l1-0.8c0.8,0.5,1.8,1.2,2.3,1.7L76.2,80.2z M85.9,83.4c-0.6-0.6-1.9-1.5-3-2.1
		l1-0.8c1,0.6,2.3,1.4,3,2L85.9,83.4z M86.4,78.4c-0.7,0.7-1.5,1.4-2.2,1.9l-1-0.7c0.7-0.5,1.6-1.3,2.1-1.9L86.4,78.4z"/>
	<path d="M90.1,83.8c1.2-0.4,1.9-1.1,1.9-2.1c-0.1,0-0.1,0-0.2,0c-0.7,0-1.3-0.4-1.3-1.2c0-0.8,0.6-1.2,1.3-1.2c1,0,1.5,0.7,1.5,1.9
		c0,1.7-1.1,3-2.8,3.6L90.1,83.8z"/>
	<path d="M96.1,79.5c0-2.3,1.1-3.5,2.6-3.5s2.6,1.3,2.6,3.5s-1.1,3.6-2.6,3.6S96.1,81.8,96.1,79.5z M100.1,79.5
		c0-1.7-0.6-2.5-1.4-2.5c-0.8,0-1.3,0.8-1.3,2.5c0,1.7,0.6,2.5,1.3,2.5C99.5,82.1,100.1,81.2,100.1,79.5z M105.3,76h1.1l-6.2,11.7
		h-1.1L105.3,76z M104.1,84.1c0-2.3,1.1-3.5,2.6-3.5c1.6,0,2.6,1.3,2.6,3.5s-1.1,3.6-2.6,3.6C105.2,87.6,104.1,86.3,104.1,84.1z
		 M108.1,84.1c0-1.7-0.6-2.5-1.3-2.5c-0.8,0-1.3,0.8-1.3,2.5c0,1.7,0.6,2.5,1.3,2.5C107.5,86.6,108.1,85.8,108.1,84.1z"/>
</g>
<g>
	<path class="st7" d="M304.9,20.1c-0.4,0.7-0.9,1.5-1.4,2.2V36h-2.1V24.9c-2,2.3-4.5,4.3-7.2,5.7c-0.3-0.5-0.9-1.3-1.3-1.7
		c4-2,7.5-5.3,9.5-8.8h-8.9v-2h18v2H304.9z M305.1,23.3c2.4,1.6,5.6,4,7.1,5.6l-1.6,1.5c-1.4-1.6-4.5-4.1-6.9-5.8L305.1,23.3z"/>
	<path class="st7" d="M332.3,33.6c0,1.1-0.3,1.7-0.9,2s-1.8,0.4-3.6,0.4c-0.1-0.5-0.4-1.4-0.7-1.9c1.2,0.1,2.4,0,2.8,0
		c0.4,0,0.5-0.1,0.5-0.5V19.5h-13.6V36h-1.9V17.7h17.4V33.6z M328.8,23.1h-10.5v-1.7h10.5V23.1z M321.1,31.8v1.5h-1.8V25h8.5v6.8
		H321.1z M321.1,26.7v3.5h4.8v-3.5H321.1z"/>
	<path class="st7" d="M341.3,17.2c-0.5,1.4-1.2,2.8-1.9,4.2V36h-1.9V24.4c-0.6,0.8-1.2,1.6-1.9,2.3c-0.2-0.5-0.7-1.5-1.1-2
		c2-1.9,3.9-4.9,5-7.9L341.3,17.2z M346.7,33.3c-1.2,1.1-3.2,2.1-4.9,2.7c-0.3-0.4-1.1-1-1.5-1.3c1.7-0.5,3.5-1.3,4.5-2.1
		L346.7,33.3z M346.4,19h-4.9v-1.3h4.9v-1.1h2v1.1h5.1V19h-5.1v0.9h4.6v1.2h-4.6v0.9h5.8v1.3h-13.6v-1.3h5.8v-0.9H342v-1.2h4.4V19z
		 M342.2,32.3v-8h10.7v8H342.2z M344.1,26.7h6.8v-1.1h-6.8V26.7z M344.1,28.8h6.8v-1.1h-6.8V28.8z M344.1,31h6.8v-1.1h-6.8V31z
		 M350.3,32.4c1.4,0.8,3.1,1.9,4,2.7l-1.8,1.1c-0.8-0.8-2.6-2-4-2.9L350.3,32.4z"/>
	<path class="st7" d="M370,25.5c1.4,1.4,3.4,2.5,5.6,3c-0.4,0.4-1,1.1-1.3,1.6c-1-0.3-2-0.8-3-1.3c-0.3,4-0.5,5.7-1.1,6.3
		c-0.4,0.4-0.9,0.6-1.5,0.7c-0.6,0.1-1.7,0.1-2.8,0c0-0.6-0.2-1.4-0.6-1.9c1,0.1,2,0.1,2.4,0.1c0.4,0,0.6,0,0.8-0.2
		c0.3-0.4,0.6-1.5,0.8-4.3h-4.6c-0.6,3.1-2,5.2-6.4,6.4c-0.2-0.5-0.7-1.3-1.1-1.7c3.8-0.9,5-2.5,5.5-4.8h-3v-0.8
		c-0.8,0.5-1.6,1-2.6,1.4c-0.2-0.5-0.8-1.3-1.2-1.6c1.9-0.8,3.5-1.8,4.8-3h-4.2v-1.7h5.8c0.4-0.6,0.8-1.2,1.2-1.8h-5.6v-1.7h3.3
		c-0.4-0.7-1-1.7-1.5-2.4L361,17c0.7,0.8,1.5,1.9,1.7,2.6l-1.1,0.5h2.5c0.5-1.2,0.7-2.4,0.9-3.6l2.1,0.2c-0.2,1.1-0.5,2.3-0.8,3.4
		h2.2c0.6-0.9,1.4-2.1,1.8-3.1l1.8,0.6c-0.5,0.9-1.2,1.8-1.7,2.5h3.1v1.7h-7.9c-0.3,0.6-0.6,1.2-1,1.8h10.3v1.7H370z M369.9,27.7
		c-0.8-0.7-1.6-1.4-2.2-2.3h-4.4c-0.7,0.8-1.5,1.6-2.3,2.3H369.9z"/>
	<path class="st7" d="M387.6,19.8c-0.3,0.8-0.5,1.6-0.7,2.3h8.2V36h-2v-1.1h-12.8V36h-1.9V22.1h6.5c0.2-0.7,0.3-1.6,0.5-2.3h-7.9V18
		h18.6v1.9H387.6z M380.3,33.1h2.6v-9.2h-2.6V33.1z M388.6,23.9h-3.9v2h3.9V23.9z M388.6,27.5h-3.9v2h3.9V27.5z M384.7,33.1h3.9V31
		h-3.9V33.1z M393.1,23.9h-2.8v9.2h2.8V23.9z"/>
	<path class="st7" d="M417.3,24h-1.8v9.7c0,1.1-0.3,1.6-0.9,1.9c-0.7,0.3-1.7,0.4-3.4,0.4c-0.1-0.5-0.4-1.4-0.7-1.9
		c1.2,0,2.3,0,2.6,0c0.4,0,0.5-0.1,0.5-0.5V24h-4.8v-1.2h-3.1l1.6,0.6c-0.4,0.8-0.9,1.6-1.3,2.3h2.1v1.6h-3.7v1.8h3.3v1.6h-3.3v1.9
		c1.4-0.1,2.8-0.3,4.3-0.5l0,1.7c-3.7,0.5-7.6,1-10.3,1.3l-0.3-1.8c1.2-0.1,2.8-0.3,4.4-0.5v-2.1h-3.2v-1.6h3.2v-1.8H399v-1.6h2.5
		c-0.3-0.7-0.9-1.6-1.5-2.3l1.2-0.6h-2.9v-1.6h3v-1l-1,0.7c-0.3-0.7-1.1-1.9-1.8-2.7l1.2-0.8c0.6,0.6,1.2,1.4,1.6,2.1v-2.8h1.6v4.5
		h1.3v-4.5h1.6v3c0.6-0.7,1.2-1.6,1.6-2.2l1.6,0.9c-0.8,0.9-1.7,1.9-2.4,2.6l-0.8-0.5v0.8h3v1h4.8v-5.4h1.9v5.4h1.8V24z M404.3,25.7
		c0.5-0.8,1-2.1,1.3-2.9h-4.1c0.6,0.7,1.2,1.6,1.5,2.2l-1.2,0.7H404.3z M410.9,30.7c-0.1-1.2-0.9-3.2-1.7-4.7l1.6-0.6
		c0.9,1.5,1.6,3.4,1.8,4.7L410.9,30.7z"/>
	<path class="st7" d="M429.9,24.6v2.5h7.1V29h-7.1v4.7h8.1v1.8h-18.1v-1.8h7.9V29h-7v-1.8h7v-2.5h-4.4v-1.1c-1,0.5-2,1-3.1,1.3
		c-0.3-0.6-0.8-1.3-1.3-1.8c3.9-1.2,7.7-3.5,9.7-6.6l1.8,0.8c-0.2,0.3-0.4,0.5-0.5,0.8c2.1,2.1,5.6,4.1,8.8,5
		c-0.4,0.4-1.1,1.2-1.3,1.7c-1-0.4-2.1-0.9-3.1-1.4v1.3H429.9z M424.1,29.2c0.8,1.1,1.6,2.7,2,3.6l-1.7,0.7c-0.3-1-1.1-2.6-1.9-3.8
		L424.1,29.2z M433.4,22.8c-1.6-1-3.2-2.1-4.5-3.4c-1.2,1.3-2.7,2.5-4.2,3.4H433.4z M431.5,33c0.7-1,1.6-2.6,2-3.8l1.9,0.7
		c-0.8,1.3-1.7,2.8-2.4,3.7L431.5,33z"/>
	<path class="st7" d="M440.6,17.5h10.1v1.6h-10.1V17.5z M450.3,34c0,0.8-0.1,1.2-0.6,1.5c-0.5,0.2-1.2,0.3-2.3,0.3
		c-0.1-0.4-0.2-1.1-0.4-1.5c0.7,0,1.3,0,1.5,0c0.2,0,0.3-0.1,0.3-0.3v-6.9h-6.3V36h-1.5V25.6h9.4V34z M449.6,24.6h-8.1v-4.4h8.1
		V24.6z M446.3,31.5v3.8h-1.4v-3.8H443v-1.3h2.6c0.5-0.9,1-2.1,1.3-2.9l1.2,0.5c-0.4,0.8-0.8,1.7-1.3,2.4h1.2v1.3H446.3z
		 M444.2,27.5c0.5,0.7,0.9,1.7,1.1,2.3l-1.1,0.4c-0.2-0.6-0.6-1.6-1.1-2.3L444.2,27.5z M447.9,21.6h-4.6v1.6h4.6V21.6z M458.3,36
		c-0.1-0.5-0.2-1.1-0.3-1.7c-2.4,0.4-4.8,0.9-6.6,1.2l-0.4-1.8c0.9-0.1,2.1-0.3,3.3-0.5v-4.3h-3v-8.2h3v-3.8h1.7v3.8h3v8.2h-3V33
		l1.7-0.3c-0.3-0.9-0.5-1.7-0.8-2.5l1.4-0.3c0.7,1.8,1.4,4.2,1.6,5.6L458.3,36z M452.6,27.2h1.7v-4.8h-1.7V27.2z M457.3,22.4h-1.6
		v4.8h1.6V22.4z"/>
	<path class="st7" d="M464.4,24.9c0,3.2-0.2,7.8-1.7,10.7c-0.3-0.3-1.1-0.7-1.6-0.9c1.4-2.8,1.5-6.9,1.5-9.8v-7.4h17.6V19h-15.8
		V24.9z M473.3,34h7v1.5h-16.2V34h7.3v-1.4h-5.9v-1.4h5.9v-1h1.9v1h5.7v1.4h-5.7V34z M477.1,23.9c0.6,2.1,1.7,3.9,3.5,4.7
		c-0.4,0.3-0.9,0.9-1.1,1.4c-1.5-0.8-2.5-2.3-3.2-4.1c-0.5,1.5-1.4,2.9-3.2,4.1c-0.2-0.3-0.6-0.6-0.9-0.9c-0.1,0.4-0.2,0.5-0.6,0.7
		C471,30,470.2,30,469,30c-0.1-0.3-0.3-0.7-0.4-1.1c0.8,0,1.5,0,1.7,0c0.2,0,0.3-0.1,0.3-0.3v-0.9c-1.3,0.4-2.7,0.7-3.8,1l-0.3-0.7
		c-0.1,0.7-0.4,1.4-0.8,2c-0.3-0.3-1-0.7-1.4-0.8c0.7-0.9,0.7-1.9,0.7-2.9v-2.3h7v4.6v0.1c2.1-1.4,2.8-3.2,3-4.8h-2.6v-1.5h2.7v-2.9
		h1.5v2.9h3.4v1.5H477.1z M471.8,23.4h-6.3v-3.8h6.3V23.4z M470.6,26.8v-1.6h-4v1.3c0,0.4,0,0.8-0.1,1.2c0.9-0.2,2-0.4,3.2-0.8
		c-0.7-0.3-1.9-0.6-2.9-0.8l0.4-0.8c1,0.2,2.2,0.5,2.9,0.7l-0.4,0.8L470.6,26.8z M470.4,20.5h-3.5v0.6h3.5V20.5z M470.4,21.9h-3.5
		v0.7h3.5V21.9z M478.8,22.3c-0.3-0.6-1-1.5-1.7-2.1l1.1-0.7c0.6,0.6,1.4,1.4,1.7,2L478.8,22.3z"/>
	<path class="st7" d="M500.7,21.1c0,0,0,0.7,0,1c-0.5,8.5-0.9,11.7-1.8,12.7c-0.6,0.7-1.1,0.9-1.9,1c-0.8,0.1-2.1,0.1-3.4,0
		c0-0.6-0.3-1.4-0.7-2c1.4,0.1,2.7,0.1,3.2,0.1c0.5,0,0.7-0.1,1-0.3c0.7-0.7,1.2-3.6,1.5-10.5H492c-0.3,4.3-1.7,9.4-7.7,13
		c-0.3-0.5-1.1-1.2-1.5-1.6c5.5-3.1,6.8-7.6,7.2-11.4h-6.5v-2h6.6v-0.5v-3.9h2.1v3.9v0.5H500.7z"/>
	<path class="st7" d="M508.9,24.5c0.7,0.8,2.6,3,3,3.5l-1.2,1.6c-0.4-0.7-1.1-1.9-1.9-2.9V36H507v-9.3c-0.8,2.2-1.7,4.2-2.7,5.5
		c-0.2-0.5-0.7-1.3-1-1.8c1.4-1.7,2.8-4.8,3.5-7.5h-3v-1.9h3.2v-4.4h1.9v4.4h2.8v1.9h-2.8V24.5z M522.2,17.8v17.9h-2v-1.1h-5.7v1.2
		h-1.9v-18H522.2z M514.5,19.7v3.1h5.7v-3.1H514.5z M514.5,27.8h5.7v-3.2h-5.7V27.8z M520.2,32.8v-3.2h-5.7v3.2H520.2z"/>
	<path class="st7" d="M533.1,27.3c0.4,0.7,0.8,1.7,1,2.3l-0.8,0.3h0.3v1.9c0,1.6-0.4,3.1-3,4c-0.2-0.3-0.6-0.9-0.9-1.1
		c1.2-0.4,1.9-0.9,2.2-1.5h-2.6v-3h1.3v1.9h1.7c0-0.1,0-0.2,0-0.3v-1.9h0.9c-0.1-0.2-0.1-0.4-0.2-0.6c-3.1,0.3-3.6,0.4-3.9,0.5
		c-0.1-0.3-0.2-0.9-0.4-1.2c0.3,0,0.7-0.2,1.1-0.5c0.2-0.1,0.6-0.5,1.1-1c-1.2,0.1-1.6,0.2-1.8,0.3c-0.1-0.3-0.2-0.9-0.4-1.2
		c0.2,0,0.4-0.2,0.7-0.4c0.2-0.2,0.9-0.9,1.4-1.7h-3.3V36h-1.9V17.5h7.8v6.6h-2.2l0.8,0.4c-0.5,0.6-1,1.3-1.6,1.8l1.4-0.1
		c0.3-0.3,0.6-0.7,0.9-1l1,0.7c-0.9,1-1.9,1.9-3,2.7l1.7-0.1c-0.1-0.3-0.3-0.5-0.4-0.8L533.1,27.3z M527.5,18.9v1.3h4.1v-1.3H527.5z
		 M527.5,22.7h4.1v-1.2h-4.1V22.7z M543.1,33.7c0,1-0.2,1.6-0.8,1.9c-0.6,0.3-1.5,0.4-2.9,0.4c-0.1-0.5-0.3-1.4-0.6-1.9
		c0.8,0,1.7,0,2,0c0.3,0,0.4-0.1,0.4-0.4v-9.6h-4.3l0.8,0.4c-0.5,0.6-1,1.2-1.5,1.7l1.3-0.1c0.3-0.3,0.6-0.7,0.9-1.1l1,0.7
		c-0.9,1-2,2-3,2.7l1.7-0.1c-0.1-0.3-0.3-0.5-0.4-0.8l1-0.3c0.4,0.7,0.9,1.7,1.1,2.3l-1,0.4c-0.1-0.2-0.2-0.4-0.3-0.7
		c-3.1,0.3-3.6,0.4-3.9,0.6c0-0.3-0.2-0.9-0.4-1.2c0.3-0.1,0.7-0.3,1.1-0.6c0.2-0.1,0.6-0.5,1.1-1c-1.2,0.1-1.6,0.2-1.8,0.3
		c-0.1-0.3-0.3-0.9-0.4-1.2c0.2,0,0.4-0.2,0.7-0.4c0.2-0.2,0.9-0.9,1.4-1.8h-1.3v-6.6h8V33.7z M537.9,33.9v-0.6h-1.7v2.4h-1.4v-5.8
		h1.4v2.2h1.7v-1.9h1.3v3.6H537.9z M536.9,18.9v1.3h4.3v-1.3H536.9z M541.2,22.7v-1.2h-4.3v1.2H541.2z"/>
	<path class="st7" d="M545.4,26.1c0.5-1.4,0.9-3.7,1.1-5.4l1.4,0.2c-0.1,1.7-0.5,4.2-1,5.7L545.4,26.1z M564.8,33.4v1.9h-12.9v-1.9
		h5.9v-4.8h-4.3v-1.8h4.3v-4H555c-0.4,1.2-0.9,2.3-1.3,3.1c-0.4-0.3-1.3-0.7-1.7-0.9c0.3-0.4,0.5-0.9,0.8-1.5l-1.2,0.6
		c-0.2-0.8-0.7-2.2-1.3-3.3V36h-2V16.7h2v3.9l1.2-0.5c0.5,1,1.1,2.3,1.4,3.2c0.7-1.6,1.1-3.6,1.4-5.6l1.9,0.3
		c-0.1,1.1-0.4,2.1-0.6,3.1h2.2v-4.3h2V21h4.6v1.9h-4.6v4h4.1v1.8h-4.1v4.8H564.8z"/>
</g>
<g>
	<path d="M348.6,54.8c0-3.1,0.9-5.7,2.3-8.1l1.1,0.5c-1.4,2.3-2,4.9-2,7.6c0,2.7,0.6,5.3,2,7.6l-1.1,0.5
		C349.4,60.4,348.6,57.9,348.6,54.8z"/>
	<path d="M361.4,52.4v1.9h5.3v1.3h-5.3v3.5h6.1v1.3h-13.6v-1.3h5.9v-3.5h-5.2v-1.3h5.2v-1.9h-3.3v-0.8c-0.7,0.4-1.5,0.7-2.3,1
		c-0.2-0.4-0.6-1-1-1.4c2.9-0.9,5.8-2.6,7.3-5l1.4,0.6c-0.1,0.2-0.3,0.4-0.4,0.6c1.5,1.5,4.2,3.1,6.6,3.7c-0.3,0.3-0.8,0.9-1,1.3
		c-0.8-0.3-1.6-0.6-2.4-1.1v1H361.4z M357,55.8c0.6,0.8,1.2,2,1.5,2.7l-1.3,0.6c-0.2-0.7-0.8-1.9-1.4-2.8L357,55.8z M364,51.1
		c-1.2-0.7-2.4-1.6-3.4-2.6c-0.9,1-2,1.8-3.2,2.6H364z M362.6,58.7c0.5-0.8,1.2-2,1.5-2.8l1.4,0.5c-0.6,1-1.3,2.1-1.8,2.8
		L362.6,58.7z"/>
	<path d="M369.4,47.1h7.6v1.2h-7.6V47.1z M376.7,59.4c0,0.6-0.1,0.9-0.5,1.1c-0.4,0.2-0.9,0.2-1.7,0.2c0-0.3-0.2-0.8-0.3-1.1
		c0.5,0,1,0,1.1,0c0.2,0,0.2-0.1,0.2-0.2v-5.2h-4.7v6.7h-1.2v-7.8h7.1V59.4z M376.2,52.4h-6.1v-3.3h6.1V52.4z M373.7,57.6v2.9h-1.1
		v-2.9h-1.4v-0.9h2c0.4-0.6,0.8-1.5,1-2.2l0.9,0.4c-0.3,0.6-0.6,1.2-1,1.8h0.9v0.9H373.7z M372.1,54.6c0.3,0.5,0.7,1.2,0.8,1.7
		l-0.8,0.3c-0.1-0.5-0.5-1.2-0.8-1.8L372.1,54.6z M374.9,50.1h-3.5v1.2h3.5V50.1z M382.7,60.9c0-0.3-0.1-0.8-0.2-1.3
		c-1.8,0.3-3.6,0.7-5,0.9l-0.3-1.3c0.7-0.1,1.5-0.2,2.5-0.4v-3.3h-2.2v-6.1h2.2v-2.9h1.3v2.9h2.2v6.1h-2.2v3.1l1.2-0.2
		c-0.2-0.6-0.4-1.3-0.6-1.8l1-0.2c0.5,1.4,1.1,3.2,1.2,4.2L382.7,60.9z M378.5,54.4h1.3v-3.6h-1.3V54.4z M382,50.8h-1.2v3.6h1.2
		V50.8z"/>
	<path d="M387.3,52.6c0,2.4-0.2,5.8-1.2,8c-0.3-0.2-0.8-0.6-1.2-0.7c1-2.1,1.1-5.2,1.1-7.4v-5.5h13.2v1.1h-11.9V52.6z M394,59.4h5.3
		v1.1h-12.2v-1.1h5.5v-1.1h-4.4v-1.1h4.4v-0.8h1.4v0.8h4.3v1.1H394V59.4z M396.8,51.9c0.5,1.6,1.3,2.9,2.6,3.6
		c-0.3,0.3-0.6,0.7-0.8,1c-1.1-0.6-1.9-1.7-2.4-3.1c-0.3,1.1-1.1,2.2-2.4,3.1c-0.2-0.2-0.4-0.5-0.7-0.7c0,0.3-0.2,0.4-0.5,0.5
		c-0.4,0.1-1,0.1-1.8,0.1c-0.1-0.3-0.2-0.6-0.3-0.8c0.6,0,1.1,0,1.3,0c0.2,0,0.2,0,0.2-0.2v-0.6c-1,0.3-2,0.5-2.8,0.8l-0.2-0.5
		c-0.1,0.5-0.3,1.1-0.6,1.5c-0.2-0.2-0.8-0.5-1-0.6c0.5-0.6,0.6-1.5,0.6-2.1V52h5.3v3.4v0.1c1.6-1.1,2.1-2.4,2.3-3.6h-2v-1.2h2v-2.2
		h1.1v2.2h2.5v1.2H396.8z M392.8,51.5h-4.8v-2.9h4.8V51.5z M391.9,54v-1.2h-3v1c0,0.3,0,0.6,0,0.9c0.7-0.1,1.5-0.3,2.4-0.6
		c-0.6-0.2-1.4-0.4-2.1-0.6l0.3-0.6c0.7,0.1,1.7,0.4,2.2,0.6l-0.3,0.6L391.9,54z M391.8,49.3h-2.6v0.5h2.6V49.3z M391.8,50.4h-2.6
		v0.5h2.6V50.4z M398.1,50.6c-0.3-0.4-0.8-1.1-1.2-1.5l0.8-0.5c0.5,0.4,1,1,1.3,1.5L398.1,50.6z"/>
	<path d="M414.5,49.8c0,0,0,0.5,0,0.7c-0.3,6.4-0.6,8.7-1.3,9.5c-0.4,0.5-0.8,0.7-1.5,0.7c-0.6,0.1-1.6,0-2.5,0
		c0-0.4-0.2-1.1-0.5-1.5c1,0.1,2,0.1,2.4,0.1c0.3,0,0.5,0,0.7-0.2c0.5-0.5,0.9-2.7,1.1-7.8H408c-0.2,3.3-1.3,7.1-5.8,9.7
		c-0.2-0.4-0.8-0.9-1.1-1.2c4.1-2.4,5.1-5.7,5.4-8.6h-4.9v-1.5h5v-0.4v-2.9h1.5v2.9v0.4H414.5z"/>
	<path d="M431,57.3h-14.3v-1.4h1.5l-0.3-8.2c1-0.3,2.2-0.8,2.9-1.2l0.7,1.2c-0.7,0.3-1.5,0.5-2.3,0.7l0,1.7h2v1.2h-1.9l0.1,1.7h1.9
		v1.2h-1.9l0.1,1.7h8.6c0-0.5,0.1-1,0.1-1.6h-1.9v-1.2h1.9c0-0.6,0-1.1,0-1.7h-1.9v-1.2h1.9c0-0.6,0-1.2,0-1.7h-2.1v-1.3h3.4
		c0,2.8-0.1,6.4-0.2,8.7h1.5V57.3z M422.5,58.3c-1.3,0.9-3.2,2-4.8,2.6c-0.2-0.3-0.6-0.8-0.8-1.1c1.5-0.6,3.4-1.6,4.4-2.4
		L422.5,58.3z M423.6,52.4c-0.2,1.1-0.5,2.1-0.9,2.8c-0.2-0.2-0.7-0.5-1-0.6c0.4-0.6,0.6-1.5,0.7-2.4L423.6,52.4z M424.6,51.7h-2.5
		v-5.1h1.3v1.3h2.5v1.2h-2.5v1.5h1.9v0h0.5v4.1c0,0.6-0.1,0.8-0.5,1c-0.4,0.2-0.9,0.2-1.7,0.2c0-0.3-0.2-0.7-0.3-0.9
		c0.5,0,1,0,1.1,0c0.2,0,0.2,0,0.2-0.2V51.7z M429.7,60.9c-1-0.7-2.8-1.8-4.4-2.5l0.8-1c1.6,0.8,3.4,1.8,4.5,2.5L429.7,60.9z"/>
	<path d="M437.2,46.9c-0.4,1-0.9,2.1-1.5,3.1v10.9h-1.4v-8.7c-0.5,0.6-0.9,1.2-1.4,1.7c-0.1-0.3-0.6-1.1-0.8-1.5
		c1.5-1.4,2.9-3.7,3.7-6L437.2,46.9z M441.2,58.9c-0.9,0.8-2.4,1.6-3.7,2.1c-0.3-0.3-0.8-0.8-1.2-1c1.2-0.4,2.6-0.9,3.4-1.6
		L441.2,58.9z M441.1,48.2h-3.7v-1h3.7v-0.8h1.5v0.8h3.8v1h-3.8v0.7h3.5v0.9h-3.5v0.7h4.3v1h-10.2v-1h4.4v-0.7h-3.3v-0.9h3.3V48.2z
		 M437.9,58.2v-6h8v6H437.9z M439.3,54h5.1v-0.8h-5.1V54z M439.3,55.6h5.1v-0.8h-5.1V55.6z M439.3,57.2h5.1v-0.8h-5.1V57.2z
		 M443.9,58.3c1.1,0.6,2.3,1.4,3,2l-1.3,0.8c-0.6-0.6-1.9-1.5-3-2.2L443.9,58.3z"/>
	<path d="M458.8,53c1.1,1,2.6,1.8,4.2,2.3c-0.3,0.3-0.7,0.8-0.9,1.2c-0.8-0.2-1.5-0.6-2.2-1c-0.2,3-0.4,4.3-0.9,4.7
		c-0.3,0.3-0.6,0.5-1.1,0.5c-0.5,0-1.2,0-2.1,0c0-0.4-0.2-1-0.4-1.4c0.8,0.1,1.5,0.1,1.8,0.1c0.3,0,0.4,0,0.6-0.2
		c0.3-0.3,0.4-1.2,0.6-3.2h-3.5c-0.4,2.3-1.5,3.9-4.8,4.8c-0.1-0.4-0.5-1-0.8-1.2c2.9-0.7,3.7-1.9,4.1-3.6H451v-0.6
		c-0.6,0.4-1.2,0.7-1.9,1.1c-0.2-0.4-0.6-0.9-0.9-1.2c1.4-0.6,2.6-1.4,3.6-2.3h-3.1v-1.3h4.3c0.3-0.4,0.6-0.9,0.9-1.4h-4.2v-1.3h2.5
		c-0.3-0.5-0.7-1.2-1.1-1.8l1.2-0.6c0.5,0.6,1.1,1.4,1.3,1.9l-0.8,0.4h1.8c0.3-0.9,0.6-1.8,0.7-2.7l1.5,0.2
		c-0.1,0.9-0.3,1.7-0.6,2.5h1.7c0.5-0.7,1-1.6,1.4-2.3l1.4,0.4c-0.4,0.7-0.9,1.3-1.3,1.9h2.3v1.3h-5.9c-0.2,0.5-0.5,0.9-0.7,1.4h7.7
		V53H458.8z M458.7,54.8c-0.6-0.5-1.2-1.1-1.6-1.7h-3.3c-0.5,0.6-1.1,1.2-1.8,1.7H458.7z"/>
	<path d="M470.5,54.5c0.3,0.6,0.6,1.3,0.8,1.7l-0.6,0.2h0.2v1.5c0,1.2-0.3,2.3-2.3,3c-0.1-0.3-0.5-0.7-0.7-0.8
		c0.9-0.3,1.4-0.7,1.6-1.1h-2v-2.3h0.9v1.4h1.2c0-0.1,0-0.2,0-0.2v-1.4h0.6c0-0.1-0.1-0.3-0.2-0.4c-2.3,0.2-2.7,0.3-2.9,0.4
		c0-0.2-0.2-0.6-0.3-0.9c0.2,0,0.5-0.2,0.8-0.4c0.2-0.1,0.5-0.4,0.8-0.7c-0.9,0.1-1.2,0.1-1.3,0.2c0-0.2-0.2-0.7-0.3-0.9
		c0.2,0,0.3-0.1,0.5-0.3c0.2-0.1,0.7-0.7,1.1-1.3h-2.5v9h-1.4V47.1h5.9V52H469l0.6,0.3c-0.4,0.5-0.8,0.9-1.2,1.3l1,0
		c0.2-0.3,0.4-0.5,0.6-0.8l0.8,0.5c-0.7,0.7-1.5,1.4-2.2,2l1.3-0.1c-0.1-0.2-0.2-0.4-0.3-0.6L470.5,54.5z M466.2,48.1v1h3.1v-1
		H466.2z M466.2,51h3.1V50h-3.1V51z M477.9,59.2c0,0.8-0.1,1.2-0.6,1.4c-0.5,0.3-1.2,0.3-2.2,0.3c0-0.4-0.2-1.1-0.4-1.4
		c0.6,0,1.3,0,1.5,0c0.2,0,0.3-0.1,0.3-0.3V52h-3.3l0.6,0.3c-0.3,0.5-0.8,0.9-1.1,1.3l1,0c0.2-0.3,0.5-0.5,0.7-0.8l0.8,0.5
		c-0.7,0.7-1.5,1.5-2.2,2.1l1.3-0.1c-0.1-0.2-0.2-0.4-0.3-0.6l0.7-0.3c0.3,0.5,0.7,1.3,0.8,1.7l-0.8,0.3c0-0.1-0.1-0.3-0.2-0.5
		c-2.3,0.3-2.7,0.3-3,0.4c0-0.2-0.2-0.7-0.3-0.9c0.2,0,0.5-0.2,0.8-0.5c0.1-0.1,0.5-0.4,0.8-0.7c-0.9,0.1-1.2,0.1-1.3,0.2
		c-0.1-0.2-0.2-0.7-0.3-0.9c0.2,0,0.3-0.1,0.5-0.3c0.2-0.1,0.7-0.7,1.1-1.3h-1v-4.9h6V59.2z M474,59.4v-0.5h-1.3v1.8h-1.1v-4.3h1.1
		v1.7h1.3v-1.4h1v2.7H474z M473.3,48.1v1h3.2v-1H473.3z M476.5,51V50h-3.2V51H476.5z"/>
	<path d="M484.7,48.4V61h-1.2v-2.8c-1.2,0.2-2.4,0.4-3.4,0.6l-0.3-1.3l0.9-0.1v-8.9H480v-1.3h5.2v1.3H484.7z M483.5,48.4h-1.5v2h1.5
		V48.4z M483.5,51.6h-1.5v2h1.5V51.6z M483.5,56.9v-2.1h-1.5v2.3L483.5,56.9z M488.9,51.3c0.3,0.8,0.6,2,0.8,2.6l-0.9,0.3
		c0-0.2-0.1-0.5-0.2-0.8c-2.7,0.3-3.1,0.4-3.3,0.5c0-0.3-0.2-0.9-0.3-1.3c0.3-0.1,0.6-0.3,0.9-0.8c0.2-0.2,0.5-0.6,0.9-1.2
		c-0.9,0.1-1.2,0.2-1.4,0.3c0-0.3-0.2-1-0.3-1.3c0.2,0,0.4-0.2,0.6-0.5c0.2-0.3,1-1.4,1.4-2.6l1.1,0.5c-0.5,1-1.1,2-1.7,2.8l1,0
		c0.3-0.4,0.6-0.9,0.8-1.4l1,0.5c-0.8,1.4-1.8,2.7-2.7,3.7l1.8-0.2c-0.1-0.3-0.2-0.6-0.3-0.9L488.9,51.3z M489.2,54.2v2.4
		c0,1.6-0.5,3.3-2.8,4.4c-0.1-0.3-0.6-0.8-0.8-1c1.4-0.6,2-1.4,2.2-2.2h-2.1v-3.6h1.2v2.4h1.1v-2.4H489.2z M493.6,54.1
		c-0.1-0.2-0.2-0.5-0.3-0.8c-2.7,0.4-3.1,0.5-3.3,0.7c-0.1-0.3-0.2-0.9-0.3-1.3c0.3,0,0.5-0.3,0.8-0.7c0.2-0.2,0.5-0.7,0.9-1.3
		c-1.1,0.1-1.4,0.2-1.5,0.3c-0.1-0.3-0.2-0.9-0.3-1.3c0.2,0,0.4-0.2,0.6-0.5c0.2-0.3,1-1.4,1.4-2.5l1,0.5c-0.5,0.9-1,1.9-1.6,2.6
		l1.1-0.1c0.2-0.4,0.5-0.9,0.6-1.3l1,0.5c-0.7,1.3-1.5,2.7-2.3,3.7l1.7-0.2c-0.1-0.3-0.3-0.7-0.4-1l0.8-0.3c0.4,0.8,0.8,1.9,1,2.6
		L493.6,54.1z M492.5,54.3h1.2v4h-1.2v-0.6h-1.1V61h-1.3v-6.8h1.3v2.4h1.1V54.3z"/>
	<path d="M509.6,47v13.9h-1.4v-0.6h-10.4v0.6h-1.4V47H509.6z M508.1,59.1V48.3h-10.4v10.9H508.1z M507.5,52v0.9h-9.2V52h3.9v-0.6
		h-2.5v-2.5h6.3v2.5h-2.5V52H507.5z M499.3,53.4h7.3v5h-7.3V53.4z M500.4,57.6h4.9v-3.3h-4.9V57.6z M501,50.6h3.8v-0.9H501V50.6z
		 M501.2,54.8h3.3V57h-3.3V54.8z M502.1,56.3h1.5v-0.7h-1.5V56.3z"/>
	<path d="M511.5,62.3c1.4-2.3,2-4.9,2-7.6c0-2.6-0.6-5.3-2-7.6l1.1-0.5c1.5,2.4,2.4,5,2.4,8.1c0,3.1-0.9,5.7-2.4,8.1L511.5,62.3z"/>
</g>
<g>
	<path d="M729.7,432.3v1.2h-13.3v-1.2h6.1c-0.1-0.4-0.3-0.9-0.4-1.3l1.4-0.3c0.2,0.5,0.4,1.1,0.6,1.6H729.7z M729.3,443.4
		c0,0.7-0.2,0.9-0.6,1.1c-0.5,0.2-1.2,0.2-2.2,0.2c-0.1-0.3-0.3-0.7-0.4-1.1c0.6,0,1.4,0,1.6,0c0.2,0,0.3-0.1,0.3-0.2v-4.1h-9.6v5.5
		h-1.4v-6.7h12.4V443.4z M727.8,434.3v3.1h-9.2v-3.1H727.8z M721.1,443.3v0.7h-1.3v-3.9h6.5v3.2H721.1z M726.3,435.3H720v1.1h6.3
		V435.3z M721.1,441.1v1.2h3.9v-1.2H721.1z"/>
	<path d="M734.1,436c-0.2,1.3-0.6,2.8-1.5,3.9c-0.2-0.3-0.9-0.7-1.2-0.9c1.2-1.5,1.4-3.5,1.4-4.9v-1.7h5.7c-0.1-0.5-0.1-1.1-0.2-1.6
		h1.4c0,0.6,0.1,1.1,0.2,1.6h2.1c-0.4-0.4-0.9-0.8-1.3-1.1l1-0.6c0.6,0.4,1.3,0.9,1.7,1.3l-0.5,0.4h2.2v1.2h-4.8
		c0.3,0.9,0.6,1.7,1,2.4c0.7-0.6,1.2-1.3,1.6-2.1l1.3,0.4c-0.6,1-1.3,2-2.2,2.8c0.6,0.7,1.1,1,1.7,1c0.4,0,0.5-0.5,0.6-1.7
		c0.3,0.3,0.8,0.5,1.1,0.6c-0.2,2-0.7,2.4-1.8,2.4c-1,0-1.9-0.5-2.7-1.5c-0.7,0.5-1.5,1-2.2,1.3c-0.2-0.3-0.6-0.8-0.9-1.1
		c0.8-0.4,1.7-0.8,2.4-1.3c-0.5-0.9-1-2-1.3-3.3h-4.5v0.5c0,0.2,0,0.4,0,0.7h3.7c0,0,0,0.3,0,0.5c-0.1,1.9-0.2,2.8-0.5,3.1
		c-0.2,0.3-0.5,0.4-0.9,0.4c-0.3,0-0.9,0-1.6,0c0-0.3-0.2-0.8-0.3-1.1c0.5,0,1,0.1,1.2,0.1c0.2,0,0.3,0,0.4-0.1
		c0.1-0.2,0.2-0.6,0.3-1.7H734.1z M743.5,443.3h1.7v1.3h-13.7v-1.3h1.9v-3.5h10.1V443.3z M734.7,443.3h1.6v-2.4h-1.6V443.3z
		 M737.6,440.8v2.4h1.6v-2.4H737.6z M740.5,440.8v2.4h1.6v-2.4H740.5z"/>
	<path d="M754.4,436.6v1.9h5.1v1.3h-5.1v3.4h5.9v1.3h-13.1v-1.3h5.7v-3.4h-5v-1.3h5v-1.9h-3.2v-0.8c-0.7,0.4-1.5,0.7-2.2,1
		c-0.2-0.4-0.6-1-0.9-1.3c2.8-0.9,5.6-2.6,7.1-4.8l1.3,0.6c-0.1,0.2-0.3,0.4-0.4,0.6c1.5,1.5,4.1,3,6.4,3.6c-0.3,0.3-0.8,0.9-1,1.2
		c-0.7-0.3-1.5-0.6-2.3-1v0.9H754.4z M750.1,439.9c0.6,0.8,1.2,1.9,1.4,2.6l-1.2,0.5c-0.2-0.7-0.8-1.9-1.4-2.7L750.1,439.9z
		 M756.9,435.3c-1.2-0.7-2.3-1.6-3.2-2.5c-0.9,1-1.9,1.8-3.1,2.5H756.9z M755.5,442.6c0.5-0.7,1.2-1.9,1.5-2.7l1.4,0.5
		c-0.6,1-1.3,2-1.8,2.7L755.5,442.6z"/>
	<path d="M762.1,431.4h7.3v1.2h-7.3V431.4z M769.2,443.4c0,0.6-0.1,0.9-0.5,1.1c-0.4,0.2-0.9,0.2-1.7,0.2c0-0.3-0.2-0.8-0.3-1.1
		c0.5,0,0.9,0,1.1,0c0.2,0,0.2-0.1,0.2-0.2v-5h-4.5v6.5h-1.1v-7.5h6.8V443.4z M768.7,436.5h-5.9v-3.2h5.9V436.5z M766.2,441.6v2.8
		h-1v-2.8h-1.4v-0.9h1.9c0.4-0.6,0.7-1.5,0.9-2.1l0.9,0.4c-0.3,0.6-0.6,1.2-0.9,1.7h0.9v0.9H766.2z M764.7,438.6
		c0.3,0.5,0.7,1.2,0.8,1.7l-0.8,0.3c-0.1-0.5-0.4-1.2-0.8-1.7L764.7,438.6z M767.4,434.4H764v1.2h3.4V434.4z M774.9,444.8
		c0-0.3-0.1-0.8-0.2-1.2c-1.7,0.3-3.5,0.7-4.8,0.9l-0.3-1.3c0.7-0.1,1.5-0.2,2.4-0.4v-3.1h-2.2v-5.9h2.2V431h1.3v2.8h2.1v5.9h-2.2v3
		l1.2-0.2c-0.2-0.6-0.4-1.2-0.6-1.8l1-0.2c0.5,1.3,1,3.1,1.2,4.1L774.9,444.8z M770.9,438.4h1.2V435h-1.2V438.4z M774.3,435h-1.2
		v3.5h1.2V435z"/>
	<path d="M779.4,436.7c0,2.3-0.2,5.6-1.2,7.8c-0.2-0.2-0.8-0.5-1.1-0.6c1-2,1.1-5,1.1-7.1v-5.3h12.7v1.1h-11.5V436.7z M785.9,443.4
		h5.1v1.1h-11.8v-1.1h5.3v-1h-4.3v-1h4.3v-0.7h1.4v0.7h4.2v1h-4.2V443.4z M788.6,436.1c0.4,1.5,1.3,2.8,2.5,3.4
		c-0.3,0.2-0.6,0.7-0.8,1c-1.1-0.6-1.8-1.7-2.3-3c-0.3,1.1-1,2.1-2.4,3c-0.2-0.2-0.4-0.5-0.6-0.7c0,0.3-0.2,0.4-0.5,0.5
		c-0.4,0.1-0.9,0.1-1.8,0.1c-0.1-0.2-0.2-0.5-0.3-0.8c0.6,0,1.1,0,1.2,0c0.2,0,0.2,0,0.2-0.2v-0.6c-1,0.3-1.9,0.5-2.8,0.7l-0.2-0.5
		c-0.1,0.5-0.3,1-0.6,1.4c-0.2-0.2-0.7-0.5-1-0.6c0.5-0.6,0.5-1.4,0.5-2.1v-1.7h5.1v3.3v0.1c1.5-1,2-2.3,2.2-3.5h-1.9v-1.1h2v-2.1
		h1.1v2.1h2.4v1.1H788.6z M784.8,435.7h-4.6v-2.8h4.6V435.7z M783.9,438.1V437H781v1c0,0.3,0,0.6,0,0.9c0.6-0.1,1.5-0.3,2.3-0.6
		c-0.5-0.2-1.4-0.4-2.1-0.6l0.3-0.6c0.7,0.1,1.6,0.4,2.1,0.5l-0.3,0.6L783.9,438.1z M783.7,433.6h-2.5v0.4h2.5V433.6z M783.7,434.6
		h-2.5v0.5h2.5V434.6z M789.8,434.9c-0.2-0.4-0.7-1.1-1.2-1.5l0.8-0.5c0.5,0.4,1,1,1.2,1.4L789.8,434.9z"/>
	<path d="M805.7,434c0,0,0,0.5,0,0.7c-0.3,6.2-0.6,8.5-1.3,9.2c-0.4,0.5-0.8,0.6-1.4,0.7c-0.6,0.1-1.5,0-2.4,0c0-0.4-0.2-1-0.5-1.5
		c1,0.1,1.9,0.1,2.3,0.1c0.3,0,0.5,0,0.7-0.2c0.5-0.5,0.8-2.6,1.1-7.6h-4.8c-0.2,3.1-1.3,6.8-5.6,9.4c-0.2-0.4-0.8-0.9-1.1-1.1
		c4-2.3,5-5.5,5.2-8.3h-4.7V434h4.8v-0.4v-2.8h1.5v2.8v0.4H805.7z"/>
	<path d="M811.7,436.5c0.5,0.6,1.9,2.2,2.2,2.6l-0.9,1.1c-0.3-0.5-0.8-1.3-1.3-2.1v6.7h-1.4v-6.7c-0.6,1.6-1.3,3.1-2,4
		c-0.2-0.4-0.5-1-0.7-1.3c1-1.3,2-3.5,2.5-5.5H808V434h2.3v-3.2h1.4v3.2h2v1.3h-2V436.5z M821.3,431.6v13h-1.4v-0.8h-4.2v0.9h-1.4
		v-13.1H821.3z M815.7,433v2.2h4.2V433H815.7z M815.7,438.9h4.2v-2.3h-4.2V438.9z M819.9,442.5v-2.3h-4.2v2.3H819.9z"/>
	<path d="M829.2,438.5c0.3,0.5,0.6,1.3,0.7,1.7l-0.6,0.2h0.2v1.4c0,1.2-0.3,2.2-2.2,2.9c-0.1-0.2-0.4-0.6-0.6-0.8
		c0.9-0.3,1.4-0.7,1.6-1.1h-1.9v-2.2h0.9v1.4h1.2c0-0.1,0-0.2,0-0.2v-1.4h0.6c0-0.1-0.1-0.3-0.2-0.4c-2.2,0.2-2.6,0.3-2.8,0.4
		c0-0.2-0.2-0.6-0.3-0.9c0.2,0,0.5-0.2,0.8-0.4c0.2-0.1,0.4-0.4,0.8-0.7c-0.9,0.1-1.1,0.1-1.3,0.2c0-0.2-0.2-0.7-0.3-0.9
		c0.2,0,0.3-0.1,0.5-0.3c0.2-0.1,0.7-0.7,1-1.3h-2.4v8.7h-1.3v-13.4h5.7v4.8h-1.6l0.6,0.3c-0.4,0.5-0.7,0.9-1.1,1.3l1,0
		c0.2-0.2,0.4-0.5,0.6-0.7l0.7,0.5c-0.7,0.7-1.4,1.4-2.2,2l1.3-0.1c-0.1-0.2-0.2-0.4-0.3-0.6L829.2,438.5z M825.1,432.4v0.9h3v-0.9
		H825.1z M825.1,435.2h3v-0.9h-3V435.2z M836.4,443.1c0,0.7-0.1,1.1-0.6,1.4c-0.5,0.2-1.1,0.3-2.1,0.3c0-0.4-0.2-1-0.4-1.4
		c0.6,0,1.3,0,1.4,0c0.2,0,0.3-0.1,0.3-0.3v-6.9h-3.1l0.6,0.3c-0.3,0.5-0.7,0.9-1.1,1.3l1,0c0.2-0.2,0.5-0.5,0.7-0.8l0.8,0.5
		c-0.7,0.7-1.4,1.4-2.2,2l1.3-0.1c-0.1-0.2-0.2-0.4-0.3-0.6l0.7-0.2c0.3,0.5,0.6,1.2,0.8,1.7l-0.7,0.3c0-0.1-0.1-0.3-0.2-0.5
		c-2.2,0.2-2.6,0.3-2.9,0.4c0-0.2-0.2-0.6-0.3-0.9c0.2,0,0.5-0.2,0.8-0.4c0.1-0.1,0.4-0.4,0.8-0.7c-0.9,0.1-1.1,0.1-1.3,0.2
		c-0.1-0.2-0.2-0.6-0.3-0.9c0.2,0,0.3-0.1,0.5-0.3c0.2-0.1,0.7-0.7,1-1.3h-0.9v-4.8h5.8V443.1z M832.7,443.3v-0.4h-1.2v1.7h-1v-4.2
		h1v1.6h1.2v-1.4h1v2.6H832.7z M832,432.4v0.9h3.1v-0.9H832z M835.1,435.2v-0.9H832v0.9H835.1z"/>
	<path d="M838.1,437.6c0.4-1,0.7-2.7,0.8-3.9l1,0.2c-0.1,1.3-0.4,3-0.7,4.2L838.1,437.6z M852.2,443v1.3h-9.4V443h4.3v-3.5H844v-1.3
		h3.1v-2.9h-2c-0.3,0.9-0.6,1.6-1,2.3c-0.3-0.2-0.9-0.5-1.3-0.7c0.2-0.3,0.4-0.7,0.6-1.1l-0.9,0.4c-0.1-0.6-0.5-1.6-0.9-2.4v11h-1.4
		v-14h1.4v2.8l0.9-0.4c0.4,0.7,0.8,1.7,1,2.3c0.5-1.2,0.8-2.6,1-4.1l1.4,0.2c-0.1,0.8-0.3,1.5-0.5,2.2h1.6v-3.1h1.4v3.1h3.3v1.3
		h-3.3v2.9h3v1.3h-3v3.5H852.2z"/>
</g>
<g>
	<path d="M53.6,487.1c0-4.7,1.8-7.3,4.7-7.3c2.9,0,4.7,2.5,4.7,7.3c0,4.7-1.8,7.4-4.7,7.4C55.4,494.5,53.6,491.9,53.6,487.1z
		 M60.8,487.1c0-4-1-5.5-2.5-5.5s-2.5,1.4-2.5,5.5c0,4,1,5.6,2.5,5.6S60.8,491.2,60.8,487.1z"/>
	<path d="M114,487.1c0-4.7,1.8-7.3,4.7-7.3c2.9,0,4.7,2.5,4.7,7.3c0,4.7-1.8,7.4-4.7,7.4C115.8,494.5,114,491.9,114,487.1z
		 M121.2,487.1c0-4-1-5.5-2.5-5.5c-1.5,0-2.5,1.4-2.5,5.5c0,4,1,5.6,2.5,5.6C120.1,492.7,121.2,491.2,121.2,487.1z"/>
	<path d="M125.7,492.9c0-0.9,0.7-1.6,1.5-1.6c0.8,0,1.5,0.7,1.5,1.6c0,0.9-0.7,1.6-1.5,1.6C126.3,494.5,125.7,493.8,125.7,492.9z"/>
	<path d="M131.8,492.3h3.2v-9.7h-2.6v-1.4c1.4-0.2,2.3-0.6,3.1-1.1h1.7v12.2h2.8v1.9h-8.3V492.3z"/>
	<path d="M191.3,487.1c0-4.7,1.8-7.3,4.7-7.3c2.9,0,4.7,2.5,4.7,7.3c0,4.7-1.8,7.4-4.7,7.4C193.1,494.5,191.3,491.9,191.3,487.1z
		 M198.5,487.1c0-4-1-5.5-2.5-5.5s-2.5,1.4-2.5,5.5c0,4,1,5.6,2.5,5.6S198.5,491.2,198.5,487.1z"/>
	<path d="M203,492.9c0-0.9,0.7-1.6,1.5-1.6s1.5,0.7,1.5,1.6c0,0.9-0.7,1.6-1.5,1.6S203,493.8,203,492.9z"/>
	<path d="M208.3,492.9c4-4,6.5-6.5,6.5-8.7c0-1.5-0.8-2.6-2.5-2.6c-1.1,0-2.1,0.7-2.8,1.6l-1.3-1.3c1.2-1.3,2.5-2.2,4.4-2.2
		c2.7,0,4.4,1.7,4.4,4.2c0,2.6-2.3,5.2-5.3,8.3c0.7-0.1,1.7-0.1,2.4-0.1h3.7v1.9h-9.3V492.9z"/>
	<path d="M268.7,487.1c0-4.7,1.8-7.3,4.7-7.3c2.9,0,4.7,2.5,4.7,7.3c0,4.7-1.8,7.4-4.7,7.4C270.5,494.5,268.7,491.9,268.7,487.1z
		 M275.9,487.1c0-4-1-5.5-2.5-5.5s-2.5,1.4-2.5,5.5c0,4,1,5.6,2.5,5.6S275.9,491.2,275.9,487.1z"/>
	<path d="M280.4,492.9c0-0.9,0.7-1.6,1.5-1.6c0.8,0,1.5,0.7,1.5,1.6c0,0.9-0.7,1.6-1.5,1.6C281.1,494.5,280.4,493.8,280.4,492.9z"/>
	<path d="M285.4,492.5l1.1-1.5c0.8,0.9,1.9,1.6,3.4,1.6c1.6,0,2.8-0.9,2.8-2.3c0-1.6-1-2.6-4.3-2.6v-1.7c2.8,0,3.8-1,3.8-2.4
		c0-1.3-0.8-2-2.2-2c-1.1,0-2.1,0.5-2.9,1.4l-1.2-1.4c1.1-1,2.5-1.8,4.1-1.8c2.6,0,4.4,1.3,4.4,3.7c0,1.6-1,2.7-2.5,3.3v0.1
		c1.7,0.4,3,1.6,3,3.5c0,2.5-2.2,4-4.8,4C287.8,494.5,286.4,493.6,285.4,492.5z"/>
	<path d="M346.1,487.1c0-4.7,1.8-7.3,4.7-7.3c2.9,0,4.7,2.5,4.7,7.3c0,4.7-1.8,7.4-4.7,7.4C347.9,494.5,346.1,491.9,346.1,487.1z
		 M353.3,487.1c0-4-1-5.5-2.5-5.5s-2.5,1.4-2.5,5.5c0,4,1,5.6,2.5,5.6S353.3,491.2,353.3,487.1z"/>
	<path d="M357.8,492.9c0-0.9,0.7-1.6,1.5-1.6s1.5,0.7,1.5,1.6c0,0.9-0.7,1.6-1.5,1.6S357.8,493.8,357.8,492.9z"/>
	<path d="M368.9,490.5h-6.3V489l5.8-8.8h2.6v8.6h1.8v1.7H371v3.7h-2.1V490.5z M368.9,488.7v-3.6c0-0.8,0.1-2,0.1-2.8h-0.1
		c-0.4,0.7-0.7,1.4-1.2,2.1l-2.8,4.3H368.9z"/>
	<path d="M423.5,487.1c0-4.7,1.8-7.3,4.7-7.3c2.9,0,4.7,2.5,4.7,7.3c0,4.7-1.8,7.4-4.7,7.4C425.3,494.5,423.5,491.9,423.5,487.1z
		 M430.7,487.1c0-4-1-5.5-2.5-5.5s-2.5,1.4-2.5,5.5c0,4,1,5.6,2.5,5.6S430.7,491.2,430.7,487.1z"/>
	<path d="M435.2,492.9c0-0.9,0.7-1.6,1.5-1.6c0.8,0,1.5,0.7,1.5,1.6c0,0.9-0.7,1.6-1.5,1.6C435.8,494.5,435.2,493.8,435.2,492.9z"/>
	<path d="M440.1,492.5l1.1-1.5c0.8,0.8,1.9,1.6,3.4,1.6c1.6,0,2.9-1.1,2.9-2.9s-1.1-2.8-2.8-2.8c-0.9,0-1.5,0.3-2.3,0.8l-1.1-0.7
		l0.4-6.9h7.3v1.9h-5.4l-0.3,3.7c0.6-0.3,1.2-0.5,2-0.5c2.4,0,4.4,1.4,4.4,4.4c0,3.1-2.3,4.8-4.9,4.8
		C442.6,494.5,441.2,493.5,440.1,492.5z"/>
	<path d="M500.9,487.1c0-4.7,1.8-7.3,4.7-7.3c2.9,0,4.7,2.5,4.7,7.3c0,4.7-1.8,7.4-4.7,7.4C502.7,494.5,500.9,491.9,500.9,487.1z
		 M508.1,487.1c0-4-1-5.5-2.5-5.5s-2.5,1.4-2.5,5.5c0,4,1,5.6,2.5,5.6S508.1,491.2,508.1,487.1z"/>
	<path d="M512.5,492.9c0-0.9,0.7-1.6,1.5-1.6s1.5,0.7,1.5,1.6c0,0.9-0.7,1.6-1.5,1.6S512.5,493.8,512.5,492.9z"/>
	<path d="M518,487.7c0-5.5,2.6-7.8,5.5-7.8c1.6,0,2.8,0.7,3.6,1.6l-1.2,1.4c-0.5-0.6-1.4-1.1-2.3-1.1c-1.8,0-3.4,1.4-3.5,5.5
		c0.8-1,2.1-1.7,3.1-1.7c2.4,0,4.1,1.4,4.1,4.3c0,2.8-2,4.6-4.3,4.6C520.3,494.5,518,492.3,518,487.7z M520.2,488.9
		c0.2,2.6,1.3,3.8,2.8,3.8c1.3,0,2.3-1.1,2.3-2.8c0-1.7-0.9-2.7-2.4-2.7C522,487.2,521,487.7,520.2,488.9z"/>
	<path d="M578.2,487.1c0-4.7,1.8-7.3,4.7-7.3c2.9,0,4.7,2.5,4.7,7.3c0,4.7-1.8,7.4-4.7,7.4C580,494.5,578.2,491.9,578.2,487.1z
		 M585.4,487.1c0-4-1-5.5-2.5-5.5c-1.5,0-2.5,1.4-2.5,5.5c0,4,1,5.6,2.5,5.6C584.4,492.7,585.4,491.2,585.4,487.1z"/>
	<path d="M589.9,492.9c0-0.9,0.7-1.6,1.5-1.6s1.5,0.7,1.5,1.6c0,0.9-0.7,1.6-1.5,1.6S589.9,493.8,589.9,492.9z"/>
	<path d="M602.1,482.1h-6.8v-1.9h9.3v1.4c-3.3,4.1-3.9,7.2-4.2,12.7h-2.3C598.4,489.1,599.4,485.9,602.1,482.1z"/>
	<path d="M655.6,487.1c0-4.7,1.8-7.3,4.7-7.3c2.9,0,4.7,2.5,4.7,7.3c0,4.7-1.8,7.4-4.7,7.4C657.4,494.5,655.6,491.9,655.6,487.1z
		 M662.8,487.1c0-4-1-5.5-2.5-5.5c-1.5,0-2.5,1.4-2.5,5.5c0,4,1,5.6,2.5,5.6C661.8,492.7,662.8,491.2,662.8,487.1z"/>
	<path d="M667.3,492.9c0-0.9,0.7-1.6,1.5-1.6c0.8,0,1.5,0.7,1.5,1.6c0,0.9-0.7,1.6-1.5,1.6C668,494.5,667.3,493.8,667.3,492.9z"/>
	<path d="M672.7,490.6c0-1.8,1.3-3,2.6-3.7v-0.1c-1.1-0.8-1.9-1.8-1.9-3.3c0-2.2,1.8-3.7,4.1-3.7c2.5,0,4.1,1.6,4.1,3.8
		c0,1.5-1,2.7-1.9,3.3v0.1c1.3,0.7,2.4,1.7,2.4,3.6c0,2.1-1.9,3.8-4.7,3.8C674.7,494.5,672.7,492.9,672.7,490.6z M679.9,490.6
		c0-1.7-1.6-2.2-3.6-3c-1,0.7-1.7,1.7-1.7,2.8c0,1.4,1.2,2.4,2.8,2.4C678.9,492.8,679.9,492,679.9,490.6z M679.6,483.8
		c0-1.3-0.8-2.3-2.2-2.3c-1.2,0-2.1,0.8-2.1,2.1c0,1.5,1.4,2.2,3,2.8C679.2,485.6,679.6,484.7,679.6,483.8z"/>
	<path d="M733,487.1c0-4.7,1.8-7.3,4.7-7.3c2.9,0,4.7,2.5,4.7,7.3c0,4.7-1.8,7.4-4.7,7.4C734.8,494.5,733,491.9,733,487.1z
		 M740.2,487.1c0-4-1-5.5-2.5-5.5c-1.5,0-2.5,1.4-2.5,5.5c0,4,1,5.6,2.5,5.6C739.1,492.7,740.2,491.2,740.2,487.1z"/>
	<path d="M744.7,492.9c0-0.9,0.7-1.6,1.5-1.6c0.8,0,1.5,0.7,1.5,1.6c0,0.9-0.7,1.6-1.5,1.6C745.4,494.5,744.7,493.8,744.7,492.9z"/>
	<path d="M750.2,492.9l1.2-1.4c0.5,0.6,1.4,1.1,2.3,1.1c1.8,0,3.4-1.4,3.5-5.5c-0.8,1.1-2.1,1.7-3.2,1.7c-2.4,0-4.1-1.4-4.1-4.3
		c0-2.8,2-4.6,4.3-4.6c2.8,0,5,2.2,5,6.8c0,5.5-2.6,7.8-5.5,7.8C752.2,494.5,751,493.8,750.2,492.9z M754.4,487.2
		c0.9,0,1.9-0.5,2.7-1.7c-0.3-2.6-1.3-3.8-2.8-3.8c-1.2,0-2.2,1-2.2,2.8C752.1,486.2,752.9,487.2,754.4,487.2z"/>
	<path d="M811.1,492.3h3.2v-9.7h-2.6v-1.4c1.4-0.2,2.3-0.6,3.1-1.1h1.7v12.2h2.8v1.9h-8.3V492.3z"/>
</g>
<rect x="476" y="109.8" transform="matrix(-1 -1.224647e-16 1.224647e-16 -1 1257.0092 248.6263)" class="st0" width="305.1" height="29"/>
<path class="st1" d="M829.2,467H62.2c-3.2,0-8.8,1.1-8.8-4.4s8.3-4.4,8.3-4.4h767.4c3.2,0,5.7,2,5.7,4.4
	C834.9,465.1,832.3,467,829.2,467z"/>
<g>
	<polygon class="st0" points="768.1,102.5 775.9,124.9 768.1,147.4 811.9,124.9 	"/>
</g>
<line class="st2" x1="438.1" y1="115" x2="438.1" y2="451.8"/>
<g>
	<path class="st8" d="M530,125.5c-0.7,1.6-1.9,2.8-3.3,3.7c1.6,0.6,3.4,1.1,5.4,1.3c-0.3,0.3-0.7,0.9-0.9,1.3
		c-2.3-0.3-4.3-0.9-6-1.8c-1.8,0.9-3.9,1.4-6,1.8c-0.1-0.4-0.5-1-0.8-1.3c2-0.2,3.9-0.7,5.5-1.3c-1.1-0.8-2-1.7-2.8-2.8l0.3-0.1
		h-0.7V125h8l0.3,0L530,125.5z M520.1,125.4h-1.3v-3.2h2.3c-0.2-0.5-0.5-1.3-0.9-1.8l1.2-0.4c0.4,0.6,0.8,1.4,1,1.9l-0.8,0.3h3.3
		c-0.1-0.6-0.4-1.5-0.7-2.2l1.3-0.3c0.3,0.7,0.7,1.5,0.8,2.1l-1.3,0.3h3c0.4-0.7,0.9-1.7,1.2-2.5l1.5,0.4c-0.4,0.7-0.8,1.5-1.3,2.1
		h2.4v3.2h-1.4v-1.9h-10.4V125.4z M531.1,119c-3.2,0.6-7.9,1-11.9,1.1c0-0.4-0.2-0.9-0.3-1.2c3.9-0.2,8.5-0.5,11.2-1.1L531.1,119z
		 M522.6,126.3c0.7,0.9,1.6,1.6,2.7,2.2c1-0.6,1.9-1.3,2.5-2.2H522.6z"/>
	<path class="st8" d="M538.6,129.1c1-0.2,2-0.4,3.1-0.5l0.1,1.2c-2.7,0.5-5.6,1.1-7.6,1.4l-0.3-1.3c0.9-0.1,2.1-0.3,3.4-0.6V127
		h-2.9v-1.2h2.9v-1.5h1.3v1.5h2.9v1.2h-2.9V129.1z M534,118.8h7.8v1.2h-4.1c-0.4,0.9-1,1.8-1.6,2.5l3.4-0.3c-0.3-0.5-0.7-1-1-1.4
		l1-0.6c0.8,1,1.8,2.4,2.2,3.3l-1.1,0.7c-0.1-0.2-0.3-0.6-0.4-0.8c-4.5,0.4-5.1,0.5-5.5,0.6c-0.1-0.3-0.3-0.9-0.5-1.3
		c0.2-0.1,0.5-0.3,0.7-0.7c0.2-0.3,0.7-1.1,1.1-2H534V118.8z M543.9,128.4h-1.3v-9.2h1.3V128.4z M546.9,118.1v11.8
		c0,0.8-0.2,1.2-0.7,1.4c-0.5,0.2-1.3,0.3-2.5,0.3c-0.1-0.4-0.3-1-0.5-1.4c0.9,0,1.7,0,1.9,0c0.3,0,0.3-0.1,0.3-0.3v-11.8H546.9z"/>
	<path class="st8" d="M553.1,119.4h1.8v4.6h4.8v-4.6h1.8v11.3h-1.8v-5.1h-4.8v5.1h-1.8V119.4z"/>
	<path class="st8" d="M564.1,119.7c0-0.6,0.4-1,1.1-1c0.6,0,1.1,0.4,1.1,1c0,0.6-0.5,1.1-1.1,1.1
		C564.5,120.7,564.1,120.3,564.1,119.7z M564.3,122.3h1.8v8.4h-1.8V122.3z"/>
	<path class="st8" d="M568.1,132.3c0-0.7,0.4-1.4,1.2-1.8v-0.1c-0.4-0.3-0.8-0.7-0.8-1.4c0-0.7,0.5-1.2,0.9-1.6v-0.1
		c-0.6-0.4-1.1-1.2-1.1-2.2c0-1.9,1.5-3,3.3-3c0.5,0,0.9,0.1,1.2,0.2h3v1.3h-1.6c0.3,0.3,0.5,0.9,0.5,1.5c0,1.8-1.4,2.9-3.1,2.9
		c-0.4,0-0.8-0.1-1.2-0.3c-0.3,0.2-0.5,0.5-0.5,0.9c0,0.5,0.3,0.8,1.4,0.8h1.5c2,0,3,0.6,3,2c0,1.6-1.7,2.9-4.4,2.9
		C569.5,134.5,568.1,133.7,568.1,132.3z M574.2,131.8c0-0.7-0.6-0.9-1.6-0.9h-1.3c-0.4,0-0.8,0-1.1-0.1c-0.5,0.4-0.7,0.8-0.7,1.2
		c0,0.8,0.9,1.3,2.2,1.3C573.3,133.3,574.2,132.6,574.2,131.8z M573.2,125.1c0-1.1-0.7-1.8-1.6-1.8s-1.6,0.6-1.6,1.8
		s0.7,1.8,1.6,1.8C572.5,126.9,573.2,126.2,573.2,125.1z"/>
	<path class="st8" d="M577.5,118.5h1.8v3.2l-0.1,1.7c0.7-0.7,1.6-1.3,2.7-1.3c1.8,0,2.6,1.2,2.6,3.3v5.3h-1.8v-5.1
		c0-1.5-0.4-2-1.4-2c-0.8,0-1.3,0.4-2,1.1v6h-1.8V118.5z"/>
	<path class="st8" d="M590.6,119.4h6.7v1.5h-4.9v3.4h4.2v1.5h-4.2v4.8h-1.8V119.4z"/>
	<path class="st8" d="M598.2,126.5c0-2.8,1.9-4.4,4-4.4c2.1,0,4,1.6,4,4.4s-1.9,4.4-4,4.4C600.1,130.9,598.2,129.3,598.2,126.5z
		 M604.3,126.5c0-1.8-0.8-3-2.2-3c-1.3,0-2.1,1.2-2.1,3c0,1.8,0.8,3,2.1,3C603.5,129.5,604.3,128.3,604.3,126.5z"/>
	<path class="st8" d="M608.2,122.3h1.4l0.1,1.5h0c0.6-1.1,1.5-1.7,2.4-1.7c0.4,0,0.7,0.1,0.9,0.2l-0.3,1.5c-0.3-0.1-0.5-0.1-0.8-0.1
		c-0.7,0-1.5,0.5-2,1.8v5.2h-1.8V122.3z"/>
	<path class="st8" d="M618,119.4h1.8v9.8h4.8v1.5H618V119.4z"/>
	<path class="st8" d="M625.6,126.5c0-2.8,1.9-4.4,4-4.4c2.1,0,4,1.6,4,4.4s-1.9,4.4-4,4.4C627.5,130.9,625.6,129.3,625.6,126.5z
		 M631.7,126.5c0-1.8-0.8-3-2.2-3c-1.3,0-2.1,1.2-2.1,3c0,1.8,0.8,3,2.1,3C630.9,129.5,631.7,128.3,631.7,126.5z"/>
	<path class="st8" d="M635.6,122.3h1.4l0.1,1.2h0c0.8-0.7,1.6-1.4,2.8-1.4c1.8,0,2.6,1.2,2.6,3.3v5.3h-1.8v-5.1c0-1.5-0.4-2-1.4-2
		c-0.8,0-1.3,0.4-2,1.1v6h-1.8V122.3z"/>
	<path class="st8" d="M644.5,132.3c0-0.7,0.4-1.4,1.2-1.8v-0.1c-0.4-0.3-0.8-0.7-0.8-1.4c0-0.7,0.5-1.2,0.9-1.6v-0.1
		c-0.6-0.4-1.1-1.2-1.1-2.2c0-1.9,1.5-3,3.3-3c0.5,0,0.9,0.1,1.2,0.2h3v1.3h-1.6c0.3,0.3,0.5,0.9,0.5,1.5c0,1.8-1.4,2.9-3.1,2.9
		c-0.4,0-0.8-0.1-1.2-0.3c-0.3,0.2-0.5,0.5-0.5,0.9c0,0.5,0.3,0.8,1.4,0.8h1.5c2,0,3,0.6,3,2c0,1.6-1.7,2.9-4.4,2.9
		C646,134.5,644.5,133.7,644.5,132.3z M650.7,131.8c0-0.7-0.6-0.9-1.6-0.9h-1.3c-0.4,0-0.8,0-1.1-0.1c-0.5,0.4-0.7,0.8-0.7,1.2
		c0,0.8,0.9,1.3,2.2,1.3C649.7,133.3,650.7,132.6,650.7,131.8z M649.7,125.1c0-1.1-0.7-1.8-1.6-1.8s-1.6,0.6-1.6,1.8
		s0.7,1.8,1.6,1.8S649.7,126.2,649.7,125.1z"/>
	<path class="st8" d="M653.1,126.5c0-2.7,1.9-4.4,3.8-4.4c2.2,0,3.4,1.6,3.4,4c0,0.4,0,0.7-0.1,0.9h-5.5c0.1,1.6,1.1,2.6,2.6,2.6
		c0.7,0,1.4-0.2,2-0.6l0.6,1.1c-0.8,0.5-1.7,0.9-2.8,0.9C654.9,130.9,653.1,129.3,653.1,126.5z M658.9,125.7c0-1.4-0.7-2.3-1.9-2.3
		c-1.1,0-2,0.8-2.2,2.3H658.9z"/>
	<path class="st8" d="M662.3,122.3h1.4l0.1,1.5h0c0.6-1.1,1.5-1.7,2.4-1.7c0.4,0,0.7,0.1,0.9,0.2l-0.3,1.5c-0.3-0.1-0.5-0.1-0.8-0.1
		c-0.7,0-1.5,0.5-2,1.8v5.2h-1.8V122.3z"/>
	<path class="st8" d="M674.2,128.8c-0.4,0.9-1,1.9-1.6,2.6c-0.2-0.2-0.7-0.6-1-0.8c0.6-0.6,1.1-1.4,1.4-2.1L674.2,128.8z
		 M679.8,124.6h-8.3v-1.1h3.5c-0.1-0.2-0.2-0.4-0.3-0.6l1.2-0.3h-3.7v-4.2h7v4.2h-3.2c0.2,0.2,0.3,0.6,0.5,0.8h3.2V124.6z
		 M676.4,128.3v2.3c0,0.6-0.1,0.9-0.5,1.1c-0.4,0.2-1,0.2-1.8,0.2c-0.1-0.4-0.2-0.8-0.4-1.2c0.6,0,1.1,0,1.2,0c0.2,0,0.2,0,0.2-0.2
		v-2.3h-2.6v-3h6.7v3H676.4z M673.6,120.1h4.3v-0.7h-4.3V120.1z M673.6,121.7h4.3V121h-4.3V121.7z M673.8,127.3h3.9v-1.1h-3.9V127.3
		z M685.4,127.1c-1.2,2-3.1,3.7-5.1,4.7c-0.2-0.3-0.6-0.8-0.9-1.1l-1,0.5c-0.2-0.6-0.8-1.6-1.3-2.4l1-0.4c0.5,0.7,1.1,1.6,1.3,2.2
		c1.9-0.9,3.7-2.4,4.7-4.1L685.4,127.1z M684.7,118.7c-1,1.4-2.6,2.7-4,3.6c-0.2-0.3-0.7-0.7-1-1c1.3-0.7,2.8-2,3.7-3.2L684.7,118.7
		z M685.1,122.8c-1.1,1.5-2.8,2.9-4.4,3.8c-0.2-0.3-0.6-0.7-1-1c1.5-0.7,3.2-2,4.1-3.3L685.1,122.8z"/>
	<path class="st8" d="M691.5,121.1c-0.7,1.9-2.3,3.1-4.2,3.9c-0.1-0.2-0.4-0.7-0.6-0.9c1.2-0.4,2.2-1,2.9-1.8
		c-1.9,0.2-2.2,0.3-2.4,0.4v0c-0.1-0.2-0.2-0.7-0.3-0.9c0.3,0,0.5-0.2,0.9-0.4c0.2-0.1,0.5-0.4,0.8-0.7c-1,0.1-1.3,0.1-1.4,0.2
		c-0.1-0.2-0.2-0.7-0.3-0.9c0.2,0,0.4-0.2,0.6-0.4c0.2-0.2,1-0.9,1.4-1.7l0.9,0.5c-0.4,0.6-0.9,1.1-1.5,1.6l1.1-0.1
		c0.3-0.3,0.6-0.6,0.8-0.9l0.8,0.5c-0.7,0.8-1.6,1.6-2.4,2.2l1.6-0.1c0.1-0.2,0.2-0.4,0.3-0.7L691.5,121.1v-2.4h1.2v0h0.3
		c-0.1-0.2-0.2-0.5-0.3-0.7l1.1-0.3c0.2,0.3,0.4,0.7,0.5,1h1.6v3.5h-0.6c0.5,0.5,0.9,1,1.2,1.5v-5.4h3.1l0.2-0.1l0.8,0.4
		c-0.4,0.8-0.8,1.5-1.1,2.2c0.8,0.6,1.2,1.3,1.2,1.8c0,0.5-0.2,0.9-0.6,1.1c-0.2,0.1-0.5,0.2-0.7,0.2c-0.3,0-0.8,0-1.1,0
		c0-0.3-0.1-0.7-0.3-1c0.4,0,0.7,0,1,0c0.2,0,0.3,0,0.4-0.1c0.2-0.1,0.3-0.3,0.3-0.5c0-0.4-0.4-0.8-1.2-1.5c0.3-0.6,0.6-1.2,0.8-1.7
		h-1.4v5.2h-1.1v-0.8l-0.8,0.4c-0.1-0.2-0.3-0.5-0.5-0.7c-3.1,0.7-3.5,0.8-3.8,0.9c-0.1-0.3-0.3-0.7-0.4-1c0.2-0.1,0.6-0.3,0.6-0.9
		V121.1z M697.2,125.8c-0.3,0.3-0.5,0.6-0.8,0.9h4.1v1h-13.6v-1h4c-0.1-0.3-0.3-0.6-0.5-0.8l0.5-0.2h-2.4v-0.9h4.6
		c-0.1-0.2-0.2-0.4-0.3-0.6l1.3-0.3c0.2,0.3,0.3,0.6,0.4,0.9h4.6v0.9H697L697.2,125.8z M689,128.2h9.5v3.7h-1.4v-0.4h-6.9v0.4H689
		V128.2z M690.3,129v0.6h6.9V129H690.3z M697.1,130.8v-0.6h-6.9v0.6H697.1z M695.1,126.7c0.2-0.3,0.4-0.6,0.6-0.9h-4.1
		c0.2,0.3,0.4,0.6,0.5,0.9l-0.2,0.1H695.1z M692.6,119.4v0.7h2.1v-0.7H692.6z M692.6,121.5h2.1v-0.7h-2.1V121.5z M694.4,122.7
		c-0.1-0.1-0.3-0.3-0.4-0.4l0.1-0.1h-1.5v0.8L694.4,122.7z"/>
	<path class="st8" d="M705.6,129.5v2.4h-1.3v-2.4h-2.4v-1.2h2.4v-1.1h-2v-5.5h2v-1h-2.3v-1.2h2.3v-1.5h1.3v1.5h2.3v1.2h-2.3v1h2v5.5
		h-2v1.1h2.3v1.2H705.6z M703.5,123.9h1v-1.2h-1V123.9z M703.5,126.1h1v-1.2h-1V126.1z M706.5,122.7h-1v1.2h1V122.7z M706.5,124.9
		h-1v1.2h1V124.9z M714.3,124.7c-0.4,1.3-0.9,2.5-1.5,3.5c0.9,1.1,2.1,2,3.4,2.5c-0.3,0.3-0.7,0.8-0.9,1.2c-1.3-0.6-2.4-1.5-3.3-2.6
		c-0.9,1.1-2.1,1.9-3.4,2.6c-0.2-0.3-0.6-0.8-0.9-1.1c1.4-0.6,2.6-1.5,3.5-2.6c-0.7-1-1.2-2.2-1.6-3.5c-0.2,0.3-0.4,0.5-0.5,0.7
		c-0.2-0.2-0.8-0.7-1.1-0.9c0.7-0.8,1.5-2,2-3.1l1.3,0.4c-0.5,0.9-1.1,1.9-1.7,2.8l1.2-0.3c0.3,0.9,0.7,1.8,1.2,2.6
		c0.5-0.8,0.8-1.7,1.1-2.7L714.3,124.7z M715.7,121.3h-7.6V120h3.4c-0.2-0.5-0.6-1.2-0.9-1.7l1.2-0.5c0.4,0.6,0.8,1.3,1,1.8
		l-0.9,0.4h3.8V121.3z M713.8,121.5c0.7,0.9,1.7,2.3,2.2,3.1l-1.2,0.8c-0.4-0.8-1.4-2.2-2.2-3.2L713.8,121.5z"/>
	<path class="st8" d="M725.3,123.6c1,3.2,3,5.8,5.9,7c-0.4,0.3-0.8,0.9-1.1,1.3c-2.9-1.3-4.7-3.8-5.9-7c-0.8,2.8-2.4,5.4-5.9,7
		c-0.2-0.4-0.7-0.9-1.1-1.2c3.6-1.6,5.1-4.3,5.7-7.1h-5.4v-1.5h5.7c0.2-1.5,0.2-3,0.2-4.2h1.5c0,1.2,0,2.7-0.2,4.2h6.2v1.5H725.3z"
		/>
</g>
<rect x="102.1" y="109.8" class="st0" width="305.1" height="29"/>
<g>
	<polygon class="st0" points="115.1,147.4 107.2,124.9 115.1,102.5 71.3,124.9 	"/>
</g>
<g>
	<path class="st8" d="M152.5,125.5c-0.7,1.6-1.9,2.8-3.3,3.7c1.6,0.6,3.4,1.1,5.4,1.3c-0.3,0.3-0.7,0.9-0.9,1.3
		c-2.3-0.3-4.3-0.9-6-1.8c-1.8,0.9-3.9,1.4-6,1.8c-0.1-0.4-0.5-1-0.8-1.3c2-0.2,3.9-0.7,5.5-1.3c-1.1-0.8-2-1.7-2.8-2.8l0.3-0.1
		h-0.7V125h8l0.3,0L152.5,125.5z M142.6,125.4h-1.3v-3.2h2.3c-0.2-0.5-0.5-1.3-0.9-1.8l1.2-0.4c0.4,0.6,0.8,1.4,1,1.9l-0.8,0.3h3.3
		c-0.1-0.6-0.4-1.5-0.7-2.2l1.3-0.3c0.3,0.7,0.7,1.5,0.8,2.1l-1.3,0.3h3c0.4-0.7,0.9-1.7,1.2-2.5l1.5,0.4c-0.4,0.7-0.8,1.5-1.3,2.1
		h2.4v3.2h-1.4v-1.9h-10.4V125.4z M153.6,119c-3.2,0.6-7.9,1-11.9,1.1c0-0.4-0.2-0.9-0.3-1.2c3.9-0.2,8.5-0.5,11.2-1.1L153.6,119z
		 M145.1,126.3c0.7,0.9,1.6,1.6,2.7,2.2c1-0.6,1.9-1.3,2.5-2.2H145.1z"/>
	<path class="st8" d="M161.1,129.1c1-0.2,2-0.4,3.1-0.5l0.1,1.2c-2.7,0.5-5.6,1.1-7.6,1.4l-0.3-1.3c0.9-0.1,2.1-0.3,3.4-0.6V127
		h-2.9v-1.2h2.9v-1.5h1.3v1.5h2.9v1.2h-2.9V129.1z M156.5,118.8h7.8v1.2h-4.1c-0.4,0.9-1,1.8-1.6,2.5l3.4-0.3c-0.3-0.5-0.7-1-1-1.4
		l1-0.6c0.8,1,1.8,2.4,2.2,3.3l-1.1,0.7c-0.1-0.2-0.3-0.6-0.4-0.8c-4.5,0.4-5.1,0.5-5.5,0.6c-0.1-0.3-0.3-0.9-0.5-1.3
		c0.2-0.1,0.5-0.3,0.7-0.7c0.2-0.3,0.7-1.1,1.1-2h-2.2V118.8z M166.4,128.4h-1.3v-9.2h1.3V128.4z M169.4,118.1v11.8
		c0,0.8-0.2,1.2-0.7,1.4c-0.5,0.2-1.3,0.3-2.5,0.3c-0.1-0.4-0.3-1-0.5-1.4c0.9,0,1.7,0,1.9,0c0.3,0,0.3-0.1,0.3-0.3v-11.8H169.4z"/>
	<path class="st8" d="M175.6,119.4h1.8v4.6h4.8v-4.6h1.8v11.3h-1.8v-5.1h-4.8v5.1h-1.8V119.4z"/>
	<path class="st8" d="M186.6,119.7c0-0.6,0.4-1,1.1-1s1.1,0.4,1.1,1c0,0.6-0.5,1.1-1.1,1.1S186.6,120.3,186.6,119.7z M186.8,122.3
		h1.8v8.4h-1.8V122.3z"/>
	<path class="st8" d="M190.6,132.3c0-0.7,0.4-1.4,1.2-1.8v-0.1c-0.4-0.3-0.8-0.7-0.8-1.4c0-0.7,0.5-1.2,0.9-1.6v-0.1
		c-0.6-0.4-1.1-1.2-1.1-2.2c0-1.9,1.5-3,3.3-3c0.5,0,0.9,0.1,1.2,0.2h3v1.3h-1.6c0.3,0.3,0.6,0.9,0.6,1.5c0,1.8-1.4,2.9-3.1,2.9
		c-0.4,0-0.8-0.1-1.2-0.3c-0.3,0.2-0.5,0.5-0.5,0.9c0,0.5,0.3,0.8,1.4,0.8h1.5c2,0,3,0.6,3,2c0,1.6-1.7,2.9-4.4,2.9
		C192,134.5,190.6,133.7,190.6,132.3z M196.8,131.8c0-0.7-0.6-0.9-1.6-0.9h-1.3c-0.4,0-0.8,0-1.1-0.1c-0.5,0.4-0.7,0.8-0.7,1.2
		c0,0.8,0.9,1.3,2.2,1.3C195.8,133.3,196.8,132.6,196.8,131.8z M195.7,125.1c0-1.1-0.7-1.8-1.6-1.8s-1.6,0.6-1.6,1.8
		s0.7,1.8,1.6,1.8S195.7,126.2,195.7,125.1z"/>
	<path class="st8" d="M200,118.5h1.8v3.2l-0.1,1.7c0.7-0.7,1.6-1.3,2.7-1.3c1.8,0,2.6,1.2,2.6,3.3v5.3h-1.8v-5.1c0-1.5-0.4-2-1.4-2
		c-0.8,0-1.3,0.4-2,1.1v6H200V118.5z"/>
	<path class="st8" d="M213.1,119.4h6.7v1.5h-4.9v3.4h4.2v1.5h-4.2v4.8h-1.8V119.4z"/>
	<path class="st8" d="M220.7,126.5c0-2.8,1.9-4.4,4-4.4c2.1,0,4,1.6,4,4.4s-1.9,4.4-4,4.4C222.6,130.9,220.7,129.3,220.7,126.5z
		 M226.8,126.5c0-1.8-0.8-3-2.2-3c-1.3,0-2.1,1.2-2.1,3c0,1.8,0.8,3,2.1,3C226,129.5,226.8,128.3,226.8,126.5z"/>
	<path class="st8" d="M230.7,122.3h1.4l0.1,1.5h0c0.6-1.1,1.5-1.7,2.4-1.7c0.4,0,0.7,0.1,0.9,0.2l-0.3,1.5c-0.3-0.1-0.5-0.1-0.8-0.1
		c-0.7,0-1.5,0.5-2,1.8v5.2h-1.8V122.3z"/>
	<path class="st8" d="M240.5,119.4h1.8v9.8h4.8v1.5h-6.5V119.4z"/>
	<path class="st8" d="M248.1,126.5c0-2.8,1.9-4.4,4-4.4c2.1,0,4,1.6,4,4.4s-1.9,4.4-4,4.4C250,130.9,248.1,129.3,248.1,126.5z
		 M254.2,126.5c0-1.8-0.8-3-2.2-3c-1.3,0-2.1,1.2-2.1,3c0,1.8,0.8,3,2.1,3C253.4,129.5,254.2,128.3,254.2,126.5z"/>
	<path class="st8" d="M258.1,122.3h1.4l0.1,1.2h0c0.8-0.7,1.6-1.4,2.8-1.4c1.8,0,2.6,1.2,2.6,3.3v5.3h-1.8v-5.1c0-1.5-0.4-2-1.4-2
		c-0.8,0-1.3,0.4-2,1.1v6h-1.8V122.3z"/>
	<path class="st8" d="M267,132.3c0-0.7,0.4-1.4,1.2-1.8v-0.1c-0.4-0.3-0.8-0.7-0.8-1.4c0-0.7,0.5-1.2,0.9-1.6v-0.1
		c-0.6-0.4-1.1-1.2-1.1-2.2c0-1.9,1.5-3,3.3-3c0.5,0,0.9,0.1,1.2,0.2h3v1.3h-1.6c0.3,0.3,0.6,0.9,0.6,1.5c0,1.8-1.4,2.9-3.1,2.9
		c-0.4,0-0.8-0.1-1.2-0.3c-0.3,0.2-0.5,0.5-0.5,0.9c0,0.5,0.3,0.8,1.4,0.8h1.5c2,0,3,0.6,3,2c0,1.6-1.7,2.9-4.4,2.9
		C268.5,134.5,267,133.7,267,132.3z M273.2,131.8c0-0.7-0.6-0.9-1.6-0.9h-1.3c-0.4,0-0.8,0-1.1-0.1c-0.5,0.4-0.7,0.8-0.7,1.2
		c0,0.8,0.9,1.3,2.2,1.3C272.2,133.3,273.2,132.6,273.2,131.8z M272.2,125.1c0-1.1-0.7-1.8-1.6-1.8s-1.6,0.6-1.6,1.8
		s0.7,1.8,1.6,1.8S272.2,126.2,272.2,125.1z"/>
	<path class="st8" d="M275.6,126.5c0-2.7,1.9-4.4,3.8-4.4c2.2,0,3.4,1.6,3.4,4c0,0.4,0,0.7-0.1,0.9h-5.5c0.1,1.6,1.1,2.6,2.6,2.6
		c0.7,0,1.4-0.2,2-0.6l0.6,1.1c-0.8,0.5-1.7,0.9-2.8,0.9C277.4,130.9,275.6,129.3,275.6,126.5z M281.4,125.7c0-1.4-0.7-2.3-1.9-2.3
		c-1.1,0-2,0.8-2.2,2.3H281.4z"/>
	<path class="st8" d="M284.8,122.3h1.4l0.1,1.5h0c0.6-1.1,1.5-1.7,2.4-1.7c0.4,0,0.7,0.1,0.9,0.2l-0.3,1.5c-0.3-0.1-0.5-0.1-0.8-0.1
		c-0.7,0-1.5,0.5-2,1.8v5.2h-1.8V122.3z"/>
	<path class="st8" d="M296.7,128.8c-0.4,0.9-1,1.9-1.6,2.6c-0.2-0.2-0.7-0.6-1-0.8c0.6-0.6,1.1-1.4,1.4-2.1L296.7,128.8z
		 M302.3,124.6h-8.3v-1.1h3.5c-0.1-0.2-0.2-0.4-0.3-0.6l1.2-0.3h-3.7v-4.2h7v4.2h-3.2c0.2,0.2,0.3,0.6,0.5,0.8h3.2V124.6z
		 M298.9,128.3v2.3c0,0.6-0.1,0.9-0.5,1.1c-0.4,0.2-1,0.2-1.9,0.2c-0.1-0.4-0.2-0.8-0.4-1.2c0.6,0,1.1,0,1.2,0c0.2,0,0.2,0,0.2-0.2
		v-2.3H295v-3h6.7v3H298.9z M296.1,120.1h4.3v-0.7h-4.3V120.1z M296.1,121.7h4.3V121h-4.3V121.7z M296.3,127.3h3.9v-1.1h-3.9V127.3z
		 M307.9,127.1c-1.2,2-3.1,3.7-5.1,4.7c-0.2-0.3-0.6-0.8-0.9-1.1l-1,0.5c-0.2-0.6-0.8-1.6-1.3-2.4l1-0.4c0.5,0.7,1.1,1.6,1.3,2.2
		c1.9-0.9,3.7-2.4,4.7-4.1L307.9,127.1z M307.2,118.7c-1,1.4-2.6,2.7-4,3.6c-0.2-0.3-0.7-0.7-1-1c1.3-0.7,2.8-2,3.7-3.2L307.2,118.7
		z M307.6,122.8c-1.1,1.5-2.8,2.9-4.4,3.8c-0.2-0.3-0.6-0.7-1-1c1.5-0.7,3.2-2,4.1-3.3L307.6,122.8z"/>
	<path class="st8" d="M314,121.1c-0.7,1.9-2.3,3.1-4.2,3.9c-0.1-0.2-0.4-0.7-0.6-0.9c1.2-0.4,2.2-1,2.9-1.8
		c-1.9,0.2-2.2,0.3-2.4,0.4v0c-0.1-0.2-0.2-0.7-0.3-0.9c0.3,0,0.6-0.2,0.9-0.4c0.2-0.1,0.5-0.4,0.8-0.7c-1,0.1-1.3,0.1-1.4,0.2
		c-0.1-0.2-0.2-0.7-0.3-0.9c0.2,0,0.4-0.2,0.6-0.4c0.2-0.2,1-0.9,1.4-1.7l0.9,0.5c-0.4,0.6-0.9,1.1-1.5,1.6l1.1-0.1
		c0.3-0.3,0.6-0.6,0.8-0.9l0.8,0.5c-0.7,0.8-1.6,1.6-2.4,2.2l1.6-0.1c0.1-0.2,0.2-0.4,0.3-0.7L314,121.1v-2.4h1.2v0h0.3
		c-0.1-0.2-0.2-0.5-0.3-0.7l1.1-0.3c0.2,0.3,0.4,0.7,0.5,1h1.6v3.5h-0.6c0.5,0.5,0.9,1,1.2,1.5v-5.4h3.1l0.2-0.1l0.8,0.4
		c-0.4,0.8-0.8,1.5-1.1,2.2c0.8,0.6,1.2,1.3,1.2,1.8c0,0.5-0.2,0.9-0.6,1.1c-0.2,0.1-0.5,0.2-0.7,0.2c-0.3,0-0.7,0-1.1,0
		c0-0.3-0.1-0.7-0.3-1c0.4,0,0.7,0,1,0c0.2,0,0.3,0,0.4-0.1c0.2-0.1,0.3-0.3,0.3-0.5c0-0.4-0.4-0.8-1.2-1.5c0.3-0.6,0.6-1.2,0.8-1.7
		h-1.4v5.2h-1.1v-0.8l-0.8,0.4c-0.1-0.2-0.3-0.5-0.5-0.7c-3.1,0.7-3.5,0.8-3.8,0.9c-0.1-0.3-0.3-0.7-0.4-1c0.2-0.1,0.6-0.3,0.6-0.9
		V121.1z M319.7,125.8c-0.3,0.3-0.5,0.6-0.8,0.9h4.1v1h-13.6v-1h4c-0.1-0.3-0.3-0.6-0.6-0.8l0.5-0.2h-2.4v-0.9h4.6
		c-0.1-0.2-0.2-0.4-0.3-0.6l1.3-0.3c0.2,0.3,0.3,0.6,0.4,0.9h4.6v0.9h-2.1L319.7,125.8z M311.5,128.2h9.5v3.7h-1.4v-0.4h-6.9v0.4
		h-1.3V128.2z M312.8,129v0.6h6.9V129H312.8z M319.6,130.8v-0.6h-6.9v0.6H319.6z M317.6,126.7c0.2-0.3,0.4-0.6,0.6-0.9h-4.1
		c0.2,0.3,0.4,0.6,0.5,0.9l-0.2,0.1H317.6z M315.1,119.4v0.7h2.1v-0.7H315.1z M315.1,121.5h2.1v-0.7h-2.1V121.5z M316.9,122.7
		c-0.1-0.1-0.3-0.3-0.4-0.4l0.1-0.1h-1.5v0.8L316.9,122.7z"/>
	<path class="st8" d="M328.1,129.5v2.4h-1.3v-2.4h-2.4v-1.2h2.4v-1.1h-2v-5.5h2v-1h-2.3v-1.2h2.3v-1.5h1.3v1.5h2.3v1.2h-2.3v1h2v5.5
		h-2v1.1h2.3v1.2H328.1z M326,123.9h1v-1.2h-1V123.9z M326,126.1h1v-1.2h-1V126.1z M329,122.7h-1v1.2h1V122.7z M329,124.9h-1v1.2h1
		V124.9z M336.8,124.7c-0.4,1.3-0.9,2.5-1.5,3.5c0.9,1.1,2.1,2,3.4,2.5c-0.3,0.3-0.7,0.8-0.9,1.2c-1.3-0.6-2.4-1.5-3.3-2.6
		c-0.9,1.1-2.1,1.9-3.4,2.6c-0.2-0.3-0.6-0.8-0.9-1.1c1.4-0.6,2.6-1.5,3.5-2.6c-0.7-1-1.2-2.2-1.6-3.5c-0.2,0.3-0.4,0.5-0.5,0.7
		c-0.2-0.2-0.8-0.7-1.1-0.9c0.7-0.8,1.5-2,2-3.1l1.3,0.4c-0.5,0.9-1.1,1.9-1.7,2.8l1.2-0.3c0.3,0.9,0.7,1.8,1.2,2.6
		c0.5-0.8,0.8-1.7,1.1-2.7L336.8,124.7z M338.2,121.3h-7.6V120h3.4c-0.2-0.5-0.6-1.2-0.9-1.7l1.2-0.5c0.4,0.6,0.8,1.3,1,1.8
		l-0.9,0.4h3.8V121.3z M336.3,121.5c0.7,0.9,1.7,2.3,2.2,3.1l-1.2,0.8c-0.4-0.8-1.4-2.2-2.2-3.2L336.3,121.5z"/>
	<path class="st8" d="M343.6,121.9c-0.5,2.2-1.4,5-2.7,6.7c-0.4-0.3-1-0.6-1.4-0.7c1.3-1.6,2.1-4.2,2.4-6.2L343.6,121.9z
		 M347.5,118.1V130c0,0.9-0.2,1.4-0.8,1.6c-0.6,0.2-1.6,0.3-3,0.3c-0.1-0.4-0.3-1.1-0.6-1.5c1,0,2.2,0,2.5,0c0.3,0,0.4-0.1,0.4-0.4
		v-11.9H347.5z M351,121.5c1.3,2.1,2.6,4.9,2.9,6.8l-1.5,0.6c-0.3-1.8-1.5-4.6-2.8-6.8L351,121.5z"/>
</g>
<circle class="st3" cx="94.6" cy="328.4" r="8"/>
<g>
	<path class="st9" d="M125.9,327.3v1h-6.6c0,0.4-0.1,0.8-0.2,1.2h6.5v1h-6.8c-0.7,2.2-2.4,3.5-6.6,4.2c-0.1-0.3-0.4-0.8-0.6-1.1
		c3.7-0.5,5.2-1.5,5.9-3.2h-5.3v-1h5.6c0.1-0.4,0.2-0.8,0.2-1.2h-6.2v-1h6.3v-1.3h-4.9v-1h4.9v-1.3h-5.8v-1.1h3.3
		c-0.3-0.6-0.7-1.3-1.2-1.8l1-0.4c0.6,0.6,1.1,1.4,1.4,2l-0.6,0.3h4.2c0.5-0.6,1-1.6,1.4-2.2l1.2,0.4c-0.4,0.6-0.9,1.3-1.3,1.9h3.4
		v1.1h-5.8v1.3h5.1v1h-5.1v1.3H125.9z M119.4,330.7c2.2,0.8,5,2.2,6.4,3.1l-0.6,1c-1.4-1-4.2-2.4-6.4-3.3L119.4,330.7z"/>
	<path class="st9" d="M141.2,321.1v13.8H140v-0.7h-10.8v0.7H128v-13.8H141.2z M140,333.1v-10.9h-10.8v10.9H140z M134.7,330.7
		c-1.6,0.3-3.3,0.6-4.6,0.9l-0.2-0.9c1.2-0.2,3-0.5,4.7-0.8L134.7,330.7z M138.6,326.1c-0.4,1.5-1,2.8-1.8,3.9
		c0.3,0.8,0.8,1.4,1.3,1.5c0.2,0.1,0.4-0.6,0.5-1.6c0.2,0.2,0.5,0.4,0.8,0.5c-0.2,1.7-0.7,2.4-1.6,2c-0.7-0.1-1.2-0.7-1.6-1.5
		c-0.6,0.7-1.3,1.3-2.1,1.8c-0.1-0.2-0.5-0.6-0.7-0.7c0.9-0.5,1.7-1.2,2.4-2.1c-0.4-1.3-0.7-2.9-0.9-4.7H130v-0.9h4.8
		c0-0.6-0.1-1.1-0.1-1.7h1c0,0.6,0.1,1.1,0.1,1.7h3.4v0.9h-3.4c0.1,1.4,0.3,2.6,0.6,3.6c0.5-0.9,0.9-1.8,1.2-2.9L138.6,326.1z
		 M134.1,326.1v3.1h-3.5v-3.1H134.1z M133.2,326.9h-1.8v1.6h1.8V326.9z M138.3,324.1c-0.3-0.3-1.1-0.8-1.7-1.1l0.6-0.6
		c0.6,0.3,1.3,0.7,1.7,1.1L138.3,324.1z"/>
	<path class="st9" d="M146.6,328.9v4.4c0,0.7-0.2,1-0.6,1.2c-0.4,0.2-1.1,0.2-2.1,0.2c0-0.3-0.2-0.8-0.4-1.1c0.8,0,1.4,0,1.6,0
		c0.2,0,0.3-0.1,0.3-0.3v-4.1l-2,0.6l-0.3-1.1c0.6-0.2,1.5-0.4,2.3-0.6v-3.4h-2.1v-1.1h2.1v-3.2h1.2v3.2h2v1.1h-2v3.1l1.5-0.4
		l0.2,1.1L146.6,328.9z M156.5,327.6c-0.6,1.9-1.7,3.4-3.1,4.5c1.2,0.7,2.6,1.3,4.2,1.6c-0.3,0.3-0.6,0.7-0.7,1.1
		c-1.7-0.4-3.2-1.1-4.4-2c-1.4,0.9-3,1.6-4.6,2c-0.1-0.3-0.4-0.8-0.6-1.1c1.5-0.3,3-0.9,4.3-1.7c-1.1-1-1.9-2.2-2.6-3.6l0.2-0.1
		h-0.6v-1.1h7.1l0.2,0L156.5,327.6z M151.1,322.7c0,1.4-0.4,3.1-2.4,4.2c-0.1-0.2-0.6-0.7-0.8-0.9c1.8-1,2-2.3,2-3.4v-1.7h5v3.7
		c0,0.4,0,0.6,0.3,0.6h1.2c0.2,0,0.6,0,0.8-0.1c0,0.3,0,0.7,0.1,1c-0.2,0.1-0.5,0.1-0.9,0.1h-1.3c-1.1,0-1.3-0.5-1.3-1.6V322h-2.8
		V322.7z M150.1,328.4c0.6,1.2,1.4,2.2,2.4,3c1-0.8,1.9-1.8,2.5-3H150.1z"/>
	<path class="st9" d="M163.7,324.7h-4.5v-0.9h4.5V324.7z M164.9,332.9c-1.3,0.8-3.3,1.5-4.8,1.9c-0.2-0.2-0.6-0.7-0.9-0.9
		c1.6-0.3,3.5-0.9,4.6-1.5L164.9,332.9z M163.3,322.2h-3.8v-0.9h3.8V322.2z M161.2,325.9h10.2v6.3h-10.2V325.9z M162.3,327.8h7.9
		v-1.1h-7.9V327.8z M162.3,329.6h7.9v-1.1h-7.9V329.6z M162.3,331.5h7.9v-1.1h-7.9V331.5z M166.1,322.4c-0.3,0.6-0.8,1.2-1.2,1.6
		c-0.2-0.2-0.6-0.5-0.9-0.6c0.8-0.7,1.5-1.8,1.8-3l1.1,0.2c-0.1,0.3-0.2,0.6-0.3,0.9h5.3l0.2,0l0.8,0.3c-0.4,0.8-0.9,1.7-1.3,2.3
		l-0.9-0.3c0.2-0.3,0.5-0.8,0.7-1.2h-2.5v0.2c0,0.2,0,0.3,0,0.5c0.8,0.9,2.6,1.6,4.6,1.7c-0.2,0.2-0.5,0.6-0.7,0.9
		c-1.8-0.3-3.3-0.9-4.3-1.8c-0.5,0.8-1.8,1.5-4.6,1.9c-0.1-0.3-0.4-0.7-0.6-0.9c4.1-0.6,4.5-1.6,4.5-2.5v-0.2H166.1z M168.5,332.4
		c1.7,0.5,3.5,1.2,4.6,1.7l-1,0.7c-1-0.5-2.7-1.2-4.4-1.8L168.5,332.4z"/>
	<path class="st9" d="M177.2,322.5c-0.5,0.7-1,1.4-1.6,1.9c-0.2-0.2-0.6-0.6-0.8-0.8c1-0.8,1.9-2.1,2.4-3.4l1,0.3
		c-0.1,0.3-0.3,0.6-0.4,0.9h4.1v1h-3c0.5,0.5,1.2,1,1.5,1.4l-0.8,0.7c-0.3-0.5-1.1-1.2-1.6-1.7l0.6-0.5H177.2z M185.8,329.9h3.1v1
		h-3.1v2.7c0,0.7-0.2,0.9-0.7,1.1c-0.5,0.2-1.4,0.2-2.8,0.2c0-0.3-0.2-0.7-0.3-1c1.1,0,2,0,2.3,0c0.3,0,0.3-0.1,0.3-0.3v-2.6h-9.5
		v-1h9.5v-1.1h1.2V329.9z M189.2,321.5v1h-3.5c0.5,0.5,1.2,1.1,1.5,1.5l-0.8,0.7c-0.3-0.5-0.9-1.2-1.5-1.7l0.7-0.5h-1.5
		c-0.4,0.7-0.9,1.4-1.3,1.9l-0.1-0.1v0.7h5.8v1h-5.8v1.4h4.9v0.9h-11v-0.9h4.9v-1.4h-5.7v-1h5.7v-1h0.9c-0.2-0.1-0.3-0.3-0.5-0.3
		c0.9-0.9,1.6-2.1,2-3.5l1.1,0.3c-0.1,0.3-0.2,0.7-0.4,1H189.2z M178.5,331.1c0.9,0.7,2.1,1.7,2.7,2.3l-0.9,0.7
		c-0.6-0.6-1.7-1.7-2.7-2.4L178.5,331.1z"/>
	<path class="st9" d="M196,329.8c0-0.3-0.1-0.6-0.2-0.9c-3.7,0.6-4.1,0.7-4.5,0.9c-0.1-0.2-0.2-0.8-0.4-1.1c0.3-0.1,0.7-0.5,1.2-1
		c0.3-0.3,0.8-0.9,1.3-1.8c-1.7,0.2-2,0.3-2.2,0.4c-0.1-0.2-0.3-0.8-0.4-1.1c0.3-0.1,0.6-0.4,0.9-0.9c0.3-0.5,1.4-2.3,2.1-4l1.1,0.5
		c-0.7,1.5-1.6,3-2.4,4.2l1.7-0.2c0.4-0.7,0.8-1.4,1.2-2.1l1,0.6c-1,1.8-2.3,3.6-3.6,5.1l2.7-0.4c-0.2-0.5-0.4-1-0.6-1.4l0.8-0.3
		c0.5,1,1,2.4,1.2,3.2L196,329.8z M192.5,330.6c-0.2,1.3-0.5,2.8-0.8,3.8c-0.2-0.1-0.7-0.3-0.9-0.3c0.4-1,0.6-2.4,0.8-3.6
		L192.5,330.6z M194.1,330.4c0.2,1,0.4,2.3,0.4,3.1l-0.9,0.2c0-0.9-0.2-2.2-0.4-3.2L194.1,330.4z M195.8,330
		c0.3,0.8,0.7,1.9,0.8,2.5l-0.9,0.3c-0.1-0.7-0.5-1.8-0.8-2.6L195.8,330z M204.6,325.8c-0.4,2.3-1.2,4.2-2.2,5.7
		c0.8,1,1.7,1.7,2.8,2.2c-0.3,0.2-0.6,0.7-0.8,1c-1.1-0.5-1.9-1.3-2.7-2.3c-0.8,1-1.8,1.8-2.8,2.3c-0.2-0.3-0.5-0.7-0.7-0.9
		c1-0.6,2-1.4,2.9-2.4c-0.8-1.3-1.4-2.8-1.8-4.5c-0.3,3.2-0.9,5.7-2.3,7.7c-0.2-0.2-0.7-0.6-1-0.7c2.1-2.6,2.4-6.6,2.5-11.7h-1.5
		v-1.1h5.6l0.2-0.1l0.8,0.1c-0.2,1.3-0.4,3-0.7,4.4h1.1l0.2-0.1L204.6,325.8z M199.4,322.2c0,1.2-0.1,2.3-0.1,3.4h2.2
		c0.2-1.1,0.4-2.4,0.6-3.4H199.4z M200.1,326.7c0.4,1.4,0.9,2.7,1.5,3.8c0.7-1.1,1.2-2.4,1.6-3.8H200.1z"/>
	<path class="st9" d="M211,320.7c-0.4,1.1-0.9,2.2-1.5,3.2v10.8h-1.1v-9c-0.5,0.7-1.1,1.4-1.6,2c-0.1-0.3-0.4-0.9-0.7-1.1
		c1.5-1.5,3-3.8,3.9-6.2L211,320.7z M215,332.7c-0.9,0.8-2.5,1.6-3.7,2.1c-0.2-0.2-0.6-0.6-0.9-0.8c1.3-0.4,2.7-1,3.5-1.7L215,332.7
		z M220.8,324.5v0.9h-10.3v-0.9h4.6v-0.9h-3.5v-0.8h3.5v-0.8h-3.9v-0.8h3.9v-0.9h1.2v0.9h4v0.8h-4v0.8h3.6v0.8h-3.6v0.9H220.8z
		 M219.8,332h-8v-5.9h8V332z M218.6,326.9h-5.7v1h5.7V326.9z M218.6,328.6h-5.7v1h5.7V328.6z M218.6,330.2h-5.7v1h5.7V330.2z
		 M217.7,332.3c1.1,0.6,2.4,1.4,3.1,2l-1,0.6c-0.7-0.6-2-1.5-3.1-2.1L217.7,332.3z"/>
</g>
<circle class="st3" cx="651.8" cy="230.2" r="8"/>
<g>
	<path class="st9" d="M682.6,229v1H676c0,0.4-0.1,0.8-0.2,1.2h6.5v1h-6.8c-0.7,2.2-2.4,3.5-6.6,4.2c-0.1-0.3-0.4-0.8-0.6-1.1
		c3.7-0.5,5.2-1.5,5.9-3.2H669v-1h5.6c0.1-0.4,0.2-0.8,0.2-1.2h-6.2v-1h6.3v-1.3h-4.9v-1h4.9v-1.3h-5.8v-1.1h3.3
		c-0.3-0.6-0.7-1.3-1.2-1.8l1-0.4c0.6,0.6,1.1,1.4,1.4,2l-0.6,0.3h4.2c0.5-0.6,1-1.6,1.4-2.2l1.2,0.4c-0.4,0.6-0.9,1.3-1.3,1.9h3.4
		v1.1h-5.8v1.3h5.1v1h-5.1v1.3H682.6z M676.2,232.4c2.2,0.8,5,2.2,6.4,3.1l-0.6,1c-1.4-1-4.2-2.4-6.4-3.3L676.2,232.4z"/>
	<path class="st9" d="M698,222.8v13.8h-1.2v-0.7H686v0.7h-1.1v-13.8H698z M696.8,234.8v-10.9H686v10.9H696.8z M691.4,232.4
		c-1.6,0.3-3.3,0.6-4.6,0.9l-0.2-0.9c1.2-0.2,3-0.5,4.7-0.8L691.4,232.4z M695.4,227.8c-0.4,1.5-1,2.8-1.8,3.9
		c0.3,0.8,0.8,1.4,1.3,1.5c0.2,0.1,0.4-0.6,0.5-1.6c0.2,0.2,0.5,0.4,0.8,0.5c-0.2,1.7-0.7,2.4-1.6,2c-0.7-0.1-1.2-0.7-1.6-1.5
		c-0.6,0.7-1.3,1.3-2.1,1.8c-0.1-0.2-0.5-0.6-0.7-0.7c0.9-0.5,1.7-1.2,2.4-2.1c-0.4-1.3-0.7-2.9-0.9-4.7h-4.8V226h4.8
		c0-0.6-0.1-1.1-0.1-1.7h1c0,0.6,0.1,1.1,0.1,1.7h3.4v0.9h-3.4c0.1,1.4,0.3,2.6,0.6,3.6c0.5-0.9,0.9-1.8,1.2-2.9L695.4,227.8z
		 M690.9,227.8v3.1h-3.5v-3.1H690.9z M690,228.6h-1.8v1.6h1.8V228.6z M695,225.8c-0.3-0.3-1.1-0.8-1.7-1.1l0.6-0.6
		c0.6,0.3,1.3,0.7,1.7,1.1L695,225.8z"/>
	<path class="st9" d="M704.8,222.2h1.2v7.3c0,2.2-0.6,5.4-4.4,7.2c-0.2-0.3-0.6-0.6-0.8-0.9c2-0.8,3-2.1,3.5-3.5
		c-1.4,0.3-2.8,0.5-3.9,0.7l-0.3-1.2c1.2-0.2,2.8-0.4,4.5-0.7c0.1-0.6,0.2-1.2,0.2-1.7v-0.4h-4V228h4v-2.4h-4.3v-1.1h4.3V222.2z
		 M714.4,232.7h-4.8v3.8h-1.2v-14.4h1.2v2.3h4.5v1.1h-4.5v2.4h4.2v1.1h-4.2v2.5h4.8V232.7z"/>
	<path class="st9" d="M719.2,230.6v4.4c0,0.7-0.2,1-0.6,1.2c-0.4,0.2-1.1,0.2-2.1,0.2c0-0.3-0.2-0.8-0.4-1.1c0.8,0,1.4,0,1.6,0
		c0.2,0,0.3-0.1,0.3-0.3V231l-2,0.6l-0.3-1.1c0.6-0.2,1.5-0.4,2.3-0.6v-3.4h-2.2v-1.1h2.2v-3.2h1.2v3.2h2v1.1h-2v3.1l1.5-0.4
		l0.2,1.1L719.2,230.6z M729.1,229.3c-0.6,1.9-1.7,3.4-3.1,4.5c1.2,0.7,2.6,1.3,4.2,1.6c-0.3,0.3-0.6,0.7-0.7,1.1
		c-1.7-0.4-3.2-1.1-4.4-2c-1.4,0.9-3,1.6-4.6,2c-0.1-0.3-0.4-0.8-0.6-1.1c1.5-0.3,3-0.9,4.3-1.7c-1.1-1-1.9-2.2-2.6-3.6l0.2-0.1H721
		V229h7.1l0.2,0L729.1,229.3z M723.7,224.4c0,1.4-0.4,3.1-2.4,4.2c-0.1-0.2-0.6-0.7-0.8-0.9c1.8-1,2-2.3,2-3.4v-1.7h5v3.7
		c0,0.4,0,0.6,0.3,0.6h1.2c0.2,0,0.6,0,0.8-0.1c0,0.3,0,0.7,0.1,1c-0.2,0.1-0.5,0.1-0.9,0.1h-1.3c-1.1,0-1.3-0.5-1.3-1.6v-2.5h-2.8
		V224.4z M722.6,230.1c0.6,1.2,1.4,2.2,2.4,3c1-0.8,1.9-1.8,2.5-3H722.6z"/>
	<path class="st9" d="M736.2,226.4h-4.5v-0.9h4.5V226.4z M737.5,234.6c-1.3,0.8-3.3,1.5-4.8,1.9c-0.2-0.2-0.6-0.7-0.9-0.9
		c1.6-0.3,3.5-0.9,4.6-1.5L737.5,234.6z M735.9,224h-3.8V223h3.8V224z M733.8,227.7H744v6.3h-10.2V227.7z M734.9,229.5h7.9v-1.1
		h-7.9V229.5z M734.9,231.4h7.9v-1.1h-7.9V231.4z M734.9,233.2h7.9v-1.1h-7.9V233.2z M738.7,224.1c-0.3,0.6-0.8,1.2-1.2,1.6
		c-0.2-0.2-0.6-0.5-0.9-0.6c0.8-0.7,1.5-1.8,1.8-3l1.1,0.2c-0.1,0.3-0.2,0.6-0.3,0.9h5.3l0.2,0l0.8,0.3c-0.4,0.8-0.9,1.7-1.3,2.3
		l-0.9-0.3c0.2-0.3,0.5-0.8,0.7-1.2h-2.5v0.2c0,0.2,0,0.3,0,0.5c0.8,0.9,2.6,1.6,4.6,1.7c-0.2,0.2-0.5,0.6-0.7,0.9
		c-1.8-0.3-3.3-0.9-4.3-1.8c-0.5,0.8-1.8,1.5-4.6,1.9c-0.1-0.3-0.4-0.7-0.6-0.9c4.1-0.6,4.5-1.6,4.5-2.5v-0.2H738.7z M741.1,234.1
		c1.7,0.5,3.5,1.2,4.6,1.7l-1,0.7c-1-0.5-2.7-1.2-4.4-1.8L741.1,234.1z"/>
	<path class="st9" d="M749.8,224.3c-0.5,0.7-1,1.4-1.6,1.9c-0.2-0.2-0.6-0.6-0.8-0.8c1-0.8,1.9-2.1,2.4-3.4l1,0.3
		c-0.1,0.3-0.3,0.6-0.4,0.9h4.1v1h-3c0.5,0.5,1.2,1,1.5,1.4l-0.8,0.7c-0.3-0.5-1.1-1.2-1.6-1.7l0.6-0.5H749.8z M758.4,231.6h3.1v1
		h-3.1v2.7c0,0.7-0.2,0.9-0.7,1.1c-0.5,0.2-1.4,0.2-2.8,0.2c0-0.3-0.2-0.7-0.3-1c1.1,0,2,0,2.3,0c0.3,0,0.3-0.1,0.3-0.3v-2.6h-9.5
		v-1h9.5v-1.1h1.2V231.6z M761.8,223.2v1h-3.5c0.5,0.5,1.2,1.1,1.5,1.5l-0.8,0.7c-0.3-0.5-0.9-1.2-1.5-1.7l0.7-0.5h-1.5
		c-0.4,0.7-0.9,1.4-1.3,1.9l-0.1-0.1v0.7h5.8v1h-5.8v1.4h4.9v0.9h-11v-0.9h4.9v-1.4h-5.7v-1h5.7v-1h0.9c-0.2-0.1-0.3-0.3-0.5-0.3
		c0.9-0.9,1.6-2.1,2-3.5l1.1,0.3c-0.1,0.3-0.2,0.7-0.4,1H761.8z M751.1,232.8c0.9,0.7,2.1,1.7,2.7,2.3l-0.9,0.7
		c-0.6-0.6-1.7-1.7-2.7-2.4L751.1,232.8z"/>
	<path class="st9" d="M768.5,231.5c0-0.3-0.1-0.6-0.2-0.9c-3.7,0.6-4.1,0.7-4.5,0.9c-0.1-0.2-0.2-0.8-0.4-1.1c0.3-0.1,0.7-0.5,1.2-1
		c0.3-0.3,0.8-0.9,1.3-1.8c-1.7,0.2-2,0.3-2.2,0.4c-0.1-0.2-0.3-0.8-0.4-1.1c0.3-0.1,0.6-0.4,0.9-0.9c0.3-0.5,1.4-2.3,2.1-4l1.1,0.5
		c-0.7,1.5-1.6,3-2.4,4.2l1.7-0.2c0.4-0.7,0.8-1.4,1.2-2.1l1,0.6c-1,1.8-2.3,3.6-3.6,5.1l2.7-0.4c-0.2-0.5-0.4-1-0.6-1.4l0.8-0.3
		c0.5,1,1,2.4,1.2,3.2L768.5,231.5z M765.1,232.4c-0.2,1.3-0.5,2.8-0.8,3.8c-0.2-0.1-0.7-0.3-0.9-0.3c0.4-1,0.6-2.4,0.8-3.6
		L765.1,232.4z M766.7,232.1c0.2,1,0.4,2.3,0.4,3.1l-0.9,0.2c0-0.9-0.2-2.2-0.4-3.2L766.7,232.1z M768.4,231.7
		c0.3,0.8,0.7,1.9,0.8,2.5l-0.9,0.3c-0.1-0.7-0.5-1.8-0.8-2.6L768.4,231.7z M777.2,227.5c-0.4,2.3-1.2,4.2-2.2,5.7
		c0.8,1,1.7,1.7,2.8,2.2c-0.3,0.2-0.6,0.7-0.8,1c-1.1-0.5-1.9-1.3-2.7-2.3c-0.8,1-1.8,1.8-2.8,2.3c-0.2-0.3-0.5-0.7-0.7-0.9
		c1-0.6,2-1.4,2.9-2.4c-0.8-1.3-1.4-2.8-1.8-4.5c-0.3,3.2-0.9,5.7-2.3,7.7c-0.2-0.2-0.7-0.6-1-0.7c2.1-2.6,2.4-6.6,2.5-11.7h-1.5
		v-1.1h5.6l0.2-0.1l0.8,0.1c-0.2,1.3-0.4,3-0.7,4.4h1.1l0.2-0.1L777.2,227.5z M772,224c0,1.2-0.1,2.3-0.1,3.4h2.2
		c0.2-1.1,0.4-2.4,0.6-3.4H772z M772.7,228.4c0.4,1.4,0.9,2.7,1.5,3.8c0.7-1.1,1.2-2.4,1.6-3.8H772.7z"/>
	<path class="st9" d="M783.6,222.4c-0.4,1.1-0.9,2.2-1.5,3.2v10.8h-1.1v-9c-0.5,0.7-1.1,1.4-1.6,2c-0.1-0.3-0.4-0.9-0.7-1.1
		c1.5-1.5,3-3.8,3.9-6.2L783.6,222.4z M787.6,234.5c-0.9,0.8-2.5,1.6-3.7,2.1c-0.2-0.2-0.6-0.6-0.9-0.8c1.3-0.4,2.7-1,3.5-1.7
		L787.6,234.5z M793.4,226.2v0.9h-10.3v-0.9h4.6v-0.9h-3.5v-0.8h3.5v-0.8h-3.9V223h3.9v-0.9h1.2v0.9h4v0.8h-4v0.8h3.6v0.8h-3.6v0.9
		H793.4z M792.4,233.8h-8v-5.9h8V233.8z M791.2,228.6h-5.7v1h5.7V228.6z M791.2,230.3h-5.7v1h5.7V230.3z M791.2,232h-5.7v1h5.7V232z
		 M790.3,234c1.1,0.6,2.4,1.4,3.1,2l-1,0.6c-0.7-0.6-2-1.5-3.1-2.1L790.3,234z"/>
</g>
<circle class="st4" cx="323.6" cy="352.2" r="8"/>
<g>
	<path class="st10" d="M352.7,351c0,0.4,0,0.8,0,1.2c0.5,3.1,1.3,5,3.1,6.6c-0.3,0.2-0.6,0.6-0.7,0.9c-1.4-1.3-2.2-2.8-2.8-4.7
		c-0.4,1.6-1.2,3.3-2.6,4.7c-0.2-0.3-0.6-0.7-0.8-0.9l0,0c-0.3,0-0.8,0-1.3,0h-3.4c-1.7,0-2.3-0.6-2.3-2.3v-9.4h-0.5v-1h7.7v1H343
		v9.5c0,0.9,0.3,1.3,1.2,1.3h3.5c0.4,0,1.1,0,1.4-0.1c0,0.2,0.1,0.5,0.1,0.8c2.2-2.5,2.4-5.5,2.4-7.6V350h1.1V351z M343.6,352.9h2.4
		v4h-2.4V352.9z M348.1,351.9h-4v-3.5h4V351.9z M344.2,356.1h1.1v-2.4h-1.1V356.1z M347.2,349.1H345v2h2.2V349.1z M348.9,356.9h-2.5
		V353h2.5V356.9z M348.2,353.7h-1.1v2.4h1.1V353.7z M351,349c-0.4,1.2-0.8,2.3-1.4,3.2c-0.2-0.2-0.7-0.5-1-0.6c1-1.5,1.7-3.7,2-6.1
		l1.1,0.2c-0.1,0.8-0.3,1.6-0.5,2.4h3.7l0.2-0.1l0.8,0.3c-0.3,1.4-0.7,3.1-1.1,4.1l-0.9-0.3c0.3-0.7,0.5-1.9,0.8-2.9H351z"/>
	<path class="st10" d="M359.8,352.3c-0.6-0.5-1.8-1.2-2.7-1.6l0.7-0.9c0.9,0.4,2.1,1.1,2.7,1.5L359.8,352.3z M357.5,359
		c0.6-1.2,1.5-3.3,2.2-5l0.9,0.6c-0.6,1.6-1.4,3.6-2.1,5L357.5,359z M360.4,348.2c-0.5-0.5-1.6-1.2-2.5-1.7l0.7-0.8
		c0.9,0.5,2,1.2,2.5,1.6L360.4,348.2z M363,345.8h1.1v5.5c0,3.1-0.2,6.2-2.3,8.6c-0.2-0.2-0.7-0.5-1-0.7c1.9-2.2,2.1-5.1,2.1-7.9
		V345.8z M361.9,354.1c-0.1-1-0.6-2.6-1.1-3.7l0.9-0.3c0.5,1.2,1,2.7,1.1,3.7L361.9,354.1z M365,350.1c0.5,1.1,0.9,2.5,1.1,3.5
		l-0.9,0.3c-0.1-0.9-0.6-2.4-1-3.5L365,350.1z M370.9,345.8v14.1h-1.1v-6.3l-0.8,0.4c-0.3-0.9-0.9-2.4-1.5-3.5v9.1h-1.1V346h1.1v4.2
		l0.7-0.3c0.6,1.1,1.3,2.5,1.6,3.5v-7.6H370.9z"/>
	<path class="st10" d="M376.4,353.9v4.4c0,0.7-0.2,1-0.6,1.2c-0.4,0.2-1.1,0.2-2.1,0.2c0-0.3-0.2-0.8-0.4-1.1c0.8,0,1.4,0,1.6,0
		c0.2,0,0.3-0.1,0.3-0.3v-4.1l-2,0.6l-0.3-1.1c0.6-0.2,1.5-0.4,2.3-0.6v-3.4h-2.1v-1.1h2.1v-3.2h1.2v3.2h2v1.1h-2v3.1l1.5-0.4
		l0.2,1.1L376.4,353.9z M386.3,352.7c-0.6,1.9-1.7,3.4-3.1,4.5c1.2,0.7,2.6,1.3,4.2,1.6c-0.3,0.3-0.6,0.7-0.7,1.1
		c-1.7-0.4-3.2-1.1-4.4-2c-1.4,0.9-3,1.6-4.6,2c-0.1-0.3-0.4-0.8-0.6-1.1c1.5-0.3,3-0.9,4.3-1.7c-1.1-1-1.9-2.2-2.6-3.6l0.2-0.1
		h-0.6v-1.1h7.1l0.2,0L386.3,352.7z M380.9,347.8c0,1.4-0.4,3.1-2.4,4.2c-0.1-0.2-0.6-0.7-0.8-0.9c1.8-1,2-2.3,2-3.4V346h5v3.7
		c0,0.4,0,0.6,0.3,0.6h1.2c0.2,0,0.6,0,0.8-0.1c0,0.3,0,0.7,0.1,1c-0.2,0.1-0.5,0.1-0.9,0.1H385c-1.1,0-1.3-0.5-1.3-1.6v-2.5h-2.8
		V347.8z M379.8,353.5c0.6,1.2,1.4,2.2,2.4,3c1-0.8,1.9-1.8,2.5-3H379.8z"/>
	<path class="st10" d="M393.5,349.8h-4.5v-0.9h4.5V349.8z M394.7,357.9c-1.3,0.8-3.3,1.5-4.8,1.9c-0.2-0.2-0.6-0.7-0.9-0.9
		c1.6-0.3,3.5-0.9,4.6-1.5L394.7,357.9z M393.1,347.3h-3.8v-0.9h3.8V347.3z M391,351h10.2v6.3H391V351z M392.1,352.9h7.9v-1.1h-7.9
		V352.9z M392.1,354.7h7.9v-1.1h-7.9V354.7z M392.1,356.6h7.9v-1.1h-7.9V356.6z M395.9,347.4c-0.3,0.6-0.8,1.2-1.2,1.6
		c-0.2-0.2-0.6-0.5-0.9-0.6c0.8-0.7,1.5-1.8,1.8-3l1.1,0.2c-0.1,0.3-0.2,0.6-0.3,0.9h5.3l0.2,0l0.8,0.3c-0.4,0.8-0.9,1.7-1.3,2.3
		l-0.9-0.3c0.2-0.3,0.5-0.8,0.7-1.2h-2.5v0.2c0,0.2,0,0.3,0,0.5c0.8,0.9,2.6,1.6,4.6,1.7c-0.2,0.2-0.5,0.6-0.7,0.9
		c-1.8-0.3-3.3-0.9-4.3-1.8c-0.5,0.8-1.8,1.5-4.6,1.9c-0.1-0.3-0.4-0.7-0.6-0.9c4.1-0.6,4.5-1.6,4.5-2.5v-0.2H395.9z M398.3,357.4
		c1.7,0.5,3.5,1.2,4.6,1.7l-1,0.7c-1-0.5-2.7-1.2-4.4-1.8L398.3,357.4z"/>
	<path class="st10" d="M407,347.6c-0.5,0.7-1,1.4-1.6,1.9c-0.2-0.2-0.6-0.6-0.8-0.8c1-0.8,1.9-2.1,2.4-3.4l1,0.3
		c-0.1,0.3-0.3,0.6-0.4,0.9h4.1v1h-3c0.5,0.5,1.2,1,1.5,1.4l-0.8,0.7c-0.3-0.5-1.1-1.2-1.6-1.7l0.6-0.5H407z M415.6,355h3.1v1h-3.1
		v2.7c0,0.7-0.2,0.9-0.7,1.1c-0.5,0.2-1.4,0.2-2.8,0.2c0-0.3-0.2-0.7-0.3-1c1.1,0,2,0,2.3,0c0.3,0,0.3-0.1,0.3-0.3V356h-9.5v-1h9.5
		v-1.1h1.2V355z M419,346.6v1h-3.5c0.5,0.5,1.2,1.1,1.5,1.5l-0.8,0.7c-0.3-0.5-0.9-1.2-1.5-1.7l0.7-0.5h-1.5
		c-0.4,0.7-0.9,1.4-1.3,1.9l-0.1-0.1v0.7h5.8v1h-5.8v1.4h4.9v0.9h-11v-0.9h4.9v-1.4h-5.7v-1h5.7v-1h0.9c-0.2-0.1-0.3-0.3-0.5-0.3
		c0.9-0.9,1.6-2.1,2-3.5l1.1,0.3c-0.1,0.3-0.2,0.7-0.4,1H419z M408.3,356.1c0.9,0.7,2.1,1.7,2.7,2.3l-0.9,0.7
		c-0.6-0.6-1.7-1.7-2.7-2.4L408.3,356.1z"/>
	<path class="st10" d="M425.7,354.9c0-0.3-0.1-0.6-0.2-0.9c-3.7,0.6-4.1,0.7-4.5,0.9c-0.1-0.2-0.2-0.8-0.4-1.1
		c0.3-0.1,0.7-0.5,1.2-1c0.3-0.3,0.8-0.9,1.3-1.8c-1.7,0.2-2,0.3-2.2,0.4c-0.1-0.2-0.3-0.8-0.4-1.1c0.3-0.1,0.6-0.4,0.9-0.9
		c0.3-0.5,1.4-2.3,2.1-4l1.1,0.5c-0.7,1.5-1.6,3-2.4,4.2l1.7-0.2c0.4-0.7,0.8-1.4,1.2-2.1l1,0.6c-1,1.8-2.3,3.6-3.6,5.1l2.7-0.4
		c-0.2-0.5-0.4-1-0.6-1.4l0.8-0.3c0.5,1,1,2.4,1.2,3.2L425.7,354.9z M422.3,355.7c-0.2,1.3-0.5,2.8-0.8,3.8
		c-0.2-0.1-0.7-0.3-0.9-0.3c0.4-1,0.6-2.4,0.8-3.6L422.3,355.7z M423.9,355.5c0.2,1,0.4,2.3,0.4,3.1l-0.9,0.2c0-0.9-0.2-2.2-0.4-3.2
		L423.9,355.5z M425.6,355.1c0.3,0.8,0.7,1.9,0.8,2.5l-0.9,0.3c-0.1-0.7-0.5-1.8-0.8-2.6L425.6,355.1z M434.4,350.9
		c-0.4,2.3-1.2,4.2-2.2,5.7c0.8,1,1.7,1.7,2.8,2.2c-0.3,0.2-0.6,0.7-0.8,1c-1.1-0.5-1.9-1.3-2.7-2.3c-0.8,1-1.8,1.8-2.8,2.3
		c-0.2-0.3-0.5-0.7-0.7-0.9c1-0.6,2-1.4,2.9-2.4c-0.8-1.3-1.4-2.8-1.8-4.5c-0.3,3.2-0.9,5.7-2.3,7.7c-0.2-0.2-0.7-0.6-1-0.7
		c2.1-2.6,2.4-6.6,2.5-11.7h-1.5v-1.1h5.6l0.2-0.1l0.8,0.1c-0.2,1.3-0.4,3-0.7,4.4h1.1l0.2-0.1L434.4,350.9z M429.2,347.3
		c0,1.2-0.1,2.3-0.1,3.4h2.2c0.2-1.1,0.4-2.4,0.6-3.4H429.2z M429.9,351.7c0.4,1.4,0.9,2.7,1.5,3.8c0.7-1.1,1.2-2.4,1.6-3.8H429.9z"
		/>
	<path class="st10" d="M440.8,345.8c-0.4,1.1-0.9,2.2-1.5,3.2v10.8h-1.1v-9c-0.5,0.7-1.1,1.4-1.6,2c-0.1-0.3-0.4-0.9-0.7-1.1
		c1.5-1.5,3-3.8,3.9-6.2L440.8,345.8z M444.8,357.8c-0.9,0.8-2.5,1.6-3.7,2.1c-0.2-0.2-0.6-0.6-0.9-0.8c1.3-0.4,2.7-1,3.5-1.7
		L444.8,357.8z M450.6,349.5v0.9h-10.3v-0.9h4.6v-0.9h-3.5v-0.8h3.5v-0.8H441v-0.8h3.9v-0.9h1.2v0.9h4v0.8h-4v0.8h3.6v0.8h-3.6v0.9
		H450.6z M449.6,357.1h-8v-5.9h8V357.1z M448.4,352h-5.7v1h5.7V352z M448.4,353.6h-5.7v1h5.7V353.6z M448.4,355.3h-5.7v1h5.7V355.3z
		 M447.5,357.3c1.1,0.6,2.4,1.4,3.1,2l-1,0.6c-0.7-0.6-2-1.5-3.1-2.1L447.5,357.3z"/>
</g>
<circle class="st5" cx="628.5" cy="253" r="8"/>
<g>
	<path class="st5" d="M657.2,251.8c0,0.4,0,0.8,0,1.2c0.5,3.1,1.3,5,3.1,6.6c-0.3,0.2-0.6,0.6-0.7,0.9c-1.4-1.3-2.2-2.8-2.8-4.7
		c-0.4,1.6-1.2,3.3-2.6,4.7c-0.2-0.3-0.6-0.7-0.8-0.9l0,0c-0.3,0-0.8,0-1.3,0h-3.4c-1.7,0-2.3-0.6-2.3-2.3V248h-0.5v-1h7.7v1h-6.1
		v9.5c0,0.9,0.3,1.3,1.2,1.3h3.5c0.4,0,1.1,0,1.4-0.1c0,0.2,0.1,0.5,0.1,0.8c2.2-2.5,2.4-5.5,2.4-7.6v-1.1h1.1V251.8z M648.1,253.7
		h2.4v4h-2.4V253.7z M652.7,252.7h-4v-3.5h4V252.7z M648.8,256.9h1.1v-2.4h-1.1V256.9z M651.7,249.9h-2.2v2h2.2V249.9z M653.5,257.7
		H651v-3.9h2.5V257.7z M652.8,254.5h-1.1v2.4h1.1V254.5z M655.6,249.8c-0.4,1.2-0.8,2.3-1.4,3.2c-0.2-0.2-0.7-0.5-1-0.6
		c1-1.5,1.7-3.7,2-6.1l1.1,0.2c-0.1,0.8-0.3,1.6-0.5,2.4h3.7l0.2-0.1l0.8,0.3c-0.3,1.4-0.7,3.1-1.1,4.1l-0.9-0.3
		c0.3-0.7,0.5-1.9,0.8-2.9H655.6z"/>
	<path class="st5" d="M664.4,253.1c-0.6-0.5-1.8-1.2-2.7-1.6l0.7-0.9c0.9,0.4,2.1,1.1,2.7,1.5L664.4,253.1z M662,259.8
		c0.6-1.2,1.5-3.3,2.2-5l0.9,0.6c-0.6,1.6-1.4,3.6-2.1,5L662,259.8z M664.9,249c-0.5-0.5-1.6-1.2-2.5-1.7l0.7-0.8
		c0.9,0.5,2,1.2,2.5,1.6L664.9,249z M667.5,246.6h1.1v5.5c0,3.1-0.2,6.2-2.3,8.6c-0.2-0.2-0.7-0.5-1-0.7c1.9-2.2,2.2-5.1,2.2-7.9
		V246.6z M666.5,254.9c-0.1-1-0.6-2.6-1.1-3.7l0.9-0.3c0.5,1.2,1,2.7,1.1,3.7L666.5,254.9z M669.5,250.9c0.5,1.1,0.9,2.5,1.1,3.5
		l-0.9,0.3c-0.1-0.9-0.6-2.4-1-3.5L669.5,250.9z M675.5,246.6v14.1h-1.1v-6.3l-0.8,0.4c-0.3-0.9-0.9-2.4-1.5-3.5v9.1h-1.1v-13.5h1.1
		v4.2l0.7-0.3c0.6,1.1,1.3,2.5,1.6,3.5v-7.6H675.5z"/>
	<path class="st5" d="M682.4,246.3h1.2v7.3c0,2.2-0.6,5.4-4.4,7.2c-0.2-0.3-0.6-0.6-0.8-0.9c2-0.8,3-2.1,3.5-3.5
		c-1.4,0.3-2.8,0.5-3.9,0.7l-0.3-1.2c1.2-0.2,2.8-0.4,4.5-0.7c0.1-0.6,0.2-1.2,0.2-1.7v-0.4h-4v-1.1h4v-2.4h-4.3v-1.1h4.3V246.3z
		 M691.9,256.8h-4.8v3.8H686v-14.4h1.2v2.3h4.5v1.1h-4.5v2.4h4.2v1.1h-4.2v2.5h4.8V256.8z"/>
	<path class="st5" d="M696.7,254.7v4.4c0,0.7-0.2,1-0.6,1.2c-0.4,0.2-1.1,0.2-2.1,0.2c0-0.3-0.2-0.8-0.4-1.1c0.8,0,1.4,0,1.6,0
		c0.2,0,0.3-0.1,0.3-0.3v-4.1l-2,0.6l-0.3-1.1c0.6-0.2,1.5-0.4,2.3-0.6v-3.4h-2.2v-1.1h2.2v-3.2h1.2v3.2h2v1.1h-2v3.1l1.5-0.4
		l0.2,1.1L696.7,254.7z M706.6,253.5c-0.6,1.9-1.7,3.4-3.1,4.5c1.2,0.7,2.6,1.3,4.2,1.6c-0.3,0.3-0.6,0.7-0.7,1.1
		c-1.7-0.4-3.2-1.1-4.4-2c-1.4,0.9-3,1.6-4.6,2c-0.1-0.3-0.4-0.8-0.6-1.1c1.5-0.3,3-0.9,4.3-1.7c-1.1-1-1.9-2.2-2.6-3.6l0.2-0.1
		h-0.6v-1.1h7.1l0.2,0L706.6,253.5z M701.2,248.6c0,1.4-0.4,3.1-2.4,4.2c-0.1-0.2-0.6-0.7-0.8-0.9c1.8-1,2-2.3,2-3.4v-1.7h5v3.7
		c0,0.4,0,0.6,0.3,0.6h1.2c0.2,0,0.6,0,0.8-0.1c0,0.3,0,0.7,0.1,1c-0.2,0.1-0.5,0.1-0.9,0.1h-1.3c-1.1,0-1.3-0.5-1.3-1.6v-2.5h-2.8
		V248.6z M700.2,254.3c0.6,1.2,1.4,2.2,2.4,3c1-0.8,1.9-1.8,2.5-3H700.2z"/>
	<path class="st5" d="M713.8,250.6h-4.5v-0.9h4.5V250.6z M715,258.7c-1.3,0.8-3.3,1.5-4.8,1.9c-0.2-0.2-0.6-0.7-0.9-0.9
		c1.6-0.3,3.5-0.9,4.6-1.5L715,258.7z M713.4,248.1h-3.8v-0.9h3.8V248.1z M711.3,251.8h10.2v6.3h-10.2V251.8z M712.5,253.7h7.9v-1.1
		h-7.9V253.7z M712.5,255.5h7.9v-1.1h-7.9V255.5z M712.5,257.4h7.9v-1.1h-7.9V257.4z M716.3,248.2c-0.3,0.6-0.8,1.2-1.2,1.6
		c-0.2-0.2-0.6-0.5-0.9-0.6c0.8-0.7,1.5-1.8,1.8-3l1.1,0.2c-0.1,0.3-0.2,0.6-0.3,0.9h5.3l0.2,0l0.8,0.3c-0.4,0.8-0.9,1.7-1.3,2.3
		l-0.9-0.3c0.2-0.3,0.5-0.8,0.7-1.2H719v0.2c0,0.2,0,0.3,0,0.5c0.8,0.9,2.6,1.6,4.6,1.7c-0.2,0.2-0.5,0.6-0.7,0.9
		c-1.8-0.3-3.3-0.9-4.3-1.8c-0.5,0.8-1.8,1.5-4.6,1.9c-0.1-0.3-0.4-0.7-0.6-0.9c4.1-0.6,4.5-1.6,4.5-2.5v-0.2H716.3z M718.7,258.2
		c1.7,0.5,3.5,1.2,4.6,1.7l-1,0.7c-1-0.5-2.7-1.2-4.4-1.8L718.7,258.2z"/>
	<path class="st5" d="M727.4,248.4c-0.5,0.7-1,1.4-1.6,1.9c-0.2-0.2-0.6-0.6-0.8-0.8c1-0.8,1.9-2.1,2.4-3.4l1,0.3
		c-0.1,0.3-0.3,0.6-0.4,0.9h4.1v1h-3c0.5,0.5,1.2,1,1.5,1.4l-0.8,0.7c-0.3-0.5-1.1-1.2-1.6-1.7l0.6-0.5H727.4z M735.9,255.8h3.1v1
		h-3.1v2.7c0,0.7-0.2,0.9-0.7,1.1c-0.5,0.2-1.4,0.2-2.8,0.2c0-0.3-0.2-0.7-0.3-1c1.1,0,2,0,2.3,0c0.3,0,0.3-0.1,0.3-0.3v-2.6h-9.5
		v-1h9.5v-1.1h1.2V255.8z M739.4,247.4v1h-3.5c0.5,0.5,1.2,1.1,1.5,1.5l-0.8,0.7c-0.3-0.5-0.9-1.2-1.5-1.7l0.7-0.5h-1.5
		c-0.4,0.7-0.9,1.4-1.3,1.9l-0.1-0.1v0.7h5.8v1h-5.8v1.4h4.9v0.9h-11v-0.9h4.9v-1.4h-5.7v-1h5.7v-1h0.9c-0.2-0.1-0.3-0.3-0.5-0.3
		c0.9-0.9,1.6-2.1,2-3.5l1.1,0.3c-0.1,0.3-0.2,0.7-0.4,1H739.4z M728.7,256.9c0.9,0.7,2.1,1.7,2.7,2.3l-0.9,0.7
		c-0.6-0.6-1.7-1.7-2.7-2.4L728.7,256.9z"/>
	<path class="st5" d="M746.1,255.7c0-0.3-0.1-0.6-0.2-0.9c-3.7,0.6-4.1,0.7-4.5,0.9c-0.1-0.2-0.2-0.8-0.4-1.1c0.3-0.1,0.7-0.5,1.2-1
		c0.3-0.3,0.8-0.9,1.3-1.8c-1.7,0.2-2,0.3-2.2,0.4c-0.1-0.2-0.3-0.8-0.4-1.1c0.3-0.1,0.6-0.4,0.9-0.9c0.3-0.5,1.4-2.3,2.1-4l1.1,0.5
		c-0.7,1.5-1.6,3-2.4,4.2l1.7-0.2c0.4-0.7,0.8-1.4,1.2-2.1l1,0.6c-1,1.8-2.3,3.6-3.6,5.1l2.7-0.4c-0.2-0.5-0.4-1-0.6-1.4l0.8-0.3
		c0.5,1,1,2.4,1.2,3.2L746.1,255.7z M742.6,256.5c-0.2,1.3-0.5,2.8-0.8,3.8c-0.2-0.1-0.7-0.3-0.9-0.3c0.4-1,0.6-2.4,0.8-3.6
		L742.6,256.5z M744.2,256.3c0.2,1,0.4,2.3,0.4,3.1l-0.9,0.2c0-0.9-0.2-2.2-0.4-3.2L744.2,256.3z M745.9,255.9
		c0.3,0.8,0.7,1.9,0.8,2.5l-0.9,0.3c-0.1-0.7-0.5-1.8-0.8-2.6L745.9,255.9z M754.7,251.7c-0.4,2.3-1.2,4.2-2.2,5.7
		c0.8,1,1.7,1.7,2.8,2.2c-0.3,0.2-0.6,0.7-0.8,1c-1.1-0.5-1.9-1.3-2.7-2.3c-0.8,1-1.8,1.8-2.8,2.3c-0.2-0.3-0.5-0.7-0.7-0.9
		c1-0.6,2-1.4,2.9-2.4c-0.8-1.3-1.4-2.8-1.8-4.5c-0.3,3.2-0.9,5.7-2.3,7.7c-0.2-0.2-0.7-0.6-1-0.7c2.1-2.6,2.4-6.6,2.5-11.7h-1.5
		V247h5.6l0.2-0.1l0.8,0.1c-0.2,1.3-0.4,3-0.7,4.4h1.1l0.2-0.1L754.7,251.7z M749.6,248.1c0,1.2-0.1,2.3-0.1,3.4h2.2
		c0.2-1.1,0.4-2.4,0.6-3.4H749.6z M750.2,252.5c0.4,1.4,0.9,2.7,1.5,3.8c0.7-1.1,1.2-2.4,1.6-3.8H750.2z"/>
	<path class="st5" d="M761.2,246.6c-0.4,1.1-0.9,2.2-1.5,3.2v10.8h-1.1v-9c-0.5,0.7-1.1,1.4-1.6,2c-0.1-0.3-0.4-0.9-0.7-1.1
		c1.5-1.5,3-3.8,3.9-6.2L761.2,246.6z M765.1,258.6c-0.9,0.8-2.5,1.6-3.7,2.1c-0.2-0.2-0.6-0.6-0.9-0.8c1.3-0.4,2.7-1,3.5-1.7
		L765.1,258.6z M771,250.3v0.9h-10.3v-0.9h4.6v-0.9h-3.5v-0.8h3.5v-0.8h-3.9v-0.8h3.9v-0.9h1.2v0.9h4v0.8h-4v0.8h3.6v0.8h-3.6v0.9
		H771z M769.9,257.9h-8V252h8V257.9z M768.8,252.8H763v1h5.7V252.8z M768.8,254.4H763v1h5.7V254.4z M768.8,256.1H763v1h5.7V256.1z
		 M767.9,258.1c1.1,0.6,2.4,1.4,3.1,2l-1,0.6c-0.7-0.6-2-1.5-3.1-2.1L767.9,258.1z"/>
</g>
<circle class="st6" cx="481.1" cy="258.8" r="8"/>
<g>
	<g>
		<path class="st11" d="M496,253.7h6.7v1.2h-5.2v3.6h4.4v1.2h-4.4v4.2h5.4v1.2H496V253.7z"/>
		<path class="st11" d="M505.3,253.7h1.8l2.2,6.2c0.3,0.8,0.5,1.6,0.8,2.4h0.1c0.3-0.8,0.5-1.6,0.8-2.4l2.2-6.2h1.8v11.6h-1.4v-6.4
			c0-1,0.1-2.4,0.2-3.4h-0.1l-0.9,2.6l-2.2,6h-1l-2.2-6l-0.9-2.6h-0.1c0.1,1,0.2,2.4,0.2,3.4v6.4h-1.3V253.7z"/>
		<path class="st11" d="M524.2,260.5v4.4c0,0.7-0.2,1-0.6,1.2c-0.4,0.2-1.1,0.2-2.1,0.2c0-0.3-0.2-0.8-0.4-1.1c0.8,0,1.4,0,1.6,0
			c0.2,0,0.3-0.1,0.3-0.3v-4.1l-2,0.6l-0.3-1.1c0.6-0.2,1.5-0.4,2.3-0.6v-3.4h-2.1v-1.1h2.1V252h1.2v3.2h2v1.1h-2v3.1l1.5-0.4
			l0.2,1.1L524.2,260.5z M534.1,259.3c-0.6,1.9-1.7,3.4-3.1,4.5c1.2,0.7,2.6,1.3,4.2,1.6c-0.3,0.3-0.6,0.7-0.7,1.1
			c-1.7-0.4-3.2-1.1-4.4-2c-1.4,0.9-3,1.6-4.6,2c-0.1-0.3-0.4-0.8-0.6-1.1c1.5-0.3,3-0.9,4.3-1.7c-1.1-1-1.9-2.2-2.6-3.6l0.2-0.1
			H526V259h7.1l0.2,0L534.1,259.3z M528.7,254.4c0,1.4-0.4,3.1-2.4,4.2c-0.1-0.2-0.6-0.7-0.8-0.9c1.8-1,2-2.3,2-3.4v-1.7h5v3.7
			c0,0.4,0,0.6,0.3,0.6h1.2c0.2,0,0.6,0,0.8-0.1c0,0.3,0,0.7,0.1,1c-0.2,0.1-0.5,0.1-0.9,0.1h-1.3c-1.1,0-1.3-0.5-1.3-1.6v-2.5h-2.8
			V254.4z M527.6,260.1c0.6,1.2,1.4,2.2,2.4,3c1-0.8,1.9-1.8,2.5-3H527.6z"/>
		<path class="st11" d="M541.2,256.4h-4.5v-0.9h4.5V256.4z M542.5,264.5c-1.3,0.8-3.3,1.5-4.8,1.9c-0.2-0.2-0.6-0.7-0.9-0.9
			c1.6-0.3,3.5-0.9,4.6-1.5L542.5,264.5z M540.8,253.9h-3.8V253h3.8V253.9z M538.8,257.6H549v6.3h-10.2V257.6z M539.9,259.5h7.9
			v-1.1h-7.9V259.5z M539.9,261.3h7.9v-1.1h-7.9V261.3z M539.9,263.2h7.9v-1.1h-7.9V263.2z M543.7,254c-0.3,0.6-0.8,1.2-1.2,1.6
			c-0.2-0.2-0.6-0.5-0.9-0.6c0.8-0.7,1.5-1.8,1.8-3l1.1,0.2c-0.1,0.3-0.2,0.6-0.3,0.9h5.3l0.2,0l0.8,0.3c-0.4,0.8-0.9,1.7-1.3,2.3
			l-0.9-0.3c0.2-0.3,0.5-0.8,0.7-1.2h-2.5v0.2c0,0.2,0,0.3,0,0.5c0.8,0.9,2.6,1.6,4.6,1.7c-0.2,0.2-0.5,0.6-0.7,0.9
			c-1.8-0.3-3.3-0.9-4.3-1.8c-0.5,0.8-1.8,1.5-4.6,1.9c-0.1-0.3-0.4-0.7-0.6-0.9c4.1-0.6,4.5-1.6,4.5-2.5V254H543.7z M546.1,264
			c1.7,0.5,3.5,1.2,4.6,1.7l-1,0.7c-1-0.5-2.7-1.2-4.4-1.8L546.1,264z"/>
		<path class="st11" d="M554.8,254.2c-0.5,0.7-1,1.4-1.6,1.9c-0.2-0.2-0.6-0.6-0.8-0.8c1-0.8,1.9-2.1,2.4-3.4l1,0.3
			c-0.1,0.3-0.3,0.6-0.4,0.9h4.1v1h-3c0.5,0.5,1.2,1,1.5,1.4l-0.8,0.7c-0.3-0.5-1.1-1.2-1.6-1.7l0.6-0.5H554.8z M563.4,261.6h3.1v1
			h-3.1v2.7c0,0.7-0.2,0.9-0.7,1.1c-0.5,0.2-1.4,0.2-2.8,0.2c0-0.3-0.2-0.7-0.3-1c1.1,0,2,0,2.3,0c0.3,0,0.3-0.1,0.3-0.3v-2.6h-9.5
			v-1h9.5v-1.1h1.2V261.6z M566.8,253.2v1h-3.5c0.5,0.5,1.2,1.1,1.5,1.5l-0.8,0.7c-0.3-0.5-0.9-1.2-1.5-1.7l0.7-0.5h-1.5
			c-0.4,0.7-0.9,1.4-1.3,1.9l-0.1-0.1v0.7h5.8v1h-5.8v1.4h4.9v0.9h-11v-0.9h4.9v-1.4h-5.7v-1h5.7v-1h0.9c-0.2-0.1-0.3-0.3-0.5-0.3
			c0.9-0.9,1.6-2.1,2-3.5l1.1,0.3c-0.1,0.3-0.2,0.7-0.4,1H566.8z M556.1,262.7c0.9,0.7,2.1,1.7,2.7,2.3l-0.9,0.7
			c-0.6-0.6-1.7-1.7-2.7-2.4L556.1,262.7z"/>
		<path class="st11" d="M573.5,261.5c0-0.3-0.1-0.6-0.2-0.9c-3.7,0.6-4.1,0.7-4.5,0.9c-0.1-0.2-0.2-0.8-0.4-1.1
			c0.3-0.1,0.7-0.5,1.2-1c0.3-0.3,0.8-0.9,1.3-1.8c-1.7,0.2-2,0.3-2.2,0.4c-0.1-0.2-0.3-0.8-0.4-1.1c0.3-0.1,0.6-0.4,0.9-0.9
			c0.3-0.5,1.4-2.3,2.1-4l1.1,0.5c-0.7,1.5-1.6,3-2.4,4.2l1.7-0.2c0.4-0.7,0.8-1.4,1.2-2.1l1,0.6c-1,1.8-2.3,3.6-3.6,5.1l2.7-0.4
			c-0.2-0.5-0.4-1-0.6-1.4l0.8-0.3c0.5,1,1,2.4,1.2,3.2L573.5,261.5z M570.1,262.3c-0.2,1.3-0.5,2.8-0.8,3.8
			c-0.2-0.1-0.7-0.3-0.9-0.3c0.4-1,0.6-2.4,0.8-3.6L570.1,262.3z M571.7,262.1c0.2,1,0.4,2.3,0.4,3.1l-0.9,0.2
			c0-0.9-0.2-2.2-0.4-3.2L571.7,262.1z M573.4,261.7c0.3,0.8,0.7,1.9,0.8,2.5l-0.9,0.3c-0.1-0.7-0.5-1.8-0.8-2.6L573.4,261.7z
			 M582.2,257.5c-0.4,2.3-1.2,4.2-2.2,5.7c0.8,1,1.7,1.7,2.8,2.2c-0.3,0.2-0.6,0.7-0.8,1c-1.1-0.5-1.9-1.3-2.7-2.3
			c-0.8,1-1.8,1.8-2.8,2.3c-0.2-0.3-0.5-0.7-0.7-0.9c1-0.6,2-1.4,2.9-2.4c-0.8-1.3-1.4-2.8-1.8-4.5c-0.3,3.2-0.9,5.7-2.3,7.7
			c-0.2-0.2-0.7-0.6-1-0.7c2.1-2.6,2.4-6.6,2.5-11.7h-1.5v-1.1h5.6l0.2-0.1l0.8,0.1c-0.2,1.3-0.4,3-0.7,4.4h1.1l0.2-0.1L582.2,257.5
			z M577,253.9c0,1.2-0.1,2.3-0.1,3.4h2.2c0.2-1.1,0.4-2.4,0.6-3.4H577z M577.7,258.3c0.4,1.4,0.9,2.7,1.5,3.8
			c0.7-1.1,1.2-2.4,1.6-3.8H577.7z"/>
		<path class="st11" d="M588.6,252.4c-0.4,1.1-0.9,2.2-1.5,3.2v10.8h-1.1v-9c-0.5,0.7-1.1,1.4-1.6,2c-0.1-0.3-0.4-0.9-0.7-1.1
			c1.5-1.5,3-3.8,3.9-6.2L588.6,252.4z M592.5,264.4c-0.9,0.8-2.5,1.6-3.7,2.1c-0.2-0.2-0.6-0.6-0.9-0.8c1.3-0.4,2.7-1,3.5-1.7
			L592.5,264.4z M598.4,256.2v0.9h-10.3v-0.9h4.6v-0.9h-3.5v-0.8h3.5v-0.8h-3.9v-0.8h3.9V252h1.2v0.9h4v0.8h-4v0.8h3.6v0.8h-3.6v0.9
			H598.4z M597.4,263.7h-8v-5.9h8V263.7z M596.2,258.6h-5.7v1h5.7V258.6z M596.2,260.2h-5.7v1h5.7V260.2z M596.2,261.9h-5.7v1h5.7
			V261.9z M595.3,263.9c1.1,0.6,2.4,1.4,3.1,2l-1,0.6c-0.7-0.6-2-1.5-3.1-2.1L595.3,263.9z"/>
	</g>
</g>
<circle class="st6" cx="579.4" cy="196.5" r="8"/>
<g>
	<g>
		<path class="st11" d="M597.1,189.8h1.2v7.3c0,2.2-0.6,5.4-4.4,7.2c-0.2-0.3-0.6-0.6-0.8-0.9c2-0.8,3-2.1,3.5-3.5
			c-1.4,0.3-2.8,0.5-3.9,0.7l-0.3-1.2c1.2-0.2,2.8-0.4,4.5-0.7c0.1-0.6,0.2-1.2,0.2-1.7v-0.4h-4v-1.1h4v-2.4h-4.3v-1.1h4.3V189.8z
			 M606.6,200.4h-4.8v3.8h-1.2v-14.4h1.2v2.3h4.5v1.1h-4.5v2.4h4.2v1.1h-4.2v2.5h4.8V200.4z"/>
		<path class="st11" d="M608.9,191.4h6.7v1.2h-5.2v3.6h4.4v1.2h-4.4v4.2h5.4v1.2h-6.9V191.4z"/>
		<path class="st11" d="M618.2,191.4h1.8l2.2,6.2c0.3,0.8,0.5,1.6,0.8,2.4h0.1c0.3-0.8,0.5-1.6,0.8-2.4l2.2-6.2h1.8V203h-1.4v-6.4
			c0-1,0.1-2.4,0.2-3.4h-0.1l-0.9,2.6l-2.2,6h-1l-2.2-6l-0.9-2.6h-0.1c0.1,1,0.2,2.4,0.2,3.4v6.4h-1.3V191.4z"/>
		<path class="st11" d="M637.1,198.3v4.4c0,0.7-0.2,1-0.6,1.2c-0.4,0.2-1.1,0.2-2.1,0.2c0-0.3-0.2-0.8-0.4-1.1c0.8,0,1.4,0,1.6,0
			c0.2,0,0.3-0.1,0.3-0.3v-4.1l-2,0.6l-0.3-1.1c0.6-0.2,1.5-0.4,2.3-0.6V194h-2.2v-1.1h2.2v-3.2h1.2v3.2h2v1.1h-2v3.1l1.5-0.4
			l0.2,1.1L637.1,198.3z M647,197c-0.6,1.9-1.7,3.4-3.1,4.5c1.2,0.7,2.6,1.3,4.2,1.6c-0.3,0.3-0.6,0.7-0.7,1.1
			c-1.7-0.4-3.2-1.1-4.4-2c-1.4,0.9-3,1.6-4.6,2c-0.1-0.3-0.4-0.8-0.6-1.1c1.5-0.3,3-0.9,4.3-1.7c-1.1-1-1.9-2.2-2.6-3.6l0.2-0.1
			h-0.6v-1.1h7.1l0.2,0L647,197z M641.6,192.1c0,1.4-0.4,3.1-2.4,4.2c-0.1-0.2-0.6-0.7-0.8-0.9c1.8-1,2-2.3,2-3.4v-1.7h5v3.7
			c0,0.4,0,0.6,0.3,0.6h1.2c0.2,0,0.6,0,0.8-0.1c0,0.3,0,0.7,0.1,1c-0.2,0.1-0.5,0.1-0.9,0.1h-1.3c-1.1,0-1.3-0.5-1.3-1.6v-2.5h-2.8
			V192.1z M640.5,197.8c0.6,1.2,1.4,2.2,2.4,3c1-0.8,1.9-1.8,2.5-3H640.5z"/>
		<path class="st11" d="M654.1,194.1h-4.5v-0.9h4.5V194.1z M655.4,202.3c-1.3,0.8-3.3,1.5-4.8,1.9c-0.2-0.2-0.6-0.7-0.9-0.9
			c1.6-0.3,3.5-0.9,4.6-1.5L655.4,202.3z M653.7,191.6H650v-0.9h3.8V191.6z M651.7,195.3h10.2v6.3h-10.2V195.3z M652.8,197.2h7.9
			v-1.1h-7.9V197.2z M652.8,199h7.9V198h-7.9V199z M652.8,200.9h7.9v-1.1h-7.9V200.9z M656.6,191.7c-0.3,0.6-0.8,1.2-1.2,1.6
			c-0.2-0.2-0.6-0.5-0.9-0.6c0.8-0.7,1.5-1.8,1.8-3l1.1,0.2c-0.1,0.3-0.2,0.6-0.3,0.9h5.3l0.2,0l0.8,0.3c-0.4,0.8-0.9,1.7-1.3,2.3
			l-0.9-0.3c0.2-0.3,0.5-0.8,0.7-1.2h-2.5v0.2c0,0.2,0,0.3,0,0.5c0.8,0.9,2.6,1.6,4.6,1.7c-0.2,0.2-0.5,0.6-0.7,0.9
			c-1.8-0.3-3.3-0.9-4.3-1.8c-0.5,0.8-1.8,1.5-4.6,1.9c-0.1-0.3-0.4-0.7-0.6-0.9c4.1-0.6,4.5-1.6,4.5-2.5v-0.2H656.6z M659,201.8
			c1.7,0.5,3.5,1.2,4.6,1.7l-1,0.7c-1-0.5-2.7-1.2-4.4-1.8L659,201.8z"/>
		<path class="st11" d="M667.7,191.9c-0.5,0.7-1,1.4-1.6,1.9c-0.2-0.2-0.6-0.6-0.8-0.8c1-0.8,1.9-2.1,2.4-3.4l1,0.3
			c-0.1,0.3-0.3,0.6-0.4,0.9h4.1v1h-3c0.5,0.5,1.2,1,1.5,1.4l-0.8,0.7c-0.3-0.5-1.1-1.2-1.6-1.7l0.6-0.5H667.7z M676.3,199.3h3.1v1
			h-3.1v2.7c0,0.7-0.2,0.9-0.7,1.1c-0.5,0.2-1.4,0.2-2.8,0.2c0-0.3-0.2-0.7-0.3-1c1.1,0,2,0,2.3,0c0.3,0,0.3-0.1,0.3-0.3v-2.6h-9.5
			v-1h9.5v-1.1h1.2V199.3z M679.7,190.9v1h-3.5c0.5,0.5,1.2,1.1,1.5,1.5l-0.8,0.7c-0.3-0.5-0.9-1.2-1.5-1.7l0.7-0.5h-1.5
			c-0.4,0.7-0.9,1.4-1.3,1.9l-0.1-0.1v0.7h5.8v1h-5.8v1.4h4.9v0.9h-11v-0.9h4.9v-1.4h-5.7v-1h5.7v-1h0.9c-0.2-0.1-0.3-0.3-0.5-0.3
			c0.9-0.9,1.6-2.1,2-3.5l1.1,0.3c-0.1,0.3-0.2,0.7-0.4,1H679.7z M669,200.4c0.9,0.7,2.1,1.7,2.7,2.3l-0.9,0.7
			c-0.6-0.6-1.7-1.7-2.7-2.4L669,200.4z"/>
		<path class="st11" d="M686.4,199.2c0-0.3-0.1-0.6-0.2-0.9c-3.7,0.6-4.1,0.7-4.5,0.9c-0.1-0.2-0.2-0.8-0.4-1.1
			c0.3-0.1,0.7-0.5,1.2-1c0.3-0.3,0.8-0.9,1.3-1.8c-1.7,0.2-2,0.3-2.2,0.4c-0.1-0.2-0.3-0.8-0.4-1.1c0.3-0.1,0.6-0.4,0.9-0.9
			c0.3-0.5,1.4-2.3,2.1-4l1.1,0.5c-0.7,1.5-1.6,3-2.4,4.2l1.7-0.2c0.4-0.7,0.8-1.4,1.2-2.1l1,0.6c-1,1.8-2.3,3.6-3.6,5.1l2.7-0.4
			c-0.2-0.5-0.4-1-0.6-1.4l0.8-0.3c0.5,1,1,2.4,1.2,3.2L686.4,199.2z M683,200c-0.2,1.3-0.5,2.8-0.8,3.8c-0.2-0.1-0.7-0.3-0.9-0.3
			c0.4-1,0.6-2.4,0.8-3.6L683,200z M684.6,199.8c0.2,1,0.4,2.3,0.4,3.1l-0.9,0.2c0-0.9-0.2-2.2-0.4-3.2L684.6,199.8z M686.2,199.4
			c0.3,0.8,0.7,1.9,0.8,2.5l-0.9,0.3c-0.1-0.7-0.5-1.8-0.8-2.6L686.2,199.4z M695.1,195.2c-0.4,2.3-1.2,4.2-2.2,5.7
			c0.8,1,1.7,1.7,2.8,2.2c-0.3,0.2-0.6,0.7-0.8,1c-1.1-0.5-1.9-1.3-2.7-2.3c-0.8,1-1.8,1.8-2.8,2.3c-0.2-0.3-0.5-0.7-0.7-0.9
			c1-0.6,2-1.4,2.9-2.4c-0.8-1.3-1.4-2.8-1.8-4.5c-0.3,3.2-0.9,5.7-2.3,7.7c-0.2-0.2-0.7-0.6-1-0.7c2.1-2.6,2.4-6.6,2.5-11.7h-1.5
			v-1.1h5.6l0.2-0.1l0.8,0.1c-0.2,1.3-0.4,3-0.7,4.4h1.1l0.2-0.1L695.1,195.2z M689.9,191.6c0,1.2-0.1,2.3-0.1,3.4h2.2
			c0.2-1.1,0.4-2.4,0.6-3.4H689.9z M690.6,196.1c0.4,1.4,0.9,2.7,1.5,3.8c0.7-1.1,1.2-2.4,1.6-3.8H690.6z"/>
		<path class="st11" d="M701.5,190.1c-0.4,1.1-0.9,2.2-1.5,3.2v10.8h-1.1v-9c-0.5,0.7-1.1,1.4-1.6,2c-0.1-0.3-0.4-0.9-0.7-1.1
			c1.5-1.5,3-3.8,3.9-6.2L701.5,190.1z M705.4,202.1c-0.9,0.8-2.5,1.6-3.7,2.1c-0.2-0.2-0.6-0.6-0.9-0.8c1.3-0.4,2.7-1,3.5-1.7
			L705.4,202.1z M711.3,193.9v0.9H701v-0.9h4.6V193h-3.5v-0.8h3.5v-0.8h-3.9v-0.8h3.9v-0.9h1.2v0.9h4v0.8h-4v0.8h3.6v0.8h-3.6v0.9
			H711.3z M710.3,201.4h-8v-5.9h8V201.4z M709.1,196.3h-5.7v1h5.7V196.3z M709.1,198h-5.7v1h5.7V198z M709.1,199.6h-5.7v1h5.7V199.6
			z M708.2,201.6c1.1,0.6,2.4,1.4,3.1,2l-1,0.6c-0.7-0.6-2-1.5-3.1-2.1L708.2,201.6z"/>
	</g>
</g>
</svg>
