<?xml version="1.0" encoding="utf-8"?>
<!-- Generator: Adobe Illustrator 27.8.1, SVG Export Plug-In . SVG Version: 6.00 Build 0)  -->
<svg version="1.1" id="分離模式" xmlns="http://www.w3.org/2000/svg" xmlns:xlink="http://www.w3.org/1999/xlink" x="0px"
	 y="0px" viewBox="0 0 1045.1 463.9" style="enable-background:new 0 0 1045.1 463.9;" xml:space="preserve">
<style type="text/css">
	.st0{fill:#05367B;}
	.st1{fill:#FFC9A4;}
	.st2{fill:#CCEA78;}
	.st3{fill:#AFEFED;}
	.st4{fill:#D8ADD8;}
	.st5{fill:none;stroke:#000000;stroke-miterlimit:10;}
	.st6{fill:#FFFFFF;}
</style>
<text transform="matrix(1 0 0 1 -1.9199 626.0151)"><tspan x="0" y="0" style="font-family:'SourceHanSansTC-Medium-B5pc-H'; font-size:18px;">1８</tspan><tspan x="7.7" y="42" style="font-family:'SourceHanSansTC-Medium-B5pc-H'; font-size:18px;">14</tspan><tspan x="7.7" y="84" style="font-family:'SourceHanSansTC-Medium-B5pc-H'; font-size:18px;">12</tspan><tspan x="7.7" y="126" style="font-family:'SourceHanSansTC-Medium-B5pc-H'; font-size:18px;">10</tspan><tspan x="18" y="168" style="font-family:'SourceHanSansTC-Medium-B5pc-H'; font-size:18px;">8</tspan><tspan x="18" y="210" style="font-family:'SourceHanSansTC-Medium-B5pc-H'; font-size:18px;">6</tspan><tspan x="18" y="252" style="font-family:'SourceHanSansTC-Medium-B5pc-H'; font-size:18px;">4</tspan><tspan x="18" y="294" style="font-family:'SourceHanSansTC-Medium-B5pc-H'; font-size:18px;">2</tspan><tspan x="18" y="336" style="font-family:'SourceHanSansTC-Medium-B5pc-H'; font-size:18px;">0</tspan><tspan x="11.6" y="378" style="font-family:'SourceHanSansTC-Medium-B5pc-H'; font-size:18px;">-2</tspan></text>
<text transform="matrix(1 0 0 1 -6.4856 589.7541)" style="font-family:'SourceHanSansTC-Medium-B5pc-H'; font-size:15px;">平均報酬率，%</text>
<g>
	<text transform="matrix(1 0 0 1 342.2597 1077.2998)"><tspan x="0" y="0" style="fill:#494949; font-family:'SourceHanSansTC-Normal-B5pc-H'; font-size:12px;">資料來源：Bloomberg，統計時間為2000年5月、2006年6月和2018年12月開始計算。</tspan><tspan x="56.3" y="21" style="fill:#494949; font-family:'SourceHanSansTC-Normal-B5pc-H'; font-size:12px;">註：平衡型組合成為50%S&amp;P500指數和50%彭博美國複合債指數</tspan></text>
</g>
<rect x="101.5" y="995.8" class="st0" width="241.4" height="39.9"/>
<g>
	
		<text transform="matrix(1 0 0 1 159.2121 1022.6788)" class="st6" style="font-family:'SourceHanSansTC-Regular-B5pc-H'; font-size:18px;">美國複合債指標</text>
</g>
<rect x="109.6" y="844" class="st1" width="47.3" height="109.3"/>
<rect x="167.3" y="761.6" class="st2" width="47.3" height="191.7"/>
<rect x="225" y="637.9" class="st3" width="47.3" height="315.5"/>
<rect x="282.6" y="953.3" class="st4" width="47.3" height="16.2"/>
<text transform="matrix(1 0 0 1 116.3553 836.6516)" style="font-family:'SourceHanSansTC-Regular-B5pc-H'; font-size:14px;">5.45</text>
<text transform="matrix(1 0 0 1 173.3959 752.2488)" style="font-family:'SourceHanSansTC-Regular-B5pc-H'; font-size:14px;">9.22</text>
<text transform="matrix(1 0 0 1 229.3083 631.6483)" style="font-family:'SourceHanSansTC-Regular-B5pc-H'; font-size:14px;">16.01</text>
<text transform="matrix(1 0 0 1 289.6597 986.4178)" style="font-family:'SourceHanSansTC-Regular-B5pc-H'; font-size:14px;">-0.92</text>
<rect x="424.9" y="995.8" class="st0" width="241.4" height="39.9"/>
<g>
	
		<text transform="matrix(1 0 0 1 463.0512 1022.6788)" class="st6" style="font-family:'SourceHanSansTC-Regular-B5pc-H'; font-size:18px;">美股Ｓ＆Ｐ  ５００指數</text>
</g>
<rect x="432.9" y="819.4" class="st1" width="47.3" height="133.9"/>
<rect x="490.6" y="717.1" class="st2" width="47.3" height="236.2"/>
<rect x="548.3" y="864.7" class="st3" width="47.3" height="88.7"/>
<rect x="606" y="953.3" class="st4" width="47.3" height="16.2"/>
<text transform="matrix(1 0 0 1 439.7195 812.2491)" style="font-family:'SourceHanSansTC-Regular-B5pc-H'; font-size:14px;">6.89</text>
<text transform="matrix(1 0 0 1 496.7601 712.8752)" style="font-family:'SourceHanSansTC-Regular-B5pc-H'; font-size:14px;">11.25</text>
<text transform="matrix(1 0 0 1 558.4502 860.6478)" style="font-family:'SourceHanSansTC-Regular-B5pc-H'; font-size:14px;">4.22</text>
<text transform="matrix(1 0 0 1 618.0238 986.4178)" style="font-family:'SourceHanSansTC-Regular-B5pc-H'; font-size:14px;">-0.84</text>
<rect x="749" y="995.8" class="st0" width="241.4" height="39.9"/>
<g>
	
		<text transform="matrix(1 0 0 1 824.7336 1022.6788)" class="st6" style="font-family:'SourceHanSansTC-Regular-B5pc-H'; font-size:18px;">平衡型組合</text>
</g>
<rect x="756.2" y="830.5" class="st1" width="47.3" height="122.8"/>
<rect x="813.9" y="752.4" class="st2" width="47.3" height="200.9"/>
<rect x="871.6" y="777.5" class="st3" width="47.3" height="175.8"/>
<rect x="929.3" y="953.3" class="st4" width="47.3" height="16.2"/>
<text transform="matrix(1 0 0 1 763.3122 827.0739)" style="font-family:'SourceHanSansTC-Regular-B5pc-H'; font-size:14px;">6.05</text>
<text transform="matrix(1 0 0 1 820.0376 746.2488)" style="font-family:'SourceHanSansTC-Regular-B5pc-H'; font-size:14px;">9.53</text>
<text transform="matrix(1 0 0 1 881.8414 770.1959)" style="font-family:'SourceHanSansTC-Regular-B5pc-H'; font-size:14px;">8.28</text>
<text transform="matrix(1 0 0 1 941.3014 986.4178)" style="font-family:'SourceHanSansTC-Regular-B5pc-H'; font-size:14px;">-0.87</text>
<line class="st5" x1="33.8" y1="954.3" x2="1045.1" y2="954.3"/>
<g>
	<text transform="matrix(1 0 0 1 341.2855 653.0718)" style="font-family:'SourceHanSansTC-Regular-B5pc-H'; font-size:15px;">過去暫停升息後半年          過去暫停升息後一年         過去暫停升息後一年半          2023年7月到11月</text>
	<rect x="318.4" y="639" class="st1" width="16.4" height="16.4"/>
	<rect x="491.3" y="639" class="st2" width="16.4" height="16.4"/>
	<rect x="656.5" y="639" class="st3" width="16.4" height="16.4"/>
	<rect x="840.7" y="639" class="st4" width="16.4" height="16.4"/>
</g>
<g>
	<path d="M3.9,52.4h2.9v-8.9H4.5v-1.3c1.2-0.2,2.1-0.5,2.9-1h1.6v11.2h2.6v1.7H3.9V52.4z"/>
	<path d="M14.6,50.8c0-1.7,0.9-2.7,2.4-3.6v-0.1c-1.3-0.7-1.9-1.7-1.9-2.9c0-2.1,1.8-3.6,4.4-3.6c2.7,0,4.4,1.5,4.4,3.5
		c0,1.3-0.6,2.3-1.9,3.2v0.1c1.7,0.8,2.4,1.9,2.4,3.3c0,2-1.8,3.6-4.9,3.6C16.5,54.4,14.6,52.8,14.6,50.8z M22.4,50.7
		c0-1.6-1.6-2.2-4.1-2.9c-1.2,0.7-1.8,1.6-1.8,2.7c0,1.3,1.2,2.3,3.1,2.3C21.4,52.9,22.4,51.9,22.4,50.7z M22.1,44.3
		c0-1.1-0.9-2.2-2.7-2.2C18,42.1,17,43,17,44.2c0,1.5,1.7,2.1,3.7,2.6C21.8,45.9,22.1,45.2,22.1,44.3z"/>
	<path d="M7.4,94.4h2.9v-8.9H7.9v-1.3c1.2-0.2,2.1-0.5,2.9-1h1.6v11.2h2.6v1.7H7.4V94.4z"/>
	<path d="M22.2,92.7h-5.7v-1.4l5.3-8.1h2.4v7.9h1.7v1.6h-1.7v3.4h-1.9V92.7z M22.2,91.1v-3.3c0-0.7,0.1-1.9,0.1-2.6h-0.1
		c-0.3,0.6-0.7,1.3-1.1,1.9l-2.6,3.9H22.2z"/>
	<path d="M7.4,136.4h2.9v-8.9H7.9v-1.3c1.2-0.2,2.1-0.5,2.9-1h1.6v11.2h2.6v1.7H7.4V136.4z"/>
	<path d="M16.9,136.9c3.7-3.6,5.9-5.9,5.9-7.9c0-1.4-0.8-2.3-2.3-2.3c-1,0-1.9,0.7-2.6,1.5l-1.2-1.2c1.1-1.2,2.3-2,4-2
		c2.4,0,4,1.5,4,3.9c0,2.4-2.1,4.7-4.9,7.6c0.7-0.1,1.5-0.1,2.2-0.1h3.4v1.8h-8.6V136.9z"/>
	<path d="M7.4,178.4h2.9v-8.9H7.9v-1.3c1.2-0.2,2.1-0.5,2.9-1h1.6v11.2h2.6v1.7H7.4V178.4z"/>
	<path d="M16.9,173.6c0-4.3,1.7-6.6,4.3-6.6c2.6,0,4.3,2.3,4.3,6.6c0,4.3-1.6,6.7-4.3,6.7C18.6,180.4,16.9,178,16.9,173.6z
		 M23.5,173.6c0-3.7-1-5-2.3-5c-1.4,0-2.3,1.3-2.3,5s1,5.1,2.3,5.1C22.6,178.7,23.5,177.3,23.5,173.6z"/>
	<path d="M16.9,218.8c0-1.6,1.2-2.7,2.4-3.4v-0.1c-1-0.7-1.8-1.7-1.8-3c0-2.1,1.6-3.4,3.8-3.4c2.3,0,3.7,1.4,3.7,3.5
		c0,1.3-0.9,2.4-1.7,3v0.1c1.2,0.7,2.2,1.6,2.2,3.3c0,2-1.7,3.5-4.3,3.5C18.7,222.4,16.9,220.9,16.9,218.8z M23.6,218.8
		c0-1.5-1.5-2.1-3.3-2.8c-0.9,0.6-1.5,1.5-1.5,2.6c0,1.3,1.1,2.2,2.5,2.2C22.6,220.9,23.6,220.1,23.6,218.8z M23.3,212.6
		c0-1.2-0.7-2.1-2-2.1c-1.1,0-1.9,0.7-1.9,1.9c0,1.4,1.3,2,2.7,2.6C22.9,214.2,23.3,213.4,23.3,212.6z"/>
	<path d="M17,258.1c0-5.1,2.4-7.1,5-7.1c1.5,0,2.6,0.6,3.3,1.4l-1.1,1.3c-0.5-0.6-1.3-1-2.1-1c-1.7,0-3.1,1.3-3.2,5
		c0.8-1,1.9-1.5,2.9-1.5c2.2,0,3.7,1.3,3.7,4c0,2.5-1.8,4.2-4,4.2C19.1,264.4,17,262.4,17,258.1z M19,259.3c0.2,2.4,1.2,3.5,2.6,3.5
		c1.2,0,2.1-1,2.1-2.6c0-1.6-0.8-2.5-2.2-2.5C20.7,257.7,19.8,258.1,19,259.3z"/>
	<path d="M22.2,302.7h-5.7v-1.4l5.3-8.1h2.4v7.9h1.7v1.6h-1.7v3.4h-1.9V302.7z M22.2,301.1v-3.3c0-0.7,0.1-1.9,0.1-2.6h-0.1
		c-0.3,0.6-0.7,1.3-1.1,1.9l-2.6,3.9H22.2z"/>
	<path d="M16.9,346.9c3.7-3.6,5.9-5.9,5.9-7.9c0-1.4-0.8-2.3-2.3-2.3c-1,0-1.9,0.7-2.6,1.5l-1.2-1.2c1.1-1.2,2.3-2,4-2
		c2.4,0,4,1.5,4,3.9c0,2.4-2.1,4.7-4.9,7.6c0.7-0.1,1.5-0.1,2.2-0.1h3.4v1.8h-8.6V346.9z"/>
	<path d="M16.9,383.6c0-4.3,1.7-6.6,4.3-6.6c2.6,0,4.3,2.3,4.3,6.6c0,4.3-1.6,6.7-4.3,6.7C18.6,390.4,16.9,388,16.9,383.6z
		 M23.5,383.6c0-3.7-1-5-2.3-5c-1.4,0-2.3,1.3-2.3,5s1,5.1,2.3,5.1C22.6,388.7,23.5,387.3,23.5,383.6z"/>
	<path d="M10.5,426.3h4.8v1.5h-4.8V426.3z"/>
	<path d="M16.9,430.9c3.7-3.6,5.9-5.9,5.9-7.9c0-1.4-0.8-2.3-2.3-2.3c-1,0-1.9,0.7-2.6,1.5l-1.2-1.2c1.1-1.2,2.3-2,4-2
		c2.4,0,4,1.5,4,3.9c0,2.4-2.1,4.7-4.9,7.6c0.7-0.1,1.5-0.1,2.2-0.1h3.4v1.8h-8.6V430.9z"/>
</g>
<g>
	<path d="M15.2,14h-6v5.1H7.8V14H1.8v-1.4h5.9V7.6H2.6V6.3h11.8v1.4H9.2v4.9h6V14z M4.9,8.2c0.6,1,1.1,2.4,1.3,3.2l-1.3,0.4
		c-0.2-0.9-0.7-2.2-1.2-3.3L4.9,8.2z M10.7,11.6c0.5-0.9,1.1-2.3,1.5-3.4l1.5,0.4c-0.5,1.2-1.2,2.5-1.8,3.4L10.7,11.6z"/>
	<path d="M30.2,7.7c0,0,0,0.5,0,0.7c-0.2,6.7-0.4,9.1-1,9.9c-0.4,0.5-0.7,0.6-1.3,0.7c-0.5,0.1-1.4,0.1-2.3,0c0-0.4-0.2-1-0.5-1.4
		c0.9,0.1,1.8,0.1,2.2,0.1c0.3,0,0.5,0,0.6-0.2c0.5-0.5,0.7-2.7,0.9-8.4h-5c-0.5,1-1.1,1.9-1.7,2.6c-0.3-0.2-0.9-0.6-1.3-0.8
		c0.2-0.2,0.3-0.3,0.5-0.5H20v4.2c0.5-0.3,1.1-0.5,1.7-0.8L22,15c-1.7,0.9-3.5,1.8-4.9,2.5l-0.5-1.4c0.6-0.2,1.3-0.6,2.1-0.9v-4.9
		h-1.8V9h1.8V5.6H20V9h1.6v0.9c0.9-1.3,1.7-2.9,2.2-4.6l1.4,0.4C25,6.4,24.7,7,24.4,7.7H30.2z M22.4,14.2h5v1.2h-5V14.2z M27.1,10.9
		v1.2h-4.4v-1.2H27.1z"/>
	<path d="M35.7,15h2.5v1.2h-2.5V19h-1.3v-2.9h-2.7V15h2.7v-1.4h-2.4v-1.2h1.3c-0.1-0.5-0.4-1.2-0.6-1.7l0.9-0.3h-1.9V9.2h2.7V7.9
		h-2.2V6.7h2.2V5.3h1.3v1.4h2.2v1.2h-2.2v1.3h2.5v1.2h-1.6l1,0.3c-0.3,0.6-0.6,1.2-0.9,1.7H38v1.2h-2.2V15z M33.7,10.4
		c0.3,0.5,0.6,1.3,0.7,1.7l-0.7,0.2h1.8c0.3-0.6,0.7-1.4,0.9-2H33.7z M45,11.3c-0.3,1.7-0.9,3.4-1.7,4.8c0.7,0.7,1.4,1.3,2.2,1.8
		c-0.3,0.2-0.7,0.8-0.9,1.1c-0.8-0.4-1.5-1-2.1-1.8c-0.6,0.7-1.2,1.4-2,1.9c-0.1-0.2-0.3-0.4-0.6-0.6V19h-1.3V6h5.9v2.8
		c0,0.6-0.1,1-0.6,1.2c-0.5,0.2-1.3,0.2-2.4,0.2c-0.1-0.4-0.2-0.9-0.4-1.2c0.9,0,1.7,0,1.9,0c0.2,0,0.3-0.1,0.3-0.2V7.2H40V11h3.9
		l0.2-0.1L45,11.3z M40,17.9c0.7-0.5,1.2-1.1,1.7-1.8C41,15,40.4,13.7,40,12.2V17.9z M41.2,12.2c0.3,1,0.8,2,1.3,2.8
		c0.5-0.9,0.8-1.8,1-2.8H41.2z"/>
	<path d="M50.7,8.8h1.5v10h-1V18h-3.2v1h-1V8.8h1.4V7h-1.6V5.9h5.7V7h-1.6V8.8z M51.1,16.9v-3.8h-0.5c-0.6,0-0.8-0.2-0.8-0.9V9.9
		h-0.6v1.2c0,0.9-0.1,2-0.9,2.8c-0.1-0.1-0.2-0.3-0.4-0.4v3.3H51.1z M47.9,9.9v3.4c0.5-0.7,0.6-1.5,0.6-2.2V9.9H47.9z M50.6,14.6v1
		h-2.2v-1H50.6z M49.2,8.8h0.6V7h-0.6V8.8z M51.1,9.9h-0.6v2.2c0,0.2,0,0.2,0.1,0.2H51h0.1V9.9z M59.9,5.6v13.5h-1.2v-6l-0.5,0.3
		c-0.1-0.7-0.5-1.7-0.8-2.6v7.9h-1.1v-5.6l-0.6,0.3c-0.1-0.8-0.4-1.8-0.7-2.8v1c0,2.8-0.2,5.5-1.6,7.6c-0.2-0.2-0.7-0.6-1-0.7
		c1-1.5,1.4-3.3,1.5-5.2l-0.7,0.3c-0.1-0.9-0.4-2.3-0.8-3.3l0.8-0.4c0.3,0.8,0.5,1.8,0.7,2.6c0-0.3,0-0.6,0-0.8V5.6H55V10l0.6-0.3
		c0.3,0.7,0.5,1.5,0.7,2.2V5.9h1.1v4l0.5-0.2c0.3,0.6,0.6,1.4,0.9,2.2V5.6H59.9z"/>
	<path d="M75.2,16.1h-6v3h-1.5v-3h-6v-1.3h6v-1.1h1.5v1.1h6V16.1z M65.8,12.1c-1.1,0.6-2.3,1.2-3.3,1.7l-0.7-1.1
		c0.9-0.4,2.4-1,3.7-1.6L65.8,12.1z M70.9,13.9c-0.1-0.2-0.2-0.5-0.4-0.8c-3.8,0.4-4.3,0.4-4.6,0.6c0-0.2-0.2-0.8-0.4-1.2
		c0.4,0,0.7-0.3,1.2-0.8c0.3-0.2,0.8-0.7,1.5-1.3c-1.5,0.1-1.8,0.2-2,0.3c-0.1-0.3-0.3-0.8-0.4-1.1c0.2,0,0.4-0.2,0.7-0.5
		c0.2-0.2,0.6-0.7,1-1.3h-5.3V6.6H68c-0.2-0.4-0.4-0.7-0.6-1l1.4-0.3c0.3,0.4,0.6,1,0.9,1.4h5.4v1.3h-6.2C68.5,8.4,68,9,67.6,9.4
		l1.7-0.1c0.3-0.4,0.7-0.8,1-1.2l1.1,0.6c-1.1,1.3-2.4,2.5-3.6,3.5l2.1-0.2c-0.2-0.3-0.4-0.6-0.6-0.9l1-0.4c0.7,0.8,1.4,1.8,1.7,2.6
		L70.9,13.9z M64.5,10.8C64,10.3,63,9.6,62.2,9.1l0.9-0.8C64,8.8,65,9.5,65.5,10L64.5,10.8z M74,13.9c-0.6-0.6-1.9-1.5-2.9-2.1
		l1-0.8c1,0.6,2.3,1.4,3,2L74,13.9z M74.5,9c-0.7,0.7-1.5,1.4-2.2,1.9l-1-0.7c0.6-0.5,1.5-1.3,2-1.9L74.5,9z"/>
	<path d="M78.1,14.3c1.2-0.4,1.8-1.1,1.9-2c-0.1,0-0.1,0-0.2,0c-0.7,0-1.3-0.4-1.3-1.2c0-0.8,0.6-1.2,1.3-1.2c0.9,0,1.4,0.7,1.4,1.9
		c0,1.7-1,3-2.8,3.5L78.1,14.3z"/>
	<path d="M84.1,10.1c0-2.2,1-3.5,2.6-3.5c1.5,0,2.6,1.3,2.6,3.5c0,2.2-1,3.5-2.6,3.5C85.1,13.6,84.1,12.3,84.1,10.1z M88,10.1
		c0-1.7-0.6-2.5-1.3-2.5c-0.8,0-1.3,0.8-1.3,2.5c0,1.7,0.6,2.5,1.3,2.5C87.4,12.6,88,11.8,88,10.1z M93,6.6h1.1l-6,11.4H87L93,6.6z
		 M91.9,14.6c0-2.2,1-3.5,2.6-3.5c1.5,0,2.6,1.3,2.6,3.5s-1,3.5-2.6,3.5C92.9,18.1,91.9,16.8,91.9,14.6z M95.8,14.6
		c0-1.7-0.6-2.5-1.3-2.5c-0.8,0-1.3,0.8-1.3,2.5c0,1.7,0.5,2.5,1.3,2.5C95.2,17.1,95.8,16.3,95.8,14.6z"/>
</g>
<rect x="101.5" y="423.9" class="st0" width="241.4" height="39.9"/>
<g>
	<g>
		<path class="st6" d="M176.2,443.6v1.2h-7.5c-0.1,0.5-0.1,1-0.2,1.4h7.4v1.2h-7.8c-0.8,2.5-2.8,4-7.5,4.8c-0.1-0.3-0.5-0.9-0.7-1.2
			c4.2-0.6,5.9-1.7,6.7-3.6h-6v-1.2h6.4c0.1-0.4,0.2-0.9,0.2-1.4h-7.1v-1.2h7.2v-1.5h-5.6v-1.2h5.6v-1.5h-6.6v-1.2h3.8
			c-0.3-0.6-0.8-1.5-1.4-2.1l1.2-0.5c0.7,0.7,1.3,1.6,1.6,2.3l-0.6,0.3h4.7c0.5-0.7,1.2-1.8,1.5-2.6l1.4,0.4c-0.4,0.7-1,1.5-1.4,2.1
			h3.8v1.2h-6.6v1.5h5.8v1.2h-5.8v1.5H176.2z M168.9,447.5c2.5,0.9,5.7,2.5,7.3,3.6l-0.6,1.2c-1.6-1.1-4.8-2.7-7.3-3.7L168.9,447.5z
			"/>
		<path class="st6" d="M193.7,436.6v15.7h-1.3v-0.8H180v0.8h-1.3v-15.7H193.7z M192.4,450.2v-12.4H180v12.4H192.4z M186.3,447.5
			c-1.9,0.4-3.8,0.7-5.3,1l-0.2-1c1.4-0.2,3.4-0.6,5.4-0.9L186.3,447.5z M190.7,442.2c-0.5,1.7-1.1,3.2-2,4.4c0.4,1,0.9,1.6,1.5,1.7
			c0.3,0.1,0.4-0.7,0.6-1.9c0.2,0.2,0.6,0.5,0.9,0.6c-0.2,2-0.8,2.7-1.8,2.3c-0.8-0.2-1.4-0.8-1.9-1.7c-0.7,0.8-1.5,1.5-2.4,2.1
			c-0.2-0.2-0.6-0.6-0.8-0.8c1.1-0.6,2-1.4,2.7-2.3c-0.5-1.4-0.8-3.3-1-5.3H181v-1h5.4c-0.1-0.6-0.1-1.3-0.1-1.9h1.2
			c0,0.6,0.1,1.3,0.1,1.9h3.9v1h-3.8c0.1,1.5,0.4,3,0.7,4.1c0.6-1,1-2.1,1.3-3.3L190.7,442.2z M185.6,442.3v3.5h-4v-3.5H185.6z
			 M184.6,443.1h-2.1v1.8h2.1V443.1z M190.4,439.9c-0.4-0.4-1.2-1-1.9-1.3l0.6-0.7c0.7,0.3,1.5,0.8,1.9,1.2L190.4,439.9z"/>
		<path class="st6" d="M201.3,447.1c-0.3-0.5-1-1.4-1.5-2.2v7.3h-1.2v-7.1c-0.7,0.9-1.4,1.6-2.1,2.3c-0.1-0.4-0.5-1-0.7-1.3
			c1.7-1.4,3.4-3.7,4.4-5.9h-4.1v-1.2h4.7l0.3-0.1l0.7,0.5c-0.5,1.4-1.2,2.7-2,4v0.1c0.2,0.1,0.4,0.4,0.6,0.7c0.5-0.6,1-1.2,1.3-1.7
			l0.9,0.8c-0.5,0.6-1.1,1.2-1.5,1.6c0.5,0.6,1,1.1,1.1,1.4L201.3,447.1z M199.1,438.8c-0.3-0.7-0.8-1.7-1.3-2.5l1-0.5
			c0.5,0.8,1.1,1.7,1.3,2.4L199.1,438.8z M211.4,446.5c-0.7,1.4-1.8,2.4-3.1,3.3c1.2,0.6,2.6,1,4.2,1.3c-0.3,0.3-0.6,0.8-0.8,1.1
			c-1.7-0.3-3.3-0.9-4.6-1.7c-1.6,0.8-3.4,1.4-5.2,1.7c-0.1-0.3-0.4-0.8-0.7-1.1c1.6-0.2,3.3-0.7,4.7-1.3c-0.7-0.5-1.3-1-1.8-1.6
			c-0.5,0.4-1.1,0.8-1.7,1.2c-0.2-0.2-0.7-0.7-1-0.9c0.6-0.3,1.3-0.7,1.8-1.2c-0.3-0.4-0.6-0.9-0.9-1.4l1.1-0.4
			c0.2,0.3,0.4,0.7,0.6,1c0.5-0.5,0.9-1,1.2-1.5h-2.1v-4.4c-0.2,0.3-0.4,0.5-0.6,0.7c-0.3-0.2-0.8-0.6-1.1-0.8
			c1.2-1.2,2.3-3,2.9-4.8l1.3,0.3c-0.2,0.5-0.4,1-0.6,1.5h7.1v1.2h-7.7c-0.2,0.4-0.5,0.8-0.7,1.2h7.4v5.1h-4.4
			c-0.2,0.4-0.4,0.8-0.7,1.1h4.2l0.2-0.1L211.4,446.5z M204.5,441.9h5.3v-1.2h-5.3V441.9z M204.5,444.1h5.3v-1.2h-5.3V444.1z
			 M205.2,447.1c-0.1,0.1-0.2,0.2-0.3,0.3c0.6,0.6,1.4,1.2,2.2,1.7c1-0.6,1.8-1.2,2.4-2H205.2z"/>
		<path class="st6" d="M223.7,436.3c-0.2,0.3-0.4,0.5-0.6,0.8c2.1,2.2,4.6,3.7,7.5,4.9c-0.3,0.3-0.7,0.8-0.9,1.2c-1-0.5-2-1-2.9-1.6
			v1.2h-9v-0.9c-0.9,0.5-1.8,1-2.8,1.5c-0.2-0.4-0.6-0.9-1-1.2c3.4-1.4,6.7-3.7,8.5-6.5L223.7,436.3z M216.8,445h11.1v7.1h-1.4v-0.9
			h-8.4v1h-1.4V445z M218.1,446.2v3.7h8.4v-3.7H218.1z M226.7,441.6c-1.6-1-3-2.1-4.4-3.5c-1.2,1.4-2.6,2.5-4.1,3.5H226.7z"/>
		<path class="st6" d="M237.2,436.1c-0.5,1.3-1.1,2.5-1.8,3.7v12.3h-1.3v-10.3c-0.6,0.8-1.2,1.6-1.9,2.2c-0.1-0.3-0.5-1-0.8-1.3
			c1.8-1.7,3.4-4.4,4.4-7.1L237.2,436.1z M241.7,449.8c-1.1,0.9-2.8,1.8-4.2,2.3c-0.2-0.3-0.7-0.7-1-0.9c1.5-0.4,3.1-1.1,4-1.9
			L241.7,449.8z M248.4,440.4v1h-11.7v-1h5.2v-1h-4v-0.9h4v-0.9h-4.4v-0.9h4.4v-1h1.3v1h4.6v0.9h-4.6v0.9h4.1v0.9h-4.1v1H248.4z
			 M247.2,449h-9.1v-6.8h9.1V449z M245.9,443.2h-6.5v1.1h6.5V443.2z M245.9,445.1h-6.5v1.1h6.5V445.1z M245.9,447h-6.5v1.1h6.5V447z
			 M244.9,449.3c1.3,0.7,2.7,1.6,3.5,2.3l-1.2,0.7c-0.8-0.7-2.3-1.7-3.5-2.4L244.9,449.3z"/>
		<path class="st6" d="M256.2,444.7l-2.3,0.7v5.2c0,0.8-0.2,1.1-0.6,1.4c-0.5,0.2-1.2,0.3-2.4,0.2c-0.1-0.3-0.2-0.9-0.4-1.2
			c0.8,0,1.6,0,1.8,0c0.3,0,0.3-0.1,0.3-0.3v-4.8c-0.9,0.3-1.7,0.5-2.4,0.7l-0.4-1.3c0.8-0.2,1.8-0.5,2.8-0.8v-3.8h-2.6v-1.3h2.6
			v-3.6h1.3v3.6h2v1.3h-2v3.4c0.7-0.2,1.4-0.4,2.1-0.6L256.2,444.7z M259.5,442.8c-1.8,0-2.3-0.6-2.3-2.1v-4.9h1.3v2.1h7.2v1.2h-7.2
			v1.6c0,0.7,0.2,0.9,1,0.9h4.7c0.6,0,1.6,0,2-0.1c0.1,0.4,0.1,0.9,0.2,1.2c-0.3,0.1-1.2,0.1-2.1,0.1H259.5z M257.2,444.3h8.4v7.8
			h-1.3v-0.8h-5.8v0.8h-1.3V444.3z M258.4,445.5v1.8h5.8v-1.8H258.4z M264.3,450.2v-1.9h-5.8v1.9H264.3z"/>
		<path class="st6" d="M273.4,445.5c-0.2-0.6-0.8-1.7-1.3-2.6v9.2h-1.2v-9.1c-0.6,2.1-1.4,4.1-2.3,5.3c-0.1-0.4-0.5-1-0.7-1.3
			c1.1-1.5,2.3-4.3,2.8-6.7h-2.3v-1.3h2.5v-3.5h1.2v3.5h2v1.3h-2v0.9c0.5,0.6,1.8,2.7,2.1,3.2L273.4,445.5z M277.1,448.4
			c-0.7,1.2-1.7,2.5-2.6,3.3c-0.2-0.2-0.7-0.5-1-0.7c1-0.7,1.9-1.8,2.5-2.9L277.1,448.4z M277.2,437.7H274v-1.1h10v1.1h-3.3v1.2h3
			v4.2h-9.3v-4.2h2.7V437.7z M279.6,447.4v4.7h-1.2v-4.7h-4.3v-1.1h10.1v1.1H279.6z M275.2,445.1V444h7.7v1.1H275.2z M275.6,442.1
			h1.6v-2.1h-1.6V442.1z M279.8,437.7h-1.6v1.2h1.6V437.7z M278.2,442.1h1.6v-2.1h-1.6V442.1z M280.8,439.9v2.1h1.8v-2.1H280.8z
			 M281.8,448c0.9,0.9,2,2.1,2.4,3l-1,0.6c-0.5-0.8-1.5-2.1-2.4-3L281.8,448z"/>
	</g>
</g>
<rect x="109.6" y="272.1" class="st1" width="47.3" height="109.3"/>
<rect x="167.3" y="189.8" class="st2" width="47.3" height="191.7"/>
<rect x="225" y="66" class="st3" width="47.3" height="315.5"/>
<rect x="282.6" y="381.4" class="st4" width="47.3" height="16.2"/>
<g>
	<path d="M116.7,263.6l0.6-0.8c0.6,0.6,1.3,1.1,2.5,1.1c1.2,0,2.2-0.9,2.2-2.3s-0.8-2.2-2.1-2.2c-0.7,0-1.1,0.2-1.7,0.6l-0.7-0.4
		l0.3-4.8h5v1.1H119l-0.3,3c0.5-0.3,0.9-0.4,1.5-0.4c1.7,0,3.1,1,3.1,3.1s-1.6,3.4-3.4,3.4C118.4,265,117.4,264.3,116.7,263.6z"/>
	<path d="M125.1,264c0-0.6,0.4-1,0.9-1s0.9,0.4,0.9,1c0,0.6-0.4,1-0.9,1S125.1,264.6,125.1,264z"/>
	<path d="M132.8,262h-4.5v-0.8l4.3-6.4h1.4v6.2h1.4v1H134v2.8h-1.2V262z M132.8,261v-2.9c0-0.5,0-1.4,0.1-1.9h-0.1
		c-0.3,0.5-0.5,0.9-0.8,1.4l-2.3,3.4H132.8z"/>
	<path d="M136.2,263.6l0.6-0.8c0.6,0.6,1.3,1.1,2.5,1.1c1.2,0,2.2-0.9,2.2-2.3s-0.8-2.2-2.1-2.2c-0.7,0-1.1,0.2-1.7,0.6l-0.7-0.4
		l0.3-4.8h5v1.1h-3.9l-0.3,3c0.5-0.3,0.9-0.4,1.5-0.4c1.7,0,3.1,1,3.1,3.1s-1.6,3.4-3.4,3.4C137.8,265,136.9,264.3,136.2,263.6z"/>
</g>
<g>
	<path d="M174.2,179.5l0.7-0.8c0.4,0.5,1,0.8,1.6,0.8c1.4,0,2.6-1.1,2.6-4.3c-0.6,0.8-1.5,1.3-2.3,1.3c-1.7,0-2.9-1.1-2.9-3.1
		c0-1.9,1.3-3.2,2.9-3.2c2,0,3.4,1.6,3.4,4.8c0,4-1.8,5.5-3.8,5.5C175.5,180.6,174.8,180.1,174.2,179.5z M177.1,175.5
		c0.6,0,1.5-0.4,2.1-1.4c-0.2-1.9-1-3-2.2-3c-1,0-1.7,0.9-1.7,2.2C175.2,174.7,175.8,175.5,177.1,175.5z"/>
	<path d="M182.2,179.6c0-0.6,0.4-1,0.9-1c0.5,0,0.9,0.4,0.9,1c0,0.6-0.4,1-0.9,1C182.6,180.6,182.2,180.2,182.2,179.6z"/>
	<path d="M185.7,179.6c3-3,4.7-4.8,4.7-6.4c0-1.1-0.6-1.9-1.9-1.9c-0.8,0-1.6,0.5-2.1,1.2l-0.7-0.7c0.8-0.9,1.7-1.5,3-1.5
		c1.8,0,3,1.2,3,2.9c0,1.9-1.7,3.7-4.1,6.2c0.5,0,1.1-0.1,1.7-0.1h2.9v1.1h-6.5V179.6z"/>
	<path d="M193.4,179.6c3-3,4.7-4.8,4.7-6.4c0-1.1-0.6-1.9-1.9-1.9c-0.8,0-1.6,0.5-2.1,1.2l-0.7-0.7c0.8-0.9,1.7-1.5,3-1.5
		c1.8,0,3,1.2,3,2.9c0,1.9-1.7,3.7-4.1,6.2c0.5,0,1.1-0.1,1.7-0.1h2.9v1.1h-6.5V179.6z"/>
</g>
<g>
	<path d="M230.5,58.7h2.3v-7.4H231v-0.8c0.9-0.2,1.6-0.4,2.1-0.7h1v8.9h2.1v1.1h-5.6V58.7z"/>
	<path d="M237.8,55.2c0-4,1.8-5.6,3.8-5.6c1.1,0,1.8,0.4,2.4,1.1l-0.7,0.8c-0.4-0.5-1-0.8-1.6-0.8c-1.4,0-2.6,1.1-2.6,4.3
		c0.6-0.8,1.5-1.2,2.3-1.2c1.7,0,2.8,1,2.8,3.1c0,1.9-1.3,3.2-2.9,3.2C239.3,60,237.8,58.4,237.8,55.2z M239.1,56
		c0.2,1.9,0.9,3,2.2,3c1,0,1.8-0.9,1.8-2.2c0-1.3-0.6-2.1-1.8-2.1C240.5,54.6,239.7,55,239.1,56z"/>
	<path d="M245.9,59c0-0.6,0.4-1,0.9-1c0.5,0,0.9,0.4,0.9,1c0,0.6-0.4,1-0.9,1C246.3,60,245.9,59.6,245.9,59z"/>
	<path d="M249.4,54.7c0-3.3,1.2-5.1,3.2-5.1c2,0,3.2,1.8,3.2,5.1c0,3.3-1.2,5.2-3.2,5.2C250.6,60,249.4,58.1,249.4,54.7z
		 M254.6,54.7c0-2.9-0.8-4.1-1.9-4.1c-1.2,0-2,1.2-2,4.1c0,2.9,0.8,4.2,2,4.2C253.8,58.9,254.6,57.7,254.6,54.7z"/>
	<path d="M257.7,58.7h2.3v-7.4h-1.8v-0.8c0.9-0.2,1.6-0.4,2.1-0.7h1v8.9h2.1v1.1h-5.6V58.7z"/>
</g>
<g>
	<path d="M290.3,410.1h3.6v1h-3.6V410.1z"/>
	<path d="M295.2,409.5c0-3.3,1.2-5.1,3.2-5.1s3.2,1.8,3.2,5.1c0,3.3-1.2,5.2-3.2,5.2S295.2,412.9,295.2,409.5z M300.4,409.5
		c0-2.9-0.8-4.1-1.9-4.1c-1.2,0-2,1.2-2,4.1c0,2.9,0.8,4.2,2,4.2C299.6,413.7,300.4,412.4,300.4,409.5z"/>
	<path d="M303.3,413.8c0-0.6,0.4-1,0.9-1c0.5,0,0.9,0.4,0.9,1c0,0.6-0.4,1-0.9,1C303.7,414.7,303.3,414.3,303.3,413.8z"/>
	<path d="M307,413.7l0.7-0.8c0.4,0.5,1,0.8,1.6,0.8c1.4,0,2.6-1.1,2.6-4.3c-0.6,0.8-1.5,1.3-2.3,1.3c-1.7,0-2.9-1.1-2.9-3.1
		c0-1.9,1.3-3.2,2.9-3.2c2,0,3.4,1.6,3.4,4.8c0,4-1.8,5.5-3.8,5.5C308.3,414.7,307.5,414.3,307,413.7z M309.9,409.7
		c0.6,0,1.5-0.4,2.1-1.4c-0.2-1.9-1-3-2.2-3c-1,0-1.7,0.9-1.7,2.2C308,408.9,308.6,409.7,309.9,409.7z"/>
	<path d="M314.6,413.8c3-3,4.7-4.8,4.7-6.4c0-1.1-0.6-1.9-1.9-1.9c-0.8,0-1.6,0.5-2.1,1.2l-0.7-0.7c0.8-0.9,1.7-1.5,3-1.5
		c1.8,0,3,1.2,3,2.9c0,1.9-1.7,3.7-4.1,6.2c0.5,0,1.1-0.1,1.7-0.1h2.9v1.1h-6.5V413.8z"/>
</g>
<rect x="424.9" y="423.9" class="st0" width="241.4" height="39.9"/>
<g>
	<g>
		<path class="st6" d="M480.1,443.6v1.2h-7.5c-0.1,0.5-0.1,1-0.2,1.4h7.4v1.2H472c-0.8,2.5-2.8,4-7.5,4.8c-0.1-0.3-0.5-0.9-0.7-1.2
			c4.2-0.6,5.9-1.7,6.7-3.6h-6v-1.2h6.4c0.1-0.4,0.2-0.9,0.2-1.4h-7.1v-1.2h7.2v-1.5h-5.6v-1.2h5.6v-1.5h-6.6v-1.2h3.8
			c-0.3-0.6-0.8-1.5-1.4-2.1l1.2-0.5c0.7,0.7,1.3,1.6,1.6,2.3l-0.6,0.3h4.7c0.5-0.7,1.2-1.8,1.5-2.6l1.4,0.4c-0.4,0.7-1,1.5-1.4,2.1
			h3.8v1.2h-6.6v1.5h5.8v1.2h-5.8v1.5H480.1z M472.7,447.5c2.5,0.9,5.7,2.5,7.3,3.6l-0.6,1.2c-1.6-1.1-4.8-2.7-7.3-3.7L472.7,447.5z
			"/>
		<path class="st6" d="M488,450.5c0,0.7-0.1,1.1-0.6,1.3c-0.4,0.2-1.1,0.2-2.3,0.2c-0.1-0.3-0.2-0.9-0.4-1.2c0.8,0,1.5,0,1.7,0
			c0.2,0,0.3-0.1,0.3-0.3v-4.9c-0.8,0.5-1.5,0.9-2.2,1.3l-0.5-1.1c-0.1,2.2-0.5,4.6-1.3,6.4c-0.2-0.2-0.8-0.5-1.1-0.6
			c1.2-2.5,1.3-6.1,1.3-8.7v-6.4h5V450.5z M484.2,442.8c0,0.8,0,1.8-0.1,2.8c0.7-0.3,1.7-0.7,2.6-1.2v-2.1l-0.7,0.6
			c-0.4-0.6-1.2-1.5-1.9-2.1V442.8z M484.2,437.6v2.8l0.6-0.5c0.7,0.6,1.5,1.4,2,2v-4.3H484.2z M497.6,443.9
			c-0.7,2.2-1.8,3.9-3.3,5.3c1.1,0.8,2.4,1.4,4,1.8c-0.3,0.3-0.7,0.8-0.9,1.2c-1.6-0.5-3-1.2-4.1-2.1c-1.3,0.9-2.7,1.6-4.3,2.1
			c-0.1-0.4-0.5-0.9-0.7-1.2c1.4-0.4,2.8-1,4-1.8c-1.2-1.2-2.1-2.6-2.7-4.2l0.3-0.1h-0.9v-1.3h7.6l0.2-0.1L497.6,443.9z
			 M491.9,438.4c0,1.6-0.5,3.5-2.7,4.8c-0.2-0.3-0.6-0.7-0.9-0.9c2-1.1,2.3-2.6,2.3-3.9v-2h5.5v4.2c0,0.5,0,0.6,0.3,0.6h1
			c0.2,0,0.6,0,0.8-0.1c0,0.3,0.1,0.8,0.1,1.1c-0.2,0.1-0.6,0.1-0.8,0.1h-1.1c-1.2,0-1.4-0.5-1.4-1.8v-2.9h-3V438.4z M490.9,444.9
			c0.6,1.3,1.4,2.5,2.4,3.5c1.1-1,2-2.1,2.6-3.5H490.9z"/>
		<path class="st6" d="M500.6,449l1-1.2c1.1,1,2.8,1.7,4.4,1.7c1.9,0,3.3-0.8,3.3-2.1c0-1.4-1.2-1.9-2.7-2.4l-2.1-0.8
			c-1.4-0.5-3.1-1.5-3.1-3.4c0-2.1,2-3.6,4.7-3.6c1.9,0,3.4,0.7,4.5,1.7l-0.9,1.1c-1-0.8-2.1-1.3-3.6-1.3c-1.7,0-3,0.7-3,1.9
			c0,1.3,1.5,1.8,2.7,2.2l2.1,0.8c1.7,0.6,3.2,1.6,3.2,3.6c0,2.1-1.9,3.7-5.1,3.7C503.7,451,501.9,450.2,500.6,449z"/>
		<path class="st6" d="M525.1,451c-0.7-0.4-1.4-0.9-2.4-1.7c-1,1.1-2.3,1.7-4,1.7c-2.6,0-4.3-1.4-4.3-3.6c0-1.8,1.4-2.9,2.8-3.8
			c-0.7-1-1.1-2.1-1.1-3.1c0-1.9,1.3-3.2,3.1-3.2c1.7,0,2.8,1.1,2.8,2.7c0,1.8-1.4,2.8-2.9,3.8c1,1.2,2.3,2.3,3.5,3.4
			c0.7-1,1.2-2.1,1.5-3.5h1.5c-0.4,1.7-1,3.1-1.9,4.4c0.9,0.7,1.8,1.3,2.3,1.6L525.1,451z M518.8,449.7c1,0,2-0.5,2.9-1.4
			c-1.3-1.2-2.7-2.4-3.7-3.7c-1.1,0.8-2.1,1.6-2.1,2.7C515.9,448.8,517.1,449.7,518.8,449.7z M518.4,442.9c1.3-0.8,2.3-1.6,2.3-2.8
			c0-0.8-0.6-1.6-1.5-1.6c-1.1,0-1.8,0.8-1.8,1.9C517.4,441.2,517.8,442.1,518.4,442.9z"/>
		<path class="st6" d="M530.2,437.6h4.2c3.4,0,5.6,1,5.6,3.9c0,2.8-2.2,4.1-5.5,4.1h-2.6v5.3h-1.7V437.6z M534.3,444.2
			c2.7,0,4.1-0.8,4.1-2.7c0-1.9-1.4-2.5-4.2-2.5h-2.3v5.3H534.3z"/>
		<path class="st6" d="M550.7,449.1l0.8-1.1c1,1,2.1,1.6,3.8,1.6c1.8,0,3.3-1.2,3.3-3.1c0-1.8-1.3-3-3.2-3c-1.2,0-2.1,0.3-3,0.9
			l-0.9-0.5l0.4-6.3h7.8v1.4h-6.4l-0.3,4c0.8-0.5,1.6-0.7,2.7-0.7c2.4,0,4.5,1.4,4.5,4.2c0,2.9-2.4,4.5-4.8,4.5
			C553.2,451,551.8,450.1,550.7,449.1z"/>
		<path class="st6" d="M564.5,444.1c0-4.5,2-6.8,4.9-6.8s4.9,2.3,4.9,6.8c0,4.5-2,6.9-4.9,6.9S564.5,448.7,564.5,444.1z
			 M572.7,444.1c0-3.9-1.4-5.4-3.3-5.4c-1.9,0-3.3,1.5-3.3,5.4c0,3.9,1.4,5.5,3.3,5.5C571.3,449.7,572.7,448,572.7,444.1z"/>
		<path class="st6" d="M578.2,444.1c0-4.5,2-6.8,4.9-6.8s4.9,2.3,4.9,6.8c0,4.5-2,6.9-4.9,6.9S578.2,448.7,578.2,444.1z
			 M586.3,444.1c0-3.9-1.4-5.4-3.3-5.4c-1.9,0-3.3,1.5-3.3,5.4c0,3.9,1.4,5.5,3.3,5.5C585,449.7,586.3,448,586.3,444.1z"/>
		<path class="st6" d="M596.9,444.7l-2.3,0.7v5.2c0,0.8-0.2,1.1-0.6,1.4c-0.5,0.2-1.2,0.3-2.4,0.2c-0.1-0.3-0.2-0.9-0.4-1.2
			c0.8,0,1.6,0,1.8,0c0.3,0,0.3-0.1,0.3-0.3v-4.8c-0.9,0.3-1.7,0.5-2.4,0.7l-0.4-1.3c0.8-0.2,1.8-0.5,2.8-0.8v-3.8h-2.6v-1.3h2.6
			v-3.6h1.3v3.6h2v1.3h-2v3.4c0.7-0.2,1.4-0.4,2.1-0.6L596.9,444.7z M600.2,442.8c-1.8,0-2.3-0.6-2.3-2.1v-4.9h1.3v2.1h7.2v1.2h-7.2
			v1.6c0,0.7,0.2,0.9,1,0.9h4.7c0.6,0,1.6,0,2-0.1c0.1,0.4,0.1,0.9,0.2,1.2c-0.3,0.1-1.2,0.1-2.1,0.1H600.2z M597.9,444.3h8.4v7.8
			H605v-0.8h-5.8v0.8h-1.3V444.3z M599.1,445.5v1.8h5.8v-1.8H599.1z M605,450.2v-1.9h-5.8v1.9H605z"/>
		<path class="st6" d="M623.8,440.5c-0.3,2.8-0.9,5-1.8,6.9c0.8,1.6,1.9,2.9,3.3,3.7c-0.3,0.2-0.7,0.7-0.9,1c-1.3-0.8-2.3-2-3.2-3.5
			c-1,1.5-2.3,2.7-4.1,3.6c-0.1-0.2-0.4-0.6-0.6-0.9l-0.4,0.4c-0.6-0.3-1.4-0.8-2.3-1.1c-1,0.6-2.5,1.1-4.6,1.6
			c-0.1-0.3-0.4-0.7-0.6-0.9c1.7-0.3,3-0.8,3.9-1.2c-0.8-0.3-1.7-0.6-2.6-0.8c0.3-0.4,0.7-1,1.1-1.6h-2.3v-1h2.9
			c0.2-0.4,0.4-0.8,0.6-1.2h-2.7v-2.9h3.4v-0.8h-3v-2h-1.2v-1h1.2v-1.9h3v-1.2h1.1v1.2h3.2v1.9h1v1h-1v2H614v0.8h3.5v1
			c1.2-2,2-4.9,2.5-7.8l1.2,0.2c-0.2,1.1-0.5,2.2-0.8,3.3h4.7v1.2H623.8z M610.7,444.6h2.2v-1.2h-2.2V444.6z M611,437.8v1h1.9v-1
			H611z M613,440.9v-1.2H611v1.2H613z M612.3,447.6c-0.2,0.4-0.4,0.7-0.7,1.1c0.6,0.2,1.3,0.4,2,0.7c0.8-0.6,1.2-1.2,1.4-1.8H612.3z
			 M616.9,450.9c1.7-0.9,2.9-2.1,3.7-3.6c-0.6-1.4-1-3-1.3-4.8c-0.3,0.8-0.6,1.4-1,2c-0.2-0.2-0.5-0.5-0.8-0.7v1.7h-4.1
			c-0.2,0.4-0.4,0.8-0.6,1.2h2.3v-0.1v-0.6h1.1v0.6v0.1h1.8v1h-1.9c-0.1,0.7-0.5,1.5-1.4,2.2C615.6,450.2,616.4,450.6,616.9,450.9
			L616.9,450.9z M614,437.8v1h2.1v-1H614z M616.1,440.9v-1.2H614v1.2H616.1z M614,443.5v1.2h2.3v-1.2H614z M620.1,440.5l-0.1,0.2
			c0.3,1.9,0.7,3.7,1.3,5.3c0.6-1.5,1-3.3,1.2-5.5H620.1z"/>
	</g>
</g>
<rect x="432.9" y="247.6" class="st1" width="47.3" height="133.9"/>
<rect x="490.6" y="145.2" class="st2" width="47.3" height="236.2"/>
<rect x="548.3" y="292.8" class="st3" width="47.3" height="88.7"/>
<rect x="606" y="381.4" class="st4" width="47.3" height="16.2"/>
<g>
	<path d="M440.5,235.8c0-4,1.8-5.6,3.8-5.6c1.1,0,1.8,0.4,2.4,1.1l-0.7,0.8c-0.4-0.5-1-0.8-1.6-0.8c-1.4,0-2.6,1.1-2.6,4.3
		c0.6-0.8,1.5-1.2,2.3-1.2c1.7,0,2.8,1,2.8,3.1c0,1.9-1.3,3.2-2.9,3.2C441.9,240.6,440.5,239,440.5,235.8z M441.7,236.6
		c0.2,1.9,0.9,3,2.2,3c1,0,1.8-0.9,1.8-2.2c0-1.3-0.6-2.1-1.8-2.1C443.2,235.2,442.4,235.6,441.7,236.6z"/>
	<path d="M448.5,239.6c0-0.6,0.4-1,0.9-1c0.5,0,0.9,0.4,0.9,1c0,0.6-0.4,1-0.9,1C448.9,240.6,448.5,240.2,448.5,239.6z"/>
	<path d="M452,237.8c0-1.3,1-2.2,1.9-2.7v-0.1c-0.7-0.5-1.4-1.2-1.4-2.3c0-1.5,1.2-2.5,2.8-2.5c1.8,0,2.8,1.1,2.8,2.6
		c0,1.1-0.8,1.9-1.4,2.4v0.1c0.9,0.5,1.7,1.2,1.7,2.6c0,1.5-1.3,2.7-3.2,2.7C453.4,240.6,452,239.4,452,237.8z M457.3,237.9
		c0-1.3-1.3-1.8-2.7-2.3c-0.8,0.5-1.4,1.3-1.4,2.2c0,1.1,0.9,1.9,2.1,1.9C456.5,239.6,457.3,238.9,457.3,237.9z M457.1,232.9
		c0-1-0.6-1.8-1.7-1.8c-1,0-1.6,0.6-1.6,1.6c0,1.2,1.1,1.7,2.3,2.2C456.7,234.3,457.1,233.7,457.1,232.9z"/>
	<path d="M460,239.5l0.7-0.8c0.4,0.5,1,0.8,1.6,0.8c1.4,0,2.6-1.1,2.6-4.3c-0.6,0.8-1.5,1.3-2.3,1.3c-1.7,0-2.9-1.1-2.9-3.1
		c0-1.9,1.3-3.2,2.9-3.2c2,0,3.4,1.6,3.4,4.8c0,4-1.8,5.5-3.8,5.5C461.3,240.6,460.5,240.1,460,239.5z M462.8,235.5
		c0.6,0,1.5-0.4,2.1-1.4c-0.2-1.9-1-3-2.2-3c-1,0-1.7,0.9-1.7,2.2C461,234.7,461.6,235.5,462.8,235.5z"/>
</g>
<g>
	<path d="M498,139.9h2.3v-7.4h-1.8v-0.8c0.9-0.2,1.6-0.4,2.1-0.7h1v8.9h2.1v1.1H498V139.9z"/>
	<path d="M505.8,139.9h2.3v-7.4h-1.8v-0.8c0.9-0.2,1.6-0.4,2.1-0.7h1v8.9h2.1v1.1h-5.6V139.9z"/>
	<path d="M513.3,140.2c0-0.6,0.4-1,0.9-1c0.5,0,0.9,0.4,0.9,1c0,0.6-0.4,1-0.9,1C513.7,141.2,513.3,140.8,513.3,140.2z"/>
	<path d="M516.8,140.2c3-3,4.7-4.8,4.7-6.4c0-1.1-0.6-1.9-1.9-1.9c-0.8,0-1.6,0.5-2.1,1.2l-0.7-0.7c0.8-0.9,1.7-1.5,3-1.5
		c1.8,0,3,1.2,3,2.9c0,1.9-1.7,3.7-4.1,6.2c0.5,0,1.1-0.1,1.7-0.1h2.9v1.1h-6.5V140.2z"/>
	<path d="M524.4,139.8l0.6-0.8c0.6,0.6,1.3,1.1,2.5,1.1c1.2,0,2.2-0.9,2.2-2.3s-0.8-2.2-2.1-2.2c-0.7,0-1.1,0.2-1.7,0.6l-0.7-0.4
		l0.3-4.8h5v1.1h-3.9l-0.3,3c0.5-0.3,0.9-0.4,1.5-0.4c1.7,0,3.1,1,3.1,3.1s-1.6,3.4-3.4,3.4C526,141.2,525,140.5,524.4,139.8z"/>
</g>
<g>
	<path d="M563.2,286h-4.5v-0.8l4.3-6.4h1.4v6.2h1.4v1h-1.4v2.8h-1.2V286z M563.2,285v-2.9c0-0.5,0-1.4,0.1-1.9h-0.1
		c-0.3,0.5-0.5,0.9-0.8,1.4l-2.3,3.4H563.2z"/>
	<path d="M567.2,288c0-0.6,0.4-1,0.9-1c0.5,0,0.9,0.4,0.9,1c0,0.6-0.4,1-0.9,1C567.7,289,567.2,288.6,567.2,288z"/>
	<path d="M570.7,288c3-3,4.7-4.8,4.7-6.4c0-1.1-0.6-1.9-1.9-1.9c-0.8,0-1.6,0.5-2.1,1.2l-0.7-0.7c0.8-0.9,1.7-1.5,3-1.5
		c1.8,0,3,1.2,3,2.9c0,1.9-1.7,3.7-4.1,6.2c0.5,0,1.1-0.1,1.7-0.1h2.9v1.1h-6.5V288z"/>
	<path d="M578.5,288c3-3,4.7-4.8,4.7-6.4c0-1.1-0.6-1.9-1.9-1.9c-0.8,0-1.6,0.5-2.1,1.2l-0.7-0.7c0.8-0.9,1.7-1.5,3-1.5
		c1.8,0,3,1.2,3,2.9c0,1.9-1.7,3.7-4.1,6.2c0.5,0,1.1-0.1,1.7-0.1h2.9v1.1h-6.5V288z"/>
</g>
<g>
	<path d="M618.7,410.1h3.6v1h-3.6V410.1z"/>
	<path d="M623.6,409.5c0-3.3,1.2-5.1,3.2-5.1s3.2,1.8,3.2,5.1c0,3.3-1.2,5.2-3.2,5.2S623.6,412.9,623.6,409.5z M628.7,409.5
		c0-2.9-0.8-4.1-1.9-4.1c-1.2,0-2,1.2-2,4.1c0,2.9,0.8,4.2,2,4.2C627.9,413.7,628.7,412.4,628.7,409.5z"/>
	<path d="M631.7,413.8c0-0.6,0.4-1,0.9-1c0.5,0,0.9,0.4,0.9,1c0,0.6-0.4,1-0.9,1C632.1,414.7,631.7,414.3,631.7,413.8z"/>
	<path d="M635.2,412c0-1.3,1-2.2,1.9-2.7v-0.1c-0.7-0.5-1.4-1.2-1.4-2.3c0-1.5,1.2-2.5,2.8-2.5c1.8,0,2.8,1.1,2.8,2.6
		c0,1.1-0.8,1.9-1.4,2.4v0.1c0.9,0.5,1.7,1.2,1.7,2.6c0,1.5-1.3,2.7-3.2,2.7C636.6,414.7,635.2,413.6,635.2,412z M640.5,412
		c0-1.3-1.3-1.8-2.7-2.3c-0.8,0.5-1.4,1.3-1.4,2.2c0,1.1,0.9,1.9,2.1,1.9C639.7,413.8,640.5,413.1,640.5,412z M640.2,407.1
		c0-1-0.6-1.8-1.7-1.8c-1,0-1.6,0.6-1.6,1.6c0,1.2,1.1,1.7,2.3,2.2C639.8,408.5,640.2,407.8,640.2,407.1z"/>
	<path d="M647.1,411.8h-4.5v-0.8l4.3-6.4h1.4v6.2h1.4v1h-1.4v2.8h-1.2V411.8z M647.1,410.8v-2.9c0-0.5,0-1.4,0.1-1.9h-0.1
		c-0.3,0.5-0.5,0.9-0.8,1.4l-2.3,3.4H647.1z"/>
</g>
<rect x="749" y="423.9" class="st0" width="241.4" height="39.9"/>
<g>
	<g>
		<path class="st6" d="M841.8,445.9h-7.4v6.3H833v-6.3h-7.3v-1.3h7.3v-6.3h-6.3V437h14.1v1.3h-6.4v6.3h7.4V445.9z M829.1,439.2
			c0.7,1.3,1.5,3,1.7,4.1l-1.3,0.4c-0.3-1.1-0.9-2.8-1.6-4.1L829.1,439.2z M836.3,443.3c0.7-1.1,1.5-3,1.9-4.2l1.4,0.4
			c-0.6,1.4-1.5,3.2-2.2,4.2L836.3,443.3z"/>
		<path class="st6" d="M848.5,441.3c-0.1,0.1-0.2,0.2-0.3,0.3c-0.2-0.3-0.6-0.6-0.9-0.7c-0.2,0.4-0.5,0.9-0.7,1.3v10.1h-1.2v-8.2
			c-0.4,0.6-0.9,1.2-1.3,1.6c-0.1-0.3-0.5-0.9-0.8-1.2c1.3-1.3,2.6-3.2,3.4-5.1l1.2,0.4c-0.1,0.3-0.3,0.6-0.4,0.9
			c1.3-1.4,2.1-3.3,2.5-4.8l1.2,0.2c-0.1,0.4-0.3,0.8-0.4,1.3h2.2l0.2-0.1l0.8,0.5c-0.3,0.7-0.6,1.5-1,2.2h1.9v6h-6.4V441.3z
			 M847.6,436.2c-0.8,1.4-2.1,3.1-3.3,4.2c-0.2-0.3-0.5-0.8-0.7-1c1.1-1,2.2-2.5,2.8-3.7L847.6,436.2z M852.3,446.2
			c0,0.3-0.1,0.6-0.1,1h3.2v1.1h-3c1,0.8,2.1,1.7,2.7,2.4l-0.8,0.8c-0.6-0.7-1.6-1.6-2.6-2.4c-0.6,1.3-1.6,2.3-3.3,2.9
			c-0.1-0.3-0.5-0.7-0.7-0.9c1.7-0.6,2.6-1.5,3.1-2.8h-2.8v-1.1h3.1c0.1-0.3,0.1-0.6,0.1-1H852.3z M850.3,438.3
			c-0.3,0.5-0.6,1.1-0.9,1.6h2.3c0.3-0.5,0.5-1.1,0.7-1.6H850.3z M851.2,442.5v-1.5h-1.7v1.5H851.2z M849.5,443.4v1.6h1.7v-1.6
			H849.5z M853.8,440.9h-1.6v1.5h1.6V440.9z M853.8,443.4h-1.6v1.6h1.6V443.4z M859.9,442.6h-1.5v8c0,0.7-0.1,1-0.6,1.2
			c-0.4,0.2-1.1,0.2-2.1,0.2c-0.1-0.3-0.2-0.9-0.4-1.2c0.7,0,1.3,0,1.5,0c0.2,0,0.3-0.1,0.3-0.3v-8h-1.8v-1.2h4.5V442.6z
			 M859.6,438.2h-3.7V437h3.7V438.2z"/>
		<path class="st6" d="M877.8,450.3v1.3h-16.2v-1.3h7.5V448h-5.7v-1.2h5.7v-2h1.4v2h5.4v1.2h-5.4v2.3H877.8z M865.4,441.3
			c-0.2,1.5-0.9,3.2-2.7,4.3c-0.2-0.3-0.6-0.7-0.9-0.9c1.6-1,2.1-2.2,2.3-3.4H862v-1.2h2.3V440v-2.3h-1.7v-1.2h8.1v1.2H869v2.5h2
			v1.2h-2v3.9h-1.3v-3.9H865.4z M865.5,440.1h2.2v-2.5h-2.2v2.4V440.1z M873.4,442.8h-1.2v-6h1.2V442.8z M876.8,443.9
			c0,0.7-0.1,1.1-0.7,1.3c-0.5,0.2-1.4,0.2-2.7,0.2c-0.1-0.4-0.3-0.9-0.5-1.2c1,0,1.9,0,2.2,0c0.3,0,0.3-0.1,0.3-0.3v-8h1.3V443.9z"
			/>
		<path class="st6" d="M885.5,446.6c-0.1-0.3-0.1-0.7-0.2-1.1c-4.3,0.6-4.8,0.8-5.2,1c-0.1-0.3-0.3-0.9-0.4-1.3
			c0.4-0.1,0.8-0.5,1.4-1.2c0.3-0.3,0.9-1.1,1.6-2.1c-2,0.3-2.4,0.3-2.7,0.5c-0.1-0.3-0.3-0.9-0.4-1.2c0.3-0.1,0.6-0.4,1-1
			c0.4-0.5,1.7-2.6,2.5-4.6l1.2,0.5c-0.8,1.7-1.9,3.4-2.9,4.8l2.1-0.2c0.5-0.8,1-1.6,1.4-2.4l1.2,0.7c-1.3,2.1-2.7,4.1-4.3,5.7
			l3.2-0.4c-0.2-0.6-0.4-1.2-0.6-1.7l1-0.3c0.5,1.2,1,2.8,1.2,3.7L885.5,446.6z M881.5,447.4c-0.2,1.5-0.5,3.2-0.9,4.4
			c-0.3-0.1-0.8-0.3-1.1-0.4c0.4-1.1,0.7-2.7,0.9-4.1L881.5,447.4z M883.6,447.2c0.2,1.2,0.5,2.8,0.5,3.9l-1.1,0.2
			c0-1-0.2-2.7-0.5-3.9L883.6,447.2z M885.5,446.7c0.4,1,0.8,2.2,1,3.1l-1.1,0.4c-0.1-0.8-0.5-2.1-0.9-3.1L885.5,446.7z
			 M895.9,450.6v1.2h-10v-1.2h1.6v-13.9h7.2v13.9H895.9z M888.8,437.9v3.3h4.6v-3.3H888.8z M893.4,442.4h-4.6v3.4h4.6V442.4z
			 M888.8,450.6h4.6v-3.5h-4.6V450.6z"/>
		<path class="st6" d="M907.2,436.3c-0.2,0.3-0.4,0.5-0.6,0.8c2.1,2.2,4.6,3.7,7.5,4.9c-0.3,0.3-0.7,0.8-0.9,1.2c-1-0.5-2-1-2.9-1.6
			v1.2h-9v-0.9c-0.9,0.5-1.8,1-2.8,1.5c-0.2-0.4-0.6-0.9-1-1.2c3.4-1.4,6.7-3.7,8.5-6.5L907.2,436.3z M900.3,445h11.1v7.1H910v-0.9
			h-8.4v1h-1.4V445z M901.6,446.2v3.7h8.4v-3.7H901.6z M910.2,441.6c-1.6-1-3-2.1-4.4-3.5c-1.2,1.4-2.6,2.5-4.1,3.5H910.2z"/>
	</g>
</g>
<rect x="756.2" y="258.6" class="st1" width="47.3" height="122.8"/>
<rect x="813.9" y="180.6" class="st2" width="47.3" height="200.9"/>
<rect x="871.6" y="205.6" class="st3" width="47.3" height="175.8"/>
<rect x="929.3" y="381.4" class="st4" width="47.3" height="16.2"/>
<g>
	<path d="M764.1,250.6c0-4,1.8-5.6,3.8-5.6c1.1,0,1.8,0.4,2.4,1.1l-0.7,0.8c-0.4-0.5-1-0.8-1.6-0.8c-1.4,0-2.6,1.1-2.6,4.3
		c0.6-0.8,1.5-1.2,2.3-1.2c1.7,0,2.8,1,2.8,3.1c0,1.9-1.3,3.2-2.9,3.2C765.5,255.4,764.1,253.8,764.1,250.6z M765.3,251.4
		c0.2,1.9,0.9,3,2.2,3c1,0,1.8-0.9,1.8-2.2c0-1.3-0.6-2.1-1.8-2.1C766.8,250.1,766,250.4,765.3,251.4z"/>
	<path d="M772.1,254.4c0-0.6,0.4-1,0.9-1c0.5,0,0.9,0.4,0.9,1c0,0.6-0.4,1-0.9,1C772.5,255.4,772.1,255,772.1,254.4z"/>
	<path d="M775.7,250.2c0-3.3,1.2-5.1,3.2-5.1c2,0,3.2,1.8,3.2,5.1c0,3.3-1.2,5.2-3.2,5.2C776.9,255.4,775.7,253.5,775.7,250.2z
		 M780.8,250.2c0-2.9-0.8-4.1-1.9-4.1c-1.2,0-2,1.2-2,4.1c0,2.9,0.8,4.2,2,4.2C780,254.4,780.8,253.1,780.8,250.2z"/>
	<path d="M783.1,254l0.6-0.8c0.6,0.6,1.3,1.1,2.5,1.1c1.2,0,2.2-0.9,2.2-2.3s-0.8-2.2-2.1-2.2c-0.7,0-1.1,0.2-1.7,0.6l-0.7-0.4
		l0.3-4.8h5v1.1h-3.9l-0.3,3c0.5-0.3,0.9-0.4,1.5-0.4c1.7,0,3.1,1,3.1,3.1s-1.6,3.4-3.4,3.4C784.8,255.4,783.8,254.7,783.1,254z"/>
</g>
<g>
	<path d="M820.9,173.5l0.7-0.8c0.4,0.5,1,0.8,1.6,0.8c1.4,0,2.6-1.1,2.6-4.3c-0.6,0.8-1.5,1.3-2.3,1.3c-1.7,0-2.9-1.1-2.9-3.1
		c0-1.9,1.3-3.2,2.9-3.2c2,0,3.4,1.6,3.4,4.8c0,4-1.8,5.5-3.8,5.5C822.2,174.6,821.4,174.1,820.9,173.5z M823.7,169.5
		c0.6,0,1.5-0.4,2.1-1.4c-0.2-1.9-1-3-2.2-3c-1,0-1.7,0.9-1.7,2.2C821.9,168.7,822.5,169.5,823.7,169.5z"/>
	<path d="M828.8,173.6c0-0.6,0.4-1,0.9-1c0.5,0,0.9,0.4,0.9,1c0,0.6-0.4,1-0.9,1C829.3,174.6,828.8,174.2,828.8,173.6z"/>
	<path d="M832.1,173.2l0.6-0.8c0.6,0.6,1.3,1.1,2.5,1.1c1.2,0,2.2-0.9,2.2-2.3s-0.8-2.2-2.1-2.2c-0.7,0-1.1,0.2-1.7,0.6l-0.7-0.4
		l0.3-4.8h5v1.1h-3.9l-0.3,3c0.5-0.3,0.9-0.4,1.5-0.4c1.7,0,3.1,1,3.1,3.1s-1.6,3.4-3.4,3.4C833.8,174.6,832.8,173.9,832.1,173.2z"
		/>
	<path d="M839.9,173.2l0.6-0.8c0.6,0.6,1.4,1.2,2.5,1.2c1.2,0,2.1-0.7,2.1-1.8c0-1.2-0.8-2-3.2-2v-1c2.1,0,2.8-0.8,2.8-1.9
		c0-1-0.7-1.6-1.7-1.6c-0.8,0-1.6,0.4-2.1,1l-0.7-0.8c0.8-0.7,1.7-1.2,2.9-1.2c1.7,0,3,0.9,3,2.5c0,1.2-0.7,2-1.8,2.4v0.1
		c1.2,0.3,2.2,1.2,2.2,2.5c0,1.8-1.5,2.8-3.3,2.8C841.6,174.6,840.5,173.9,839.9,173.2z"/>
</g>
<g>
	<path d="M882.5,195.8c0-1.3,1-2.2,1.9-2.7V193c-0.7-0.5-1.4-1.2-1.4-2.3c0-1.5,1.2-2.5,2.8-2.5c1.8,0,2.8,1.1,2.8,2.6
		c0,1.1-0.8,1.9-1.4,2.4v0.1c0.9,0.5,1.7,1.2,1.7,2.6c0,1.5-1.3,2.7-3.2,2.7C883.9,198.5,882.5,197.4,882.5,195.8z M887.8,195.8
		c0-1.3-1.3-1.8-2.7-2.3c-0.8,0.5-1.4,1.3-1.4,2.2c0,1.1,0.9,1.9,2.1,1.9C887,197.5,887.8,196.8,887.8,195.8z M887.5,190.9
		c0-1-0.6-1.8-1.7-1.8c-1,0-1.6,0.6-1.6,1.6c0,1.2,1.1,1.7,2.3,2.2C887.1,192.3,887.5,191.6,887.5,190.9z"/>
	<path d="M890.6,197.5c0-0.6,0.4-1,0.9-1c0.5,0,0.9,0.4,0.9,1c0,0.6-0.4,1-0.9,1C891.1,198.5,890.6,198.1,890.6,197.5z"/>
	<path d="M894.1,197.6c3-3,4.7-4.8,4.7-6.4c0-1.1-0.6-1.9-1.9-1.9c-0.8,0-1.6,0.5-2.1,1.2l-0.7-0.7c0.8-0.9,1.7-1.5,3-1.5
		c1.8,0,3,1.2,3,2.9c0,1.9-1.7,3.7-4.1,6.2c0.5,0,1.1-0.1,1.7-0.1h2.9v1.1h-6.5V197.6z"/>
	<path d="M901.9,195.8c0-1.3,1-2.2,1.9-2.7V193c-0.7-0.5-1.4-1.2-1.4-2.3c0-1.5,1.2-2.5,2.8-2.5c1.8,0,2.8,1.1,2.8,2.6
		c0,1.1-0.8,1.9-1.4,2.4v0.1c0.9,0.5,1.7,1.2,1.7,2.6c0,1.5-1.3,2.7-3.2,2.7C903.3,198.5,901.9,197.4,901.9,195.8z M907.2,195.8
		c0-1.3-1.3-1.8-2.7-2.3c-0.8,0.5-1.4,1.3-1.4,2.2c0,1.1,0.9,1.9,2.1,1.9C906.4,197.5,907.2,196.8,907.2,195.8z M906.9,190.9
		c0-1-0.6-1.8-1.7-1.8c-1,0-1.6,0.6-1.6,1.6c0,1.2,1.1,1.7,2.3,2.2C906.6,192.3,906.9,191.6,906.9,190.9z"/>
</g>
<g>
	<path d="M941.9,410.1h3.6v1h-3.6V410.1z"/>
	<path d="M946.8,409.5c0-3.3,1.2-5.1,3.2-5.1s3.2,1.8,3.2,5.1c0,3.3-1.2,5.2-3.2,5.2S946.8,412.9,946.8,409.5z M952,409.5
		c0-2.9-0.8-4.1-1.9-4.1c-1.2,0-2,1.2-2,4.1c0,2.9,0.8,4.2,2,4.2C951.2,413.7,952,412.4,952,409.5z"/>
	<path d="M955,413.8c0-0.6,0.4-1,0.9-1c0.5,0,0.9,0.4,0.9,1c0,0.6-0.4,1-0.9,1C955.4,414.7,955,414.3,955,413.8z"/>
	<path d="M958.5,412c0-1.3,1-2.2,1.9-2.7v-0.1c-0.7-0.5-1.4-1.2-1.4-2.3c0-1.5,1.2-2.5,2.8-2.5c1.8,0,2.8,1.1,2.8,2.6
		c0,1.1-0.8,1.9-1.4,2.4v0.1c0.9,0.5,1.7,1.2,1.7,2.6c0,1.5-1.3,2.7-3.2,2.7C959.8,414.7,958.5,413.6,958.5,412z M963.7,412
		c0-1.3-1.3-1.8-2.7-2.3c-0.8,0.5-1.4,1.3-1.4,2.2c0,1.1,0.9,1.9,2.1,1.9C962.9,413.8,963.7,413.1,963.7,412z M963.5,407.1
		c0-1-0.6-1.8-1.7-1.8c-1,0-1.6,0.6-1.6,1.6c0,1.2,1.1,1.7,2.3,2.2C963.1,408.5,963.5,407.8,963.5,407.1z"/>
	<path d="M971.3,405.6h-5v-1.1h6.4v0.8c-2.4,3-2.9,5.3-3,9.2h-1.3C968.5,410.8,969.3,408.4,971.3,405.6z"/>
</g>
<line class="st5" x1="33.8" y1="382.5" x2="1045.1" y2="382.5"/>
<g>
	<g>
		<path d="M345.7,76c-0.2,1.2-0.5,2.3-0.9,3.2c1,1.7,2.9,1.9,5.7,1.9c1.6,0,3.8-0.1,5.3-0.2c-0.2,0.2-0.3,0.7-0.4,1
			c-1.4,0.1-3.3,0.1-4.9,0.1c-3,0-4.9-0.3-6.1-2c-0.5,1-1.2,1.7-1.9,2.3c-0.1-0.2-0.5-0.6-0.7-0.8c1.4-0.9,2.3-2.6,2.8-4.9h-1.5
			c-0.4,0-0.8,0.1-0.9,0.2c-0.1-0.3-0.3-0.8-0.4-1c0.2-0.1,0.5-0.1,0.7-0.4c0.3-0.4,1.2-1.5,1.8-2.5H342v-0.9h3l0.2-0.1l0.7,0.3
			c-0.6,0.9-1.7,2.4-2.5,3.4h1.6l0.2,0L345.7,76z M344.3,71.6c-0.4-0.6-1.1-1.7-1.8-2.4l0.9-0.5c0.6,0.7,1.4,1.7,1.8,2.3L344.3,71.6
			z M347.5,80.3h-1v-6.5h1.1v-4.6h6.1v4.6h1.2v5.4c0,0.5-0.1,0.8-0.5,0.9c-0.3,0.2-0.9,0.2-1.8,0.2c0-0.3-0.2-0.6-0.3-0.9
			c0.6,0,1.2,0,1.3,0c0.2,0,0.2-0.1,0.2-0.2v-4.5h-6.5V80.3z M348.6,73.8h1.5v-2.5h2.7v-1.2h-4.1V73.8z M352.6,78.8h-3v0.6h-0.9
			v-3.8h3.9V78.8z M351.8,76.4h-2.2V78h2.2V76.4z M352.7,73.8V72h-1.8v1.7H352.7z"/>
		<path d="M363.2,76c-1,1.6-2.1,3.2-3.3,4.4l7.4-0.5c-0.6-0.9-1.3-1.8-2-2.6l1-0.5c1.3,1.5,2.8,3.5,3.5,4.8l-1.1,0.6
			c-0.2-0.4-0.4-0.8-0.7-1.3c-8.1,0.6-8.9,0.7-9.5,0.9c-0.1-0.2-0.2-0.8-0.4-1.1c0.3-0.1,0.7-0.4,1.1-1c0.4-0.4,1.7-2,2.6-3.7h-4.7
			v-1.1h6.1v-2.8h-4.9V71h4.9v-2.4h1.2V71h5v1.1h-5v2.8h6.1V76H363.2z"/>
		<path d="M375.1,75.5h-3v-0.7h3v-0.7h-2.4v-3.2h2.4v-0.6h-2.9v-0.7h2.9v-0.9h1v0.9h2.8v0.7h-2.8v0.6h2.5v3.2h-2.5v0.7h2.7v0.7h-2.7
			v0.9h-1V75.5z M373.5,72.2h1.6v-0.7h-1.6V72.2z M375.1,73.5v-0.7h-1.6v0.7H375.1z M374.2,76.8h9.2v5.5l-1.1,0v-0.5h-7v0.5h-1.1
			V76.8z M375.3,77.7v1.2h7v-1.2H375.3z M382.3,80.9v-1.2h-7v1.2H382.3z M376.1,71.5v0.7h1.6v-0.7H376.1z M377.7,72.8h-1.6v0.7h1.6
			V72.8z M385.5,72.9h-1.8v3.6h-1v-3.6h-2c-0.1,1.2-0.4,2.6-1.2,3.6c-0.2-0.2-0.6-0.5-0.9-0.6c0.9-1.2,1.1-2.8,1.1-4.1v-2.2
			c1.6-0.1,3.6-0.4,4.7-0.8l0.6,0.8c-1.1,0.3-2.8,0.6-4.3,0.7v1.6V72h4.8L385.5,72.9z"/>
		<path d="M391.3,69c-0.4,1.2-1,2.3-1.5,3.4v9.9h-1v-8.2c-0.4,0.6-0.8,1.1-1.3,1.6c-0.1-0.3-0.4-0.8-0.6-1.1c1.4-1.5,2.7-3.7,3.4-6
			L391.3,69z M391,75.5h9.5V78h-1v-1.5h-7.6V78h-1V75.5z M400.5,70v0.9h-9.3V70h4.1c-0.2-0.4-0.4-0.8-0.6-1.1l1-0.3
			c0.3,0.4,0.6,1,0.8,1.4H400.5z M399.3,71.7v2.9h-7v-2.9H399.3z M392.3,77.6h6.9v0.9h-2.8v2.6c0,0.6-0.1,0.9-0.6,1
			c-0.5,0.1-1.2,0.1-2.4,0.1c0-0.3-0.2-0.7-0.4-1c0.9,0,1.7,0,2,0c0.2,0,0.3-0.1,0.3-0.2v-2.6h-2.9V77.6z M398.2,72.6h-4.9v1.2h4.9
			V72.6z"/>
		<path d="M415.5,75.7h-3.2v6.6h-1.1v-6.6h-4.6c-0.1,2.5-0.8,4.9-3.8,6.6c-0.2-0.3-0.6-0.7-0.8-0.8c2.8-1.6,3.4-3.7,3.5-5.8h-3.4
			v-1.1h3.4v-3.3c-1,0.3-1.9,0.5-2.8,0.7c-0.1-0.3-0.2-0.7-0.4-0.9c2.4-0.6,5-1.4,6.5-2.3l0.8,0.9c-0.8,0.4-1.9,0.8-3,1.2v3.7h4.6
			v-5.7h1.1v5.7h3.2V75.7z"/>
		<path d="M417,81.2c0.6-0.8,1.2-2.1,1.5-3l1,0.4c-0.4,0.9-0.9,2.2-1.5,3.1L417,81.2z M423.4,77.1h-4.2V70h3.5
			c0.2-0.5,0.5-1.1,0.6-1.5l1.3,0.2c-0.2,0.5-0.5,0.9-0.7,1.3h4.5v7.1H423.4c0.9,0.7,1.7,1.6,2.1,2.2l-0.9,0.6
			c-0.4-0.7-1.2-1.6-2-2.4L423.4,77.1z M425.8,81c0.8,0,0.9-0.2,1-1.7c0.3,0.2,0.7,0.4,1,0.4c-0.2,1.9-0.5,2.4-2,2.4h-3.4
			c-1.7,0-2.2-0.3-2.2-1.5v-2.4h1.1v2.4c0,0.4,0.2,0.5,1.1,0.5H425.8z M420.3,72.1h6.9v-1.2h-6.9V72.1z M420.3,74.2h6.9V73h-6.9
			V74.2z M420.3,76.2h6.9V75h-6.9V76.2z M428.7,77.9c0.7,0.9,1.4,2.1,1.7,3l-1,0.5c-0.3-0.8-1-2.1-1.7-3L428.7,77.9z"/>
		<path d="M436.3,72c-0.4,0.7-0.8,1.4-1.3,2.1v8.3h-1v-7c-0.5,0.5-1,1-1.4,1.4c-0.1-0.2-0.4-0.8-0.6-1c1.3-1,2.6-2.6,3.4-4.2
			L436.3,72z M436,69c-0.8,1.3-2.2,2.6-3.4,3.6c-0.1-0.2-0.4-0.6-0.6-0.8c1.1-0.8,2.3-2.1,2.9-3.1L436,69z M444.3,76.6
			c-0.6,1.4-1.6,2.6-2.9,3.5c1.2,0.6,2.5,1,4,1.3c-0.2,0.2-0.5,0.7-0.7,1c-1.6-0.3-3-0.9-4.2-1.6c-1.3,0.8-2.9,1.3-4.4,1.7
			c-0.1-0.3-0.3-0.7-0.5-1c1.4-0.3,2.7-0.7,4-1.3c-0.6-0.5-1.2-1-1.7-1.5c-0.4,0.4-0.8,0.7-1.2,1c-0.2-0.2-0.5-0.6-0.8-0.8
			c0.4-0.3,0.9-0.6,1.3-1c-0.3-0.3-0.5-0.7-0.7-1.1l0.9-0.3c0.1,0.3,0.3,0.5,0.5,0.8c0.5-0.6,1-1.2,1.4-1.9
			c-2.1,0.1-2.5,0.2-2.8,0.3c0-0.2-0.2-0.8-0.3-1c0.4-0.1,1-0.3,1.7-0.7c0.3-0.2,1-0.6,1.9-1.2c-2.2,0.1-2.6,0.2-2.9,0.3
			c0-0.2-0.2-0.8-0.4-1.1c0.3,0,0.6-0.3,1-0.5c0.4-0.3,1.7-1.4,2.6-2.5l1.1,0.5c-0.9,0.9-1.9,1.8-2.8,2.5l2.7-0.1
			c0.7-0.5,1.4-1,2-1.6l1,0.6c-1.8,1.5-3.6,2.7-5.4,3.7l4.7-0.3c-0.3-0.4-0.7-0.9-1-1.2l0.9-0.5c0.9,1,2,2.4,2.5,3.2l-0.9,0.5
			c-0.2-0.3-0.4-0.8-0.8-1.2l-3.3,0.2c-0.2,0.4-0.5,0.8-0.7,1.2h3.7l0.2,0L444.3,76.6z M439.1,77.3c-0.2,0.2-0.4,0.4-0.6,0.6
			c0.6,0.6,1.2,1.2,2,1.6c0.9-0.6,1.7-1.4,2.3-2.3H439.1z"/>
		<path d="M460.5,78.1h-6.1v4.2h-1.1v-4.2h-6V77h6v-2.4h-5.1v-1.1h5.1v-4.8h1.1v4.8h5.3v1.1h-5.3V77h6.1V78.1z M450.3,72.8
			c-0.3-0.9-1-2.3-1.7-3.4l1-0.4c0.7,1,1.5,2.4,1.8,3.3L450.3,72.8z M459.1,69.4c-0.6,1.2-1.4,2.5-2,3.4l-1-0.4
			c0.6-0.9,1.4-2.4,1.8-3.4L459.1,69.4z"/>
		<path d="M475.5,78.9h-5.4v3.4H469v-3.4h-6.9v-1.1h2.5v-4h4.5v-2.3h-3.6c-0.7,1.2-1.5,2.2-2.3,3c-0.2-0.2-0.7-0.6-1-0.7
			c1.4-1.2,2.7-3.2,3.4-5.2l1.1,0.3c-0.2,0.5-0.4,1.1-0.7,1.6h8.9v1.1h-4.7v2.3h4.4v1.1h-4.4v3h5.4V78.9z M469,77.8v-3h-3.4v3H469z"
			/>
		<path d="M514.3,76c-0.2,1.2-0.5,2.3-0.9,3.2c1,1.7,2.9,1.9,5.7,1.9c1.6,0,3.8-0.1,5.3-0.2c-0.2,0.2-0.3,0.7-0.4,1
			c-1.4,0.1-3.3,0.1-4.9,0.1c-3,0-4.9-0.3-6.1-2c-0.5,1-1.2,1.7-1.9,2.3c-0.1-0.2-0.5-0.6-0.7-0.8c1.4-0.9,2.3-2.6,2.8-4.9h-1.5
			c-0.4,0-0.8,0.1-0.9,0.2c-0.1-0.3-0.3-0.8-0.4-1c0.2-0.1,0.5-0.1,0.7-0.4c0.3-0.4,1.2-1.5,1.8-2.5h-2.4v-0.9h3l0.2-0.1l0.7,0.3
			c-0.6,0.9-1.7,2.4-2.5,3.4h1.6l0.2,0L514.3,76z M512.9,71.6c-0.4-0.6-1.1-1.7-1.8-2.4l0.9-0.5c0.6,0.7,1.4,1.7,1.8,2.3L512.9,71.6
			z M516.1,80.3h-1v-6.5h1.1v-4.6h6.1v4.6h1.2v5.4c0,0.5-0.1,0.8-0.5,0.9c-0.3,0.2-0.9,0.2-1.8,0.2c0-0.3-0.2-0.6-0.3-0.9
			c0.6,0,1.2,0,1.3,0c0.2,0,0.2-0.1,0.2-0.2v-4.5h-6.5V80.3z M517.2,73.8h1.5v-2.5h2.7v-1.2h-4.1V73.8z M521.2,78.8h-3v0.6h-0.9
			v-3.8h3.9V78.8z M520.4,76.4h-2.2V78h2.2V76.4z M521.3,73.8V72h-1.8v1.7H521.3z"/>
		<path d="M531.8,76c-1,1.6-2.1,3.2-3.3,4.4l7.4-0.5c-0.6-0.9-1.3-1.8-2-2.6l1-0.5c1.3,1.5,2.8,3.5,3.5,4.8l-1.1,0.6
			c-0.2-0.4-0.4-0.8-0.7-1.3c-8.1,0.6-8.9,0.7-9.5,0.9c-0.1-0.2-0.2-0.8-0.4-1.1c0.3-0.1,0.7-0.4,1.1-1c0.4-0.4,1.7-2,2.6-3.7h-4.7
			v-1.1h6.1v-2.8h-4.9V71h4.9v-2.4h1.2V71h5v1.1h-5v2.8h6.1V76H531.8z"/>
		<path d="M543.7,75.5h-3v-0.7h3v-0.7h-2.4v-3.2h2.4v-0.6h-2.9v-0.7h2.9v-0.9h1v0.9h2.8v0.7h-2.8v0.6h2.5v3.2h-2.5v0.7h2.7v0.7h-2.7
			v0.9h-1V75.5z M542.1,72.2h1.6v-0.7h-1.6V72.2z M543.7,73.5v-0.7h-1.6v0.7H543.7z M542.8,76.8h9.2v5.5l-1.1,0v-0.5h-7v0.5h-1.1
			V76.8z M543.9,77.7v1.2h7v-1.2H543.9z M550.9,80.9v-1.2h-7v1.2H550.9z M544.7,71.5v0.7h1.6v-0.7H544.7z M546.3,72.8h-1.6v0.7h1.6
			V72.8z M554.1,72.9h-1.8v3.6h-1v-3.6h-2c-0.1,1.2-0.4,2.6-1.2,3.6c-0.2-0.2-0.6-0.5-0.9-0.6c0.9-1.2,1.1-2.8,1.1-4.1v-2.2
			c1.6-0.1,3.6-0.4,4.7-0.8l0.6,0.8c-1.1,0.3-2.8,0.6-4.3,0.7v1.6V72h4.8L554.1,72.9z"/>
		<path d="M559.9,69c-0.4,1.2-1,2.3-1.5,3.4v9.9h-1v-8.2c-0.4,0.6-0.8,1.1-1.3,1.6c-0.1-0.3-0.4-0.8-0.6-1.1c1.4-1.5,2.7-3.7,3.4-6
			L559.9,69z M559.5,75.5h9.5V78h-1v-1.5h-7.6V78h-1V75.5z M569.1,70v0.9h-9.3V70h4.1c-0.2-0.4-0.4-0.8-0.6-1.1l1-0.3
			c0.3,0.4,0.6,1,0.8,1.4H569.1z M567.9,71.7v2.9h-7v-2.9H567.9z M560.9,77.6h6.9v0.9h-2.8v2.6c0,0.6-0.1,0.9-0.6,1
			c-0.5,0.1-1.2,0.1-2.4,0.1c0-0.3-0.2-0.7-0.4-1c0.9,0,1.7,0,2,0c0.2,0,0.3-0.1,0.3-0.2v-2.6h-2.9V77.6z M566.8,72.6h-4.9v1.2h4.9
			V72.6z"/>
		<path d="M584.1,75.7h-3.2v6.6h-1.1v-6.6h-4.6c-0.1,2.5-0.8,4.9-3.8,6.6c-0.2-0.3-0.6-0.7-0.8-0.8c2.8-1.6,3.4-3.7,3.5-5.8h-3.4
			v-1.1h3.4v-3.3c-1,0.3-1.9,0.5-2.8,0.7c-0.1-0.3-0.2-0.7-0.4-0.9c2.4-0.6,5-1.4,6.5-2.3l0.8,0.9c-0.8,0.4-1.9,0.8-3,1.2v3.7h4.6
			v-5.7h1.1v5.7h3.2V75.7z"/>
		<path d="M585.6,81.2c0.6-0.8,1.2-2.1,1.5-3l1,0.4c-0.4,0.9-0.9,2.2-1.5,3.1L585.6,81.2z M592,77.1h-4.2V70h3.5
			c0.2-0.5,0.5-1.1,0.6-1.5l1.3,0.2c-0.2,0.5-0.5,0.9-0.7,1.3h4.5v7.1H592c0.9,0.7,1.7,1.6,2.1,2.2l-0.9,0.6c-0.4-0.7-1.2-1.6-2-2.4
			L592,77.1z M594.4,81c0.8,0,0.9-0.2,1-1.7c0.3,0.2,0.7,0.4,1,0.4c-0.2,1.9-0.5,2.4-2,2.4H591c-1.7,0-2.2-0.3-2.2-1.5v-2.4h1.1v2.4
			c0,0.4,0.2,0.5,1.1,0.5H594.4z M588.9,72.1h6.9v-1.2h-6.9V72.1z M588.9,74.2h6.9V73h-6.9V74.2z M588.9,76.2h6.9V75h-6.9V76.2z
			 M597.3,77.9c0.7,0.9,1.4,2.1,1.7,3l-1,0.5c-0.3-0.8-1-2.1-1.7-3L597.3,77.9z"/>
		<path d="M604.9,72c-0.4,0.7-0.8,1.4-1.3,2.1v8.3h-1v-7c-0.5,0.5-1,1-1.4,1.4c-0.1-0.2-0.4-0.8-0.6-1c1.3-1,2.6-2.6,3.4-4.2
			L604.9,72z M604.6,69c-0.8,1.3-2.2,2.6-3.4,3.6c-0.1-0.2-0.4-0.6-0.6-0.8c1.1-0.8,2.3-2.1,2.9-3.1L604.6,69z M612.9,76.6
			c-0.6,1.4-1.6,2.6-2.9,3.5c1.2,0.6,2.5,1,4,1.3c-0.2,0.2-0.5,0.7-0.7,1c-1.6-0.3-3-0.9-4.2-1.6c-1.3,0.8-2.9,1.3-4.4,1.7
			c-0.1-0.3-0.3-0.7-0.5-1c1.4-0.3,2.7-0.7,4-1.3c-0.6-0.5-1.2-1-1.7-1.5c-0.4,0.4-0.8,0.7-1.2,1c-0.2-0.2-0.5-0.6-0.8-0.8
			c0.4-0.3,0.9-0.6,1.3-1c-0.3-0.3-0.5-0.7-0.7-1.1l0.9-0.3c0.1,0.3,0.3,0.5,0.5,0.8c0.5-0.6,1-1.2,1.4-1.9
			c-2.1,0.1-2.5,0.2-2.8,0.3c0-0.2-0.2-0.8-0.3-1c0.4-0.1,1-0.3,1.7-0.7c0.3-0.2,1-0.6,1.9-1.2c-2.2,0.1-2.6,0.2-2.9,0.3
			c0-0.2-0.2-0.8-0.4-1.1c0.3,0,0.6-0.3,1-0.5c0.4-0.3,1.7-1.4,2.6-2.5l1.1,0.5c-0.9,0.9-1.9,1.8-2.8,2.5l2.7-0.1
			c0.7-0.5,1.4-1,2-1.6l1,0.6c-1.8,1.5-3.6,2.7-5.4,3.7l4.7-0.3c-0.3-0.4-0.7-0.9-1-1.2l0.9-0.5c0.9,1,2,2.4,2.5,3.2l-0.9,0.5
			c-0.2-0.3-0.4-0.8-0.8-1.2l-3.3,0.2c-0.2,0.4-0.5,0.8-0.7,1.2h3.7l0.2,0L612.9,76.6z M607.7,77.3c-0.2,0.2-0.4,0.4-0.6,0.6
			c0.6,0.6,1.2,1.2,2,1.6c0.9-0.6,1.7-1.4,2.3-2.3H607.7z"/>
		<path d="M629.2,74.7V76h-13.6v-1.2H629.2z"/>
		<path d="M644.1,78.9h-5.4v3.4h-1.1v-3.4h-6.9v-1.1h2.5v-4h4.5v-2.3h-3.6c-0.7,1.2-1.5,2.2-2.3,3c-0.2-0.2-0.7-0.6-1-0.7
			c1.4-1.2,2.7-3.2,3.4-5.2l1.1,0.3c-0.2,0.5-0.4,1.1-0.7,1.6h8.9v1.1h-4.7v2.3h4.4v1.1h-4.4v3h5.4V78.9z M637.6,77.8v-3h-3.4v3
			H637.6z"/>
		<path d="M679.5,76c-0.2,1.2-0.5,2.3-0.9,3.2c1,1.7,2.9,1.9,5.7,1.9c1.6,0,3.8-0.1,5.3-0.2c-0.2,0.2-0.3,0.7-0.4,1
			c-1.4,0.1-3.3,0.1-4.9,0.1c-3,0-4.9-0.3-6.1-2c-0.5,1-1.2,1.7-1.9,2.3c-0.1-0.2-0.5-0.6-0.7-0.8c1.4-0.9,2.3-2.6,2.8-4.9H677
			c-0.4,0-0.8,0.1-0.9,0.2c-0.1-0.3-0.3-0.8-0.4-1c0.2-0.1,0.5-0.1,0.7-0.4c0.3-0.4,1.2-1.5,1.8-2.5h-2.4v-0.9h3l0.2-0.1l0.7,0.3
			c-0.6,0.9-1.7,2.4-2.5,3.4h1.6l0.2,0L679.5,76z M678.2,71.6c-0.4-0.6-1.1-1.7-1.8-2.4l0.9-0.5c0.6,0.7,1.4,1.7,1.8,2.3L678.2,71.6
			z M681.3,80.3h-1v-6.5h1.1v-4.6h6.1v4.6h1.2v5.4c0,0.5-0.1,0.8-0.5,0.9c-0.3,0.2-0.9,0.2-1.8,0.2c0-0.3-0.2-0.6-0.3-0.9
			c0.6,0,1.2,0,1.3,0c0.2,0,0.2-0.1,0.2-0.2v-4.5h-6.5V80.3z M682.4,73.8h1.5v-2.5h2.7v-1.2h-4.1V73.8z M686.5,78.8h-3v0.6h-0.9
			v-3.8h3.9V78.8z M685.6,76.4h-2.2V78h2.2V76.4z M686.6,73.8V72h-1.8v1.7H686.6z"/>
		<path d="M697.1,76c-1,1.6-2.1,3.2-3.3,4.4l7.4-0.5c-0.6-0.9-1.3-1.8-2-2.6l1-0.5c1.3,1.5,2.8,3.5,3.5,4.8l-1.1,0.6
			c-0.2-0.4-0.4-0.8-0.7-1.3c-8.1,0.6-8.9,0.7-9.5,0.9c-0.1-0.2-0.2-0.8-0.4-1.1c0.3-0.1,0.7-0.4,1.1-1c0.4-0.4,1.7-2,2.6-3.7H691
			v-1.1h6.1v-2.8h-4.9V71h4.9v-2.4h1.2V71h5v1.1h-5v2.8h6.1V76H697.1z"/>
		<path d="M709,75.5h-3v-0.7h3v-0.7h-2.4v-3.2h2.4v-0.6h-2.9v-0.7h2.9v-0.9h1v0.9h2.8v0.7h-2.8v0.6h2.5v3.2h-2.5v0.7h2.7v0.7h-2.7
			v0.9h-1V75.5z M707.4,72.2h1.6v-0.7h-1.6V72.2z M709,73.5v-0.7h-1.6v0.7H709z M708,76.8h9.2v5.5l-1.1,0v-0.5h-7v0.5H708V76.8z
			 M709.1,77.7v1.2h7v-1.2H709.1z M716.1,80.9v-1.2h-7v1.2H716.1z M709.9,71.5v0.7h1.6v-0.7H709.9z M711.5,72.8h-1.6v0.7h1.6V72.8z
			 M719.4,72.9h-1.8v3.6h-1v-3.6h-2c-0.1,1.2-0.4,2.6-1.2,3.6c-0.2-0.2-0.6-0.5-0.9-0.6c0.9-1.2,1.1-2.8,1.1-4.1v-2.2
			c1.6-0.1,3.6-0.4,4.7-0.8l0.6,0.8c-1.1,0.3-2.8,0.6-4.3,0.7v1.6V72h4.8L719.4,72.9z"/>
		<path d="M725.1,69c-0.4,1.2-1,2.3-1.5,3.4v9.9h-1v-8.2c-0.4,0.6-0.8,1.1-1.3,1.6c-0.1-0.3-0.4-0.8-0.6-1.1c1.4-1.5,2.7-3.7,3.4-6
			L725.1,69z M724.8,75.5h9.5V78h-1v-1.5h-7.6V78h-1V75.5z M734.3,70v0.9H725V70h4.1c-0.2-0.4-0.4-0.8-0.6-1.1l1-0.3
			c0.3,0.4,0.6,1,0.8,1.4H734.3z M733.1,71.7v2.9h-7v-2.9H733.1z M726.1,77.6h6.9v0.9h-2.8v2.6c0,0.6-0.1,0.9-0.6,1
			c-0.5,0.1-1.2,0.1-2.4,0.1c0-0.3-0.2-0.7-0.4-1c0.9,0,1.7,0,2,0c0.2,0,0.3-0.1,0.3-0.2v-2.6h-2.9V77.6z M732,72.6h-4.9v1.2h4.9
			V72.6z"/>
		<path d="M749.3,75.7h-3.2v6.6H745v-6.6h-4.6c-0.1,2.5-0.8,4.9-3.8,6.6c-0.2-0.3-0.6-0.7-0.8-0.8c2.8-1.6,3.4-3.7,3.5-5.8H736v-1.1
			h3.4v-3.3c-1,0.3-1.9,0.5-2.8,0.7c-0.1-0.3-0.2-0.7-0.4-0.9c2.4-0.6,5-1.4,6.5-2.3l0.8,0.9c-0.8,0.4-1.9,0.8-3,1.2v3.7h4.6v-5.7
			h1.1v5.7h3.2V75.7z"/>
		<path d="M750.9,81.2c0.6-0.8,1.2-2.1,1.5-3l1,0.4c-0.4,0.9-0.9,2.2-1.5,3.1L750.9,81.2z M757.2,77.1h-4.2V70h3.5
			c0.2-0.5,0.5-1.1,0.6-1.5l1.3,0.2c-0.2,0.5-0.5,0.9-0.7,1.3h4.5v7.1H757.2c0.9,0.7,1.7,1.6,2.1,2.2l-0.9,0.6
			c-0.4-0.7-1.2-1.6-2-2.4L757.2,77.1z M759.6,81c0.8,0,0.9-0.2,1-1.7c0.3,0.2,0.7,0.4,1,0.4c-0.2,1.9-0.5,2.4-2,2.4h-3.4
			c-1.7,0-2.2-0.3-2.2-1.5v-2.4h1.1v2.4c0,0.4,0.2,0.5,1.1,0.5H759.6z M754.1,72.1h6.9v-1.2h-6.9V72.1z M754.1,74.2h6.9V73h-6.9
			V74.2z M754.1,76.2h6.9V75h-6.9V76.2z M762.5,77.9c0.7,0.9,1.4,2.1,1.7,3l-1,0.5c-0.3-0.8-1-2.1-1.7-3L762.5,77.9z"/>
		<path d="M770.2,72c-0.4,0.7-0.8,1.4-1.3,2.1v8.3h-1v-7c-0.5,0.5-1,1-1.4,1.4c-0.1-0.2-0.4-0.8-0.6-1c1.3-1,2.6-2.6,3.4-4.2
			L770.2,72z M769.8,69c-0.8,1.3-2.2,2.6-3.4,3.6c-0.1-0.2-0.4-0.6-0.6-0.8c1.1-0.8,2.3-2.1,2.9-3.1L769.8,69z M778.2,76.6
			c-0.6,1.4-1.6,2.6-2.8,3.5c1.2,0.6,2.5,1,4,1.3c-0.2,0.2-0.5,0.7-0.7,1c-1.6-0.3-3-0.9-4.2-1.6c-1.3,0.8-2.9,1.3-4.4,1.7
			c-0.1-0.3-0.3-0.7-0.5-1c1.4-0.3,2.7-0.7,4-1.3c-0.6-0.5-1.2-1-1.7-1.5c-0.4,0.4-0.8,0.7-1.2,1c-0.2-0.2-0.5-0.6-0.8-0.8
			c0.4-0.3,0.9-0.6,1.3-1c-0.3-0.3-0.5-0.7-0.7-1.1l0.9-0.3c0.1,0.3,0.3,0.5,0.5,0.8c0.5-0.6,1-1.2,1.4-1.9
			c-2.1,0.1-2.5,0.2-2.8,0.3c0-0.2-0.2-0.8-0.3-1c0.4-0.1,1-0.3,1.7-0.7c0.3-0.2,1-0.6,1.9-1.2c-2.2,0.1-2.6,0.2-2.9,0.3
			c0-0.2-0.2-0.8-0.4-1.1c0.3,0,0.6-0.3,1-0.5c0.4-0.3,1.7-1.4,2.6-2.5l1.1,0.5c-0.9,0.9-1.9,1.8-2.8,2.5l2.7-0.1
			c0.7-0.5,1.4-1,2-1.6l1,0.6c-1.8,1.5-3.6,2.7-5.4,3.7l4.7-0.3c-0.3-0.4-0.7-0.9-1-1.2l0.9-0.5c0.9,1,2,2.4,2.5,3.2l-0.9,0.5
			c-0.2-0.3-0.5-0.8-0.8-1.2l-3.3,0.2c-0.2,0.4-0.5,0.8-0.7,1.2h3.7l0.2,0L778.2,76.6z M772.9,77.3c-0.2,0.2-0.4,0.4-0.6,0.6
			c0.6,0.6,1.2,1.2,2,1.6c0.9-0.6,1.7-1.4,2.3-2.3H772.9z"/>
		<path d="M794.5,74.7V76h-13.6v-1.2H794.5z"/>
		<path d="M809.4,78.9h-5.4v3.4h-1.1v-3.4h-6.9v-1.1h2.5v-4h4.5v-2.3h-3.6c-0.7,1.2-1.5,2.2-2.3,3c-0.2-0.2-0.7-0.6-1-0.7
			c1.4-1.2,2.7-3.2,3.4-5.2l1.1,0.3c-0.2,0.5-0.5,1.1-0.7,1.6h8.9v1.1h-4.7v2.3h4.4v1.1h-4.4v3h5.4V78.9z M802.8,77.8v-3h-3.4v3
			H802.8z"/>
		<path d="M824.3,78.1h-6.2v4.2H817v-4.2h-6V77h6v-2.4h-5.1v-1.1h5.1v-4.8h1.1v4.8h5.3v1.1h-5.3V77h6.2V78.1z M814.1,72.8
			c-0.3-0.9-1-2.3-1.7-3.4l1-0.4c0.7,1,1.5,2.4,1.8,3.3L814.1,72.8z M822.9,69.4c-0.6,1.2-1.4,2.5-2,3.4l-1-0.4
			c0.6-0.9,1.4-2.4,1.8-3.4L822.9,69.4z"/>
		<path d="M859.4,80.4c3.2-3.2,5-5.1,5-6.9c0-1.2-0.7-2.1-2-2.1c-0.9,0-1.7,0.6-2.3,1.3l-0.8-0.8c0.9-1,1.8-1.6,3.2-1.6
			c2,0,3.2,1.2,3.2,3.1c0,2-1.8,4-4.4,6.7c0.6,0,1.2-0.1,1.8-0.1h3.1v1.2h-6.9V80.4z"/>
		<path d="M867.8,75.8c0-3.6,1.3-5.5,3.4-5.5s3.4,1.9,3.4,5.5c0,3.6-1.3,5.6-3.4,5.6S867.8,79.4,867.8,75.8z M873.3,75.8
			c0-3.1-0.8-4.4-2.1-4.4c-1.3,0-2.1,1.3-2.1,4.4s0.8,4.5,2.1,4.5C872.5,80.3,873.3,78.9,873.3,75.8z"/>
		<path d="M876,80.4c3.2-3.2,5-5.1,5-6.9c0-1.2-0.7-2.1-2-2.1c-0.9,0-1.7,0.6-2.3,1.3l-0.8-0.8c0.9-1,1.8-1.6,3.2-1.6
			c2,0,3.2,1.2,3.2,3.1c0,2-1.8,4-4.4,6.7c0.6,0,1.2-0.1,1.8-0.1h3.1v1.2H876V80.4z"/>
		<path d="M884.1,79.9l0.7-0.9c0.6,0.7,1.5,1.3,2.7,1.3c1.3,0,2.2-0.8,2.2-2c0-1.3-0.9-2.1-3.4-2.1v-1c2.3,0,3-0.9,3-2
			c0-1-0.7-1.7-1.9-1.7c-0.9,0-1.7,0.5-2.3,1.1l-0.7-0.9c0.8-0.8,1.8-1.3,3.1-1.3c1.8,0,3.2,1,3.2,2.7c0,1.3-0.8,2.1-1.9,2.5v0.1
			c1.3,0.3,2.3,1.3,2.3,2.7c0,1.9-1.6,3-3.5,3C885.9,81.4,884.9,80.7,884.1,79.9z"/>
		<path d="M906.3,78.9h-5.4v3.4h-1.1v-3.4h-6.9v-1.1h2.5v-4h4.5v-2.3h-3.6c-0.7,1.2-1.5,2.2-2.3,3c-0.2-0.2-0.7-0.6-1-0.7
			c1.4-1.2,2.7-3.2,3.4-5.2l1.1,0.3c-0.2,0.5-0.5,1.1-0.7,1.6h8.9v1.1h-4.7v2.3h4.4v1.1h-4.4v3h5.4V78.9z M899.7,77.8v-3h-3.4v3
			H899.7z"/>
		<path d="M913.1,71.7h-5.3v-1.2h6.9v0.8c-2.5,3.2-3.1,5.7-3.2,9.9H910C910.2,77.2,911,74.6,913.1,71.7z"/>
		<path d="M927.6,80.7c0,0.8-0.2,1.2-0.8,1.4c-0.6,0.2-1.6,0.2-3.2,0.2c-0.1-0.3-0.3-0.8-0.5-1.2c1.2,0,2.4,0,2.8,0
			c0.3,0,0.5-0.1,0.5-0.5v-3h-7.2c-0.4,1.7-1.1,3.4-2.6,4.7c-0.2-0.2-0.6-0.6-0.8-0.8c2.4-2.1,2.6-5.1,2.6-7.5v-4.6h9.1V80.7z
			 M926.5,76.6v-2.5h-6.9c0,0.8,0,1.6-0.2,2.5H926.5z M919.6,70.5V73h6.9v-2.5H919.6z"/>
		<path d="M935.8,79.8c1-0.2,2.1-0.4,3.1-0.6l0.1,1c-2.7,0.5-5.5,1.1-7.5,1.4l-0.2-1c0.9-0.1,2.1-0.4,3.4-0.6v-2.5h-2.9v-1h2.9v-1.6
			h1.1v1.6h3v1h-3V79.8z M931.5,69.6h7.7v1h-4c-0.5,1-1.1,2-1.7,2.8l3.8-0.3c-0.4-0.5-0.8-1-1.1-1.5l0.8-0.5c0.8,1,1.8,2.4,2.3,3.2
			l-0.9,0.6c-0.1-0.3-0.3-0.6-0.5-0.9c-4.7,0.4-5.2,0.5-5.6,0.7c-0.1-0.2-0.2-0.8-0.4-1c0.2,0,0.5-0.3,0.7-0.7
			c0.2-0.3,0.8-1.2,1.3-2.3h-2.4V69.6z M941,79h-1v-9h1V79z M944,68.9v11.7c0,0.7-0.2,1.1-0.6,1.2c-0.5,0.2-1.3,0.2-2.3,0.2
			c0-0.3-0.2-0.8-0.4-1.1c0.9,0,1.7,0,2,0s0.3-0.1,0.3-0.3V68.9H944z"/>
		<path d="M946.7,80.1h2.4v-7.9h-2v-0.9c1-0.2,1.7-0.4,2.3-0.8h1v9.6h2.2v1.1h-6V80.1z"/>
		<path d="M955,80.1h2.4v-7.9h-2v-0.9c1-0.2,1.7-0.4,2.3-0.8h1v9.6h2.2v1.1h-6V80.1z"/>
		<path d="M974.3,80.7c0,0.8-0.2,1.2-0.8,1.4c-0.6,0.2-1.6,0.2-3.2,0.2c-0.1-0.3-0.3-0.8-0.5-1.2c1.2,0,2.4,0,2.8,0
			c0.3,0,0.5-0.1,0.5-0.5v-3h-7.2c-0.4,1.7-1.1,3.4-2.6,4.7c-0.2-0.2-0.6-0.6-0.8-0.8c2.4-2.1,2.6-5.1,2.6-7.5v-4.6h9.1V80.7z
			 M973.1,76.6v-2.5h-6.9c0,0.8,0,1.6-0.2,2.5H973.1z M966.3,70.5V73h6.9v-2.5H966.3z"/>
	</g>
	<rect x="318.4" y="67.1" class="st1" width="16.4" height="16.4"/>
	<rect x="491.3" y="67.1" class="st2" width="16.4" height="16.4"/>
	<rect x="656.5" y="67.1" class="st3" width="16.4" height="16.4"/>
	<rect x="840.7" y="67.1" class="st4" width="16.4" height="16.4"/>
</g>
</svg>
