<?xml version="1.0" encoding="utf-8"?>
<!-- Generator: Adobe Illustrator 27.8.1, SVG Export Plug-In . SVG Version: 6.00 Build 0)  -->
<svg version="1.1" id="分離模式" xmlns="http://www.w3.org/2000/svg" xmlns:xlink="http://www.w3.org/1999/xlink" x="0px"
	 y="0px" viewBox="0 0 795 478" style="enable-background:new 0 0 795 478;" xml:space="preserve">
<style type="text/css">
	.st0{fill:#DADADA;}
	.st1{fill:#BA1019;}
	.st2{fill:#3C3C3B;}
	.st3{fill:#910000;}
	.st4{fill:#EF7E00;}
	.st5{fill:none;stroke:#E6E6E6;stroke-width:1.5639;stroke-linejoin:round;stroke-miterlimit:10;}
	.st6{fill-rule:evenodd;clip-rule:evenodd;fill:#FFFFFF;}
	
		.st7{clip-path:url(#SVGID_00000088106957037890144720000015030548505881910457_);fill:none;stroke:#910000;stroke-width:2.0604;stroke-linejoin:round;stroke-miterlimit:10;}
	
		.st8{clip-path:url(#SVGID_00000018937864442631935770000013017898629826996616_);fill:none;stroke:#EF7E00;stroke-width:2.0604;stroke-linejoin:round;stroke-miterlimit:10;}
	
		.st9{clip-path:url(#SVGID_00000155834792074247860410000008557317766780901001_);fill:none;stroke:#910000;stroke-width:2.0604;stroke-linejoin:round;stroke-miterlimit:10;}
	
		.st10{clip-path:url(#SVGID_00000010307902579579312330000015327837077285890208_);fill:none;stroke:#EF7E00;stroke-width:2.0604;stroke-linejoin:round;stroke-miterlimit:10;}
</style>
<g>
	<path d="M8.4,115.6c0-1.6,1.2-2.7,2.4-3.4v-0.1c-1-0.7-1.8-1.7-1.8-3c0-2.1,1.6-3.4,3.8-3.4c2.3,0,3.7,1.4,3.7,3.5
		c0,1.3-0.9,2.4-1.7,3v0.1C16,113,17,114,17,115.7c0,2-1.7,3.5-4.3,3.5C10.3,119.2,8.4,117.7,8.4,115.6z M15.1,115.6
		c0-1.5-1.5-2.1-3.3-2.8c-0.9,0.6-1.5,1.5-1.5,2.6c0,1.3,1.1,2.2,2.5,2.2C14.2,117.7,15.1,116.9,15.1,115.6z M14.8,109.4
		c0-1.2-0.7-2.1-2-2.1c-1.1,0-1.9,0.7-1.9,1.9c0,1.4,1.3,2,2.7,2.6C14.4,111,14.8,110.2,14.8,109.4z"/>
	<path d="M18.7,112.4c0-4.3,1.7-6.6,4.3-6.6c2.6,0,4.3,2.3,4.3,6.6c0,4.3-1.6,6.7-4.3,6.7C20.4,119.2,18.7,116.8,18.7,112.4z
		 M25.3,112.4c0-3.7-1-5-2.3-5c-1.4,0-2.3,1.3-2.3,5s1,5.1,2.3,5.1C24.4,117.5,25.3,116.1,25.3,112.4z"/>
	<path d="M14.7,150.8H8.5V149H17v1.3c-3,3.8-3.6,6.6-3.8,11.6h-2.1C11.3,157.2,12.2,154.3,14.7,150.8z"/>
	<path d="M18.7,155.4c0-4.3,1.7-6.6,4.3-6.6c2.6,0,4.3,2.3,4.3,6.6c0,4.3-1.6,6.7-4.3,6.7C20.4,162.2,18.7,159.8,18.7,155.4z
		 M25.3,155.4c0-3.7-1-5-2.3-5c-1.4,0-2.3,1.3-2.3,5s1,5.1,2.3,5.1C24.4,160.5,25.3,159.1,25.3,155.4z"/>
	<path d="M8.5,198.9c0-5.1,2.4-7.1,5-7.1c1.5,0,2.6,0.6,3.3,1.4l-1.1,1.3c-0.5-0.6-1.3-1-2.1-1c-1.7,0-3.1,1.3-3.2,5
		c0.8-1,1.9-1.5,2.9-1.5c2.2,0,3.7,1.3,3.7,4c0,2.5-1.8,4.2-4,4.2C10.6,205.2,8.5,203.2,8.5,198.9z M10.5,200.1
		c0.2,2.4,1.2,3.5,2.6,3.5c1.2,0,2.1-1,2.1-2.6c0-1.6-0.8-2.5-2.2-2.5C12.2,198.5,11.3,198.9,10.5,200.1z"/>
	<path d="M18.7,198.4c0-4.3,1.7-6.6,4.3-6.6c2.6,0,4.3,2.3,4.3,6.6c0,4.3-1.6,6.7-4.3,6.7C20.4,205.2,18.7,202.8,18.7,198.4z
		 M25.3,198.4c0-3.7-1-5-2.3-5c-1.4,0-2.3,1.3-2.3,5s1,5.1,2.3,5.1C24.4,203.5,25.3,202.1,25.3,198.4z"/>
	<path d="M8.1,246.4l1-1.4c0.8,0.8,1.7,1.4,3.1,1.4c1.5,0,2.6-1,2.6-2.6c0-1.6-1-2.6-2.5-2.6c-0.8,0-1.4,0.3-2.1,0.8l-1-0.6l0.4-6.3
		h6.7v1.7h-4.9l-0.3,3.4c0.6-0.3,1.1-0.5,1.8-0.5c2.2,0,4,1.2,4,4c0,2.8-2.1,4.4-4.5,4.4C10.3,248.2,9,247.3,8.1,246.4z"/>
	<path d="M18.7,241.4c0-4.3,1.7-6.6,4.3-6.6c2.6,0,4.3,2.3,4.3,6.6c0,4.3-1.6,6.7-4.3,6.7C20.4,248.2,18.7,245.8,18.7,241.4z
		 M25.3,241.4c0-3.7-1-5-2.3-5c-1.4,0-2.3,1.3-2.3,5s1,5.1,2.3,5.1C24.4,246.5,25.3,245.1,25.3,241.4z"/>
	<path d="M13.7,287.5H8v-1.4l5.3-8.1h2.4v7.9h1.7v1.6h-1.7v3.4h-1.9V287.5z M13.7,285.9v-3.3c0-0.7,0.1-1.9,0.1-2.6h-0.1
		c-0.3,0.6-0.7,1.3-1.1,1.9l-2.6,3.9H13.7z"/>
	<path d="M18.7,284.4c0-4.3,1.7-6.6,4.3-6.6c2.6,0,4.3,2.3,4.3,6.6c0,4.3-1.6,6.7-4.3,6.7C20.4,291.2,18.7,288.8,18.7,284.4z
		 M25.3,284.4c0-3.7-1-5-2.3-5c-1.4,0-2.3,1.3-2.3,5s1,5.1,2.3,5.1C24.4,289.5,25.3,288.1,25.3,284.4z"/>
	<path d="M8.1,332.3l1-1.3c0.8,0.8,1.8,1.5,3.1,1.5c1.5,0,2.5-0.8,2.5-2.1c0-1.4-0.9-2.3-3.9-2.3v-1.5c2.6,0,3.5-1,3.5-2.2
		c0-1.2-0.8-1.9-2-1.9c-1,0-1.9,0.5-2.6,1.3l-1.1-1.3c1-1,2.3-1.6,3.8-1.6c2.4,0,4.1,1.2,4.1,3.3c0,1.5-0.9,2.5-2.3,3v0.1
		c1.5,0.4,2.7,1.5,2.7,3.2c0,2.3-2,3.7-4.4,3.7C10.3,334.2,9,333.3,8.1,332.3z"/>
	<path d="M18.7,327.4c0-4.3,1.7-6.6,4.3-6.6c2.6,0,4.3,2.3,4.3,6.6c0,4.3-1.6,6.7-4.3,6.7C20.4,334.2,18.7,331.8,18.7,327.4z
		 M25.3,327.4c0-3.7-1-5-2.3-5c-1.4,0-2.3,1.3-2.3,5s1,5.1,2.3,5.1C24.4,332.5,25.3,331.1,25.3,327.4z"/>
	<path d="M8.4,375.7c3.7-3.6,5.9-5.9,5.9-7.9c0-1.4-0.8-2.3-2.3-2.3c-1,0-1.9,0.7-2.6,1.5l-1.2-1.2c1.1-1.2,2.3-2,4-2
		c2.4,0,4,1.5,4,3.9c0,2.4-2.1,4.7-4.9,7.6c0.7-0.1,1.5-0.1,2.2-0.1H17v1.8H8.4V375.7z"/>
	<path d="M18.7,370.4c0-4.3,1.7-6.6,4.3-6.6c2.6,0,4.3,2.3,4.3,6.6c0,4.3-1.6,6.7-4.3,6.7C20.4,377.2,18.7,374.8,18.7,370.4z
		 M25.3,370.4c0-3.7-1-5-2.3-5c-1.4,0-2.3,1.3-2.3,5s1,5.1,2.3,5.1C24.4,375.5,25.3,374.1,25.3,370.4z"/>
</g>
<g>
	<path class="st0" d="M48,370.1c-1.4,0-2.5-1.1-2.5-2.5V168.9c0-1.4,1.1-2.5,2.5-2.5c1.4,0,2.5,1.1,2.5,2.5v198.7
		C50.5,369,49.4,370.1,48,370.1z"/>
</g>
<g>
	<g>
		<path class="st1" d="M266,24.9c2.9,1,6.7,2.5,8.7,3.5l-1.3,2.4c-2.1-1.2-6.5-3-9.6-4.2l1.1-1.8h-0.9c-1.2,3-3.7,4.8-10.1,5.9
			c-0.2-0.8-0.9-2-1.4-2.6c4.8-0.6,7.1-1.7,8.2-3.3h-7.2v-2.4h8.1c0.1-0.4,0.1-0.8,0.2-1.2h-8.8v-2.5h9.2v-1.3H255v-2.4h7.1v-1.2
			h-8.5v-2.5h4.6c-0.4-0.7-0.9-1.5-1.3-2.1l2.5-1c0.7,0.8,1.5,2,1.8,2.8l-0.7,0.3h5.3c0.6-0.9,1.3-2.2,1.7-3.1l3.1,0.8
			c-0.5,0.8-1.1,1.6-1.6,2.3h4.6v2.5H265v1.2h7.3v2.4H265v1.3h9.6v2.5h-9.9c0,0.4-0.1,0.8-0.2,1.2h9.4v2.4H266z"/>
		<path class="st1" d="M297.8,9.5v21.5H295v-1H280v1h-2.7V9.5H297.8z M295,27.4V12.1H292c0.7,0.4,1.5,0.9,2,1.4l-1,1h1.2v2h-4.3
			c0.1,1.3,0.3,2.6,0.5,3.7c0.5-0.9,0.8-1.9,1.1-3l2.2,0.4c-0.6,2.1-1.4,3.9-2.5,5.5c0.3,0.7,0.7,1.2,1.1,1.3
			c0.3,0.1,0.5-0.9,0.6-2.3c0.4,0.4,1.3,1.1,1.8,1.3c-0.4,3-1.6,3.9-3.2,3.1c-0.7-0.2-1.3-0.8-1.8-1.6c-0.8,0.8-1.6,1.5-2.5,2
			c-0.3-0.4-1.1-1.3-1.6-1.7c0.3-0.1,0.5-0.3,0.8-0.5c-1.9,0.3-3.8,0.6-5.4,0.8l-0.3-2.1c1.8-0.2,4.2-0.5,6.7-0.8l0,1.2
			c0.4-0.4,0.8-0.8,1.2-1.2c-0.5-1.7-0.8-3.9-1-6.3h-6.7v-2h6.5c0-0.7-0.1-1.3-0.1-2h2.4c0,0.7,0,1.4,0.1,2h2.6
			c-0.5-0.4-1.2-0.9-1.8-1.3l1.1-1.1H280v15.3H295z M286.9,22h-5.4v-4.6h5.4V22z M285,19h-1.6v1.5h1.6V19z"/>
		<path class="st1" d="M321.6,24.8c-1.1,0.7-2.4,1.5-3.7,2.1c1.4,0.7,3,1.2,4.9,1.4c-0.5,0.6-1.2,1.6-1.5,2.3
			c-4.8-0.9-7.8-3.1-9.6-6.8c-1,0.8-2.2,1.5-3.5,2v2.1l4.5-0.9c-0.1,0.6-0.2,1.6-0.2,2.1c-5.7,1.3-6.6,1.5-7,1.8l0-0.2
			c-0.1-0.6-0.6-1.4-0.8-1.8c0.4-0.3,1.1-0.9,1.1-2.2v-0.1c-1.2,0.4-2.4,0.7-3.6,0.9c-0.3-0.6-1-1.5-1.5-2.1c2.6-0.4,5.3-1,7.4-2h-7
			v-2.3h9.7c-0.2-0.4-0.4-0.8-0.6-1.2h0c-0.2,0-0.5,0-0.8,0c-0.1-0.6-0.5-1.2-0.7-1.6c0.6,0,1.1,0,1.3,0s0.3-0.1,0.3-0.3v-1h-2v3.5
			h-2.4v-3.5h-1.8v3h-2.2v-4.7h4v-0.8h-5v-1.9h1.5c-0.5-0.3-1.1-0.6-1.5-0.8c0.8-0.9,1.5-2.2,1.9-3.4l2.1,0.5
			c-0.1,0.3-0.2,0.6-0.4,1h1.4V8.5h2.4V10h4v1.8h-4v1h4.6v1.9h-4.6v0.8h4.2v2.7c0,0.6-0.1,1-0.3,1.3l0.6-0.1c0.4,0.6,0.7,1.3,1,2
			h8.8v2.3H320L321.6,24.8z M305.7,12.8v-1h-2.3c-0.2,0.3-0.4,0.7-0.6,1H305.7z M316.7,17.6h-2.5V9.6h2.5V17.6z M314.2,23.6
			c0.5,0.7,1.1,1.4,1.7,1.9c1.1-0.6,2.3-1.3,3.2-1.9H314.2z M321.4,18.2c0,1.2-0.2,1.8-1.1,2.2c-0.8,0.4-2,0.4-3.7,0.4
			c-0.1-0.7-0.5-1.6-0.8-2.3c1.1,0,2.2,0,2.6,0c0.3,0,0.5-0.1,0.5-0.4V8.7h2.6V18.2z"/>
		<path class="st1" d="M331.3,20.3c-0.3,1.9-0.7,3.6-1.3,5.1c1.5,2.4,4.1,2.7,8,2.7c2.6,0,6.5-0.1,9.2-0.4c-0.4,0.6-0.8,1.9-0.9,2.6
			c-2.5,0.2-5.5,0.2-8.3,0.2c-4.4,0-7.2-0.5-9-2.9c-0.8,1.4-1.8,2.5-3,3.3c-0.4-0.6-1.3-1.6-1.8-1.9c2.1-1.3,3.6-3.7,4.4-6.9h-1.8
			c-0.6,0-1.2,0.2-1.5,0.4c-0.1-0.6-0.6-1.8-0.9-2.3c0.4-0.1,0.7-0.3,1.2-0.8c0.4-0.4,1.3-1.8,2.1-3h-2.8V14h4.5l0.2-0.1l1.7,0.7
			c-0.8,1.3-2.3,3.6-3.4,5.2h1.7l0.4-0.1L331.3,20.3z M328.4,13.6c-0.7-1-2-2.7-3.1-3.9l2.1-1.3c1.2,1.2,2.5,2.6,3.2,3.6L328.4,13.6
			z M334.8,13.6c-0.4,0.8-0.9,1.4-1.4,2c-0.6-0.4-1.7-1-2.3-1.3c1.4-1.4,2.5-3.5,3.1-5.6l2.5,0.6c-0.2,0.6-0.4,1.2-0.7,1.9h1.5V8.5
			h2.8v2.7h4.9v2.4h-4.9v2h5.9V18h-14.7v-2.4h6v-2H334.8z M333.2,26.4v-7.1h11.8v7.1H333.2z M335.9,24.2h6.1v-2.6h-6.1V24.2z"/>
		<path class="st1" d="M357.6,27.1c-1.6,1.4-4.5,2.6-7,3.2c-0.4-0.6-1.1-1.5-1.7-2.1c2.4-0.3,5.2-1.2,6.6-2L357.6,27.1z M370.3,23.1
			v2.4H361v5.5h-2.8v-5.5H349v-2.4h9.1V22h-6.9V20h6.9v-1.1H350v-2.2h4.4c-0.2-0.6-0.6-1.2-0.9-1.8l1.6-0.4H349v-2.2h3.3
			c-0.4-0.9-1-2.1-1.5-3l2.4-0.8c0.7,1,1.5,2.4,1.8,3.4l-1.2,0.4h2.2V8.5h2.6v3.9h1.8V8.5h2.7v3.9h2.1l-0.9-0.3
			c0.6-1,1.2-2.4,1.5-3.5l3,0.7c-0.7,1.1-1.3,2.2-1.9,3h3.1v2.2h-6.3l2.3,0.6c-0.5,0.6-1,1.1-1.5,1.5h4.6v2.2H361V20h7.2V22H361v1.1
			H370.3z M356.4,14.6c0.4,0.6,0.8,1.3,1,1.8l-1.3,0.3h6.6l-0.9-0.3c0.4-0.6,0.9-1.3,1.2-1.8H356.4z M363.9,26.1
			c1.9,0.7,4.8,1.9,6.3,2.7l-2,1.6c-1.4-0.8-4.2-2.1-6.2-2.9L363.9,26.1z"/>
		<path class="st1" d="M388.6,27.4c2.5,0,2.9-0.6,3.2-4.1c0.7,0.5,2,0.9,2.9,1.1c-0.6,4.5-1.6,5.8-6,5.8h-7.9c-4.6,0-6-0.9-6-4.5
			V14.5h3v3.3h10.9v-5.1h-14.8V9.8h17.8v11.9h-3v-1.1h-10.9v5.1c0,1.5,0.4,1.7,3.1,1.7H388.6z"/>
		<path class="st1" d="M418.3,16.5c0,0,0,0.8,0,1.1c-0.1,8.5-0.3,11.3-0.9,12.2c-0.4,0.6-0.9,0.8-1.5,1c-0.5,0.1-1.2,0.1-2.1,0.1
			c0-0.5-0.2-1.2-0.4-1.8l-0.1,0c0-0.2-0.1-0.4-0.1-0.6c-2.4,0.3-4.8,0.6-6.7,0.9l-0.4-2c1-0.1,2.2-0.2,3.6-0.3v-1.7h-3V21
			c-0.2-0.2-0.5-0.6-0.8-0.9v8.2c0,1.1-0.2,1.7-0.9,2.1c-0.7,0.4-1.6,0.5-3,0.5c-0.1-0.6-0.4-1.7-0.7-2.3c0.9,0,1.7,0,2,0
			c0.3,0,0.4-0.1,0.4-0.4v-3.7h-4c-0.2,2.3-0.7,4.6-1.7,6.4c-0.4-0.3-1.3-0.9-1.8-1.1c1.4-2.5,1.6-6.1,1.6-8.8v-3.9
			c-0.5-0.4-1.2-1-1.7-1.3c1.5-1.8,2.6-4.5,3.2-7.3l2.4,0.5c-0.1,0.6-0.3,1.1-0.4,1.6h1.7l0.5-0.1l1.4,1c-0.4,1-0.8,2.1-1.3,3.1h2.3
			v3.9c0.9-0.9,1.7-2,2.3-3.2h-1.8V9.3h11.9v5.9h-7.4c-0.2,0.4-0.4,0.9-0.6,1.3H418.3z M400.5,12.7c-0.3,0.6-0.5,1.3-0.8,1.9h1.6
			c0.2-0.5,0.5-1.2,0.6-1.9H400.5z M399.8,21c0,0.5,0,1,0,1.5h1.1v-2h-1.1V21z M399.8,18.5h1.1v-1.9h-1.1V18.5z M403.6,16.6h-1.1
			v1.9h1.1V16.6z M403.6,22.5v-2h-1.1v2H403.6z M414.6,28.9c0.3,0,0.4,0,0.6-0.4c0.3-0.5,0.5-2.9,0.6-9.8h-7.1
			c-0.5,0.7-1,1.3-1.5,1.8h2.4V19h2v1.5h3.1v4.9h-3.1V27l1-0.1c-0.1-0.3-0.2-0.6-0.4-0.8l1.6-0.5c0.5,1,0.9,2.2,1.1,3l-0.8,0.3
			H414.6z M408.4,13.2h1.2v-1.9h-1.2V13.2z M409.6,23.8v-1.7h-1.1v1.7H409.6z M411.5,13.2h1.2v-1.9h-1.2V13.2z M411.6,23.8h1.2v-1.7
			h-1.2V23.8z M414.7,13.2h1.2v-1.9h-1.2V13.2z"/>
		<path class="st1" d="M425.1,13.3v4.2c0,3.9-0.4,9.8-2.5,13.5c-0.5-0.5-1.8-1.3-2.4-1.6c2-3.4,2.1-8.4,2.1-11.9v-6.7h9.1
			c-0.2-0.6-0.5-1.2-0.7-1.8l2.9-0.6c0.4,0.7,0.8,1.6,1.1,2.4h8v2.5H425.1z M437.2,22.2c0.6,3.3,1.6,5.6,2.6,5.6
			c0.5,0,0.6-1,0.7-3.1c0.6,0.6,1.5,1.1,2.2,1.3c-0.4,3.6-1.2,4.4-3.1,4.4c-2.6,0-4.3-3.5-5.2-8.3h-4.7V25l4-0.9c0,0.8,0,1.8,0,2.4
			c-5.1,1.2-6,1.6-6.5,1.9c-0.1-0.6-0.6-1.8-1-2.3c0.4-0.2,0.8-0.7,0.8-1.7v-9.3h0l0,0c4.4-0.1,9.4-0.6,12.4-1.2l2,2.1
			c-1.4,0.3-3.1,0.6-4.8,0.8c0,1,0.1,2,0.2,2.9h5.2v2.5H437.2z M434,19.7c-0.1-0.9-0.2-1.8-0.2-2.7c-1.4,0.1-2.8,0.2-4.2,0.2v2.4
			H434z M430,28h6.1v2.2H430V28z"/>
		<path class="st1" d="M465.8,9.3v21.6h-3.1v-1.3h-14.4v1.3h-3V9.3H465.8z M462.7,26.9V12.2h-14.4v14.7H462.7z M460.4,15v9.1h-9.8
			V15H460.4z M457.5,17.5h-4.2v4.2h4.2V17.5z"/>
		<path class="st1" d="M490.6,20.7h-4.9v10.2h-2.9V20.7h-6.2c-0.2,3.8-1.4,7.7-6.1,10.3c-0.4-0.7-1.4-1.7-2.1-2.2
			c4-2.1,5.1-5.1,5.3-8.1h-5.1v-2.7h5.2v-4.3c-1.3,0.4-2.7,0.7-4.1,1c-0.1-0.7-0.6-1.7-1-2.4c3.7-0.8,7.7-2.2,10.2-3.7l2.1,2.4
			c-1.3,0.7-2.9,1.2-4.4,1.8v5.1h6.1V8.8h2.9v9.1h4.9V20.7z"/>
	</g>
</g>
<g>
	<g>
		<path d="M139.9,64.2v1.2h-7.5c-0.1,0.5-0.1,1-0.2,1.4h7.4v1.2h-7.8c-0.8,2.5-2.8,4-7.5,4.8c-0.1-0.3-0.5-0.9-0.7-1.2
			c4.2-0.6,5.9-1.7,6.7-3.6h-6v-1.2h6.4c0.1-0.4,0.2-0.9,0.2-1.4h-7.1v-1.2h7.2v-1.5h-5.6v-1.2h5.6V60h-6.6v-1.2h3.8
			c-0.3-0.6-0.8-1.5-1.4-2.1l1.2-0.5c0.7,0.7,1.3,1.6,1.6,2.3l-0.6,0.3h4.7c0.5-0.7,1.2-1.8,1.5-2.6l1.4,0.4c-0.4,0.7-1,1.5-1.4,2.1
			h3.8V60h-6.6v1.5h5.8v1.2h-5.8v1.5H139.9z M132.5,68.1c2.5,0.9,5.7,2.5,7.3,3.6l-0.6,1.2c-1.6-1.1-4.8-2.7-7.3-3.7L132.5,68.1z"/>
		<path d="M157.3,57.1v15.7H156V72h-12.4v0.8h-1.3V57.1H157.3z M156,70.8V58.4h-12.4v12.4H156z M149.9,68c-1.9,0.4-3.8,0.7-5.3,1
			l-0.2-1c1.4-0.2,3.4-0.6,5.4-0.9L149.9,68z M154.4,62.8c-0.5,1.7-1.1,3.2-2,4.4c0.4,1,0.9,1.6,1.5,1.7c0.3,0.1,0.4-0.7,0.6-1.9
			c0.2,0.2,0.6,0.5,0.9,0.6c-0.2,2-0.8,2.7-1.8,2.3c-0.8-0.2-1.4-0.8-1.9-1.7c-0.7,0.8-1.5,1.5-2.4,2.1c-0.2-0.2-0.6-0.6-0.8-0.8
			c1.1-0.6,2-1.4,2.7-2.3c-0.5-1.4-0.8-3.3-1-5.3h-5.5v-1h5.4c-0.1-0.6-0.1-1.3-0.1-1.9h1.2c0,0.6,0.1,1.3,0.1,1.9h3.9v1h-3.8
			c0.1,1.5,0.4,3,0.7,4.1c0.6-1,1-2.1,1.3-3.3L154.4,62.8z M149.2,62.9v3.5h-4v-3.5H149.2z M148.3,63.7h-2.1v1.8h2.1V63.7z
			 M154,60.5c-0.4-0.4-1.2-1-1.9-1.3l0.6-0.7c0.7,0.3,1.5,0.8,1.9,1.2L154,60.5z"/>
		<path d="M160.6,58.2h1.7v13.2h-1.7V58.2z"/>
		<path d="M165,69.7l1-1.1c0.9,1,2.3,1.6,3.6,1.6c1.7,0,2.8-0.9,2.8-2.2c0-1.4-1-1.8-2.2-2.3l-1.9-0.8c-1.2-0.5-2.7-1.5-2.7-3.4
			c0-2,1.8-3.5,4.2-3.5c1.6,0,3,0.7,3.9,1.6l-0.9,1.1c-0.8-0.8-1.8-1.2-3-1.2c-1.5,0-2.5,0.8-2.5,1.9c0,1.3,1.2,1.8,2.2,2.2l1.9,0.8
			c1.5,0.7,2.7,1.6,2.7,3.5c0,2.1-1.7,3.7-4.5,3.7C167.7,71.6,166.1,70.9,165,69.7z"/>
		<path d="M176.7,58.2h2l2.5,7.1c0.3,0.9,0.6,1.8,0.9,2.8h0.1c0.3-0.9,0.6-1.8,0.9-2.8l2.5-7.1h2v13.2h-1.6v-7.3
			c0-1.1,0.1-2.7,0.2-3.9h-0.1l-1,3l-2.5,6.9h-1.1l-2.5-6.9l-1-3H178c0.1,1.2,0.2,2.8,0.2,3.9v7.3h-1.5V58.2z"/>
		<path d="M205.5,68c-1,0.7-2.2,1.4-3.3,1.9c1.2,0.8,2.6,1.3,4.4,1.6c-0.3,0.3-0.6,0.7-0.7,1.1c-3.6-0.7-6-2.5-7.4-5.3
			c-0.9,0.7-1.9,1.3-3.2,1.8v2.1l4.1-0.9c0,0.3-0.1,0.8,0,1c-4.7,1.1-5.3,1.3-5.6,1.5v-0.1c-0.1-0.3-0.3-0.7-0.5-0.9
			c0.3-0.2,0.8-0.6,0.8-1.4v-0.8c-1,0.4-2.1,0.7-3.1,0.9c-0.1-0.3-0.5-0.7-0.7-1c2.3-0.4,4.8-1.3,6.6-2.3h-6.3v-1.1h7.6
			c-0.2-0.4-0.4-0.8-0.6-1.1l1.2-0.4c0.3,0.5,0.6,1,0.8,1.5h6.9v1.1h-6.7c0.4,0.8,1,1.4,1.7,2c1.1-0.5,2.4-1.3,3.2-1.9L205.5,68z
			 M194.5,60.6h-4.1v-1h4.1v-1.1h-2.1c-0.2,0.4-0.5,0.8-0.7,1.1c-0.2-0.2-0.7-0.4-1-0.5c0.6-0.7,1.1-1.7,1.4-2.7l1.1,0.3
			c-0.1,0.3-0.3,0.6-0.4,1h1.7v-1.3h1.2v1.3h3.2v0.9h-3.2v1.1h3.8v1h-3.8v1h3.3v2.2c0,0.5-0.1,0.7-0.5,0.9c-0.3,0.2-0.9,0.2-1.7,0.2
			c-0.1-0.3-0.2-0.6-0.4-0.9c0.6,0,1,0,1.2,0c0.2,0,0.2-0.1,0.2-0.2v-1.3h-2.2v2.9h-1.2v-2.9h-2.1v2.4h-1.1v-3.3h3.1V60.6z
			 M202.1,63.1h-1.2v-5.9h1.2V63.1z M205.5,63.9c0,0.7-0.2,1-0.6,1.2c-0.5,0.2-1.3,0.2-2.6,0.2c-0.1-0.3-0.3-0.8-0.4-1.1
			c1,0,1.9,0,2.1,0c0.3,0,0.3-0.1,0.3-0.3v-7.4h1.2V63.9z"/>
		<path d="M213,65.1c-0.3,1.5-0.6,2.9-1.2,4c1.2,1.9,3.5,2.2,6.8,2.2c1.9,0,4.5-0.1,6.3-0.2c-0.2,0.3-0.4,0.9-0.4,1.3
			c-1.7,0.1-3.9,0.1-5.9,0.1c-3.6,0-5.9-0.4-7.3-2.4c-0.7,1.2-1.5,2-2.4,2.7c-0.2-0.3-0.6-0.7-0.9-0.9c1.7-1.1,3-3.1,3.5-5.9h-1.9
			c-0.5,0-0.9,0.1-1,0.3c-0.1-0.3-0.4-0.9-0.5-1.2c0.3-0.1,0.6-0.2,0.8-0.5c0.4-0.4,1.4-1.9,2.2-2.9h-2.8v-1.1h3.6l0.2-0.1l0.9,0.4
			c-0.7,1-2,2.9-3,4.1h2l0.2,0L213,65.1z M211.3,59.8c-0.5-0.7-1.5-2-2.3-2.9l1-0.6c0.8,0.9,1.8,2,2.3,2.7L211.3,59.8z M215.6,59.8
			c-0.4,0.7-0.9,1.3-1.3,1.9c-0.2-0.2-0.8-0.5-1.1-0.6c1.1-1.1,2-2.8,2.5-4.4l1.2,0.3c-0.2,0.6-0.4,1.2-0.7,1.7h2v-2.2h1.3v2.2h4.1
			v1.2h-4.1V62h4.8v1.2h-11.1V62h5v-2.3H215.6z M214.7,69.7v-5.1h8.5v5.1H214.7z M215.9,68.6h5.9v-2.9h-5.9V68.6z"/>
		<path d="M232.9,69.9c-1.3,1-3.7,1.9-5.5,2.3c-0.2-0.3-0.5-0.8-0.8-1c1.9-0.3,4.1-1,5.3-1.8L232.9,69.9z M242.3,67.4v1.1h-7.2v4.3
			h-1.3v-4.3h-7.1v-1.1h7.1V66h-5.4v-1h5.4v-1.3h-6.3v-1.1h3.9c-0.2-0.5-0.5-1.2-0.9-1.7l1-0.3h-4.6v-1.1h2.9
			c-0.3-0.7-0.9-1.8-1.4-2.6l1.1-0.4c0.6,0.8,1.3,1.9,1.5,2.6l-0.9,0.4h2.2v-3.2h1.3v3.2h2.1v-3.2h1.3v3.2h2.2l-0.7-0.2
			c0.5-0.7,1.1-1.9,1.4-2.7l1.4,0.4c-0.5,0.9-1.1,1.9-1.6,2.6h2.8v1.1h-4.7l1.2,0.3c-0.4,0.6-0.8,1.2-1.2,1.7h4.1v1.1h-6.5V65h5.6v1
			h-5.6v1.4H242.3z M231.7,60.6c0.4,0.6,0.8,1.3,1,1.8l-0.7,0.2h5l-0.6-0.2c0.4-0.5,0.8-1.3,1.1-1.8H231.7z M237.1,69.3
			c1.7,0.6,4,1.4,5.2,2l-0.8,0.8c-1.2-0.6-3.5-1.5-5.2-2.1L237.1,69.3z"/>
		<path d="M245.3,58.2h3.8c3,0,4.9,1,4.9,3.9c0,2.8-2,4.1-4.9,4.1h-2.2v5.2h-1.7V58.2z M248.9,64.8c2.3,0,3.4-0.8,3.4-2.7
			c0-1.9-1.2-2.5-3.5-2.5h-1.9v5.3H248.9z"/>
		<path d="M256.6,58.2h2l2.5,7.1c0.3,0.9,0.6,1.8,0.9,2.8h0.1c0.3-0.9,0.6-1.8,0.9-2.8l2.5-7.1h2v13.2h-1.6v-7.3
			c0-1.1,0.1-2.7,0.2-3.9h-0.1l-1,3l-2.5,6.9h-1.1l-2.5-6.9l-1-3H258c0.1,1.2,0.2,2.8,0.2,3.9v7.3h-1.5V58.2z"/>
		<path d="M271.3,58.2h1.7v13.2h-1.7V58.2z"/>
		<path d="M278.4,67.7c-0.4,1.3-1.2,2.7-1.9,3.6c-0.2-0.2-0.7-0.5-0.9-0.6c0.7-0.8,1.3-2.1,1.7-3.2L278.4,67.7z M280.6,66.4v6.2
			h-1.3v-6.2h-3.6v-1.2h3.6v-1.9h-3.7v-1.1h5c0.3-0.8,0.8-2,1-2.8l1.2,0.3c-0.3,0.9-0.7,1.8-1,2.6h2.3v1.1h-3.5v1.9h3.3v1.2H280.6z
			 M283.8,59.3h-7.9v-1.1h3.5c-0.2-0.5-0.5-1.2-0.8-1.6l1.3-0.3c0.4,0.6,0.8,1.4,1,2h2.8V59.3z M277.8,62.2
			c-0.1-0.7-0.4-1.7-0.7-2.5l1.1-0.3c0.4,0.8,0.7,1.8,0.7,2.4L277.8,62.2z M282.3,67.3c0.6,0.9,1.2,2.1,1.5,2.8l-1,0.5
			c-0.3-0.8-0.9-2-1.5-2.9L282.3,67.3z M291.9,63.6h-2v9.1h-1.3v-9.1h-2.5v0.6c0,2.6-0.2,6.1-1.9,8.4c-0.2-0.3-0.7-0.7-1-0.8
			c1.5-2.2,1.7-5.2,1.7-7.6V58c2-0.3,4.3-0.9,5.6-1.4l1.1,1c-1.5,0.6-3.5,1-5.4,1.3v3.4h5.7V63.6z"/>
		<path d="M293.7,59.4h6.8v1.1h-6.8V59.4z M294.4,61.7h5.5v1.1h-5.5V61.7z M294.4,64.1h5.5v1.1h-5.5V64.1z M299.8,71.7h-4.2v0.8
			h-1.2v-6h5.4V71.7z M295.6,67.6v3h3.1v-3H295.6z M297,59.2c-0.3-0.7-0.8-1.7-1.3-2.4l1-0.5c0.5,0.7,1.1,1.7,1.4,2.3L297,59.2z
			 M310,59.1h-2.8v11.6c0,0.9-0.2,1.4-0.9,1.6c-0.6,0.2-1.8,0.3-3.5,0.3c-0.1-0.4-0.3-1-0.5-1.4c1.4,0.1,2.7,0.1,3.1,0
			c0.4,0,0.5-0.1,0.5-0.5V59.1h-5v-1.3h9.1V59.1z"/>
		<path d="M327.7,70.2h-7.3v2.5H319v-2.5h-7.2V69h7.2v-1.4h-5.4v-6.3H326v6.3h-5.7V69h7.3V70.2z M319.1,60.5h-5.9V57h5.9V60.5z
			 M317.8,57.9h-3.4v1.7h3.4V57.9z M314.9,64h4.1v-1.5h-4.1V64z M319,66.6V65h-4.1v1.5H319z M324.7,62.5h-4.3V64h4.3V62.5z
			 M324.7,65h-4.3v1.5h4.3V65z M326.4,60.5h-5.9V57h5.9V60.5z M325.2,57.9h-3.5v1.7h3.5V57.9z"/>
		<path d="M335.7,65.3l-2.3,0.7v5.2c0,0.8-0.2,1.1-0.6,1.4c-0.5,0.2-1.2,0.3-2.4,0.2c-0.1-0.3-0.2-0.9-0.4-1.2c0.8,0,1.6,0,1.8,0
			c0.3,0,0.3-0.1,0.3-0.3v-4.8c-0.9,0.3-1.7,0.5-2.4,0.7l-0.4-1.3c0.8-0.2,1.8-0.5,2.8-0.8v-3.8h-2.6v-1.3h2.6v-3.6h1.3v3.6h2v1.3
			h-2v3.4c0.7-0.2,1.4-0.4,2.1-0.6L335.7,65.3z M339,63.4c-1.8,0-2.3-0.6-2.3-2.1v-4.9h1.3v2.1h7.2v1.2H338v1.6c0,0.7,0.2,0.9,1,0.9
			h4.7c0.6,0,1.6,0,2-0.1c0.1,0.4,0.1,0.9,0.2,1.2c-0.3,0.1-1.2,0.1-2.1,0.1H339z M336.7,64.9h8.4v7.8h-1.3v-0.8H338v0.8h-1.3V64.9z
			 M338,66.1v1.8h5.8v-1.8H338z M343.8,70.8v-1.9H338v1.9H343.8z"/>
		<path d="M362.6,61.1c-0.3,2.8-0.9,5-1.8,6.9c0.8,1.6,1.9,2.9,3.3,3.7c-0.3,0.2-0.7,0.7-0.9,1c-1.3-0.8-2.3-2-3.2-3.5
			c-1,1.5-2.3,2.7-4.1,3.6c-0.1-0.2-0.4-0.6-0.6-0.9l-0.4,0.4c-0.6-0.3-1.4-0.8-2.3-1.1c-1,0.6-2.5,1.1-4.6,1.6
			c-0.1-0.3-0.4-0.7-0.6-0.9c1.7-0.3,3-0.8,3.9-1.2c-0.8-0.3-1.7-0.6-2.6-0.8c0.3-0.4,0.7-1,1.1-1.6h-2.3v-1h2.9
			c0.2-0.4,0.4-0.8,0.6-1.2h-2.7v-2.9h3.4v-0.8h-3v-2h-1.2v-1h1.2v-1.9h3v-1.2h1.1v1.2h3.2v1.9h1v1h-1v2h-3.2v0.8h3.5v1
			c1.2-2,2-4.9,2.5-7.8l1.2,0.2c-0.2,1.1-0.5,2.2-0.8,3.3h4.7v1.2H362.6z M349.5,65.2h2.2V64h-2.2V65.2z M349.9,58.4v1h1.9v-1H349.9
			z M351.8,61.5v-1.2h-1.9v1.2H351.8z M351.1,68.2c-0.2,0.4-0.5,0.7-0.7,1.1c0.6,0.2,1.3,0.4,2,0.7c0.8-0.6,1.2-1.2,1.4-1.8H351.1z
			 M355.8,71.5c1.7-0.9,2.9-2.1,3.7-3.6c-0.6-1.4-1-3-1.3-4.8c-0.3,0.8-0.6,1.4-1,2c-0.2-0.2-0.5-0.5-0.8-0.7v1.7h-4.1
			c-0.2,0.4-0.4,0.8-0.6,1.2h2.3v-0.1v-0.6h1.1v0.6v0.1h1.8v1H355c-0.1,0.7-0.5,1.5-1.4,2.2C354.4,70.8,355.2,71.2,355.8,71.5
			L355.8,71.5z M352.8,58.4v1h2.1v-1H352.8z M354.9,61.5v-1.2h-2.1v1.2H354.9z M352.8,64v1.2h2.3V64H352.8z M358.9,61.1l-0.1,0.2
			c0.3,1.9,0.7,3.7,1.3,5.3c0.6-1.5,1-3.3,1.2-5.5H358.9z"/>
		<path d="M367.4,67c1.4-0.6,2.2-1.4,2.3-2.6c-0.1,0-0.2,0-0.3,0c-0.7,0-1.4-0.4-1.4-1.3s0.6-1.3,1.4-1.3c1,0,1.5,0.8,1.5,2.1
			c0,1.9-1.2,3.4-3.1,4.1L367.4,67z"/>
		<path d="M374.4,72.1c0.6-0.8,1-2.2,1.2-3.3l0.9,0.3c-0.2,1.1-0.6,2.5-1.1,3.4L374.4,72.1z M382.6,68.1h-7.9V67h3.3v-1.4h-3v-1.1h3
			v-1.2h-2.9V57h7.1v6.3h-3v1.2h3.1v1.1h-3.1V67h3.4V68.1z M376.2,62.3h1.9V58h-1.9V62.3z M377.2,58.7c0.3,0.9,0.5,2,0.6,2.7
			l-0.7,0.2c0-0.7-0.3-1.9-0.6-2.7L377.2,58.7z M378,69.1c0.2,1,0.3,2.3,0.3,3.1l-1,0.1c0.1-0.8-0.1-2.1-0.2-3.1L378,69.1z
			 M379.8,69c0.4,0.9,0.7,2.1,0.8,2.9l-0.9,0.2c-0.1-0.8-0.4-2-0.8-2.9L379.8,69z M381.2,58h-2.1v4.3h2.1V58z M379.4,61.5
			c0.3-0.8,0.6-2,0.8-2.9l0.8,0.3c-0.3,0.9-0.7,2.1-1,2.8L379.4,61.5z M381.7,68.8c0.5,0.9,1,2,1.2,2.8L382,72
			c-0.2-0.8-0.6-2-1.1-2.8L381.7,68.8z M387.1,61.5v3.3h3.1v7.9H389v-0.8h-4.5v0.8h-1.2v-7.9h2.6v-8.5h1.3v3.9h3.8v1.3H387.1z
			 M389,66.1h-4.5v4.6h4.5V66.1z"/>
		<path d="M393.4,65.8c0-3.5,1-6.4,2.6-9.1l1,0.5c-1.6,2.6-2.3,5.6-2.3,8.7s0.7,6.1,2.3,8.7l-1,0.5
			C394.4,72.2,393.4,69.3,393.4,65.8z"/>
		<path d="M414.8,71v1.3H402V71h5.9v-5.4h-4v-1.2c-1,2.8-2.5,5.4-4.6,7.3c-0.2-0.3-0.6-0.8-0.9-1c2.6-2.4,4.2-6,5.2-9.8h-4.5v-1.3
			h4.8c0.2-1.1,0.4-2.2,0.6-3.2l1.4,0.2c-0.2,1-0.4,2-0.6,3.1h9.2v1.3H405c-0.3,1.2-0.6,2.3-1,3.4H414v1.3h-4.8V71H414.8z"/>
		<path d="M421.1,68.4h3.3v1.2h-3.3v3.1h-1.2v-3.1h-3.3v-1.2h3.3V67h-2.6v-6.2h2.6v-1.3h-3.1v-1.2h3.1v-1.9h1.2v1.9h3.1v1.2h-3.1
			v1.3h2.7V67h-2.7V68.4z M418.3,63.4h1.7v-1.6h-1.7V63.4z M418.3,66h1.7v-1.6h-1.7V66z M422.8,61.8H421v1.6h1.8V61.8z M422.8,64.3
			H421V66h1.8V64.3z M432.5,60.1v12.5h-1.2v-0.9h-5.4v1h-1.2V60.1h3.2v-3.8h1.3v3.8H432.5z M425.9,61.3v3.8h2v-3.8H425.9z
			 M425.9,70.6h2v-4.2h-2V70.6z M431.3,61.3h-2.2v3.8h2.2V61.3z M431.3,70.6v-4.2h-2.2v4.2H431.3z"/>
		<path d="M434.6,74.4c1.5-2.6,2.3-5.6,2.3-8.7s-0.8-6.1-2.3-8.7l1-0.5c1.7,2.7,2.7,5.6,2.7,9.1c0,3.5-1,6.4-2.7,9.1L434.6,74.4z"/>
		<path d="M443.1,60.2c0-0.8,0.6-1.4,1.4-1.4c0.7,0,1.4,0.5,1.4,1.4c0,0.8-0.6,1.4-1.4,1.4C443.7,61.6,443.1,61.1,443.1,60.2z
			 M443.1,69.1c0-0.8,0.6-1.4,1.4-1.4c0.7,0,1.4,0.5,1.4,1.4c0,0.8-0.6,1.4-1.4,1.4C443.7,70.4,443.1,69.9,443.1,69.1z"/>
		<path d="M452.6,67.7c-0.4,1.3-1.2,2.7-1.9,3.6c-0.2-0.2-0.7-0.5-0.9-0.6c0.7-0.8,1.3-2.1,1.7-3.2L452.6,67.7z M454.8,66.4v6.2
			h-1.3v-6.2h-3.6v-1.2h3.6v-1.9h-3.7v-1.1h5c0.3-0.8,0.8-2,1-2.8l1.2,0.3c-0.3,0.9-0.7,1.8-1,2.6h2.3v1.1h-3.5v1.9h3.3v1.2H454.8z
			 M458,59.3h-7.9v-1.1h3.5c-0.2-0.5-0.5-1.2-0.8-1.6l1.3-0.3c0.4,0.6,0.8,1.4,1,2h2.8V59.3z M451.9,62.2c-0.1-0.7-0.4-1.7-0.7-2.5
			l1.1-0.3c0.4,0.8,0.7,1.8,0.7,2.4L451.9,62.2z M456.5,67.3c0.6,0.9,1.2,2.1,1.5,2.8l-1,0.5c-0.3-0.8-0.9-2-1.5-2.9L456.5,67.3z
			 M466.1,63.6h-2v9.1h-1.3v-9.1h-2.5v0.6c0,2.6-0.2,6.1-1.9,8.4c-0.2-0.3-0.7-0.7-1-0.8c1.5-2.2,1.7-5.2,1.7-7.6V58
			c2-0.3,4.3-0.9,5.6-1.4l1.1,1c-1.5,0.6-3.5,1-5.4,1.3v3.4h5.7V63.6z"/>
		<path d="M467.8,59.4h6.8v1.1h-6.8V59.4z M468.6,61.7h5.5v1.1h-5.5V61.7z M468.6,64.1h5.5v1.1h-5.5V64.1z M474,71.7h-4.2v0.8h-1.2
			v-6h5.4V71.7z M469.8,67.6v3h3.1v-3H469.8z M471.2,59.2c-0.3-0.7-0.8-1.7-1.3-2.4l1-0.5c0.5,0.7,1.1,1.7,1.4,2.3L471.2,59.2z
			 M484.2,59.1h-2.8v11.6c0,0.9-0.2,1.4-0.9,1.6c-0.6,0.2-1.8,0.3-3.5,0.3c-0.1-0.4-0.3-1-0.5-1.4c1.4,0.1,2.7,0.1,3.1,0
			c0.4,0,0.5-0.1,0.5-0.5V59.1h-5v-1.3h9.1V59.1z"/>
		<path d="M501.8,70.2h-7.3v2.5h-1.4v-2.5H486V69h7.2v-1.4h-5.4v-6.3h12.4v6.3h-5.7V69h7.3V70.2z M493.2,60.5h-5.9V57h5.9V60.5z
			 M492,57.9h-3.4v1.7h3.4V57.9z M489.1,64h4.1v-1.5h-4.1V64z M493.2,66.6V65h-4.1v1.5H493.2z M498.8,62.5h-4.3V64h4.3V62.5z
			 M498.8,65h-4.3v1.5h4.3V65z M500.6,60.5h-5.9V57h5.9V60.5z M499.4,57.9h-3.5v1.7h3.5V57.9z"/>
		<path d="M503.7,65.7h4.6V67h-4.6V65.7z"/>
		<path d="M512.6,59.1v4.4c0,2.8-0.2,6.7-1.7,9.3c-0.2-0.3-0.8-0.6-1.1-0.8c1.4-2.5,1.5-6,1.5-8.5v-5.6h7c-0.2-0.4-0.5-0.8-0.7-1.2
			l1.2-0.4c0.4,0.5,0.7,1.1,1,1.6h6.3v1.2H512.6z M526.3,70.6h-6.2v2.1h-1.3v-2.1h-5.9v-1.1h5.9v-1.3h-4.5v-5.4h4.5v-1.2h-5.2v-1.1
			h5.2v-1.1h1.3v1.1h5.7v1.1h-5.7v1.2h4.7v5.4h-4.7v1.3h6.2V70.6z M515.4,65.1h3.3v-1.4h-3.3V65.1z M518.8,67.3v-1.4h-3.3v1.4H518.8
			z M520.1,63.7v1.4h3.5v-1.4H520.1z M523.6,65.9h-3.5v1.4h3.5V65.9z"/>
		<path d="M534.2,59.9c-0.6,1.4-1.4,2.8-2.3,4.1v8.7h-1.3v-7.1c-0.6,0.7-1.4,1.3-2.1,1.9c-0.1-0.3-0.5-0.9-0.7-1.2
			c2.2-1.5,3.8-3.8,5-6.3h-4.4v-1.3h5c0.3-0.8,0.6-1.6,0.8-2.3l1.4,0.3c-0.2,0.7-0.4,1.4-0.7,2h9.2v1.3H534.2z M544.3,67.8h-4.8v3.3
			c0,0.8-0.2,1.2-0.8,1.4c-0.6,0.2-1.6,0.2-3.1,0.2c-0.1-0.4-0.3-0.9-0.4-1.3c1.2,0.1,2.3,0.1,2.6,0c0.3,0,0.4-0.1,0.4-0.3v-3.3h-5
			v-1.3h5v-1.5c0.9-0.5,1.9-1.2,2.6-1.9h-6.1V62h7.3l0.3-0.1l0.9,0.7c-1,1.1-2.4,2.2-3.7,3v1h4.8V67.8z"/>
		<path d="M547.8,67c1.4-0.6,2.2-1.4,2.3-2.6c-0.1,0-0.2,0-0.3,0c-0.7,0-1.4-0.4-1.4-1.3s0.6-1.3,1.4-1.3c1,0,1.5,0.8,1.5,2.1
			c0,1.9-1.2,3.4-3.1,4.1L547.8,67z"/>
		<path d="M554.8,72.1c0.6-0.8,1-2.2,1.2-3.3l0.9,0.3c-0.2,1.1-0.6,2.5-1.1,3.4L554.8,72.1z M563,68.1h-7.9V67h3.3v-1.4h-3v-1.1h3
			v-1.2h-2.9V57h7.1v6.3h-3v1.2h3.1v1.1h-3.1V67h3.4V68.1z M556.7,62.3h1.9V58h-1.9V62.3z M557.6,58.7c0.3,0.9,0.5,2,0.6,2.7
			l-0.7,0.2c0-0.7-0.3-1.9-0.6-2.7L557.6,58.7z M558.5,69.1c0.2,1,0.3,2.3,0.3,3.1l-1,0.1c0.1-0.8-0.1-2.1-0.2-3.1L558.5,69.1z
			 M560.3,69c0.4,0.9,0.7,2.1,0.8,2.9l-0.9,0.2c-0.1-0.8-0.4-2-0.8-2.9L560.3,69z M561.6,58h-2.1v4.3h2.1V58z M559.8,61.5
			c0.3-0.8,0.6-2,0.8-2.9l0.8,0.3c-0.3,0.9-0.7,2.1-1,2.8L559.8,61.5z M562.1,68.8c0.5,0.9,1,2,1.2,2.8l-0.9,0.4
			c-0.2-0.8-0.6-2-1.1-2.8L562.1,68.8z M567.6,61.5v3.3h3.1v7.9h-1.3v-0.8h-4.5v0.8h-1.2v-7.9h2.6v-8.5h1.3v3.9h3.8v1.3H567.6z
			 M569.4,66.1h-4.5v4.6h4.5V66.1z"/>
		<path d="M573.8,65.8c0-3.5,1-6.4,2.6-9.1l1,0.5c-1.6,2.6-2.3,5.6-2.3,8.7s0.7,6.1,2.3,8.7l-1,0.5
			C574.8,72.2,573.8,69.3,573.8,65.8z"/>
		<path d="M585.7,61c-0.5,1.2-1,2.4-1.7,3.5h9.7v8.2h-1.4v-0.9h-8v1h-1.3v-6.9c-0.9,1.2-2,2.4-3.3,3.3c-0.2-0.3-0.6-0.8-0.9-1.1
			c2.5-1.7,4.3-4.3,5.4-7.2h-4.8v-1.3h5.3c0.4-1.1,0.7-2.2,0.9-3.3l1.4,0.3c-0.3,1-0.5,2.1-0.9,3.1h8.9V61H585.7z M584.4,65.7v4.8h8
			v-4.8H584.4z"/>
		<path d="M601.5,68.4h3.3v1.2h-3.3v3.1h-1.2v-3.1H597v-1.2h3.3V67h-2.6v-6.2h2.6v-1.3h-3.1v-1.2h3.1v-1.9h1.2v1.9h3.1v1.2h-3.1v1.3
			h2.7V67h-2.7V68.4z M598.7,63.4h1.7v-1.6h-1.7V63.4z M598.7,66h1.7v-1.6h-1.7V66z M603.2,61.8h-1.8v1.6h1.8V61.8z M603.2,64.3
			h-1.8V66h1.8V64.3z M612.9,60.1v12.5h-1.2v-0.9h-5.4v1h-1.2V60.1h3.2v-3.8h1.3v3.8H612.9z M606.3,61.3v3.8h2v-3.8H606.3z
			 M606.3,70.6h2v-4.2h-2V70.6z M611.7,61.3h-2.2v3.8h2.2V61.3z M611.7,70.6v-4.2h-2.2v4.2H611.7z"/>
		<path d="M615,74.4c1.5-2.6,2.3-5.6,2.3-8.7s-0.8-6.1-2.3-8.7l1-0.5c1.7,2.7,2.7,5.6,2.7,9.1c0,3.5-1,6.4-2.7,9.1L615,74.4z"/>
	</g>
</g>
<g>
	<g>
		<path class="st2" d="M722.1,372.6H48c-2.8,0-5-2.2-5-5V93c4.4-5,10-2,10,2.4v267.2h668.8c2.6,0,4.9,1.9,5.2,4.5
			C727.3,370.1,725,372.6,722.1,372.6z"/>
	</g>
	<g>
		<polygon class="st2" points="36.9,103.6 48,98.9 59.1,103.6 48,77.3 		"/>
	</g>
	<g>
		<polygon class="st2" points="713.8,378.7 718.6,367.6 713.8,356.5 740.2,367.6 		"/>
	</g>
</g>
<rect x="158.1" y="458.5" class="st3" width="13.1" height="13.1"/>
<rect x="527.6" y="458.5" class="st4" width="13.1" height="13.1"/>
<line class="st5" x1="52.5" y1="361.3" x2="702" y2="361.3"/>
<g>
	<g>
		<path d="M188.2,465.8c0,0.4-0.1,0.8-0.2,1.2h7.2v1.4h-7.6c-0.8,2.3-2.8,3.9-7.5,4.6c-0.1-0.5-0.5-1.1-0.8-1.5
			c3.9-0.5,5.7-1.5,6.5-3.1H180V467h6.2c0.1-0.4,0.1-0.8,0.2-1.2h-6.8v-1.5h7V463h-5.4v-1.4h5.4v-1.2h-6.4v-1.5h3.6
			c-0.3-0.6-0.8-1.3-1.2-1.9l1.5-0.6c0.6,0.6,1.2,1.5,1.5,2.2l-0.6,0.3h4.4c0.5-0.7,1.1-1.7,1.4-2.4l1.8,0.5c-0.4,0.7-0.9,1.4-1.3,2
			h3.7v1.5h-6.5v1.2h5.6v1.4h-5.6v1.3h7.3v1.5H188.2z M194.9,473.1c-1.6-1-4.8-2.5-7.2-3.5l0.7-1.3c2.4,0.8,5.6,2.3,7.3,3.3
			L194.9,473.1z"/>
		<path d="M213.1,457.3v15.8h-1.7v-0.8h-11.8v0.8H198v-15.8H213.1z M211.4,470.8v-12h-11.8v12H211.4z M210.1,463.1
			c-0.4,1.6-1.1,3.1-1.9,4.3c0.3,0.8,0.7,1.3,1.2,1.4c0.2,0.1,0.4-0.7,0.5-1.8c0.3,0.3,0.8,0.6,1.1,0.8c-0.3,2.1-1,2.8-2.1,2.3
			c-0.7-0.2-1.2-0.7-1.6-1.5c-0.6,0.7-1.4,1.3-2.1,1.8c-0.2-0.3-0.7-0.8-0.9-1c0.5-0.3,1-0.6,1.4-1c-1.8,0.3-3.6,0.6-5,0.9l-0.2-1.3
			c1.3-0.2,3.3-0.5,5.2-0.8l0,1.1c0.4-0.3,0.8-0.7,1.1-1.1c-0.4-1.4-0.7-3.1-0.9-5h-5.3v-1.2h5.2c0-0.6-0.1-1.2-0.1-1.7h1.4
			c0,0.6,0.1,1.2,0.1,1.7h2.5c-0.4-0.4-1.1-0.9-1.8-1.2l0.8-0.8c0.6,0.3,1.4,0.8,1.8,1.2l-0.8,0.8h1.1v1.2h-3.6
			c0.1,1.3,0.3,2.5,0.5,3.5c0.5-0.9,0.8-1.8,1.1-2.9L210.1,463.1z M205,463.1v3.5h-4v-3.5H205z M203.8,464.1h-1.7v1.5h1.7V464.1z"/>
		<path d="M216.7,469.9h3.7v-9.7h-3.7v-1.8h9.5v1.8h-3.7v9.7h3.7v1.8h-9.5V469.9z"/>
		<path d="M229.6,469.9l1.2-1.5c1.1,1,2.7,1.6,4.2,1.6c1.7,0,3-0.6,3-1.8c0-1.2-1.2-1.7-2.6-2.2l-2.1-0.7c-1.4-0.5-3.1-1.5-3.1-3.5
			c0-2.2,2-3.7,4.8-3.7c1.9,0,3.5,0.7,4.7,1.7l-1.1,1.4c-1-0.8-2.1-1.3-3.6-1.3c-1.5,0-2.7,0.6-2.7,1.7c0,1.1,1.4,1.6,2.6,2l2,0.7
			c1.7,0.6,3.2,1.7,3.2,3.6c0,2.2-2,3.8-5.2,3.8C232.9,471.8,231,471.1,229.6,469.9z"/>
		<path d="M244.2,458.3h2.4l2.9,6.7c0.3,0.9,0.7,1.8,1.1,2.7h0.1c0.4-0.9,0.7-1.8,1.1-2.7l2.9-6.7h2.4v13.3h-1.9v-6.6
			c0-1.2,0.1-2.9,0.3-4.1h-0.1l-1.3,3.1l-2.8,6.3H250l-2.8-6.3l-1.3-3.1h-0.1c0.1,1.2,0.2,2.9,0.2,4.1v6.6h-1.9V458.3z"/>
		<path d="M275.9,468.4c-0.9,0.6-2,1.3-3,1.7c1.1,0.6,2.5,1.1,4.1,1.4c-0.3,0.3-0.7,0.9-0.9,1.3c-3.6-0.7-6-2.4-7.3-5.2
			c-0.8,0.6-1.8,1.2-2.9,1.7v1.9l3.8-0.8c0,0.4-0.1,1-0.1,1.3c-4.5,1.1-5.1,1.2-5.5,1.5V473c-0.1-0.4-0.4-0.9-0.5-1.1
			c0.3-0.2,0.8-0.6,0.8-1.5v-0.5c-1,0.4-2,0.6-3,0.8c-0.2-0.3-0.6-0.9-0.9-1.2c2.2-0.3,4.5-1.1,6.2-2h-5.9v-1.3h7.4
			c-0.1-0.4-0.3-0.7-0.5-1l0.3-0.1c-0.3,0-0.6,0-1,0c-0.1-0.3-0.3-0.7-0.4-1c0.5,0,1,0,1.1,0c0.2,0,0.2-0.1,0.2-0.2v-1.1H266v2.8
			h-1.4v-2.8h-1.8v2.4h-1.3v-3.4h3.1V461h-3.9v-1.2h1.2c-0.3-0.2-0.8-0.5-1-0.6c0.6-0.7,1.1-1.7,1.4-2.7l1.3,0.3
			c-0.1,0.3-0.2,0.6-0.3,0.9h1.4v-1.2h1.4v1.2h3.1v1.1H266v0.9h3.6v1.2H266v0.8h3.2v2.1c0,0.5-0.1,0.8-0.3,1l0.3-0.1
			c0.3,0.5,0.6,1,0.8,1.5h6.7v1.3h-6.4c0.4,0.7,0.9,1.3,1.5,1.8c1-0.5,2.2-1.2,3-1.8L275.9,468.4z M264.6,459.8v-0.9h-2
			c-0.2,0.3-0.4,0.6-0.6,0.9H264.6z M272.4,463.3h-1.5v-5.9h1.5V463.3z M275.8,463.9c0,0.8-0.2,1.2-0.7,1.4
			c-0.5,0.2-1.4,0.3-2.6,0.3c-0.1-0.4-0.3-1-0.5-1.4c0.9,0,1.8,0,2,0c0.3,0,0.3-0.1,0.3-0.3v-7.3h1.5V463.9z"/>
		<path d="M283.3,465.3c-0.2,1.5-0.6,2.8-1.1,3.9c1.1,1.9,3.3,2.1,6.4,2.1c1.9,0,4.6-0.1,6.5-0.3c-0.3,0.4-0.5,1.1-0.5,1.6
			c-1.7,0.1-4,0.2-6,0.2c-3.4,0-5.6-0.4-7-2.3c-0.7,1.1-1.4,1.9-2.3,2.6c-0.2-0.3-0.8-0.9-1.1-1.1c1.6-1.1,2.8-3,3.4-5.6h-1.7
			c-0.4,0-0.9,0.1-1.1,0.3c-0.1-0.4-0.4-1.1-0.6-1.4c0.3-0.1,0.6-0.2,0.9-0.6c0.4-0.4,1.2-1.6,1.9-2.6h-2.5v-1.4h3.5l0.2-0.1
			l1.1,0.4c-0.7,1-1.9,2.8-2.8,4.1h1.7l0.3,0L283.3,465.3z M281.5,460.1c-0.5-0.7-1.5-2-2.3-2.8l1.2-0.8c0.8,0.9,1.8,2,2.3,2.7
			L281.5,460.1z M286,460.1c-0.4,0.6-0.8,1.2-1.2,1.7c-0.3-0.2-1-0.6-1.4-0.8c1.1-1.1,1.9-2.7,2.4-4.3l1.5,0.3
			c-0.2,0.5-0.4,1.1-0.6,1.6h1.6v-2.1h1.7v2.1h3.9v1.4H290v1.9h4.6v1.4h-11V462h4.8v-1.9H286z M284.9,469.9v-5.2h8.6v5.2H284.9z
			 M286.5,468.6h5.3v-2.5h-5.3V468.6z"/>
		<path d="M303.2,470.2c-1.3,1-3.5,1.9-5.4,2.3c-0.2-0.4-0.7-0.9-1-1.2c1.8-0.3,4-0.9,5.1-1.7L303.2,470.2z M312.6,467.5v1.4h-7.1
			v4.2h-1.6v-4.2h-7v-1.4h7v-1.1h-5.3v-1.3h5.3V464h-6.2v-1.3h3.6c-0.2-0.5-0.5-1.1-0.8-1.5l1-0.3h-4.6v-1.3h2.7
			c-0.3-0.7-0.8-1.7-1.3-2.4l1.5-0.5c0.6,0.8,1.2,1.9,1.4,2.6l-1,0.4h2v-3.1h1.6v3.1h1.8v-3.1h1.6v3.1h2l-0.7-0.2
			c0.4-0.7,1-1.9,1.3-2.7l1.7,0.4c-0.5,0.9-1,1.8-1.5,2.4h2.6v1.3h-4.7l1.4,0.4c-0.4,0.5-0.8,1-1.2,1.4h3.8v1.3h-6.4v1.1h5.5v1.3
			h-5.5v1.1H312.6z M302.1,460.9c0.4,0.5,0.7,1.2,0.8,1.6l-0.8,0.2h4.9l-0.6-0.2c0.3-0.5,0.8-1.1,1-1.6H302.1z M307.6,469.5
			c1.6,0.6,3.8,1.4,5,2l-1.1,1c-1.1-0.6-3.3-1.5-5-2.1L307.6,469.5z"/>
		<path d="M316.4,458.3h4.5c3.4,0,5.7,1,5.7,4c0,2.9-2.3,4.2-5.6,4.2h-2.5v5h-2.1V458.3z M320.8,464.9c2.5,0,3.7-0.8,3.7-2.6
			c0-1.8-1.4-2.3-3.8-2.3h-2.2v4.9H320.8z"/>
		<path d="M329.8,458.3h2.4l2.9,6.7c0.3,0.9,0.7,1.8,1.1,2.7h0.1c0.4-0.9,0.7-1.8,1.1-2.7l2.9-6.7h2.4v13.3h-1.9v-6.6
			c0-1.2,0.1-2.9,0.3-4.1h-0.1l-1.3,3.1l-2.8,6.3h-1.3l-2.8-6.3l-1.3-3.1h-0.1c0.1,1.2,0.2,2.9,0.2,4.1v6.6h-1.9V458.3z"/>
		<path d="M347.3,469.9h3.7v-9.7h-3.7v-1.8h9.5v1.8h-3.7v9.7h3.7v1.8h-9.5V469.9z"/>
		<path d="M362.6,468c-0.5,1.3-1.2,2.7-1.8,3.6c-0.3-0.2-0.8-0.6-1.2-0.8c0.7-0.8,1.3-2.1,1.7-3.2L362.6,468z M364.9,466.8v6.1h-1.6
			v-6.1h-3.5v-1.4h3.5v-1.6h-3.6v-1.4h2c-0.1-0.6-0.3-1.5-0.6-2.2l1.4-0.3c0.3,0.7,0.6,1.6,0.7,2.2l-1.3,0.4h2.8
			c0.3-0.8,0.7-1.9,0.9-2.6l1.5,0.3c-0.3,0.8-0.6,1.6-0.9,2.3h2.1v1.4h-3.3v1.6h3.1v1.4H364.9z M368,459.7H360v-1.4h3.3
			c-0.2-0.5-0.4-1.1-0.6-1.5l1.7-0.4c0.3,0.6,0.7,1.4,0.9,2h2.7V459.7z M366.7,467.5c0.6,0.8,1.2,2,1.5,2.7l-1.2,0.7
			c-0.3-0.8-0.9-1.9-1.4-2.8L366.7,467.5z M376.2,464h-1.8v8.9h-1.6V464h-2.1v0.4c0,2.6-0.2,6.2-1.8,8.5c-0.3-0.3-0.9-0.8-1.3-1
			c1.4-2.1,1.5-5.1,1.5-7.5v-6.2c2-0.3,4.2-0.9,5.5-1.5l1.3,1.2c-1.5,0.6-3.4,1-5.3,1.3v3.2h5.6V464z"/>
		<path d="M381.1,459.5h3.6v1.3h-6.9v-1.3H381.1c-0.3-0.7-0.9-1.7-1.4-2.4l1.3-0.7c0.5,0.8,1.1,1.7,1.3,2.4L381.1,459.5z
			 M378.6,461.9h5.6v1.3h-5.6V461.9z M378.6,464.3h5.6v1.3h-5.6V464.3z M384.1,472H380v0.8h-1.4v-6.1h5.5V472z M380,468.1v2.6h2.6
			v-2.6H380z M394.2,459.6h-2.6v11.1c0,1-0.3,1.6-1,1.8c-0.7,0.3-1.9,0.3-3.6,0.3c-0.1-0.5-0.4-1.3-0.7-1.7c1.3,0.1,2.7,0.1,3.1,0.1
			c0.4,0,0.5-0.1,0.5-0.5v-11.1H385V458h9.1V459.6z"/>
		<path d="M411.9,470.6h-7.2v2.4H403v-2.4h-7v-1.5h7V468h-5.2v-6.5h12.5v6.5h-5.5v1.2h7.2V470.6z M403.3,460.7h-6.1v-3.5h6.1V460.7z
			 M401.7,458.3h-3v1.4h3V458.3z M399.4,464.1h3.6v-1.3h-3.6V464.1z M403,466.7v-1.3h-3.6v1.3H403z M410.7,460.7h-6.2v-3.5h6.2
			V460.7z M408.5,462.9h-3.8v1.3h3.8V462.9z M408.5,465.4h-3.8v1.3h3.8V465.4z M409.1,458.3h-3.1v1.4h3.1V458.3z"/>
		<path d="M429.1,468.4c-0.9,0.6-2,1.3-3,1.7c1.1,0.6,2.5,1.1,4.1,1.4c-0.3,0.3-0.7,0.9-0.9,1.3c-3.6-0.7-6-2.4-7.3-5.2
			c-0.8,0.6-1.8,1.2-2.9,1.7v1.9l3.8-0.8c0,0.4-0.1,1-0.1,1.3c-4.5,1.1-5.1,1.2-5.5,1.5V473c-0.1-0.4-0.4-0.9-0.5-1.1
			c0.3-0.2,0.8-0.6,0.8-1.5v-0.5c-1,0.4-2,0.6-3,0.8c-0.2-0.3-0.6-0.9-0.9-1.2c2.2-0.3,4.5-1.1,6.2-2H414v-1.3h7.4
			c-0.1-0.4-0.3-0.7-0.5-1l0.3-0.1c-0.3,0-0.6,0-1,0c-0.1-0.3-0.3-0.7-0.4-1c0.5,0,1,0,1.1,0c0.2,0,0.2-0.1,0.2-0.2v-1.1h-1.9v2.8
			h-1.4v-2.8H416v2.4h-1.3v-3.4h3.1V461h-3.9v-1.2h1.2c-0.3-0.2-0.8-0.5-1-0.6c0.6-0.7,1.1-1.7,1.4-2.7l1.3,0.3
			c-0.1,0.3-0.2,0.6-0.3,0.9h1.4v-1.2h1.4v1.2h3.1v1.1h-3.1v0.9h3.6v1.2h-3.6v0.8h3.2v2.1c0,0.5-0.1,0.8-0.3,1l0.3-0.1
			c0.3,0.5,0.6,1,0.8,1.5h6.7v1.3h-6.4c0.4,0.7,0.9,1.3,1.5,1.8c1-0.5,2.2-1.2,3-1.8L429.1,468.4z M417.8,459.8v-0.9h-2
			c-0.2,0.3-0.4,0.6-0.6,0.9H417.8z M425.6,463.3h-1.5v-5.9h1.5V463.3z M429,463.9c0,0.8-0.2,1.2-0.7,1.4c-0.5,0.2-1.4,0.3-2.6,0.3
			c-0.1-0.4-0.3-1-0.5-1.4c0.9,0,1.8,0,2,0c0.3,0,0.3-0.1,0.3-0.3v-7.3h1.5V463.9z"/>
		<path d="M436.5,465.3c-0.2,1.5-0.6,2.8-1.1,3.9c1.1,1.9,3.3,2.1,6.4,2.1c1.9,0,4.6-0.1,6.5-0.3c-0.3,0.4-0.5,1.1-0.5,1.6
			c-1.7,0.1-4,0.2-6,0.2c-3.4,0-5.6-0.4-7-2.3c-0.7,1.1-1.4,1.9-2.3,2.6c-0.2-0.3-0.8-0.9-1.1-1.1c1.6-1.1,2.8-3,3.4-5.6h-1.7
			c-0.4,0-0.9,0.1-1.1,0.3c-0.1-0.4-0.4-1.1-0.6-1.4c0.3-0.1,0.6-0.2,0.9-0.6c0.4-0.4,1.2-1.6,1.9-2.6h-2.5v-1.4h3.5l0.2-0.1
			l1.1,0.4c-0.7,1-1.9,2.8-2.8,4.1h1.7l0.3,0L436.5,465.3z M434.7,460.1c-0.5-0.7-1.5-2-2.3-2.8l1.2-0.8c0.8,0.9,1.8,2,2.3,2.7
			L434.7,460.1z M439.2,460.1c-0.4,0.6-0.8,1.2-1.2,1.7c-0.3-0.2-1-0.6-1.4-0.8c1.1-1.1,1.9-2.7,2.4-4.3l1.5,0.3
			c-0.2,0.5-0.4,1.1-0.6,1.6h1.6v-2.1h1.7v2.1h3.9v1.4h-3.9v1.9h4.6v1.4h-11V462h4.8v-1.9H439.2z M438.1,469.9v-5.2h8.6v5.2H438.1z
			 M439.7,468.6h5.3v-2.5h-5.3V468.6z"/>
		<path d="M456.4,470.2c-1.3,1-3.5,1.9-5.4,2.3c-0.2-0.4-0.7-0.9-1-1.2c1.8-0.3,4-0.9,5.1-1.7L456.4,470.2z M465.8,467.5v1.4h-7.1
			v4.2h-1.6v-4.2h-7v-1.4h7v-1.1h-5.3v-1.3h5.3V464h-6.2v-1.3h3.6c-0.2-0.5-0.5-1.1-0.8-1.5l1-0.3h-4.6v-1.3h2.7
			c-0.3-0.7-0.8-1.7-1.3-2.4l1.5-0.5c0.6,0.8,1.2,1.9,1.4,2.6l-1,0.4h2v-3.1h1.6v3.1h1.8v-3.1h1.6v3.1h2l-0.7-0.2
			c0.4-0.7,1-1.9,1.3-2.7l1.7,0.4c-0.5,0.9-1,1.8-1.5,2.4h2.6v1.3H461l1.4,0.4c-0.4,0.5-0.8,1-1.2,1.4h3.8v1.3h-6.4v1.1h5.5v1.3
			h-5.5v1.1H465.8z M455.3,460.9c0.4,0.5,0.7,1.2,0.8,1.6l-0.8,0.2h4.9l-0.6-0.2c0.3-0.5,0.8-1.1,1-1.6H455.3z M460.8,469.5
			c1.6,0.6,3.8,1.4,5,2l-1.1,1c-1.1-0.6-3.3-1.5-5-2.1L460.8,469.5z"/>
		<path d="M474,465.7l-2.2,0.6v4.8c0,0.9-0.2,1.3-0.7,1.6c-0.5,0.3-1.3,0.3-2.5,0.3c-0.1-0.4-0.3-1.1-0.5-1.5c0.8,0,1.5,0,1.7,0
			c0.2,0,0.3-0.1,0.3-0.3v-4.3c-0.8,0.2-1.6,0.5-2.3,0.6l-0.5-1.6c0.8-0.2,1.7-0.4,2.7-0.7v-3.5h-2.4V460h2.4v-3.5h1.7v3.5h1.9v1.6
			h-1.9v3.1c0.6-0.2,1.3-0.4,1.9-0.5L474,465.7z M477.4,463.7c-2,0-2.7-0.6-2.7-2.4v-4.8h1.7v2.1h7.1v1.4h-7.1v1.3c0,0.7,0.2,1,1,1
			h4.4c0.6,0,1.6,0,2.1-0.1c0.1,0.5,0.1,1.1,0.2,1.4c-0.4,0.1-1.3,0.1-2.2,0.1H477.4z M474.8,465.1h8.5v7.9h-1.7v-0.7h-5.3v0.8h-1.6
			V465.1z M476.4,466.5v1.5h5.3v-1.5H476.4z M481.7,470.9v-1.6h-5.3v1.6H481.7z"/>
		<path d="M500.9,461.4c-0.3,2.7-0.8,4.9-1.7,6.8c0.8,1.5,1.8,2.7,3.2,3.5c-0.3,0.3-0.8,0.9-1.1,1.3c-1.3-0.8-2.3-1.9-3-3.3
			c-1,1.4-2.3,2.5-4,3.4c-0.1-0.2-0.4-0.6-0.6-1l-0.5,0.4c-0.6-0.3-1.4-0.7-2.2-1.1c-1.1,0.6-2.6,1.1-4.7,1.5
			c-0.1-0.3-0.4-0.8-0.7-1.1c1.7-0.3,2.9-0.7,3.9-1.1c-0.9-0.3-1.7-0.6-2.5-0.8c0.3-0.4,0.7-0.9,1-1.5h-2.1v-1.2h2.8
			c0.2-0.3,0.4-0.7,0.5-1h-2.6v-3h3.3v-0.7h-2.9v-2h-1.2v-1.2h1.2v-1.9h2.9v-1.1h1.3v1.1h3.1v1.9h1v1.2h-1v2h-3.1v0.7h3.4v0.9
			c1.1-2,1.9-4.9,2.4-7.7l1.4,0.3c-0.2,1.1-0.4,2.1-0.7,3.2h4.5v1.5H500.9z M488,465.4h1.9v-1H488V465.4z M488.2,458.7v0.8h1.6v-0.8
			H488.2z M489.8,461.6v-1h-1.6v1H489.8z M489.4,468.6c-0.2,0.3-0.4,0.6-0.5,0.9c0.6,0.2,1.2,0.4,1.9,0.6c0.7-0.5,1-1,1.2-1.5H489.4
			z M493.3,468.6c-0.2,0.7-0.5,1.4-1.2,2c0.7,0.3,1.4,0.6,1.9,0.9c1.5-0.8,2.7-2,3.5-3.4c-0.5-1.3-0.9-2.7-1.2-4.3
			c-0.3,0.6-0.6,1.2-0.9,1.8c-0.2-0.2-0.6-0.6-0.9-0.9v1.6h-3.9c-0.2,0.3-0.3,0.6-0.5,1h2v-0.6h1.3v0.6h1.7v1.2H493.3z M491.1,458.7
			v0.8h1.8v-0.8H491.1z M492.9,461.6v-1h-1.8v1H492.9z M491.1,464.4v1h2v-1H491.1z M497.2,461.4l-0.1,0.1c0.3,1.7,0.7,3.4,1.2,4.9
			c0.5-1.4,0.9-3.1,1.1-5H497.2z"/>
		<path d="M551.2,468c-0.5,1.3-1.2,2.7-1.8,3.6c-0.3-0.2-0.8-0.6-1.2-0.8c0.7-0.8,1.3-2.1,1.7-3.2L551.2,468z M553.5,466.8v6.1h-1.6
			v-6.1h-3.5v-1.4h3.5v-1.6h-3.6v-1.4h2c-0.1-0.6-0.3-1.5-0.6-2.2l1.4-0.3c0.3,0.7,0.6,1.6,0.7,2.2l-1.3,0.4h2.8
			c0.3-0.8,0.7-1.9,0.9-2.6l1.5,0.3c-0.3,0.8-0.6,1.6-0.9,2.3h2.1v1.4h-3.3v1.6h3.1v1.4H553.5z M556.5,459.7h-7.9v-1.4h3.3
			c-0.2-0.5-0.4-1.1-0.6-1.5l1.7-0.4c0.3,0.6,0.7,1.4,0.9,2h2.7V459.7z M555.2,467.5c0.6,0.8,1.2,2,1.5,2.7l-1.2,0.7
			c-0.3-0.8-0.9-1.9-1.4-2.8L555.2,467.5z M564.7,464h-1.8v8.9h-1.6V464h-2.1v0.4c0,2.6-0.2,6.2-1.8,8.5c-0.3-0.3-0.9-0.8-1.3-1
			c1.4-2.1,1.5-5.1,1.5-7.5v-6.2c2-0.3,4.2-0.9,5.5-1.5l1.3,1.2c-1.5,0.6-3.4,1-5.3,1.3v3.2h5.6V464z"/>
		<path d="M569.7,459.5h3.6v1.3h-6.9v-1.3H569.7c-0.3-0.7-0.9-1.7-1.4-2.4l1.3-0.7c0.5,0.8,1.1,1.7,1.3,2.4L569.7,459.5z
			 M567.1,461.9h5.6v1.3h-5.6V461.9z M567.1,464.3h5.6v1.3h-5.6V464.3z M572.6,472h-4.1v0.8h-1.4v-6.1h5.5V472z M568.6,468.1v2.6
			h2.6v-2.6H568.6z M582.7,459.6h-2.6v11.1c0,1-0.3,1.6-1,1.8c-0.7,0.3-1.9,0.3-3.6,0.3c-0.1-0.5-0.4-1.3-0.7-1.7
			c1.3,0.1,2.7,0.1,3.1,0.1c0.4,0,0.5-0.1,0.5-0.5v-11.1h-4.9V458h9.1V459.6z"/>
		<path d="M600.4,470.6h-7.2v2.4h-1.7v-2.4h-7v-1.5h7V468h-5.2v-6.5h12.5v6.5h-5.5v1.2h7.2V470.6z M591.9,460.7h-6.1v-3.5h6.1V460.7
			z M590.3,458.3h-3v1.4h3V458.3z M587.9,464.1h3.6v-1.3h-3.6V464.1z M591.5,466.7v-1.3h-3.6v1.3H591.5z M599.3,460.7h-6.2v-3.5h6.2
			V460.7z M597.1,462.9h-3.8v1.3h3.8V462.9z M597.1,465.4h-3.8v1.3h3.8V465.4z M597.7,458.3h-3.1v1.4h3.1V458.3z"/>
		<path d="M616.9,465.6h-13v-1.5h13V465.6z"/>
		<path d="M623.2,459.4v4.2c0,2.8-0.3,6.8-1.8,9.4c-0.3-0.3-1-0.8-1.3-1c1.4-2.4,1.6-5.9,1.6-8.4V458h6.9c-0.2-0.4-0.4-0.7-0.6-1.1
			l1.6-0.5c0.3,0.5,0.7,1,0.9,1.5h6.2v1.4H623.2z M636.6,471h-6v1.9H629V471h-5.7v-1.4h5.7v-1.1h-4.4V463h4.4v-1h-5v-1.3h5v-1h1.6v1
			h5.5v1.3h-5.5v1h4.6v5.5h-4.6v1.1h6V471z M626.1,465.3h2.9v-1.1h-2.9V465.3z M629,467.5v-1.2h-2.9v1.2H629z M630.6,464.1v1.1h3
			v-1.1H630.6z M633.6,466.3h-3v1.2h3V466.3z"/>
		<path d="M644.7,460.5c-0.6,1.4-1.4,2.7-2.2,3.9v8.7h-1.7v-6.7c-0.6,0.6-1.2,1.1-1.9,1.6c-0.2-0.5-0.6-1.2-0.8-1.6
			c2.1-1.4,3.7-3.6,4.8-5.9h-4.2v-1.6h4.9c0.3-0.8,0.5-1.6,0.8-2.3l1.7,0.4c-0.2,0.6-0.4,1.3-0.6,1.9h8.9v1.6H644.7z M654.6,468.3
			h-4.5v2.9c0,0.9-0.2,1.4-0.8,1.6c-0.6,0.3-1.7,0.3-3.2,0.3c-0.1-0.5-0.3-1.1-0.5-1.6c1.1,0.1,2.1,0.1,2.4,0c0.3,0,0.4-0.1,0.4-0.3
			v-2.8h-4.8v-1.6h4.8v-1.4c0.7-0.4,1.5-1.1,2.2-1.7h-5.5v-1.5h7.1l0.3-0.1l1.1,0.8c-0.9,1-2.2,2.1-3.5,2.9v0.9h4.5V468.3z"/>
	</g>
</g>
<rect x="53.5" y="114.3" class="st6" width="649.9" height="246.5"/>
<line class="st5" x1="53.1" y1="319.8" x2="703" y2="319.8"/>
<line class="st5" x1="53.1" y1="278.5" x2="703" y2="278.5"/>
<line class="st5" x1="53.1" y1="237.4" x2="703" y2="237.4"/>
<line class="st5" x1="53.1" y1="196.4" x2="703" y2="196.4"/>
<line class="st5" x1="53.1" y1="155" x2="703" y2="155"/>
<line class="st5" x1="53.1" y1="114" x2="703" y2="114"/>
<g>
	<defs>
		<rect id="SVGID_1_" x="53.1" y="114" width="652.2" height="248.8"/>
	</defs>
	<clipPath id="SVGID_00000140731377595105058960000017357902878900901789_">
		<use xlink:href="#SVGID_1_"  style="overflow:visible;"/>
	</clipPath>
	
		<polyline style="clip-path:url(#SVGID_00000140731377595105058960000017357902878900901789_);fill:none;stroke:#910000;stroke-width:2.0604;stroke-linejoin:round;stroke-miterlimit:10;" points="
		-215.4,194.8 -212.1,201.6 -208.8,212 -205.6,215.3 -202.7,231.2 -199.4,237.4 -196.1,229.3 -192.9,237.4 -189.6,242 -186.4,243.9 
		-183.1,241 -180.2,270 -176.9,285 -173.6,279.1 -170.4,272.3 -167.1,256 -163.9,258.2 -160.6,246.6 -157.4,240.6 -154.4,219.8 
		-151.1,232.2 -147.9,283 -144.6,241 -141.4,231.6 -138.1,215.9 -134.9,193.4 -131.6,180.7 -128.7,196.7 -125.4,188.9 -122.2,191.5 
		-118.9,229.6 -115.6,234.8 -112.4,225.3 -109.1,228.6 -105.9,237.8 -102.9,201.6 -99.7,203.5 -96.4,229.6 -93.2,248.8 -89.9,248.8 
		-86.7,223.4 -83.4,222.4 -80.1,209.4 -77.2,191.8 -73.9,193.1 -70.7,178.1 -67.4,158.9 -64.2,149.8 -60.9,152.7 -57.7,169.7 
		-54.4,177.5 -51.4,167 -48.2,177.8 -44.9,192.5 -41.7,184.6 -38.4,187.6 -35.2,205.8 -31.9,202.9 -28.7,195.7 -25.7,170.3 
		-22.4,204.9 -19.2,213 -15.9,205.8 -12.7,223.4 -9.4,229.9 -6.2,214 -3.2,207.8 0,205.2 3.3,192.5 6.5,190.5 9.8,191.5 13,195.7 
		16.3,201 19.6,192.2 22.5,208.8 25.8,214 29,217.2 32.3,216.9 35.5,213.7 38.8,215.6 42,217.5 45.3,220.5 48.3,234.1 51.5,231.6 
		54.8,228.3 58,216.5 61.3,236.4 64.5,206.8 67.8,201.9 71.1,205.8 74,201.9 77.3,219.2 80.5,219.2 83.8,211 87,227.6 90.3,251.7 
		93.6,245.6 96.8,252.1 99.7,255.6 103,251.7 106.3,243.6 109.5,238.7 112.8,249.8 116,251.1 119.3,271.3 122.6,306.5 125.5,329.6 
		128.7,347.5 132,312.3 135.3,308.1 138.5,277.2 141.8,251.7 145.1,241.7 148,230.2 151.2,206.1 154.5,169 157.7,182.7 161,196.7 
		164.3,193.8 167.6,184 170.8,184.3 173.7,208.1 177,190.5 180.2,186.3 183.5,183.7 186.8,196.4 190.1,208.8 193.3,209.1 
		196.6,223.1 199.5,198.3 202.7,204.9 206,197 209.3,186 212.5,188.5 215.8,188.5 219.1,194.8 222.3,227.6 225.2,214 228.5,217.2 
		231.8,228.6 235,230.9 238.3,227.6 241.6,215.9 244.8,215.3 248.1,215.9 251,215.9 254.2,214.6 257.5,213.7 260.8,208.1 264,232.2 
		267.3,236.1 270.6,239 273.8,223.1 276.7,229.9 280,231.6 283.3,237.1 286.5,234.1 289.8,214 293,230.2 296.3,238.7 299.2,239 
		302.5,214 305.8,200 309,181.4 312.3,190.8 315.5,190.8 318.8,182.4 322,178.1 325,232.5 328.2,218.8 331.5,216.5 334.8,216.5 
		338,209.1 341.3,201 344.5,182.4 347.8,168.7 350.7,196.4 354,172.3 357.2,171.6 360.5,205.2 363.8,225.3 367,227 370.3,229.9 
		373.5,223.1 376.5,213.7 379.7,212.6 383,210.7 386.2,230.2 389.5,237.1 392.7,225.3 396,242 399.3,242.3 402.2,231.2 405.5,231.2 
		408.7,203.2 412,213.7 415.2,214 418.5,208.8 421.7,209.1 425,241 428,216.5 431.2,228.6 434.5,225.1 437.7,195.1 441,194.8 
		444.2,175.2 447.5,177.8 450.7,206.5 453.7,198.3 457,181.8 460.2,194.8 463.5,195.1 466.7,177.5 470,182.4 473.2,179.7 
		476.2,165.8 479.4,173.9 482.7,179.1 485.9,188.5 489.2,191.5 492.5,181.1 495.7,181.8 499,195.4 501.9,175.2 505.2,188.9 
		508.4,206.8 511.7,187.6 514.9,232.2 518.2,203.5 521.4,214.6 524.7,206.8 527.7,230.2 530.9,226.3 534.2,237.4 537.4,234.1 
		540.7,248.8 543.9,248.5 547.2,241 550.5,248.8 553.4,247.2 556.7,229.3 559.9,238.1 563.2,269.3 566.4,331.6 569.7,312.3 
		572.9,211 576.2,190.2 579.1,165.1 582.4,195.4 585.7,163.8 588.9,175.2 592.2,165.4 595.5,191.8 598.7,176.5 602,163.5 
		604.9,178.5 608.1,167.4 611.4,171.6 614.7,176.2 617.9,168.7 621.2,168.7 624.5,197 627.4,190.2 630.6,192.2 633.9,204.9 
		637.1,189.2 640.4,221.8 643.7,223.1 647,216.5 650.2,240.6 653.1,245.6 656.4,232.2 659.6,249.4 662.9,240.6 666.2,248.8 
		669.5,257.6 672.7,268.4 676,249.8 678.9,260.9 682.1,255 685.4,267.7 688.6,255.6 691.9,248.5 695.2,250.5 698.5,240.6 701.7,256 
			"/>
</g>
<g>
	<defs>
		<rect id="SVGID_00000032616579891085071820000009800293258969515163_" x="53.1" y="114" width="652.2" height="248.8"/>
	</defs>
	<clipPath id="SVGID_00000005966497511021325570000003677691097477330066_">
		<use xlink:href="#SVGID_00000032616579891085071820000009800293258969515163_"  style="overflow:visible;"/>
	</clipPath>
	
		<polyline style="clip-path:url(#SVGID_00000005966497511021325570000003677691097477330066_);fill:none;stroke:#EF7E00;stroke-width:2.0604;stroke-linejoin:round;stroke-miterlimit:10;" points="
		-215.4,206.1 -212.1,180.7 -208.8,201.6 -205.6,199 -202.7,218.6 -199.4,225.1 -196.1,223.1 -192.9,225.3 -189.6,225.1 -186.4,227 
		-183.1,211.4 -180.2,230.2 -176.9,251.4 -173.6,255 -170.4,246.6 -167.1,213.7 -163.9,209.8 -160.6,204.9 -157.4,187.6 
		-154.4,168.7 -151.1,186.3 -147.9,234.8 -144.6,195.4 -141.4,180.7 -138.1,171.6 -134.9,151.1 -131.6,145.2 -128.7,168.1 
		-125.4,163.5 -122.2,163.5 -118.9,199.6 -115.6,215.9 -112.4,200 -109.1,195.7 -105.9,209.4 -102.9,181.8 -99.7,179.7 -96.4,201 
		-93.2,217.2 -89.9,220.5 -86.7,205.8 -83.4,189.5 -80.1,194.1 -77.2,163.5 -73.9,165.8 -70.7,160.2 -67.4,157.6 -64.2,132.9 
		-60.9,143.9 -57.7,165.4 -54.4,169 -51.4,147.2 -48.2,172.9 -44.9,198 -41.7,187.9 -38.4,196.4 -35.2,212.3 -31.9,200 -28.7,194.8 
		-25.7,181.8 -22.4,219.2 -19.2,217.2 -15.9,226.3 -12.7,217.2 -9.4,223.7 -6.2,205.8 -3.2,189.2 0,193.1 3.3,190.5 6.5,176.2 
		9.8,179.1 13,181.4 16.3,190.5 19.6,200.3 22.5,208.8 25.8,220.2 29,211 32.3,206.5 35.5,205.2 38.8,219.8 42,205.2 45.3,210.4 
		48.3,223.7 51.5,221.4 54.8,189.2 58,204.2 61.3,232.5 64.5,194.8 67.8,185.7 71.1,185.3 74,187.6 77.3,204.9 80.5,184.3 
		83.8,192.5 87,209.1 90.3,229.3 93.6,241.7 96.8,240 99.7,241 103,247.8 106.3,235.5 109.5,238.7 112.8,225.1 116,253.1 
		119.3,242.3 122.6,279.7 125.5,282.4 128.7,298.3 132,262.8 135.3,258.9 138.5,207.5 141.8,187.9 145.1,171.6 148,152.4 
		151.2,134.2 154.5,111.4 157.7,147.8 161,182.4 164.3,150.5 167.6,148.8 170.8,168.1 173.7,204.2 177,217.2 180.2,188.5 183.5,167 
		186.8,179.7 190.1,204.5 193.3,221.4 196.6,247.8 199.5,210.7 202.7,221.4 206,197 209.3,194.1 212.5,190.5 215.8,184.3 219.1,213 
		222.3,221.4 225.2,228.3 228.5,209.1 231.8,247.2 235,239 238.3,213 241.6,201.6 244.8,196.7 248.1,214 251,214 254.2,214.6 
		257.5,207.5 260.8,191.8 264,207.5 267.3,232.2 270.6,251.4 273.8,225.1 276.7,229.9 280,211 283.3,208.1 286.5,238.1 289.8,220.2 
		293,228.3 296.3,224.4 299.2,234.8 302.5,215.9 305.8,187.6 309,171.3 312.3,190.8 315.5,201.3 318.8,184.3 322,165.8 325,207.8 
		328.2,229.3 331.5,226.7 334.8,228.6 338,221.4 341.3,213 344.5,176.2 347.8,176.8 350.7,202.6 354,182.7 357.2,177.8 360.5,186.9 
		363.8,229.6 367,237.4 370.3,236.1 373.5,220.8 376.5,219.8 379.7,225.1 383,208.8 386.2,224.4 389.5,230.9 392.7,211 396,213 
		399.3,215.6 402.2,204.5 405.5,210.7 408.7,190.8 412,195.1 415.2,193.4 418.5,202.6 421.7,206.8 425,237.1 428,214.3 431.2,218.6 
		434.5,220.8 437.7,182.7 441,188.5 444.2,181.4 447.5,173.6 450.7,210.7 453.7,204.5 457,177.8 460.2,194.8 463.5,217.5 
		466.7,187.6 470,173.9 473.2,167.4 476.2,159.6 479.4,183.7 482.7,206.5 485.9,211 489.2,203.2 492.5,181.8 495.7,185.3 499,209.1 
		501.9,197.3 505.2,202.6 508.4,209.8 511.7,199.6 514.9,237.1 518.2,215.3 521.4,228.6 524.7,214.3 527.7,242.3 530.9,229.9 
		534.2,233.9 537.4,232.2 540.7,248.5 543.9,235.8 547.2,236.4 550.5,230.2 553.4,243.9 556.7,224.4 559.9,223.7 563.2,256.6 
		566.4,330.2 569.7,314 572.9,213 576.2,177.8 579.1,142 582.4,183.7 585.7,171.6 588.9,180.1 592.2,169.7 595.5,195.1 598.7,175.2 
		602,166.7 604.9,164.2 608.1,170.7 611.4,176.2 614.7,171.6 617.9,186 621.2,191.8 624.5,226 627.4,218.2 630.6,211 633.9,218.2 
		637.1,204.2 640.4,244.3 643.7,229.6 647,240.6 650.2,265.4 653.1,275.5 656.4,244.9 659.6,271.9 662.9,251.1 666.2,252.7 
		669.5,267 672.7,269 676,250.1 678.9,250.5 682.1,240 685.4,250.5 688.6,230.9 691.9,232.5 695.2,226 698.5,223.4 701.7,228.3 	"/>
</g>
<g>
	<path d="M755.7,373.6c-1-1.3-1.9-2.8-2.6-4.6c-0.7-1.8-1.1-3.6-1.1-5.5c0-1.7,0.3-3.3,0.8-4.8c0.6-1.8,1.6-3.5,2.9-5.3h1.4
		c-0.8,1.5-1.4,2.5-1.7,3.1c-0.4,1-0.8,2-1,3c-0.3,1.3-0.5,2.6-0.5,3.9c0,3.4,1,6.7,3.1,10.1H755.7z"/>
	<path d="M758.7,365l1.9-0.3c0.2,1.1,0.6,1.8,1.1,2.3s1.2,0.7,1.9,0.7c0.9,0,1.6-0.3,2.2-0.9c0.6-0.6,0.9-1.4,0.9-2.3
		c0-0.9-0.3-1.6-0.8-2.1c-0.6-0.6-1.3-0.8-2.2-0.8c-0.4,0-0.8,0.1-1.3,0.2l0.2-1.7c0.1,0,0.2,0,0.3,0c0.8,0,1.5-0.2,2.2-0.6
		c0.6-0.4,1-1.1,1-1.9c0-0.7-0.2-1.3-0.7-1.7c-0.5-0.5-1.1-0.7-1.8-0.7c-0.7,0-1.3,0.2-1.8,0.7c-0.5,0.5-0.8,1.2-0.9,2.1l-1.9-0.3
		c0.2-1.3,0.8-2.2,1.6-2.9c0.8-0.7,1.8-1,3-1c0.8,0,1.6,0.2,2.3,0.5c0.7,0.4,1.2,0.9,1.6,1.5c0.4,0.6,0.6,1.3,0.6,2
		c0,0.7-0.2,1.3-0.5,1.8s-0.9,1-1.6,1.3c0.9,0.2,1.6,0.6,2.1,1.3s0.8,1.5,0.8,2.5c0,1.3-0.5,2.5-1.5,3.4c-1,0.9-2.2,1.4-3.7,1.4
		c-1.3,0-2.5-0.4-3.4-1.2C759.4,367.3,758.9,366.3,758.7,365z"/>
	<path d="M770.7,361.5c0-1.8,0.2-3.3,0.6-4.4s0.9-2,1.7-2.6c0.7-0.6,1.7-0.9,2.8-0.9c0.8,0,1.5,0.2,2.2,0.5c0.6,0.3,1.1,0.8,1.5,1.4
		c0.4,0.6,0.7,1.4,1,2.3s0.3,2.1,0.3,3.6c0,1.8-0.2,3.3-0.6,4.4c-0.4,1.1-0.9,2-1.7,2.6c-0.7,0.6-1.7,0.9-2.8,0.9
		c-1.5,0-2.6-0.5-3.5-1.6C771.2,366.4,770.7,364.3,770.7,361.5z M772.7,361.5c0,2.5,0.3,4.2,0.9,5c0.6,0.8,1.3,1.3,2.2,1.3
		s1.6-0.4,2.2-1.3c0.6-0.8,0.9-2.5,0.9-5c0-2.5-0.3-4.2-0.9-5c-0.6-0.8-1.3-1.2-2.2-1.2c-0.9,0-1.6,0.4-2.1,1.1
		C773,357.2,772.7,358.9,772.7,361.5z"/>
	<path d="M784.2,373.6h-1.4c2.1-3.4,3.1-6.7,3.1-10.1c0-1.3-0.1-2.6-0.5-3.9c-0.2-1-0.6-2.1-1-3c-0.3-0.6-0.8-1.7-1.7-3.1h1.4
		c1.3,1.8,2.3,3.5,2.9,5.3c0.5,1.5,0.8,3.1,0.8,4.8c0,1.9-0.4,3.7-1.1,5.5C786.1,370.7,785.2,372.2,784.2,373.6z"/>
</g>
<g>
	<path d="M755.7,331.9c-1-1.3-1.9-2.8-2.6-4.6c-0.7-1.8-1.1-3.6-1.1-5.5c0-1.7,0.3-3.3,0.8-4.8c0.6-1.8,1.6-3.5,2.9-5.3h1.4
		c-0.8,1.5-1.4,2.5-1.7,3.1c-0.4,1-0.8,2-1,3c-0.3,1.3-0.5,2.6-0.5,3.9c0,3.4,1,6.7,3.1,10.1H755.7z"/>
	<path d="M768.7,325.6v1.8h-10.2c0-0.5,0.1-0.9,0.2-1.3c0.3-0.7,0.7-1.4,1.2-2c0.6-0.7,1.4-1.4,2.5-2.3c1.7-1.4,2.8-2.5,3.4-3.3
		s0.9-1.6,0.9-2.3c0-0.7-0.3-1.4-0.8-1.9c-0.5-0.5-1.2-0.8-2.1-0.8c-0.9,0-1.6,0.3-2.2,0.8c-0.5,0.5-0.8,1.3-0.8,2.3l-1.9-0.2
		c0.1-1.4,0.6-2.5,1.5-3.3s2-1.1,3.5-1.1c1.5,0,2.6,0.4,3.5,1.2c0.9,0.8,1.3,1.8,1.3,3c0,0.6-0.1,1.2-0.4,1.8
		c-0.3,0.6-0.7,1.2-1.3,1.9c-0.6,0.7-1.6,1.6-2.9,2.7c-1.1,0.9-1.9,1.6-2.2,1.9s-0.6,0.7-0.8,1H768.7z"/>
	<path d="M770.7,319.8c0-1.8,0.2-3.3,0.6-4.4c0.4-1.1,0.9-2,1.7-2.6c0.7-0.6,1.7-0.9,2.8-0.9c0.8,0,1.5,0.2,2.2,0.5
		c0.6,0.3,1.1,0.8,1.5,1.4c0.4,0.6,0.7,1.4,1,2.3c0.2,0.9,0.3,2.1,0.3,3.6c0,1.8-0.2,3.3-0.6,4.4c-0.4,1.1-0.9,2-1.7,2.6
		c-0.7,0.6-1.7,0.9-2.8,0.9c-1.5,0-2.6-0.5-3.5-1.6C771.2,324.8,770.7,322.7,770.7,319.8z M772.7,319.8c0,2.5,0.3,4.2,0.9,5
		c0.6,0.8,1.3,1.3,2.2,1.3s1.6-0.4,2.2-1.3c0.6-0.8,0.9-2.5,0.9-5c0-2.5-0.3-4.2-0.9-5c-0.6-0.8-1.3-1.2-2.2-1.2
		c-0.9,0-1.6,0.4-2.1,1.1C773,315.6,772.7,317.3,772.7,319.8z"/>
	<path d="M784.2,331.9h-1.4c2.1-3.4,3.1-6.7,3.1-10.1c0-1.3-0.1-2.6-0.5-3.9c-0.2-1-0.6-2.1-1-3c-0.3-0.6-0.8-1.7-1.7-3.1h1.4
		c1.3,1.8,2.3,3.5,2.9,5.3c0.5,1.5,0.8,3.1,0.8,4.8c0,1.9-0.4,3.7-1.1,5.5S785.2,330.6,784.2,331.9z"/>
</g>
<g>
	<path d="M755.7,290.3c-1-1.3-1.9-2.8-2.6-4.6c-0.7-1.8-1.1-3.6-1.1-5.5c0-1.7,0.3-3.3,0.8-4.8c0.6-1.8,1.6-3.5,2.9-5.3h1.4
		c-0.8,1.5-1.4,2.5-1.7,3.1c-0.4,1-0.8,2-1,3c-0.3,1.3-0.5,2.6-0.5,3.9c0,3.4,1,6.7,3.1,10.1H755.7z"/>
	<path d="M765.8,285.7H764v-12c-0.5,0.4-1,0.9-1.8,1.3c-0.7,0.4-1.4,0.8-2,1v-1.8c1.1-0.5,2-1.1,2.8-1.8c0.8-0.7,1.3-1.4,1.7-2.1
		h1.2V285.7z"/>
	<path d="M770.7,278.2c0-1.8,0.2-3.3,0.6-4.4c0.4-1.1,0.9-2,1.7-2.6c0.7-0.6,1.7-0.9,2.8-0.9c0.8,0,1.5,0.2,2.2,0.5
		c0.6,0.3,1.1,0.8,1.5,1.4c0.4,0.6,0.7,1.4,1,2.3c0.2,0.9,0.3,2.1,0.3,3.6c0,1.8-0.2,3.3-0.6,4.4c-0.4,1.1-0.9,2-1.7,2.6
		c-0.7,0.6-1.7,0.9-2.8,0.9c-1.5,0-2.6-0.5-3.5-1.6C771.2,283.1,770.7,281.1,770.7,278.2z M772.7,278.2c0,2.5,0.3,4.2,0.9,5
		c0.6,0.8,1.3,1.3,2.2,1.3s1.6-0.4,2.2-1.3c0.6-0.8,0.9-2.5,0.9-5c0-2.5-0.3-4.2-0.9-5c-0.6-0.8-1.3-1.2-2.2-1.2
		c-0.9,0-1.6,0.4-2.1,1.1C773,273.9,772.7,275.6,772.7,278.2z"/>
	<path d="M784.2,290.3h-1.4c2.1-3.4,3.1-6.7,3.1-10.1c0-1.3-0.1-2.6-0.5-3.9c-0.2-1-0.6-2.1-1-3c-0.3-0.6-0.8-1.7-1.7-3.1h1.4
		c1.3,1.8,2.3,3.5,2.9,5.3c0.5,1.5,0.8,3.1,0.8,4.8c0,1.9-0.4,3.7-1.1,5.5S785.2,288.9,784.2,290.3z"/>
</g>
<g>
	<path d="M751.6,236.5c0-1.8,0.2-3.3,0.6-4.4c0.4-1.1,0.9-2,1.7-2.6c0.7-0.6,1.7-0.9,2.8-0.9c0.8,0,1.5,0.2,2.2,0.5
		c0.6,0.3,1.1,0.8,1.5,1.4c0.4,0.6,0.7,1.4,1,2.3c0.2,0.9,0.3,2.1,0.3,3.6c0,1.8-0.2,3.3-0.6,4.4c-0.4,1.1-0.9,2-1.7,2.6
		c-0.7,0.6-1.7,0.9-2.8,0.9c-1.5,0-2.6-0.5-3.5-1.6C752.1,241.5,751.6,239.4,751.6,236.5z M753.5,236.5c0,2.5,0.3,4.2,0.9,5
		c0.6,0.8,1.3,1.3,2.2,1.3s1.6-0.4,2.2-1.3c0.6-0.8,0.9-2.5,0.9-5c0-2.5-0.3-4.2-0.9-5c-0.6-0.8-1.3-1.2-2.2-1.2
		c-0.9,0-1.6,0.4-2.1,1.1C753.9,232.3,753.5,234,753.5,236.5z"/>
</g>
<g>
	<path d="M758.7,202.5h-1.9v-12c-0.5,0.4-1,0.9-1.8,1.3c-0.7,0.4-1.4,0.8-2,1v-1.8c1.1-0.5,2-1.1,2.8-1.8c0.8-0.7,1.3-1.4,1.7-2.1
		h1.2V202.5z"/>
	<path d="M763.6,194.9c0-1.8,0.2-3.3,0.6-4.4c0.4-1.1,0.9-2,1.7-2.6c0.7-0.6,1.7-0.9,2.8-0.9c0.8,0,1.5,0.2,2.2,0.5
		c0.6,0.3,1.1,0.8,1.5,1.4c0.4,0.6,0.7,1.4,1,2.3c0.2,0.9,0.3,2.1,0.3,3.6c0,1.8-0.2,3.3-0.6,4.4c-0.4,1.1-0.9,2-1.7,2.6
		c-0.7,0.6-1.7,0.9-2.8,0.9c-1.5,0-2.6-0.5-3.5-1.6C764.1,199.8,763.6,197.8,763.6,194.9z M765.6,194.9c0,2.5,0.3,4.2,0.9,5
		c0.6,0.8,1.3,1.3,2.2,1.3s1.6-0.4,2.2-1.3c0.6-0.8,0.9-2.5,0.9-5c0-2.5-0.3-4.2-0.9-5c-0.6-0.8-1.3-1.2-2.2-1.2
		c-0.9,0-1.6,0.4-2.1,1.1C765.9,190.6,765.6,192.4,765.6,194.9z"/>
</g>
<g>
	<path d="M761.5,159v1.8h-10.2c0-0.5,0.1-0.9,0.2-1.3c0.3-0.7,0.7-1.4,1.2-2c0.6-0.7,1.4-1.4,2.5-2.3c1.7-1.4,2.8-2.5,3.4-3.3
		s0.9-1.6,0.9-2.3c0-0.7-0.3-1.4-0.8-1.9c-0.5-0.5-1.2-0.8-2.1-0.8c-0.9,0-1.6,0.3-2.2,0.8c-0.5,0.5-0.8,1.3-0.8,2.3l-1.9-0.2
		c0.1-1.4,0.6-2.5,1.5-3.3s2-1.1,3.5-1.1c1.5,0,2.6,0.4,3.5,1.2c0.9,0.8,1.3,1.8,1.3,3c0,0.6-0.1,1.2-0.4,1.8
		c-0.3,0.6-0.7,1.2-1.3,1.9c-0.6,0.7-1.6,1.6-2.9,2.7c-1.1,0.9-1.9,1.6-2.2,1.9s-0.6,0.7-0.8,1H761.5z"/>
	<path d="M763.6,153.2c0-1.8,0.2-3.3,0.6-4.4c0.4-1.1,0.9-2,1.7-2.6c0.7-0.6,1.7-0.9,2.8-0.9c0.8,0,1.5,0.2,2.2,0.5
		c0.6,0.3,1.1,0.8,1.5,1.4c0.4,0.6,0.7,1.4,1,2.3c0.2,0.9,0.3,2.1,0.3,3.6c0,1.8-0.2,3.3-0.6,4.4c-0.4,1.1-0.9,2-1.7,2.6
		c-0.7,0.6-1.7,0.9-2.8,0.9c-1.5,0-2.6-0.5-3.5-1.6C764.1,158.2,763.6,156.1,763.6,153.2z M765.6,153.2c0,2.5,0.3,4.2,0.9,5
		c0.6,0.8,1.3,1.3,2.2,1.3s1.6-0.4,2.2-1.3c0.6-0.8,0.9-2.5,0.9-5c0-2.5-0.3-4.2-0.9-5c-0.6-0.8-1.3-1.2-2.2-1.2
		c-0.9,0-1.6,0.4-2.1,1.1C765.9,149,765.6,150.7,765.6,153.2z"/>
</g>
<g>
	<path d="M751.6,115.1l1.9-0.3c0.2,1.1,0.6,1.8,1.1,2.3c0.5,0.5,1.2,0.7,1.9,0.7c0.9,0,1.6-0.3,2.2-0.9c0.6-0.6,0.9-1.4,0.9-2.3
		c0-0.9-0.3-1.6-0.8-2.1c-0.6-0.6-1.3-0.8-2.2-0.8c-0.4,0-0.8,0.1-1.3,0.2l0.2-1.7c0.1,0,0.2,0,0.3,0c0.8,0,1.5-0.2,2.2-0.6
		s1-1.1,1-1.9c0-0.7-0.2-1.3-0.7-1.7c-0.5-0.5-1.1-0.7-1.8-0.7c-0.7,0-1.3,0.2-1.8,0.7c-0.5,0.5-0.8,1.2-0.9,2.1l-1.9-0.3
		c0.2-1.3,0.8-2.2,1.6-2.9c0.8-0.7,1.8-1,3-1c0.8,0,1.6,0.2,2.3,0.5c0.7,0.4,1.2,0.9,1.6,1.5c0.4,0.6,0.6,1.3,0.6,2
		c0,0.7-0.2,1.3-0.5,1.8c-0.4,0.5-0.9,1-1.6,1.3c0.9,0.2,1.6,0.6,2.1,1.3s0.8,1.5,0.8,2.5c0,1.3-0.5,2.5-1.5,3.4
		c-1,0.9-2.2,1.4-3.7,1.4c-1.3,0-2.5-0.4-3.4-1.2S751.7,116.4,751.6,115.1z"/>
	<path d="M763.6,111.6c0-1.8,0.2-3.3,0.6-4.4c0.4-1.1,0.9-2,1.7-2.6c0.7-0.6,1.7-0.9,2.8-0.9c0.8,0,1.5,0.2,2.2,0.5
		c0.6,0.3,1.1,0.8,1.5,1.4c0.4,0.6,0.7,1.4,1,2.3c0.2,0.9,0.3,2.1,0.3,3.6c0,1.8-0.2,3.3-0.6,4.4c-0.4,1.1-0.9,2-1.7,2.6
		c-0.7,0.6-1.7,0.9-2.8,0.9c-1.5,0-2.6-0.5-3.5-1.6C764.1,116.6,763.6,114.5,763.6,111.6z M765.6,111.6c0,2.5,0.3,4.2,0.9,5
		c0.6,0.8,1.3,1.3,2.2,1.3s1.6-0.4,2.2-1.3c0.6-0.8,0.9-2.5,0.9-5c0-2.5-0.3-4.2-0.9-5c-0.6-0.8-1.3-1.2-2.2-1.2
		c-0.9,0-1.6,0.4-2.1,1.1C765.9,107.3,765.6,109.1,765.6,111.6z"/>
</g>
<g>
	<path d="M37.7,401.8c3.9-3.9,6-6.2,6-8.3c0-1.5-0.8-2.5-2.4-2.5c-1.1,0-2,0.7-2.7,1.5l-1-0.9c1.1-1.2,2.2-1.9,3.9-1.9
		c2.4,0,3.8,1.5,3.8,3.8c0,2.4-2.2,4.8-5.2,8c0.7-0.1,1.5-0.1,2.2-0.1H46v1.4h-8.3V401.8z"/>
	<path d="M47.8,396.4c0-4.3,1.6-6.6,4.1-6.6s4.1,2.3,4.1,6.6c0,4.3-1.5,6.7-4.1,6.7S47.8,400.7,47.8,396.4z M54.4,396.4
		c0-3.8-1-5.3-2.5-5.3c-1.5,0-2.5,1.5-2.5,5.3s1,5.4,2.5,5.4C53.4,401.7,54.4,400.1,54.4,396.4z"/>
	<path d="M57.6,396.4c0-4.3,1.6-6.6,4.1-6.6s4.1,2.3,4.1,6.6c0,4.3-1.5,6.7-4.1,6.7S57.6,400.7,57.6,396.4z M64.3,396.4
		c0-3.8-1-5.3-2.5-5.3c-1.5,0-2.5,1.5-2.5,5.3s1,5.4,2.5,5.4C63.3,401.7,64.3,400.1,64.3,396.4z"/>
	<path d="M74.1,391.4h-6.4V390h8.3v1c-3,3.9-3.7,6.8-3.9,11.8h-1.7C70.6,398,71.5,394.9,74.1,391.4z"/>
</g>
<g>
	<path d="M114.9,401.8c3.9-3.9,6-6.2,6-8.3c0-1.5-0.8-2.5-2.4-2.5c-1.1,0-2,0.7-2.7,1.5l-1-0.9c1.1-1.2,2.2-1.9,3.9-1.9
		c2.4,0,3.8,1.5,3.8,3.8c0,2.4-2.2,4.8-5.2,8c0.7-0.1,1.5-0.1,2.2-0.1h3.7v1.4h-8.3V401.8z"/>
	<path d="M125,396.4c0-4.3,1.6-6.6,4.1-6.6s4.1,2.3,4.1,6.6c0,4.3-1.5,6.7-4.1,6.7S125,400.7,125,396.4z M131.6,396.4
		c0-3.8-1-5.3-2.5-5.3c-1.5,0-2.5,1.5-2.5,5.3s1,5.4,2.5,5.4C130.6,401.7,131.6,400.1,131.6,396.4z"/>
	<path d="M134.8,396.4c0-4.3,1.6-6.6,4.1-6.6s4.1,2.3,4.1,6.6c0,4.3-1.5,6.7-4.1,6.7S134.8,400.7,134.8,396.4z M141.5,396.4
		c0-3.8-1-5.3-2.5-5.3c-1.5,0-2.5,1.5-2.5,5.3s1,5.4,2.5,5.4C140.5,401.7,141.5,400.1,141.5,396.4z"/>
	<path d="M145,401.7l0.9-1c0.5,0.6,1.3,1,2.1,1c1.8,0,3.3-1.4,3.4-5.5c-0.8,1-2,1.7-3,1.7c-2.2,0-3.7-1.4-3.7-4
		c0-2.4,1.7-4.1,3.8-4.1c2.5,0,4.4,2.1,4.4,6.2c0,5.2-2.3,7.1-4.9,7.1C146.7,403.1,145.7,402.5,145,401.7z M148.7,396.6
		c0.8,0,1.9-0.5,2.7-1.7c-0.2-2.5-1.2-3.8-2.9-3.8c-1.3,0-2.2,1.1-2.2,2.8C146.3,395.5,147.1,396.6,148.7,396.6z"/>
</g>
<g>
	<path d="M192.1,401.8c3.9-3.9,6-6.2,6-8.3c0-1.5-0.8-2.5-2.4-2.5c-1.1,0-2,0.7-2.7,1.5l-1-0.9c1.1-1.2,2.2-1.9,3.9-1.9
		c2.4,0,3.8,1.5,3.8,3.8c0,2.4-2.2,4.8-5.2,8c0.7-0.1,1.5-0.1,2.2-0.1h3.7v1.4h-8.3V401.8z"/>
	<path d="M202.2,396.4c0-4.3,1.6-6.6,4.1-6.6s4.1,2.3,4.1,6.6c0,4.3-1.5,6.7-4.1,6.7S202.2,400.7,202.2,396.4z M208.8,396.4
		c0-3.8-1-5.3-2.5-5.3c-1.5,0-2.5,1.5-2.5,5.3s1,5.4,2.5,5.4C207.8,401.7,208.8,400.1,208.8,396.4z"/>
	<path d="M212.7,401.4h2.9V392h-2.3v-1.1c1.2-0.2,2-0.5,2.7-0.9h1.3v11.5h2.6v1.4h-7.2V401.4z"/>
	<path d="M222.8,401.4h2.9V392h-2.3v-1.1c1.2-0.2,2-0.5,2.7-0.9h1.3v11.5h2.6v1.4h-7.2V401.4z"/>
</g>
<g>
	<path d="M269.3,401.8c3.9-3.9,6-6.2,6-8.3c0-1.5-0.8-2.5-2.4-2.5c-1.1,0-2,0.7-2.7,1.5l-1-0.9c1.1-1.2,2.2-1.9,3.9-1.9
		c2.4,0,3.8,1.5,3.8,3.8c0,2.4-2.2,4.8-5.2,8c0.7-0.1,1.5-0.1,2.2-0.1h3.7v1.4h-8.3V401.8z"/>
	<path d="M279.4,396.4c0-4.3,1.6-6.6,4.1-6.6s4.1,2.3,4.1,6.6c0,4.3-1.5,6.7-4.1,6.7S279.4,400.7,279.4,396.4z M286,396.4
		c0-3.8-1-5.3-2.5-5.3c-1.5,0-2.5,1.5-2.5,5.3s1,5.4,2.5,5.4C285,401.7,286,400.1,286,396.4z"/>
	<path d="M289.9,401.4h2.9V392h-2.3v-1.1c1.2-0.2,2-0.5,2.7-0.9h1.3v11.5h2.6v1.4h-7.2V401.4z"/>
	<path d="M298.9,401.3l0.8-1.1c0.8,0.8,1.8,1.5,3.3,1.5c1.6,0,2.7-0.9,2.7-2.4c0-1.5-1.1-2.5-4.1-2.5v-1.3c2.7,0,3.7-1.1,3.7-2.4
		c0-1.2-0.9-2-2.2-2c-1.1,0-2,0.5-2.7,1.3l-0.9-1c1-0.9,2.2-1.6,3.7-1.6c2.2,0,3.8,1.2,3.8,3.3c0,1.5-1,2.5-2.3,3v0.1
		c1.5,0.4,2.8,1.5,2.8,3.3c0,2.3-1.9,3.7-4.2,3.7C301.1,403.1,299.8,402.2,298.9,401.3z"/>
</g>
<g>
	<path d="M346.5,401.8c3.9-3.9,6-6.2,6-8.3c0-1.5-0.8-2.5-2.4-2.5c-1.1,0-2,0.7-2.7,1.5l-1-0.9c1.1-1.2,2.2-1.9,3.9-1.9
		c2.4,0,3.8,1.5,3.8,3.8c0,2.4-2.2,4.8-5.2,8c0.7-0.1,1.5-0.1,2.2-0.1h3.7v1.4h-8.3V401.8z"/>
	<path d="M356.6,396.4c0-4.3,1.6-6.6,4.1-6.6s4.1,2.3,4.1,6.6c0,4.3-1.5,6.7-4.1,6.7S356.6,400.7,356.6,396.4z M363.2,396.4
		c0-3.8-1-5.3-2.5-5.3c-1.5,0-2.5,1.5-2.5,5.3s1,5.4,2.5,5.4C362.2,401.7,363.2,400.1,363.2,396.4z"/>
	<path d="M367.1,401.4h2.9V392h-2.3v-1.1c1.2-0.2,2-0.5,2.7-0.9h1.3v11.5h2.6v1.4h-7.2V401.4z"/>
	<path d="M376.1,401.3l0.8-1.1c0.8,0.8,1.7,1.5,3.2,1.5c1.5,0,2.8-1.1,2.8-2.9c0-1.8-1.1-2.8-2.7-2.8c-0.9,0-1.4,0.3-2.2,0.8
		l-0.9-0.6l0.4-6.2h6.4v1.4h-5l-0.3,3.8c0.6-0.3,1.2-0.5,2-0.5c2.2,0,4,1.3,4,4c0,2.8-2.1,4.3-4.3,4.3
		C378.2,403.1,377,402.2,376.1,401.3z"/>
</g>
<g>
	<path d="M423.7,401.8c3.9-3.9,6-6.2,6-8.3c0-1.5-0.8-2.5-2.4-2.5c-1.1,0-2,0.7-2.7,1.5l-1-0.9c1.1-1.2,2.2-1.9,3.9-1.9
		c2.4,0,3.8,1.5,3.8,3.8c0,2.4-2.2,4.8-5.2,8c0.7-0.1,1.5-0.1,2.2-0.1h3.7v1.4h-8.3V401.8z"/>
	<path d="M433.8,396.4c0-4.3,1.6-6.6,4.1-6.6s4.1,2.3,4.1,6.6c0,4.3-1.5,6.7-4.1,6.7S433.8,400.7,433.8,396.4z M440.4,396.4
		c0-3.8-1-5.3-2.5-5.3c-1.5,0-2.5,1.5-2.5,5.3s1,5.4,2.5,5.4C439.4,401.7,440.4,400.1,440.4,396.4z"/>
	<path d="M444.3,401.4h2.9V392h-2.3v-1.1c1.2-0.2,2-0.5,2.7-0.9h1.3v11.5h2.6v1.4h-7.2V401.4z"/>
	<path d="M460,391.4h-6.4V390h8.3v1c-3,3.9-3.7,6.8-3.9,11.8h-1.7C456.5,398,457.5,394.9,460,391.4z"/>
</g>
<g>
	<path d="M500.9,401.8c3.9-3.9,6-6.2,6-8.3c0-1.5-0.8-2.5-2.4-2.5c-1.1,0-2,0.7-2.7,1.5l-1-0.9c1.1-1.2,2.2-1.9,3.9-1.9
		c2.4,0,3.8,1.5,3.8,3.8c0,2.4-2.2,4.8-5.2,8c0.7-0.1,1.5-0.1,2.2-0.1h3.7v1.4h-8.3V401.8z"/>
	<path d="M511,396.4c0-4.3,1.6-6.6,4.1-6.6s4.1,2.3,4.1,6.6c0,4.3-1.5,6.7-4.1,6.7S511,400.7,511,396.4z M517.6,396.4
		c0-3.8-1-5.3-2.5-5.3c-1.5,0-2.5,1.5-2.5,5.3s1,5.4,2.5,5.4C516.6,401.7,517.6,400.1,517.6,396.4z"/>
	<path d="M521.5,401.4h2.9V392h-2.3v-1.1c1.2-0.2,2-0.5,2.7-0.9h1.3v11.5h2.6v1.4h-7.2V401.4z"/>
	<path d="M531,401.7l0.9-1c0.5,0.6,1.3,1,2.1,1c1.8,0,3.3-1.4,3.4-5.5c-0.8,1-2,1.7-3,1.7c-2.2,0-3.7-1.4-3.7-4
		c0-2.4,1.7-4.1,3.8-4.1c2.5,0,4.4,2.1,4.4,6.2c0,5.2-2.3,7.1-4.9,7.1C532.7,403.1,531.7,402.5,531,401.7z M534.7,396.6
		c0.8,0,1.9-0.5,2.7-1.7c-0.2-2.5-1.2-3.8-2.9-3.8c-1.3,0-2.2,1.1-2.2,2.8C532.3,395.5,533.1,396.6,534.7,396.6z"/>
</g>
<g>
	<path d="M578.1,401.8c3.9-3.9,6-6.2,6-8.3c0-1.5-0.8-2.5-2.4-2.5c-1.1,0-2,0.7-2.7,1.5l-1-0.9c1.1-1.2,2.2-1.9,3.9-1.9
		c2.4,0,3.8,1.5,3.8,3.8c0,2.4-2.2,4.8-5.2,8c0.7-0.1,1.5-0.1,2.2-0.1h3.7v1.4h-8.3V401.8z"/>
	<path d="M588.2,396.4c0-4.3,1.6-6.6,4.1-6.6s4.1,2.3,4.1,6.6c0,4.3-1.5,6.7-4.1,6.7S588.2,400.7,588.2,396.4z M594.8,396.4
		c0-3.8-1-5.3-2.5-5.3c-1.5,0-2.5,1.5-2.5,5.3s1,5.4,2.5,5.4C593.8,401.7,594.8,400.1,594.8,396.4z"/>
	<path d="M597.9,401.8c3.9-3.9,6-6.2,6-8.3c0-1.5-0.8-2.5-2.4-2.5c-1.1,0-2,0.7-2.7,1.5l-1-0.9c1.1-1.2,2.2-1.9,3.9-1.9
		c2.4,0,3.8,1.5,3.8,3.8c0,2.4-2.2,4.8-5.2,8c0.7-0.1,1.5-0.1,2.2-0.1h3.7v1.4h-8.3V401.8z"/>
	<path d="M608.7,401.4h2.9V392h-2.3v-1.1c1.2-0.2,2-0.5,2.7-0.9h1.3v11.5h2.6v1.4h-7.2V401.4z"/>
</g>
<g>
	<path d="M655.3,401.8c3.9-3.9,6-6.2,6-8.3c0-1.5-0.8-2.5-2.4-2.5c-1.1,0-2,0.7-2.7,1.5l-1-0.9c1.1-1.2,2.2-1.9,3.9-1.9
		c2.4,0,3.8,1.5,3.8,3.8c0,2.4-2.2,4.8-5.2,8c0.7-0.1,1.5-0.1,2.2-0.1h3.7v1.4h-8.3V401.8z"/>
	<path d="M665.4,396.4c0-4.3,1.6-6.6,4.1-6.6s4.1,2.3,4.1,6.6c0,4.3-1.5,6.7-4.1,6.7S665.4,400.7,665.4,396.4z M672,396.4
		c0-3.8-1-5.3-2.5-5.3c-1.5,0-2.5,1.5-2.5,5.3s1,5.4,2.5,5.4C671,401.7,672,400.1,672,396.4z"/>
	<path d="M675.1,401.8c3.9-3.9,6-6.2,6-8.3c0-1.5-0.8-2.5-2.4-2.5c-1.1,0-2,0.7-2.7,1.5l-1-0.9c1.1-1.2,2.2-1.9,3.9-1.9
		c2.4,0,3.8,1.5,3.8,3.8c0,2.4-2.2,4.8-5.2,8c0.7-0.1,1.5-0.1,2.2-0.1h3.7v1.4h-8.3V401.8z"/>
	<path d="M684.9,401.3l0.8-1.1c0.8,0.8,1.8,1.5,3.3,1.5c1.6,0,2.7-0.9,2.7-2.4c0-1.5-1.1-2.5-4.1-2.5v-1.3c2.7,0,3.7-1.1,3.7-2.4
		c0-1.2-0.9-2-2.2-2c-1.1,0-2,0.5-2.7,1.3l-0.9-1c1-0.9,2.2-1.6,3.7-1.6c2.2,0,3.8,1.2,3.8,3.3c0,1.5-1,2.5-2.3,3v0.1
		c1.5,0.4,2.8,1.5,2.8,3.3c0,2.3-1.9,3.7-4.2,3.7C687,403.1,685.7,402.2,684.9,401.3z"/>
</g>
<text transform="matrix(1 0 0 1 7.609 737.6933)"><tspan x="0" y="0" style="font-family:'SourceHanSansTC-Medium-B5pc-H'; font-size:18px;">80</tspan><tspan x="0" y="43" style="font-family:'SourceHanSansTC-Medium-B5pc-H'; font-size:18px;">70</tspan><tspan x="0" y="86" style="font-family:'SourceHanSansTC-Medium-B5pc-H'; font-size:18px;">60</tspan><tspan x="0" y="129" style="font-family:'SourceHanSansTC-Medium-B5pc-H'; font-size:18px;">50</tspan><tspan x="0" y="172" style="font-family:'SourceHanSansTC-Medium-B5pc-H'; font-size:18px;">40</tspan><tspan x="0" y="215" style="font-family:'SourceHanSansTC-Medium-B5pc-H'; font-size:18px;">30</tspan><tspan x="0" y="258" style="font-family:'SourceHanSansTC-Medium-B5pc-H'; font-size:18px;">20</tspan></text>
<g>
	<path class="st0" d="M48,988.9c-1.4,0-2.5-1.1-2.5-2.5V787.7c0-1.4,1.1-2.5,2.5-2.5c1.4,0,2.5,1.1,2.5,2.5v198.7
		C50.5,987.7,49.4,988.9,48,988.9z"/>
</g>
<g>
	
		<text transform="matrix(1 0 0 1 251.5734 647.5526)" class="st1" style="font-family:'SourceHanSansTC-Bold-B5pc-H'; font-size:24px;">美國製造業已觸底回升</text>
</g>
<text transform="matrix(1 0 0 1 291.3053 1073.4199)" class="st1" style="font-family:'SourceHanSansTC-Bold-B5pc-H'; font-size:14px;">                  </text>
<g>
	<text transform="matrix(1 0 0 1 109.3321 690.1476)" style="font-family:'SourceHanSansTC-Regular-B5pc-H'; font-size:18px;">美國ISM製造業PMI新訂單指數，點(左軸)：新訂單-庫存，點(右軸)</text>
</g>
<g>
	<g>
		<path class="st2" d="M722.1,991.4H48c-2.8,0-5-2.2-5-5V711.8c4.4-5,10-2,10,2.4v267.2h668.8c2.6,0,4.9,1.9,5.2,4.5
			C727.3,988.9,725,991.4,722.1,991.4z"/>
	</g>
	<g>
		<polygon class="st2" points="36.9,722.4 48,717.6 59.1,722.4 48,696 		"/>
	</g>
	<g>
		<polygon class="st2" points="713.8,997.5 718.6,986.4 713.8,975.3 740.2,986.4 		"/>
	</g>
</g>
<rect x="158.1" y="1077.2" class="st3" width="13.1" height="13.1"/>
<rect x="527.6" y="1077.2" class="st4" width="13.1" height="13.1"/>
<line class="st5" x1="52.5" y1="980.1" x2="702" y2="980.1"/>
<g>
	<text transform="matrix(1 0 0 1 178.5471 1090.3812)" style="font-family:'SourceHanSansTC-Medium-B5pc-H'; font-size:18px;">美國ＩＳＭ製造業ＰＭＩ新訂單製造業指數           新訂單－庫存</text>
</g>
<rect x="53.5" y="733.1" class="st6" width="649.9" height="246.5"/>
<line class="st5" x1="53.1" y1="938.6" x2="703" y2="938.6"/>
<line class="st5" x1="53.1" y1="897.2" x2="703" y2="897.2"/>
<line class="st5" x1="53.1" y1="856.2" x2="703" y2="856.2"/>
<line class="st5" x1="53.1" y1="815.2" x2="703" y2="815.2"/>
<line class="st5" x1="53.1" y1="773.8" x2="703" y2="773.8"/>
<line class="st5" x1="53.1" y1="732.8" x2="703" y2="732.8"/>
<g>
	<defs>
		<rect id="SVGID_00000049927465618568394530000000733201644067895211_" x="53.1" y="732.8" width="652.2" height="248.8"/>
	</defs>
	<clipPath id="SVGID_00000023991264259250526020000015708814269704894113_">
		<use xlink:href="#SVGID_00000049927465618568394530000000733201644067895211_"  style="overflow:visible;"/>
	</clipPath>
	
		<polyline style="clip-path:url(#SVGID_00000023991264259250526020000015708814269704894113_);fill:none;stroke:#910000;stroke-width:2.0604;stroke-linejoin:round;stroke-miterlimit:10;" points="
		-215.4,813.5 -212.1,820.3 -208.8,830.8 -205.6,834 -202.7,850 -199.4,856.2 -196.1,848.1 -192.9,856.2 -189.6,860.8 -186.4,862.7 
		-183.1,859.7 -180.2,888.8 -176.9,903.7 -173.6,897.9 -170.4,891 -167.1,874.7 -163.9,877 -160.6,865.3 -157.4,859.4 -154.4,838.6 
		-151.1,851 -147.9,901.8 -144.6,859.7 -141.4,850.3 -138.1,834.7 -134.9,812.2 -131.6,799.5 -128.7,815.5 -125.4,807.6 
		-122.2,810.3 -118.9,848.3 -115.6,853.6 -112.4,844.1 -109.1,847.4 -105.9,856.5 -102.9,820.3 -99.7,822.3 -96.4,848.3 
		-93.2,867.6 -89.9,867.6 -86.7,842.2 -83.4,841.2 -80.1,828.2 -77.2,810.6 -73.9,811.9 -70.7,796.9 -67.4,777.7 -64.2,768.6 
		-60.9,771.5 -57.7,788.4 -54.4,796.2 -51.4,785.8 -48.2,796.6 -44.9,811.3 -41.7,803.4 -38.4,806.4 -35.2,824.6 -31.9,821.7 
		-28.7,814.5 -25.7,789.1 -22.4,823.6 -19.2,831.7 -15.9,824.6 -12.7,842.2 -9.4,848.7 -6.2,832.8 -3.2,826.6 0,824 3.3,811.3 
		6.5,809.3 9.8,810.3 13,814.5 16.3,819.7 19.6,810.9 22.5,827.5 25.8,832.8 29,836 32.3,835.6 35.5,832.4 38.8,834.4 42,836.3 
		45.3,839.3 48.3,852.9 51.5,850.3 54.8,847.1 58,835.3 61.3,855.2 64.5,825.6 67.8,820.7 71.1,824.6 74,820.7 77.3,837.9 
		80.5,837.9 83.8,829.8 87,846.4 90.3,870.5 93.6,864.3 96.8,870.8 99.7,874.4 103,870.5 106.3,862.4 109.5,857.5 112.8,868.5 
		116,869.9 119.3,890 122.6,925.2 125.5,948.3 128.7,966.3 132,931.1 135.3,926.8 138.5,895.9 141.8,870.5 145.1,860.4 148,849 
		151.2,824.9 154.5,787.8 157.7,801.4 161,815.5 164.3,812.5 167.6,802.7 170.8,803.1 173.7,826.8 177,809.3 180.2,805 183.5,802.5 
		186.8,815.2 190.1,827.5 193.3,827.9 196.6,841.8 199.5,817.1 202.7,823.6 206,815.8 209.3,804.8 212.5,807.3 215.8,807.3 
		219.1,813.5 222.3,846.4 225.2,832.8 228.5,836 231.8,847.4 235,849.7 238.3,846.4 241.6,834.7 244.8,834 248.1,834.7 251,834.7 
		254.2,833.4 257.5,832.4 260.8,826.8 264,851 267.3,854.8 270.6,857.8 273.8,841.8 276.7,848.7 280,850.3 283.3,855.9 286.5,852.9 
		289.8,832.8 293,849 296.3,857.5 299.2,857.8 302.5,832.8 305.8,818.7 309,800.2 312.3,809.6 315.5,809.6 318.8,801.1 322,796.9 
		325,851.3 328.2,837.6 331.5,835.3 334.8,835.3 338,827.9 341.3,819.7 344.5,801.1 347.8,787.5 350.7,815.2 354,791.1 357.2,790.4 
		360.5,824 363.8,844.1 367,845.8 370.3,848.7 373.5,841.8 376.5,832.4 379.7,831.4 383,829.5 386.2,849 389.5,855.9 392.7,844.1 
		396,860.8 399.3,861.1 402.2,850 405.5,850 408.7,822 412,832.4 415.2,832.8 418.5,827.5 421.7,827.9 425,859.7 428,835.3 
		431.2,847.4 434.5,843.8 437.7,813.8 441,813.5 444.2,794 447.5,796.6 450.7,825.2 453.7,817.1 457,800.5 460.2,813.5 463.5,813.8 
		466.7,796.2 470,801.1 473.2,798.5 476.2,784.5 479.4,792.7 482.7,797.9 485.9,807.3 489.2,810.3 492.5,799.9 495.7,800.5 
		499,814.2 501.9,794 505.2,807.6 508.4,825.6 511.7,806.4 514.9,851 518.2,822.3 521.4,833.4 524.7,825.6 527.7,849 530.9,845.1 
		534.2,856.2 537.4,852.9 540.7,867.6 543.9,867.3 547.2,859.7 550.5,867.6 553.4,865.9 556.7,848.1 559.9,856.9 563.2,888.1 
		566.4,950.3 569.7,931.1 572.9,829.8 576.2,809 579.1,783.9 582.4,814.2 585.7,782.6 588.9,794 592.2,784.2 595.5,810.6 
		598.7,795.3 602,782.2 604.9,797.2 608.1,786.1 611.4,790.4 614.7,795 617.9,787.5 621.2,787.5 624.5,815.8 627.4,809 630.6,810.9 
		633.9,823.6 637.1,808 640.4,840.5 643.7,841.8 647,835.3 650.2,859.4 653.1,864.3 656.4,851 659.6,868.2 662.9,859.4 666.2,867.6 
		669.5,876.4 672.7,887.1 676,868.5 678.9,879.6 682.1,873.8 685.4,886.5 688.6,874.4 691.9,867.3 695.2,869.2 698.5,859.4 
		701.7,874.7 	"/>
</g>
<g>
	<defs>
		<rect id="SVGID_00000003800947518074873950000003942939543947573914_" x="53.1" y="732.8" width="652.2" height="248.8"/>
	</defs>
	<clipPath id="SVGID_00000139251738715369848240000014292381038372053182_">
		<use xlink:href="#SVGID_00000003800947518074873950000003942939543947573914_"  style="overflow:visible;"/>
	</clipPath>
	
		<polyline style="clip-path:url(#SVGID_00000139251738715369848240000014292381038372053182_);fill:none;stroke:#EF7E00;stroke-width:2.0604;stroke-linejoin:round;stroke-miterlimit:10;" points="
		-215.4,824.9 -212.1,799.5 -208.8,820.3 -205.6,817.8 -202.7,837.3 -199.4,843.8 -196.1,841.8 -192.9,844.1 -189.6,843.8 
		-186.4,845.8 -183.1,830.1 -180.2,849 -176.9,870.2 -173.6,873.8 -170.4,865.3 -167.1,832.4 -163.9,828.5 -160.6,823.6 
		-157.4,806.4 -154.4,787.5 -151.1,805 -147.9,853.6 -144.6,814.2 -141.4,799.5 -138.1,790.4 -134.9,769.9 -131.6,764 -128.7,786.8 
		-125.4,782.2 -122.2,782.2 -118.9,818.4 -115.6,834.7 -112.4,818.7 -109.1,814.5 -105.9,828.2 -102.9,800.5 -99.7,798.5 
		-96.4,819.7 -93.2,836 -89.9,839.3 -86.7,824.6 -83.4,808.3 -80.1,812.9 -77.2,782.2 -73.9,784.5 -70.7,779 -67.4,776.4 
		-64.2,751.6 -60.9,762.7 -57.7,784.2 -54.4,787.8 -51.4,765.9 -48.2,791.7 -44.9,816.8 -41.7,806.7 -38.4,815.2 -35.2,831.1 
		-31.9,818.7 -28.7,813.5 -25.7,800.5 -22.4,837.9 -19.2,836 -15.9,845.1 -12.7,836 -9.4,842.5 -6.2,824.6 -3.2,808 0,811.9 
		3.3,809.3 6.5,795 9.8,797.9 13,800.2 16.3,809.3 19.6,819.1 22.5,827.5 25.8,838.9 29,829.8 32.3,825.2 35.5,824 38.8,838.6 
		42,824 45.3,829.1 48.3,842.5 51.5,840.2 54.8,808 58,822.9 61.3,851.3 64.5,813.5 67.8,804.4 71.1,804.1 74,806.4 77.3,823.6 
		80.5,803.1 83.8,811.3 87,827.9 90.3,848.1 93.6,860.4 96.8,858.8 99.7,859.7 103,866.6 106.3,854.2 109.5,857.5 112.8,843.8 
		116,871.8 119.3,861.1 122.6,898.5 125.5,901.1 128.7,917.1 132,881.6 135.3,877.7 138.5,826.2 141.8,806.7 145.1,790.4 148,771.2 
		151.2,752.9 154.5,730.1 157.7,766.6 161,801.1 164.3,769.2 167.6,767.6 170.8,786.8 173.7,822.9 177,836 180.2,807.3 183.5,785.8 
		186.8,798.5 190.1,823.3 193.3,840.2 196.6,866.6 199.5,829.5 202.7,840.2 206,815.8 209.3,812.9 212.5,809.3 215.8,803.1 
		219.1,831.7 222.3,840.2 225.2,847.1 228.5,827.9 231.8,865.9 235,857.8 238.3,831.7 241.6,820.3 244.8,815.5 248.1,832.8 
		251,832.8 254.2,833.4 257.5,826.2 260.8,810.6 264,826.2 267.3,851 270.6,870.2 273.8,843.8 276.7,848.7 280,829.8 283.3,826.8 
		286.5,856.9 289.8,838.9 293,847.1 296.3,843.2 299.2,853.6 302.5,834.7 305.8,806.4 309,790 312.3,809.6 315.5,820.1 318.8,803.1 
		322,784.5 325,826.6 328.2,848.1 331.5,845.4 334.8,847.4 338,840.2 341.3,831.7 344.5,795 347.8,795.6 350.7,821.3 354,801.4 
		357.2,796.6 360.5,805.7 363.8,848.3 367,856.2 370.3,854.8 373.5,839.6 376.5,838.6 379.7,843.8 383,827.5 386.2,843.2 
		389.5,849.7 392.7,829.8 396,831.7 399.3,834.4 402.2,823.3 405.5,829.5 408.7,809.6 412,813.8 415.2,812.2 418.5,821.3 
		421.7,825.6 425,855.9 428,833.1 431.2,837.3 434.5,839.6 437.7,801.4 441,807.3 444.2,800.2 447.5,792.3 450.7,829.5 453.7,823.3 
		457,796.6 460.2,813.5 463.5,836.3 466.7,806.4 470,792.7 473.2,786.1 476.2,778.3 479.4,802.5 482.7,825.2 485.9,829.8 489.2,822 
		492.5,800.5 495.7,804.1 499,827.9 501.9,816.1 505.2,821.3 508.4,828.5 511.7,818.4 514.9,855.9 518.2,834 521.4,847.4 
		524.7,833.1 527.7,861.1 530.9,848.7 534.2,852.6 537.4,851 540.7,867.3 543.9,854.6 547.2,855.2 550.5,849 553.4,862.7 
		556.7,843.2 559.9,842.5 563.2,875.4 566.4,949 569.7,932.7 572.9,831.7 576.2,796.6 579.1,760.8 582.4,802.5 585.7,790.4 
		588.9,798.9 592.2,788.4 595.5,813.8 598.7,794 602,785.5 604.9,782.9 608.1,789.4 611.4,795 614.7,790.4 617.9,804.8 621.2,810.6 
		624.5,844.8 627.4,837 630.6,829.8 633.9,837 637.1,822.9 640.4,863 643.7,848.3 647,859.4 650.2,884.2 653.1,894.3 656.4,863.6 
		659.6,890.7 662.9,869.9 666.2,871.5 669.5,885.8 672.7,887.8 676,868.9 678.9,869.2 682.1,858.8 685.4,869.2 688.6,849.7 
		691.9,851.3 695.2,844.8 698.5,842.2 701.7,847.1 	"/>
</g>
<text transform="matrix(1 0 0 1 750.7018 987.8024)"><tspan x="0" y="0" style="font-family:'ArialMT'; font-size:21.4582px;">(</tspan><tspan x="7.1" y="0" style="font-family:'ArialMT'; font-size:21.4582px;">3</tspan><tspan x="19.1" y="0" style="font-family:'ArialMT'; font-size:21.4582px;">0</tspan><tspan x="30.9" y="0" style="font-family:'ArialMT'; font-size:21.4582px;">)</tspan></text>
<text transform="matrix(1 0 0 1 750.7018 946.1567)"><tspan x="0" y="0" style="font-family:'ArialMT'; font-size:21.4582px;">(</tspan><tspan x="7.1" y="0" style="font-family:'ArialMT'; font-size:21.4582px;">2</tspan><tspan x="19.1" y="0" style="font-family:'ArialMT'; font-size:21.4582px;">0</tspan><tspan x="30.9" y="0" style="font-family:'ArialMT'; font-size:21.4582px;">)</tspan></text>
<text transform="matrix(1 0 0 1 750.7018 904.5109)"><tspan x="0" y="0" style="font-family:'ArialMT'; font-size:21.4582px;">(</tspan><tspan x="7.1" y="0" style="font-family:'ArialMT'; font-size:21.4582px;">1</tspan><tspan x="19.1" y="0" style="font-family:'ArialMT'; font-size:21.4582px;">0</tspan><tspan x="30.9" y="0" style="font-family:'ArialMT'; font-size:21.4582px;">)</tspan></text>
<text transform="matrix(1 0 0 1 750.7018 862.865)" style="font-family:'ArialMT'; font-size:21.4582px;">0</text>
<text transform="matrix(1 0 0 1 750.7018 821.2191)"><tspan x="0" y="0" style="font-family:'ArialMT'; font-size:21.4582px;">1</tspan><tspan x="12" y="0" style="font-family:'ArialMT'; font-size:21.4582px;">0</tspan></text>
<text transform="matrix(1 0 0 1 750.7018 779.5732)"><tspan x="0" y="0" style="font-family:'ArialMT'; font-size:21.4582px;">2</tspan><tspan x="12" y="0" style="font-family:'ArialMT'; font-size:21.4582px;">0</tspan></text>
<text transform="matrix(1 0 0 1 750.7018 737.9272)"><tspan x="0" y="0" style="font-family:'ArialMT'; font-size:21.4582px;">3</tspan><tspan x="12" y="0" style="font-family:'ArialMT'; font-size:21.4582px;">0</tspan></text>
<text transform="matrix(1 0 0 1 36.9092 1021.5826)"><tspan x="0" y="0" style="font-family:'SourceHanSansTC-Regular-B5pc-H'; font-size:18px;">2</tspan><tspan x="10" y="0" style="font-family:'SourceHanSansTC-Regular-B5pc-H'; font-size:18px;">0</tspan><tspan x="19.9" y="0" style="font-family:'SourceHanSansTC-Regular-B5pc-H'; font-size:18px;">0</tspan><tspan x="29.9" y="0" style="font-family:'SourceHanSansTC-Regular-B5pc-H'; font-size:18px;">7</tspan></text>
<text transform="matrix(1 0 0 1 114.1044 1021.5826)"><tspan x="0" y="0" style="font-family:'SourceHanSansTC-Regular-B5pc-H'; font-size:18px;">2</tspan><tspan x="10" y="0" style="font-family:'SourceHanSansTC-Regular-B5pc-H'; font-size:18px;">0</tspan><tspan x="19.9" y="0" style="font-family:'SourceHanSansTC-Regular-B5pc-H'; font-size:18px;">0</tspan><tspan x="29.9" y="0" style="font-family:'SourceHanSansTC-Regular-B5pc-H'; font-size:18px;">9</tspan></text>
<text transform="matrix(1 0 0 1 191.2998 1021.5826)"><tspan x="0" y="0" style="font-family:'SourceHanSansTC-Regular-B5pc-H'; font-size:18px;">2</tspan><tspan x="10" y="0" style="font-family:'SourceHanSansTC-Regular-B5pc-H'; font-size:18px;">0</tspan><tspan x="19.9" y="0" style="font-family:'SourceHanSansTC-Regular-B5pc-H'; font-size:18px;">1</tspan><tspan x="29.9" y="0" style="font-family:'SourceHanSansTC-Regular-B5pc-H'; font-size:18px;">1</tspan></text>
<text transform="matrix(1 0 0 1 268.4952 1021.5826)"><tspan x="0" y="0" style="font-family:'SourceHanSansTC-Regular-B5pc-H'; font-size:18px;">2</tspan><tspan x="10" y="0" style="font-family:'SourceHanSansTC-Regular-B5pc-H'; font-size:18px;">0</tspan><tspan x="19.9" y="0" style="font-family:'SourceHanSansTC-Regular-B5pc-H'; font-size:18px;">1</tspan><tspan x="29.9" y="0" style="font-family:'SourceHanSansTC-Regular-B5pc-H'; font-size:18px;">3</tspan></text>
<text transform="matrix(1 0 0 1 345.6902 1021.5826)"><tspan x="0" y="0" style="font-family:'SourceHanSansTC-Regular-B5pc-H'; font-size:18px;">2</tspan><tspan x="10" y="0" style="font-family:'SourceHanSansTC-Regular-B5pc-H'; font-size:18px;">0</tspan><tspan x="19.9" y="0" style="font-family:'SourceHanSansTC-Regular-B5pc-H'; font-size:18px;">1</tspan><tspan x="29.9" y="0" style="font-family:'SourceHanSansTC-Regular-B5pc-H'; font-size:18px;">5</tspan></text>
<text transform="matrix(1 0 0 1 422.8856 1021.5826)"><tspan x="0" y="0" style="font-family:'SourceHanSansTC-Regular-B5pc-H'; font-size:18px;">2</tspan><tspan x="10" y="0" style="font-family:'SourceHanSansTC-Regular-B5pc-H'; font-size:18px;">0</tspan><tspan x="19.9" y="0" style="font-family:'SourceHanSansTC-Regular-B5pc-H'; font-size:18px;">1</tspan><tspan x="29.9" y="0" style="font-family:'SourceHanSansTC-Regular-B5pc-H'; font-size:18px;">7</tspan></text>
<text transform="matrix(1 0 0 1 500.0811 1021.5826)"><tspan x="0" y="0" style="font-family:'SourceHanSansTC-Regular-B5pc-H'; font-size:18px;">2</tspan><tspan x="10" y="0" style="font-family:'SourceHanSansTC-Regular-B5pc-H'; font-size:18px;">0</tspan><tspan x="19.9" y="0" style="font-family:'SourceHanSansTC-Regular-B5pc-H'; font-size:18px;">1</tspan><tspan x="29.9" y="0" style="font-family:'SourceHanSansTC-Regular-B5pc-H'; font-size:18px;">9</tspan></text>
<text transform="matrix(1 0 0 1 577.276 1021.5826)"><tspan x="0" y="0" style="font-family:'SourceHanSansTC-Regular-B5pc-H'; font-size:18px;">2</tspan><tspan x="10" y="0" style="font-family:'SourceHanSansTC-Regular-B5pc-H'; font-size:18px;">0</tspan><tspan x="19.9" y="0" style="font-family:'SourceHanSansTC-Regular-B5pc-H'; font-size:18px;">2</tspan><tspan x="29.9" y="0" style="font-family:'SourceHanSansTC-Regular-B5pc-H'; font-size:18px;">1</tspan></text>
<text transform="matrix(1 0 0 1 654.4719 1021.5826)"><tspan x="0" y="0" style="font-family:'SourceHanSansTC-Regular-B5pc-H'; font-size:18px;">2</tspan><tspan x="10" y="0" style="font-family:'SourceHanSansTC-Regular-B5pc-H'; font-size:18px;">0</tspan><tspan x="19.9" y="0" style="font-family:'SourceHanSansTC-Regular-B5pc-H'; font-size:18px;">2</tspan><tspan x="29.9" y="0" style="font-family:'SourceHanSansTC-Regular-B5pc-H'; font-size:18px;">3</tspan></text>
<g>
	
		<text transform="matrix(1 0 0 1 292.9754 1127.3774)" style="fill:#494949; font-family:'SourceHanSansTC-Normal-B5pc-H'; font-size:13.0997px;">資料來源：彭博；凱基整理</text>
</g>
</svg>
