<?xml version="1.0" encoding="utf-8"?>
<!-- Generator: Adobe Illustrator 27.8.1, SVG Export Plug-In . SVG Version: 6.00 Build 0)  -->
<svg version="1.1" id="分離模式" xmlns="http://www.w3.org/2000/svg" xmlns:xlink="http://www.w3.org/1999/xlink" x="0px"
	 y="0px" viewBox="0 0 736 497.3" style="enable-background:new 0 0 736 497.3;" xml:space="preserve">
<style type="text/css">
	.st0{fill:#DADADA;}
	.st1{fill:#910000;}
	.st2{fill:none;stroke:#910000;stroke-width:0.14;stroke-linejoin:round;stroke-miterlimit:10;}
	.st3{fill:#3C3C3B;}
	.st4{fill:none;stroke:#E6E6E6;stroke-width:2.0604;stroke-linejoin:round;stroke-miterlimit:10;}
	.st5{clip-path:url(#SVGID_00000006687185482809536760000003466538802759863721_);fill:#910000;}
	
		.st6{clip-path:url(#SVGID_00000006687185482809536760000003466538802759863721_);fill:none;stroke:#910000;stroke-width:0.14;stroke-linejoin:round;stroke-miterlimit:10;}
	
		.st7{clip-path:url(#SVGID_00000106844063321392030780000007857720288762469550_);fill:none;stroke:#910000;stroke-width:2.0604;stroke-linejoin:round;stroke-miterlimit:10;}
	
		.st8{clip-path:url(#SVGID_00000067949713477343424980000009172316101853991825_);fill:none;stroke:#EF7E00;stroke-width:2.0604;stroke-linejoin:round;stroke-miterlimit:10;}
	
		.st9{clip-path:url(#SVGID_00000023991671459033327860000013980885283470527385_);fill:none;stroke:#FAC090;stroke-width:2.0604;stroke-linejoin:round;stroke-miterlimit:10;}
	.st10{fill:#EF7E00;}
	.st11{fill:#FAC090;}
	.st12{fill:#BA1019;}
	.st13{clip-path:url(#SVGID_00000041270959215425104190000007334997213009893528_);fill:#910000;}
	
		.st14{clip-path:url(#SVGID_00000041270959215425104190000007334997213009893528_);fill:none;stroke:#910000;stroke-width:0.14;stroke-linejoin:round;stroke-miterlimit:10;}
	
		.st15{clip-path:url(#SVGID_00000183969943213498843920000016773704325190094005_);fill:none;stroke:#910000;stroke-width:2.0604;stroke-linejoin:round;stroke-miterlimit:10;}
	
		.st16{clip-path:url(#SVGID_00000124150425908691971800000018053235778978401424_);fill:none;stroke:#EF7E00;stroke-width:2.0604;stroke-linejoin:round;stroke-miterlimit:10;}
	
		.st17{clip-path:url(#SVGID_00000170983618622330905640000012104849740721677475_);fill:none;stroke:#FAC090;stroke-width:2.0604;stroke-linejoin:round;stroke-miterlimit:10;}
</style>
<g>
	<path d="M12,153.3c0-5.1,2.4-7.1,5-7.1c1.5,0,2.6,0.6,3.3,1.4l-1.1,1.3c-0.5-0.6-1.3-1-2.1-1c-1.7,0-3.1,1.3-3.2,5
		c0.8-1,1.9-1.5,2.9-1.5c2.2,0,3.7,1.3,3.7,4c0,2.5-1.8,4.2-4,4.2C14.1,159.5,12,157.5,12,153.3z M14,154.4c0.2,2.4,1.2,3.5,2.6,3.5
		c1.2,0,2.1-1,2.1-2.6c0-1.6-0.8-2.5-2.2-2.5C15.7,152.8,14.8,153.3,14,154.4z"/>
	<path d="M11.6,198.7l1-1.4c0.8,0.8,1.7,1.4,3.1,1.4c1.5,0,2.6-1,2.6-2.6c0-1.6-1-2.6-2.5-2.6c-0.8,0-1.4,0.3-2.1,0.8l-1-0.6
		l0.4-6.3h6.7v1.7h-4.9l-0.3,3.4c0.6-0.3,1.1-0.5,1.8-0.5c2.2,0,4,1.2,4,4c0,2.8-2.1,4.4-4.5,4.4C13.8,200.5,12.5,199.7,11.6,198.7z
		"/>
	<path d="M17.2,237.8h-5.7v-1.4l5.3-8.1h2.4v7.9h1.7v1.6h-1.7v3.4h-1.9V237.8z M17.2,236.2V233c0-0.7,0.1-1.9,0.1-2.6h-0.1
		c-0.3,0.6-0.7,1.3-1.1,1.9l-2.6,3.9H17.2z"/>
	<path d="M11.6,280.7l1-1.3c0.8,0.8,1.8,1.5,3.1,1.5c1.5,0,2.5-0.8,2.5-2.1c0-1.4-0.9-2.3-3.9-2.3v-1.5c2.6,0,3.5-1,3.5-2.2
		c0-1.2-0.8-1.9-2-1.9c-1,0-1.9,0.5-2.6,1.3l-1.1-1.3c1-1,2.3-1.6,3.8-1.6c2.4,0,4.1,1.2,4.1,3.3c0,1.5-0.9,2.5-2.3,3v0.1
		c1.5,0.4,2.7,1.5,2.7,3.2c0,2.3-2,3.7-4.4,3.7C13.8,282.5,12.5,281.7,11.6,280.7z"/>
	<path d="M11.9,322.1c3.7-3.6,5.9-5.9,5.9-7.9c0-1.4-0.8-2.3-2.3-2.3c-1,0-1.9,0.7-2.6,1.5l-1.2-1.2c1.1-1.2,2.3-2,4-2
		c2.4,0,4,1.5,4,3.9c0,2.4-2.1,4.7-4.9,7.6c0.7-0.1,1.5-0.1,2.2-0.1h3.4v1.8h-8.6V322.1z"/>
	<path d="M12.6,362.6h2.9v-8.9h-2.4v-1.3c1.2-0.2,2.1-0.5,2.9-1h1.6v11.2h2.6v1.7h-7.6V362.6z"/>
	<path d="M11.9,398.8c0-4.3,1.7-6.6,4.3-6.6c2.6,0,4.3,2.3,4.3,6.6c0,4.3-1.6,6.7-4.3,6.7C13.6,405.5,11.9,403.1,11.9,398.8z
		 M18.5,398.8c0-3.7-1-5-2.3-5c-1.4,0-2.3,1.3-2.3,5s1,5.1,2.3,5.1C17.6,403.9,18.5,402.5,18.5,398.8z"/>
</g>
<g>
	<path d="M38.8,430.2c3.7-3.6,5.9-5.9,5.9-7.9c0-1.4-0.8-2.3-2.3-2.3c-1,0-1.9,0.7-2.6,1.5l-1.2-1.2c1.1-1.2,2.3-2,4-2
		c2.4,0,4,1.5,4,3.9c0,2.4-2.1,4.7-4.9,7.6c0.7-0.1,1.5-0.1,2.2-0.1h3.4v1.8h-8.6V430.2z"/>
	<path d="M50.9,424.9c0-4.3,1.7-6.6,4.3-6.6c2.6,0,4.3,2.3,4.3,6.6c0,4.3-1.6,6.7-4.3,6.7C52.6,431.7,50.9,429.3,50.9,424.9z
		 M57.5,424.9c0-3.7-1-5-2.3-5c-1.4,0-2.3,1.3-2.3,5s1,5.1,2.3,5.1C56.5,430,57.5,428.6,57.5,424.9z"/>
	<path d="M62.9,430.2c3.7-3.6,5.9-5.9,5.9-7.9c0-1.4-0.8-2.3-2.3-2.3c-1,0-1.9,0.7-2.6,1.5l-1.2-1.2c1.1-1.2,2.3-2,4-2
		c2.4,0,4,1.5,4,3.9c0,2.4-2.1,4.7-4.9,7.6c0.7-0.1,1.5-0.1,2.2-0.1h3.4v1.8h-8.6V430.2z"/>
	<path d="M74.9,430.2c3.7-3.6,5.9-5.9,5.9-7.9c0-1.4-0.8-2.3-2.3-2.3c-1,0-1.9,0.7-2.6,1.5l-1.2-1.2c1.1-1.2,2.3-2,4-2
		c2.4,0,4,1.5,4,3.9c0,2.4-2.1,4.7-4.9,7.6c0.7-0.1,1.5-0.1,2.2-0.1h3.4v1.8h-8.6V430.2z"/>
	<path d="M180.3,430.2c3.7-3.6,5.9-5.9,5.9-7.9c0-1.4-0.8-2.3-2.3-2.3c-1,0-1.9,0.7-2.6,1.5l-1.2-1.2c1.1-1.2,2.3-2,4-2
		c2.4,0,4,1.5,4,3.9c0,2.4-2.1,4.7-4.9,7.6c0.7-0.1,1.5-0.1,2.2-0.1h3.4v1.8h-8.6V430.2z"/>
	<path d="M192.4,424.9c0-4.3,1.7-6.6,4.3-6.6c2.6,0,4.3,2.3,4.3,6.6c0,4.3-1.6,6.7-4.3,6.7C194,431.7,192.4,429.3,192.4,424.9z
		 M199,424.9c0-3.7-1-5-2.3-5c-1.4,0-2.3,1.3-2.3,5s1,5.1,2.3,5.1C198,430,199,428.6,199,424.9z"/>
	<path d="M204.4,430.2c3.7-3.6,5.9-5.9,5.9-7.9c0-1.4-0.8-2.3-2.3-2.3c-1,0-1.9,0.7-2.6,1.5l-1.2-1.2c1.1-1.2,2.3-2,4-2
		c2.4,0,4,1.5,4,3.9c0,2.4-2.1,4.7-4.9,7.6c0.7-0.1,1.5-0.1,2.2-0.1h3.4v1.8h-8.6V430.2z"/>
	<path d="M216.1,429.8l1-1.3c0.8,0.8,1.8,1.5,3.1,1.5c1.5,0,2.5-0.8,2.5-2.1c0-1.4-0.9-2.3-3.9-2.3V424c2.6,0,3.5-1,3.5-2.2
		c0-1.2-0.8-1.9-2-1.9c-1,0-1.9,0.5-2.6,1.3l-1.1-1.3c1-1,2.3-1.6,3.8-1.6c2.4,0,4.1,1.2,4.1,3.3c0,1.5-0.9,2.5-2.3,3v0.1
		c1.5,0.4,2.7,1.5,2.7,3.2c0,2.3-2,3.7-4.4,3.7C218.3,431.7,217,430.8,216.1,429.8z"/>
	<path d="M321.8,430.2c3.7-3.6,5.9-5.9,5.9-7.9c0-1.4-0.8-2.3-2.3-2.3c-1,0-1.9,0.7-2.6,1.5l-1.2-1.2c1.1-1.2,2.3-2,4-2
		c2.4,0,4,1.5,4,3.9c0,2.4-2.1,4.7-4.9,7.6c0.7-0.1,1.5-0.1,2.2-0.1h3.4v1.8h-8.6V430.2z"/>
	<path d="M333.8,424.9c0-4.3,1.7-6.6,4.3-6.6c2.6,0,4.3,2.3,4.3,6.6c0,4.3-1.6,6.7-4.3,6.7C335.5,431.7,333.8,429.3,333.8,424.9z
		 M340.4,424.9c0-3.7-1-5-2.3-5c-1.4,0-2.3,1.3-2.3,5s1,5.1,2.3,5.1C339.5,430,340.4,428.6,340.4,424.9z"/>
	<path d="M345.8,430.2c3.7-3.6,5.9-5.9,5.9-7.9c0-1.4-0.8-2.3-2.3-2.3c-1,0-1.9,0.7-2.6,1.5l-1.2-1.2c1.1-1.2,2.3-2,4-2
		c2.4,0,4,1.5,4,3.9c0,2.4-2.1,4.7-4.9,7.6c0.7-0.1,1.5-0.1,2.2-0.1h3.4v1.8h-8.6V430.2z"/>
	<path d="M363.2,428h-5.7v-1.4l5.3-8.1h2.4v7.9h1.7v1.6h-1.7v3.4h-1.9V428z M363.2,426.4v-3.3c0-0.7,0.1-1.9,0.1-2.6h-0.1
		c-0.3,0.6-0.7,1.3-1.1,1.9l-2.6,3.9H363.2z"/>
	<path d="M463.2,430.2c3.7-3.6,5.9-5.9,5.9-7.9c0-1.4-0.8-2.3-2.3-2.3c-1,0-1.9,0.7-2.6,1.5l-1.2-1.2c1.1-1.2,2.3-2,4-2
		c2.4,0,4,1.5,4,3.9c0,2.4-2.1,4.7-4.9,7.6c0.7-0.1,1.5-0.1,2.2-0.1h3.4v1.8h-8.6V430.2z"/>
	<path d="M475.3,424.9c0-4.3,1.7-6.6,4.3-6.6c2.6,0,4.3,2.3,4.3,6.6c0,4.3-1.6,6.7-4.3,6.7C477,431.7,475.3,429.3,475.3,424.9z
		 M481.9,424.9c0-3.7-1-5-2.3-5c-1.4,0-2.3,1.3-2.3,5s1,5.1,2.3,5.1C481,430,481.9,428.6,481.9,424.9z"/>
	<path d="M487.3,430.2c3.7-3.6,5.9-5.9,5.9-7.9c0-1.4-0.8-2.3-2.3-2.3c-1,0-1.9,0.7-2.6,1.5l-1.2-1.2c1.1-1.2,2.3-2,4-2
		c2.4,0,4,1.5,4,3.9c0,2.4-2.1,4.7-4.9,7.6c0.7-0.1,1.5-0.1,2.2-0.1h3.4v1.8h-8.6V430.2z"/>
	<path d="M499,429.9l1-1.4c0.8,0.8,1.7,1.4,3.1,1.4c1.5,0,2.6-1,2.6-2.6s-1-2.6-2.5-2.6c-0.8,0-1.4,0.3-2.1,0.8l-1-0.6l0.4-6.3h6.7
		v1.7h-4.9l-0.3,3.4c0.6-0.3,1.1-0.5,1.8-0.5c2.2,0,4,1.2,4,4c0,2.8-2.1,4.4-4.5,4.4C501.3,431.7,500,430.8,499,429.9z"/>
	<path d="M604.7,430.2c3.7-3.6,5.9-5.9,5.9-7.9c0-1.4-0.8-2.3-2.2-2.3c-1,0-1.9,0.7-2.6,1.5l-1.2-1.2c1.1-1.2,2.3-2,4-2
		c2.4,0,4,1.5,4,3.9c0,2.4-2.1,4.7-4.9,7.6c0.7-0.1,1.5-0.1,2.2-0.1h3.4v1.8h-8.6V430.2z"/>
	<path d="M616.8,424.9c0-4.3,1.7-6.6,4.3-6.6c2.6,0,4.3,2.3,4.3,6.6c0,4.3-1.6,6.7-4.3,6.7C618.5,431.7,616.8,429.3,616.8,424.9z
		 M623.4,424.9c0-3.7-1-5-2.3-5c-1.3,0-2.3,1.3-2.3,5s1,5.1,2.3,5.1C622.4,430,623.4,428.6,623.4,424.9z"/>
	<path d="M628.8,430.2c3.7-3.6,5.9-5.9,5.9-7.9c0-1.4-0.8-2.3-2.3-2.3c-1,0-1.9,0.7-2.6,1.5l-1.2-1.2c1.1-1.2,2.3-2,4-2
		c2.4,0,4,1.5,4,3.9c0,2.4-2.1,4.7-4.9,7.6c0.7-0.1,1.5-0.1,2.2-0.1h3.4v1.8h-8.6V430.2z"/>
	<path d="M641,425.4c0-5.1,2.4-7.1,5-7.1c1.5,0,2.6,0.6,3.3,1.4l-1.1,1.3c-0.5-0.6-1.3-1-2.1-1c-1.7,0-3.1,1.3-3.2,5
		c0.8-1,1.9-1.5,2.9-1.5c2.2,0,3.7,1.3,3.7,4c0,2.5-1.8,4.2-4,4.2C643,431.7,641,429.7,641,425.4z M643,426.6
		c0.2,2.4,1.2,3.5,2.6,3.5c1.2,0,2.1-1,2.1-2.6c0-1.6-0.8-2.5-2.2-2.5C644.7,425,643.7,425.4,643,426.6z"/>
	<path d="M721.7,428.9h-6.3v4h-1.7v-4h-8.2v-1.6h2.9v-4.8h5.3V420h-4.1c-0.8,1.3-1.7,2.5-2.6,3.4c-0.3-0.3-1-0.8-1.5-1.1
		c1.7-1.4,3.1-3.7,3.9-6.1l1.7,0.5c-0.2,0.6-0.5,1.2-0.7,1.7h10.4v1.6h-5.4v2.5h5v1.6h-5v3.2h6.3V428.9z M713.6,427.2v-3.2H710v3.2
		H713.6z"/>
</g>
<g>
	<path class="st0" d="M37.7,398c-1.4,0-2.5-1.1-2.5-2.5V196.9c0-1.4,1.1-2.5,2.5-2.5c1.4,0,2.5,1.1,2.5,2.5v198.7
		C40.2,396.9,39.1,398,37.7,398z"/>
</g>
<g>
	<g>
		<path class="st12" d="M172.1,11v2.7h7.7v8.1c0,1.4-0.3,2.2-1.3,2.6c-1,0.5-2.4,0.5-4.2,0.5c-0.1-0.8-0.6-2-1-2.8
			c1.2,0.1,2.6,0.1,3,0c0.4,0,0.5-0.1,0.5-0.4v-5.3h-4.8v10.8h-3V16.5h-4.4v8.4h-2.9V13.7h7.3V11h-9.3V8.3h9.6
			c-0.4-0.9-0.8-1.8-1.2-2.6l2.8-0.9c0.6,1.1,1.4,2.5,1.8,3.5h8.9V11H172.1z"/>
		<path class="st12" d="M196.3,17c-0.2,0.4-0.4,0.8-0.7,1.2h9.7c0,0,0,0.6,0,1c-0.3,4.7-0.7,6.6-1.4,7.3c-0.5,0.6-1,0.7-1.6,0.8
			c-0.6,0.1-1.5,0.1-2.4,0c0-0.7-0.3-1.6-0.6-2.2c0.8,0.1,1.4,0.1,1.7,0.1c0.3,0,0.5,0,0.7-0.3c0.3-0.4,0.6-1.6,0.9-4.5h-0.9
			c-1,2.7-2.9,5.6-4.8,7.1c-0.5-0.6-1.3-1.2-2-1.6c1.8-1.2,3.4-3.3,4.5-5.5h-1.4c-1.3,2.3-3.5,4.7-5.6,6c-0.5-0.6-1.2-1.3-1.9-1.7
			c1.8-0.9,3.6-2.6,4.9-4.3h-1.4c-0.9,0.9-1.8,1.7-2.8,2.4c-0.4-0.5-1.3-1.3-1.9-1.7c-1.7,0.9-3.5,1.7-4.9,2.4l-1.1-2.9
			c0.8-0.3,1.8-0.7,3-1.2v-6.8h-2.4V10h2.4V5.3h2.6V10h2.3v2.7h-2.3v5.7l1.9-0.8l0.5,2c0.9-0.7,1.6-1.6,2.2-2.5h-2.7v-2.4h15.1V17
			H196.3z M204.2,13.7h-11.4V5.6h11.4V13.7z M201.6,7.6h-6.2v1.2h6.2V7.6z M201.6,10.6h-6.2v1.2h6.2V10.6z"/>
		<path class="st12" d="M214.3,19.2c0.3-0.8,0.6-1.9,0.8-3h-1.4v8.1c0,1.3-0.2,2.1-1.1,2.5c-0.9,0.4-2.1,0.5-3.7,0.5
			c-0.1-0.8-0.5-2-0.9-2.7c1,0,2.2,0,2.5,0c0.3,0,0.4-0.1,0.4-0.4v-8.1h-3.6v-2.5h5.1c-1.2-0.9-2.8-1.8-4.2-2.5l1.4-1.8
			c0.7,0.3,1.5,0.7,2.2,1.1c0.5-0.6,1.1-1.2,1.5-1.9h-5.6V6h7.3l0.5-0.2l1.6,1.2V5.9h12.2v2.4h-4.5c-0.2,0.6-0.3,1.1-0.5,1.6h4.3
			v12.7h-10.7V9.9h3.5c0.1-0.5,0.2-1.1,0.2-1.6h-4.6V7.3c-0.9,1.5-2.2,3.1-3.4,4.4c0.6,0.4,1.1,0.8,1.4,1.1l-0.6,0.9h1.2l0.4-0.1
			l1.7,0.4c-0.5,2-1.2,4.2-1.7,5.7L214.3,19.2z M222.9,24.2c-1.3,1.3-3.6,2.6-5.4,3.3c-0.5-0.6-1.3-1.4-1.9-1.9c1.9-0.6,4-1.9,5-3
			L222.9,24.2z M226.2,12h-5.4v1.5h5.4V12z M226.2,15.5h-5.4V17h5.4V15.5z M226.2,19h-5.4v1.5h5.4V19z M226.1,22.8
			c1.3,0.9,3.1,2.2,4.1,3.1l-2.3,1.6c-0.8-0.9-2.6-2.3-3.9-3.3L226.1,22.8z"/>
		<path class="st12" d="M237.1,22.7c-0.8,1.8-2.3,3.6-3.6,4.8c-0.5-0.5-1.6-1.3-2.3-1.7c1.2-0.9,2.5-2.4,3.2-3.9L237.1,22.7z
			 M243.2,21.7h-11.8v-2.5h2.2v-8.9h-1.9V7.8h1.9V5.3h2.6v2.5h3V5.3h2.6v2.5h1.6v2.5h-1.6v8.9h1.5V21.7z M236.2,10.3v1.4h3v-1.4
			H236.2z M236.2,15.4h3v-1.5h-3V15.4z M236.2,19.2h3v-1.6h-3V19.2z M253.1,24.3c0,1.4-0.3,2.2-1.1,2.6c-0.8,0.5-2.1,0.5-3.8,0.5
			c-0.1-0.7-0.5-2-0.8-2.7c1,0.1,2.2,0,2.5,0c0.4,0,0.5-0.1,0.5-0.5v-4.7h-3.6c-0.3,2.8-0.9,5.8-2.2,8c-0.5-0.5-1.6-1.4-2.3-1.6
			c0.1-0.1,0.2-0.3,0.2-0.4l-2,1.1c-0.5-0.9-1.6-2.5-2.6-3.6l2.2-1.2c0.9,1,2,2.3,2.6,3.3c1.4-3,1.5-7.1,1.5-10.2V6.1h8.9V24.3z
			 M250.3,16.9v-3h-3.5v0.9c0,0.6,0,1.3,0,2.1H250.3z M246.9,8.7v2.8h3.5V8.7H246.9z"/>
		<path class="st12" d="M264.2,6.9c-0.7,2-1.6,4.4-2.4,6.2c1.7,1.9,2,3.6,2,5c0,1.6-0.4,2.6-1.2,3.2c-0.4,0.3-0.8,0.4-1.4,0.5
			c-0.5,0.1-1.1,0.1-1.7,0c0-0.7-0.3-1.8-0.7-2.4c0.5,0,0.9,0,1.2,0s0.6-0.1,0.7-0.2c0.3-0.2,0.5-0.7,0.5-1.4c0-1.2-0.4-2.7-2-4.4
			c0.6-1.4,1.2-3.4,1.6-4.9h-2.1v18.9h-2.5V5.9h5.6l0.4-0.1L264.2,6.9z M276.9,7.8c-0.9,1.9-2.2,3.5-3.8,4.8
			c1.5,0.6,3.2,1.1,5.1,1.4c-0.6,0.6-1.3,1.6-1.7,2.3c-2.2-0.4-4.1-1.1-5.8-2.1c-1.8,1-3.9,1.7-6,2.2c-0.3-0.7-0.9-1.7-1.4-2.3
			c1.8-0.3,3.6-0.9,5.2-1.5c-0.5-0.5-1-1-1.5-1.5c-0.6,0.5-1.2,1-1.8,1.5c-0.4-0.6-1.2-1.6-1.8-2c2.5-1.5,4.2-3.6,5.2-5.4l2.8,0.6
			c-0.2,0.5-0.6,0.9-0.9,1.4h4.3l0.5-0.1L276.9,7.8z M272.6,21.7h5.1v2.4h-5.1v3.3h-2.8v-3.3h-6c0.4-1.3,0.9-3.2,1.3-4.8h-0.7v-2.4
			h5.5v-1.3h2.8v1.3h4.4v2.4h-4.4V21.7z M269.8,21.7v-2.4h-2.2c-0.2,0.8-0.4,1.6-0.6,2.4H269.8z M268.8,9.1l-0.2,0.2
			c0.6,0.7,1.2,1.3,2.1,1.9c0.9-0.6,1.7-1.3,2.4-2.1H268.8z"/>
		<path class="st12" d="M279.4,25c0.8-1.4,1.8-3.4,2.3-5l2.5,1.1c-0.6,1.7-1.4,3.8-2.2,5.3L279.4,25z M289.9,18.9H283V7.1h5.5
			c0.2-0.8,0.5-1.7,0.6-2.4l3.5,0.4c-0.3,0.7-0.7,1.3-1,1.9h6.6v11.8h-6.9c1,1,2,2.2,2.5,3.2l-2.4,1.4c-0.5-1.1-1.8-2.7-2.9-3.8
			L289.9,18.9z M293.3,24.4c1.2,0,1.3-0.3,1.5-2.6c0.6,0.5,1.8,0.9,2.6,1c-0.3,3.4-1.2,4.2-3.9,4.2H289c-3.4,0-4.2-0.8-4.2-3.4v-3.3
			h2.9v3.3c0,0.7,0.2,0.8,1.6,0.8H293.3z M285.8,10.4h9.5V9.3h-9.5V10.4z M285.8,13.6h9.5v-1.1h-9.5V13.6z M285.8,16.7h9.5v-1.1
			h-9.5V16.7z M299,19.5c1.1,1.6,2.3,3.7,2.7,5.1l-2.7,1.2c-0.3-1.4-1.4-3.6-2.4-5.2L299,19.5z"/>
		<path class="st12" d="M312.5,19.6c0,0.9-0.1,1.6-0.6,2c-0.5,0.4-1.1,0.5-1.9,0.5c0-0.6-0.3-1.7-0.6-2.3v7.6H307V11.9h-1v10.5h-2.1
			V9.4h3.1V5h2.4v4.4h3.1V19.6z M310.3,19.8c0.1,0,0.2,0,0.2-0.2v-7.6h-1.1v7.9H310.3z M325.5,6v2.3h-12.3V6H325.5z M313.2,16.8
			h12.2v10.6h-2.6v-0.7h-7.1v0.7h-2.5V16.8z M324.5,9.5v6h-10.3v-6H324.5z M315.7,19v1.6h2.3V19H315.7z M318,24.5v-1.7h-2.3v1.7H318
			z M322,11.7h-5.4v1.8h5.4V11.7z M322.8,19h-2.4v1.6h2.4V19z M322.8,24.5v-1.7h-2.4v1.7H322.8z"/>
		<path class="st12" d="M332.2,13.4c0,4-0.3,10-2.3,13.9c-0.6-0.4-1.9-1-2.6-1.2c1.9-3.7,2.1-9,2.1-12.7V7.1h9
			c-0.2-0.6-0.4-1.1-0.6-1.6l2.9-0.6c0.3,0.7,0.7,1.5,0.9,2.2h7.9v2.7h-17.3V13.4z M348.1,19.6c-1,1.9-2.4,3.3-4.2,4.4
			c1.8,0.4,3.8,0.7,6,0.9c-0.6,0.6-1.3,1.8-1.6,2.5c-2.9-0.3-5.5-0.8-7.8-1.8c-2.3,0.8-4.9,1.3-7.6,1.6c-0.2-0.7-0.7-1.8-1.2-2.4
			c2-0.2,3.9-0.4,5.7-0.8c-1.1-0.7-2.1-1.6-2.9-2.6l1-0.4h-2.5v-2.2h12.9l0.5-0.1L348.1,19.6z M335.9,17.9v-3.7h-3.2v-2.2h3.2v-1.6
			h2.7v1.6h4.4v-1.6h2.8v1.6h3.5v2.2h-3.5v3.7H335.9z M337.5,21c0.8,0.8,1.9,1.4,3.2,1.9c1.2-0.5,2.3-1.2,3.2-1.9H337.5z
			 M338.6,14.1v1.6h4.4v-1.6H338.6z"/>
		<path class="st12" d="M373.2,7.2v2.4H352V7.2h9.2c-0.2-0.6-0.4-1.2-0.6-1.7l3-0.7c0.3,0.7,0.6,1.6,0.9,2.4H373.2z M372.7,24.8
			c0,1.2-0.3,1.8-1.2,2.1c-0.9,0.3-2.2,0.3-3.8,0.3c-0.1-0.6-0.5-1.4-0.8-2h-6.9v1h-2.6v-6.3h10.4v5.3h-0.3c0.8,0,1.7,0,1.9,0
			c0.3,0,0.5-0.1,0.5-0.4V19h-14.3v8.4h-2.8V16.7h20V24.8z M370.4,15.7h-15.1v-5.1h15.1V15.7z M367.4,12.5h-9.3v1.3h9.3V12.5z
			 M365.2,21.9h-5.3v1.4h5.3V21.9z"/>
		<path class="st12" d="M385.3,14c0,0,0,0.8,0,1.1c-0.1,7.2-0.3,9.9-0.9,10.8c-0.4,0.7-0.9,0.9-1.6,1c-0.6,0.1-1.5,0.1-2.4,0.1
			c0-0.8-0.3-1.9-0.7-2.6c0.7,0,1.3,0.1,1.7,0.1c0.3,0,0.5-0.1,0.7-0.4c0.3-0.5,0.5-2.4,0.6-7.6h-2.2c-0.3,4.5-1.1,8.2-3.1,10.8
			c-0.5-0.7-1.3-1.7-2.1-2.1c2.4-3,2.5-7.8,2.6-13.9h-1.9V8.7h4.2c-0.3-0.9-1-2-1.5-2.9l2.5-1c0.7,1,1.5,2.3,1.8,3.2l-1.5,0.6h4.5
			v2.6h-5.4c0,0.9,0,1.8,0,2.6H385.3z M393.4,5.6c-0.2,0.6-0.4,1.1-0.6,1.7c1.2,2.3,3.2,4.7,5.4,5.9c-0.7,0.5-1.6,1.6-2,2.3
			c-1.7-1.2-3.4-3.2-4.6-5.4c-1.2,2.3-2.8,4.2-4.8,5.6c-0.4-0.7-1.2-1.7-2-2.3c2.8-1.7,4.9-4.8,6-8.5L393.4,5.6z M388.9,20.5
			c2.2,1.1,5.4,3,6.9,4.2l-2,2.4c-1.4-1.3-4.5-3.3-6.7-4.6L388.9,20.5z M392.8,19.6c-0.8-1-2.7-2.4-4.1-3.5l1.8-1.8
			c1.4,0.9,3.3,2.3,4.2,3.3L392.8,19.6z"/>
		<path class="st12" d="M407.1,8.5v19h-2.4v-4.1c-1.7,0.3-3.4,0.6-4.8,0.8l-0.5-2.5l1.2-0.2v-13h-0.9V5.9h8.1v2.5H407.1z M404.7,8.5
			h-1.8V11h1.8V8.5z M404.7,13.3h-1.8v2.5h1.8V13.3z M404.7,20.9v-2.7h-1.8v3L404.7,20.9z M413.7,12.5c0.5,1.2,0.9,3,1.2,4l-1.7,0.5
			c-0.1-0.3-0.1-0.7-0.2-1.1c-3.9,0.5-4.5,0.6-4.9,0.9c-0.1-0.5-0.4-1.8-0.6-2.5c0.4-0.1,0.9-0.5,1.4-1.1c0.2-0.2,0.6-0.6,1-1.2
			c-1.1,0.1-1.5,0.2-1.7,0.4c-0.1-0.6-0.4-1.8-0.6-2.5c0.3-0.1,0.7-0.4,1-0.8c0.3-0.4,1.5-2.1,2.1-3.8l2,0.9c-0.7,1.5-1.7,3-2.6,4.2
			l1.1-0.1c0.5-0.7,0.9-1.4,1.3-2.1l1.8,1c-1.2,2-2.6,3.9-4,5.4l2.2-0.2c-0.1-0.4-0.3-0.9-0.4-1.2L413.7,12.5z M411.7,17h2.4v3.6
			c0,2.5-0.8,5.3-4.5,7c-0.3-0.6-1.1-1.6-1.5-1.9c1.8-0.8,2.7-1.7,3.2-2.8h-3V17h2.3v3.5h1.2V17z M420.5,16.9
			c-0.1-0.3-0.2-0.7-0.3-1.2c-3.9,0.6-4.5,0.8-4.9,1.1c-0.1-0.6-0.4-1.7-0.6-2.4c0.4-0.1,0.8-0.5,1.3-1.2c0.2-0.2,0.6-0.8,1.1-1.5
			c-1.5,0.2-1.9,0.3-2.1,0.4c-0.1-0.5-0.4-1.7-0.6-2.4c0.3-0.1,0.7-0.3,1-0.8c0.3-0.4,1.5-2.1,2.1-3.7l1.8,1
			c-0.7,1.3-1.5,2.7-2.3,3.7l1.3,0c0.4-0.6,0.7-1.3,1-2l1.8,1c-1,1.9-2.2,3.9-3.4,5.4l2-0.3c-0.1-0.4-0.3-0.9-0.5-1.2l1.6-0.5
			c0.5,1.3,1.2,3,1.4,4L420.5,16.9z M418.7,17.2h2.3v6.5h-2.3v-0.8h-1.2v4.6h-2.4V17h2.4v3.4h1.2V17.2z"/>
		<path class="st12" d="M445.6,23.3H436v4.1h-2.9v-4.1h-9.3v-2.6h9.3v-1h-2v-7.6c-0.2,0.3-0.5,0.5-0.8,0.7c-0.4-0.4-1.4-1.2-2-1.6
			L427,13c-0.8-0.6-2.4-1.5-3.6-2l1.5-1.9c1.1,0.4,2.7,1.2,3.6,1.7c1.8-1.5,3.5-3.7,4.5-5.9l2.7,0.8c-0.3,0.6-0.6,1.2-1,1.8h2.6
			c-0.2-0.6-0.5-1.2-0.7-1.7l2.8-0.7c0.4,0.7,0.8,1.7,1.1,2.4h4.4v2.1h-4.8v1.1h3.9v1.8h-3.9v1.1h3.9v1.8h-3.9v1.2h5.2v2.2h-11.2
			v0.5h2.1v1.4h9.6V23.3z M430.4,14.9c-1.4,1.7-2.9,3.5-4.4,5.1l-2-2.1c1.3-1.1,3.2-3,4.9-4.9L430.4,14.9z M428.8,9
			c-0.8-0.7-2.4-1.5-3.6-2.1l1.5-1.9c1.2,0.5,2.9,1.2,3.7,1.8L428.8,9z M437.2,9.6h-3.3v1.1h3.3V9.6z M437.2,12.5h-3.3v1.1h3.3V12.5
			z M437.2,15.4h-3.3v1.2h3.3V15.4z"/>
		<path class="st12" d="M460.7,5.7c-0.1,0.1-0.2,0.3-0.4,0.4c2.2,1.9,6.1,3.6,10,4.3c-0.6,0.5-1.4,1.5-1.8,2.2
			c-0.5-0.1-1-0.3-1.5-0.4v6.2h-16.7v-6c-0.5,0.2-1,0.3-1.5,0.5c-0.3-0.6-1.1-1.7-1.5-2.2c4.4-1.1,8.7-3.1,10.9-5.9L460.7,5.7z
			 M466.1,11.9c-1.1-0.4-2.2-0.9-3.3-1.5v0.6h-8.4v-0.5c-0.9,0.5-1.9,0.9-2.9,1.3H466.1z M451.7,19.2h14.1v8.1h-2.9v-0.6h-8.4v0.6
			h-2.8V19.2z M454.4,16.7c-0.1-0.7-0.4-1.7-0.8-2.5l1.8-0.5h-2.7v3H454.4z M454.5,21.1v1h8.4v-1H454.5z M462.9,24.9v-1h-8.4v1
			H462.9z M457.4,13.7h-1.9c0.4,0.8,0.8,1.8,1,2.5l-1.5,0.5h2.4V13.7z M460.9,9.2c-0.7-0.5-1.4-1-2-1.6c-0.6,0.5-1.3,1.1-2,1.6
			H460.9z M459.7,13.7v3h2.2l-1.4-0.4c0.3-0.7,0.7-1.8,0.9-2.6H459.7z M464.5,13.7H462l1.9,0.5c-0.5,1-0.9,1.9-1.3,2.6h1.9V13.7z"/>
		<path class="st12" d="M471.3,26.3c0.7-1.1,1.2-2.9,1.5-4.3l1.9,0.7c-0.3,1.5-0.7,3.3-1.4,4.4L471.3,26.3z M482.7,21.4h-10.9v-2.2
			h4.2V18h-3.7v-2.2h3.7v-1h-3.7v-9h10.2v9h-3.9v1h3.8V18h-3.8v1.2h4.2V21.4z M474.4,12.9h2V7.7h-2v1l1.1-0.3
			c0.4,1.1,0.7,2.5,0.7,3.4l-1.2,0.4c0-0.9-0.3-2.3-0.6-3.3V12.9z M476.8,22.4c0.2,1.3,0.4,3,0.3,4.2l-1.8,0.2c0-1.2,0-2.9-0.2-4.2
			L476.8,22.4z M479.2,22.3c0.4,1.2,0.9,2.9,1,4l-1.8,0.4c-0.1-1.1-0.5-2.7-0.9-4L479.2,22.3z M480.2,7.7h-2.1v3.9
			c0.3-0.9,0.7-2.4,0.9-3.3l1.2,0.4V7.7z M480.2,12.9V9.5c-0.4,1-0.7,2-1.1,2.7l-1-0.4v1.1H480.2z M489.2,12.6v3.7h3.8v11h-2.7v-0.8
			h-4.4v0.9h-2.6v-1.7l-1.8,0.7c-0.2-1.1-0.9-2.7-1.6-3.9l1.7-0.6c0.7,1.1,1.4,2.5,1.7,3.6v-9.2h3.1V5.1h2.8V10h4.7v2.6H489.2z
			 M490.3,18.9h-4.4v5h4.4V18.9z"/>
		<path class="st12" d="M517.8,24.2h-5.9v3.2h-2.8v-3.2h-6v-2.5h6v-1.6h-4.8v-9h4.8V9.5h-5.3V7.4c-0.6,2-1.4,4.4-2,6.2
			c1.5,1.9,1.8,3.5,1.8,4.9c0,1.5-0.3,2.5-1.1,3.1c-0.4,0.3-0.9,0.4-1.4,0.5c-0.4,0-1,0.1-1.6,0c0-0.7-0.2-1.8-0.6-2.5
			c0.4,0,0.7,0.1,1.1,0c0.2,0,0.5-0.1,0.7-0.2c0.3-0.2,0.4-0.7,0.4-1.4c0-1.1-0.3-2.6-1.7-4.2c0.5-1.5,1-3.7,1.4-5.4h-1.9v18.8h-2.5
			V6h5.2l0.4-0.1L504,7v0h5.1V5h2.8v2h5.6v2.5h-5.6v1.6h5.1v9h-5.1v1.6h5.9V24.2z M506.9,14.6h2.4v-1.4h-2.4V14.6z M506.9,18h2.4
			v-1.4h-2.4V18z M514.3,13.2h-2.5v1.4h2.5V13.2z M514.3,16.6h-2.5V18h2.5V16.6z"/>
		<path class="st12" d="M541,5.8v21.6h-2.8v-0.8h-15.1v0.8h-2.6V5.8H541z M538.2,24.2V8.2h-15.1v16.1H538.2z M537.5,13.5V15h-13.6
			v-1.6h5.5v-0.7h-3.5V8.9h9.6v3.8h-3.6v0.7H537.5z M525,15.7h11.3v7.7H525V15.7z M527.2,21.9h6.8v-4.6h-6.8V21.9z M528.1,11.3h4.9
			v-1h-4.9V11.3z M528.2,18h4.9v3.2h-4.9V18z M529.7,20h1.7v-0.8h-1.7V20z"/>
	</g>
</g>
<g>
	<g>
		<path d="M101.8,474v14.3h-1.4V485c-1.4,0.2-2.7,0.5-3.8,0.7l-0.3-1.5l1-0.1V474h-0.8v-1.5h6v1.5H101.8z M100.4,474h-1.8v2.2h1.8
			V474z M100.4,477.6h-1.8v2.3h1.8V477.6z M100.4,483.6v-2.4h-1.8v2.6L100.4,483.6z M106.6,477.3c0.3,0.9,0.7,2.2,0.9,3l-1,0.3
			c-0.1-0.3-0.1-0.6-0.2-0.9c-3,0.4-3.5,0.5-3.8,0.6c-0.1-0.3-0.2-1.1-0.4-1.5c0.3-0.1,0.6-0.4,1-0.9c0.2-0.2,0.6-0.7,1-1.3
			c-1.1,0.1-1.4,0.2-1.6,0.3c-0.1-0.3-0.3-1.1-0.4-1.5c0.2-0.1,0.4-0.3,0.7-0.6c0.2-0.3,1.1-1.6,1.6-2.9l1.2,0.5
			c-0.6,1.2-1.3,2.3-2,3.2l1.1,0c0.3-0.5,0.6-1,0.9-1.6l1.1,0.6c-0.9,1.5-2,3.1-3.1,4.2l2-0.2c-0.1-0.4-0.2-0.7-0.3-1.1L106.6,477.3
			z M106.9,480.6v2.7c0,1.8-0.5,3.8-3.2,5c-0.2-0.3-0.6-0.9-0.9-1.2c1.6-0.7,2.2-1.6,2.5-2.5h-2.4v-4.1h1.4v2.7h1.2v-2.7H106.9z
			 M111.9,480.4c-0.1-0.3-0.2-0.6-0.3-1c-3,0.5-3.5,0.6-3.8,0.8c-0.1-0.3-0.2-1-0.4-1.5c0.3-0.1,0.6-0.4,1-0.8
			c0.2-0.2,0.6-0.8,1-1.4c-1.3,0.1-1.6,0.2-1.8,0.3c-0.1-0.3-0.2-1-0.4-1.4c0.3,0,0.5-0.3,0.7-0.6c0.3-0.3,1.1-1.6,1.6-2.9l1.1,0.6
			c-0.5,1.1-1.2,2.1-1.8,3l1.2-0.1c0.3-0.5,0.5-1,0.7-1.5l1.1,0.6c-0.8,1.5-1.7,3-2.6,4.2l1.9-0.2c-0.1-0.4-0.3-0.8-0.4-1.1l1-0.3
			c0.4,0.9,0.9,2.2,1.1,3L111.9,480.4z M110.6,480.7h1.4v4.6h-1.4v-0.6h-1.2v3.6H108v-7.7h1.4v2.7h1.2V480.7z"/>
		<path d="M123.2,474.6c-1,0.3-2.1,0.6-3.4,0.9v2.3h2.7v1.5h-2.7c0,0.7-0.1,1.5-0.1,2.2h3.4v1.6h-3.7c-0.5,2-1.4,3.9-3.4,5.4
			c-0.3-0.3-0.9-0.9-1.4-1.2c1.7-1.2,2.5-2.6,3-4.2h-3.3v-1.6h3.7c0.1-0.7,0.2-1.5,0.2-2.2H115v-1.5h3.2v-2
			c-1.1,0.2-2.2,0.3-3.2,0.4c-0.1-0.4-0.3-1-0.5-1.4c1.2-0.1,2.5-0.3,3.7-0.6v-2.5h1.7v2.1c0.9-0.2,1.8-0.5,2.4-0.7L123.2,474.6z
			 M130.7,473.5c-0.8,1.7-1.7,3.7-2.6,5.3c1.9,1.6,2.3,3,2.3,4.2c0,1.2-0.3,2-1,2.5c-0.3,0.2-0.8,0.4-1.3,0.4
			c-0.5,0.1-1.1,0.1-1.7,0c0-0.5-0.2-1.2-0.5-1.6c0.6,0.1,1.1,0.1,1.4,0.1c0.3,0,0.6-0.1,0.8-0.2c0.4-0.2,0.5-0.7,0.5-1.3
			c0-1.1-0.6-2.4-2.4-3.9c0.7-1.4,1.5-3.3,2.1-4.7h-3.1v13.9h-1.7v-15.5h5.5l0.3-0.1L130.7,473.5z"/>
		<path d="M145.1,481.6c1,1,2.4,2,3.8,2.4c-0.3,0.3-0.8,0.9-1.1,1.3c-1.7-0.8-3.5-2.2-4.6-3.7h-5.4c-0.4,0.6-1,1.3-1.6,1.8h3.3v-1.4
			h1.7v1.4h3.6v1.3h-3.6v1.6h6v1.4h-13.6v-1.4h5.8v-1.6h-3.4v-1.2c-0.9,0.8-1.9,1.5-3,2c-0.2-0.4-0.7-1-1.1-1.3
			c1.4-0.5,2.9-1.5,3.9-2.7h-3.7v-1.4h3.5v-5.6h-2.6v-1.4h2.6v-1.6h1.7v1.6h6.1v-1.5h1.7v1.5h2.6v1.4h-2.6v5.6h3.4v1.4H145.1z
			 M137.5,474.7v1h6.1v-1H137.5z M137.5,478h6.1v-1h-6.1V478z M137.5,480.3h6.1v-1.1h-6.1V480.3z"/>
		<path d="M159.4,478.6v2.2h6v1.5h-6v4h6.9v1.5h-15.4v-1.5h6.8v-4h-5.9v-1.5h5.9v-2.2h-3.8v-0.9c-0.8,0.4-1.7,0.8-2.6,1.2
			c-0.2-0.5-0.7-1.1-1.1-1.5c3.3-1,6.6-3,8.3-5.7l1.6,0.7c-0.2,0.2-0.3,0.5-0.5,0.7c1.8,1.8,4.8,3.5,7.5,4.3c-0.4,0.4-0.9,1-1.2,1.5
			c-0.9-0.3-1.8-0.7-2.7-1.2v1.1H159.4z M154.4,482.4c0.7,1,1.4,2.3,1.7,3.1l-1.5,0.6c-0.3-0.8-1-2.2-1.6-3.2L154.4,482.4z
			 M162.4,477c-1.4-0.8-2.7-1.8-3.8-2.9c-1,1.1-2.3,2.1-3.6,2.9H162.4z M160.7,485.7c0.6-0.9,1.4-2.2,1.7-3.2l1.6,0.6
			c-0.7,1.1-1.5,2.4-2.1,3.2L160.7,485.7z"/>
		<path d="M173.7,477.1h3.3v1.5h-3.3v1.2c0.9,0.6,2.8,2.3,3.3,2.7l-1,1.4c-0.5-0.6-1.5-1.6-2.3-2.4v6.7h-1.6v-7.1
			c-0.9,1.9-2,3.7-3.1,4.8c-0.2-0.5-0.6-1.2-0.9-1.6c1.4-1.3,2.8-3.6,3.7-5.7h-3.3v-1.5h3.6v-2.7c-1.1,0.2-2.2,0.4-3.3,0.5
			c-0.1-0.4-0.3-1-0.5-1.3c2.6-0.4,5.6-1,7.3-1.8l1.2,1.3c-0.9,0.4-2,0.7-3.1,0.9V477.1z M179.6,483.8H178v-9.9h1.6V483.8z
			 M184,472.1v14.1c0,1-0.3,1.5-0.9,1.8c-0.7,0.3-1.7,0.3-3.4,0.3c-0.1-0.5-0.3-1.2-0.6-1.7c1.2,0.1,2.4,0.1,2.7,0
			c0.3,0,0.5-0.1,0.5-0.4v-14.1H184z"/>
		<path d="M202.6,484.7h-7.2v3.6h-1.8v-3.6h-7.2v-1.5h7.2v-1.4h1.8v1.4h7.2V484.7z M191.2,479.9c-1.3,0.7-2.8,1.5-3.9,2l-0.8-1.4
			c1.1-0.4,2.8-1.2,4.4-1.9L191.2,479.9z M197.3,482.1c-0.1-0.3-0.3-0.6-0.4-0.9c-4.5,0.4-5.1,0.5-5.6,0.7c-0.1-0.3-0.3-1-0.5-1.4
			c0.4-0.1,0.9-0.4,1.5-0.9c0.3-0.2,1-0.8,1.7-1.6c-1.7,0.1-2.1,0.2-2.4,0.3c-0.1-0.3-0.3-1-0.5-1.4c0.3-0.1,0.5-0.3,0.8-0.6
			c0.2-0.2,0.7-0.8,1.2-1.6h-6.4v-1.5h7c-0.2-0.4-0.5-0.9-0.7-1.2l1.7-0.4c0.4,0.5,0.8,1.2,1,1.6h6.5v1.5h-7.5
			c-0.5,0.7-1,1.4-1.5,1.9l2-0.1c0.4-0.5,0.8-1,1.2-1.5l1.3,0.8c-1.3,1.6-2.8,3-4.3,4.2l2.6-0.2c-0.2-0.4-0.5-0.7-0.7-1l1.2-0.5
			c0.8,1,1.7,2.2,2,3.1L197.3,482.1z M189.7,478.4c-0.6-0.6-1.7-1.5-2.7-2.1l1.1-0.9c0.9,0.6,2.1,1.4,2.7,2L189.7,478.4z
			 M201.1,482.1c-0.8-0.7-2.3-1.8-3.5-2.5l1.2-0.9c1.2,0.7,2.8,1.7,3.6,2.4L201.1,482.1z M201.7,476.1c-0.8,0.8-1.8,1.7-2.6,2.2
			l-1.2-0.8c0.8-0.6,1.8-1.5,2.4-2.3L201.7,476.1z"/>
		<path d="M250.1,485.6c4-3.2,7-5.9,7-8.2c0-1.4-1-2.4-2.6-2.4c-1.3,0-2.3,0.7-3.4,1.9l-1.3-1.2c1.3-1.5,2.9-2.4,4.8-2.4
			c2.7,0,4.5,1.5,4.5,4.1c0,2.6-2.5,5.2-5.7,7.8c0.7-0.1,1.4-0.1,2.1-0.1h4.3v1.7h-9.7V485.6z"/>
		<path d="M263.8,485.6c4-3.2,7-5.9,7-8.2c0-1.4-1-2.4-2.6-2.4c-1.3,0-2.3,0.7-3.4,1.9l-1.3-1.2c1.3-1.5,2.9-2.4,4.8-2.4
			c2.7,0,4.5,1.5,4.5,4.1c0,2.6-2.5,5.2-5.7,7.8c0.7-0.1,1.4-0.1,2.1-0.1h4.3v1.7h-9.7V485.6z"/>
		<path d="M280.6,472.5h1.4l-5,17.6h-1.4L280.6,472.5z"/>
		<path d="M284.6,485.1h4v-9.3h-3.1v-1.3c1.6-0.3,2.7-0.4,3.6-1h1.5v11.6h3.7v1.7h-9.8V485.1z"/>
		<path d="M298.2,485.6c4-3.2,7-5.9,7-8.2c0-1.4-1-2.4-2.6-2.4c-1.3,0-2.3,0.7-3.4,1.9l-1.3-1.2c1.3-1.5,2.9-2.4,4.8-2.4
			c2.7,0,4.5,1.5,4.5,4.1c0,2.6-2.5,5.2-5.7,7.8c0.7-0.1,1.4-0.1,2.1-0.1h4.3v1.7h-9.7V485.6z"/>
		<path d="M315,472.5h1.4l-5,17.6H310L315,472.5z"/>
		<path d="M318.7,484.8l1-1.3c1,1.1,2.4,1.9,4,1.9c1.6,0,2.8-0.8,2.8-2.2c0-1.5-1.2-2.4-4.4-2.4v-1.5c2.9,0,4.1-1.1,4.1-2.3
			c0-1.1-0.9-1.9-2.5-1.9c-1.3,0-2.5,0.5-3.6,1.7l-1.1-1.3c1.3-1.3,2.9-2.1,4.8-2.1c2.7,0,4.4,1.4,4.4,3.4c0,1.5-0.9,2.7-2.4,3.1
			v0.1c1.6,0.3,2.8,1.5,2.8,3.4c0,2.3-2.1,3.8-4.7,3.8C321.3,487.1,319.7,486,318.7,484.8z"/>
		<path d="M332.6,485.1h4v-9.3h-3.1v-1.3c1.6-0.3,2.7-0.4,3.6-1h1.5v11.6h3.7v1.7h-9.8V485.1z"/>
		<path d="M350.4,477.1h3.3v1.5h-3.3v1.2c0.9,0.6,2.8,2.3,3.3,2.7l-1,1.4c-0.5-0.6-1.5-1.6-2.3-2.4v6.7h-1.6v-7.1
			c-0.9,1.9-2,3.7-3.1,4.8c-0.2-0.5-0.6-1.2-0.9-1.6c1.4-1.3,2.8-3.6,3.7-5.7h-3.3v-1.5h3.6v-2.7c-1.1,0.2-2.2,0.4-3.3,0.5
			c-0.1-0.4-0.3-1-0.5-1.3c2.6-0.4,5.6-1,7.3-1.8l1.2,1.3c-0.9,0.4-2,0.7-3.1,0.9V477.1z M356.3,483.8h-1.6v-9.9h1.6V483.8z
			 M360.7,472.1v14.1c0,1-0.3,1.5-0.9,1.8c-0.7,0.3-1.7,0.3-3.4,0.3c-0.1-0.5-0.3-1.2-0.6-1.7c1.2,0.1,2.4,0.1,2.7,0
			c0.3,0,0.5-0.1,0.5-0.4v-14.1H360.7z"/>
		<path d="M379.3,484.7h-7.2v3.6h-1.8v-3.6h-7.2v-1.5h7.2v-1.4h1.8v1.4h7.2V484.7z M367.9,479.9c-1.3,0.7-2.8,1.5-3.9,2l-0.8-1.4
			c1.1-0.4,2.8-1.2,4.4-1.9L367.9,479.9z M374,482.1c-0.1-0.3-0.3-0.6-0.4-0.9c-4.5,0.4-5.1,0.5-5.6,0.7c-0.1-0.3-0.3-1-0.5-1.4
			c0.4-0.1,0.9-0.4,1.5-0.9c0.3-0.2,1-0.8,1.7-1.6c-1.7,0.1-2.1,0.2-2.4,0.3c-0.1-0.3-0.3-1-0.5-1.4c0.3-0.1,0.5-0.3,0.8-0.6
			c0.2-0.2,0.7-0.8,1.2-1.6h-6.4v-1.5h7c-0.2-0.4-0.5-0.9-0.7-1.2l1.7-0.4c0.4,0.5,0.8,1.2,1,1.6h6.5v1.5h-7.5
			c-0.5,0.7-1,1.4-1.5,1.9l2-0.1c0.4-0.5,0.8-1,1.2-1.5l1.3,0.8c-1.3,1.6-2.8,3-4.3,4.2l2.6-0.2c-0.2-0.4-0.5-0.7-0.7-1l1.2-0.5
			c0.8,1,1.7,2.2,2,3.1L374,482.1z M366.3,478.4c-0.6-0.6-1.7-1.5-2.7-2.1l1.1-0.9c0.9,0.6,2.1,1.4,2.7,2L366.3,478.4z M377.8,482.1
			c-0.8-0.7-2.3-1.8-3.5-2.5l1.2-0.9c1.2,0.7,2.8,1.7,3.6,2.4L377.8,482.1z M378.4,476.1c-0.8,0.8-1.8,1.7-2.6,2.2l-1.2-0.8
			c0.8-0.6,1.8-1.5,2.4-2.3L378.4,476.1z"/>
		<path d="M384.9,484.7c-0.6,1.4-1.7,2.7-2.7,3.6c-0.3-0.3-0.9-0.8-1.3-1c1-0.8,1.9-1.9,2.4-3.1L384.9,484.7z M389.7,483.9h-8.8
			v-1.5h1.7v-7h-1.5V474h1.5v-2.1h1.5v2.1h2.8v-2.1h1.5v2.1h1.3v1.5h-1.3v7h1.2V483.9z M384.1,475.5v1.4h2.8v-1.4H384.1z
			 M384.1,479.6h2.8v-1.5h-2.8V479.6z M384.1,482.5h2.8v-1.5h-2.8V482.5z M387.2,484.2c0.7,0.8,1.6,1.9,1.9,2.6l-1.4,0.8
			c-0.4-0.7-1.2-1.9-1.9-2.7L387.2,484.2z M396.9,486.3c0,0.9-0.2,1.4-0.8,1.6c-0.5,0.3-1.4,0.3-2.7,0.3c-0.1-0.4-0.3-1.2-0.5-1.6
			c0.8,0,1.7,0,2,0c0.3,0,0.4-0.1,0.4-0.4v-4h-3.3c-0.2,2.1-0.6,4.4-1.7,6.1c-0.3-0.3-1-0.8-1.3-1c1.4-2.3,1.5-5.7,1.5-8.3v-6.5h6.4
			V486.3z M395.3,480.8v-2.6h-3.2v1c0,0.5,0,1.1,0,1.7H395.3z M392.1,474.1v2.5h3.2v-2.5H392.1z"/>
		<path d="M402.2,475.2c-0.7,0.5-1.4,0.9-2.1,1.2c-0.3-0.3-0.8-0.9-1.2-1.2c1.9-0.8,4-2.2,5.2-3.6l1.5,0.6c-0.5,0.6-1.1,1.3-1.8,1.8
			v3.6h-1.6V475.2z M406,486.1c-1.5,0.9-3.7,1.7-5.5,2.3c-0.3-0.3-0.9-1-1.3-1.3c1.9-0.4,4-1,5.2-1.7L406,486.1z M410,485.3
			c1.8,0.6,3.8,1.4,5,1.9l-1.4,1c-1.1-0.6-3-1.4-4.9-2.1l1-0.8h-8.4v-7.2h11.7v7.2H410z M403.1,480.2h8.4v-1h-8.4V480.2z
			 M403.1,482.2h8.4v-1h-8.4V482.2z M403.1,484.3h8.4v-1h-8.4V484.3z M409.2,477.5c-1.9,0-2.3-0.6-2.3-2.2v-3.5h1.7v1.4h5.6v1.4
			h-5.6v0.8c0,0.6,0.1,0.8,0.8,0.8h3.6c0.6,0,1.5-0.1,1.9-0.1c0.1,0.5,0.1,1,0.2,1.4c-0.4,0.1-1.2,0.1-2,0.1H409.2z"/>
		<path d="M462.8,485.6c4-3.2,7-5.9,7-8.2c0-1.4-1-2.4-2.6-2.4c-1.3,0-2.3,0.7-3.4,1.9l-1.3-1.2c1.3-1.5,2.9-2.4,4.8-2.4
			c2.7,0,4.5,1.5,4.5,4.1c0,2.6-2.5,5.2-5.7,7.8c0.7-0.1,1.4-0.1,2.1-0.1h4.3v1.7h-9.7V485.6z"/>
		<path d="M474.9,485.3l1-1.3c0.8,0.8,1.8,1.5,3.1,1.5c1.5,0,2.5-0.8,2.5-2.1c0-1.4-0.9-2.3-3.9-2.3v-1.5c2.6,0,3.5-1,3.5-2.2
			c0-1.2-0.8-1.9-2-1.9c-1,0-1.9,0.5-2.6,1.3l-1.1-1.3c1-1,2.3-1.6,3.8-1.6c2.4,0,4.1,1.2,4.1,3.3c0,1.5-0.9,2.5-2.3,3v0.1
			c1.5,0.4,2.7,1.5,2.7,3.2c0,2.3-2,3.7-4.4,3.7C477.2,487.1,475.8,486.2,474.9,485.3z"/>
		<path d="M489.9,472.5h1.4l-5,17.6h-1.4L489.9,472.5z"/>
		<path d="M493.8,485.1h4v-9.3h-3.1v-1.3c1.6-0.3,2.7-0.4,3.6-1h1.5v11.6h3.7v1.7h-9.8V485.1z"/>
		<path d="M506.9,485.1h2.9v-8.9h-2.4V475c1.2-0.2,2.1-0.5,2.9-1h1.6v11.2h2.6v1.7h-7.6V485.1z"/>
		<path d="M520.9,472.5h1.4l-5,17.6h-1.4L520.9,472.5z"/>
		<path d="M524.2,485.1h2.9v-8.9h-2.4V475c1.2-0.2,2.1-0.5,2.9-1h1.6v11.2h2.6v1.7h-7.6V485.1z"/>
		<path d="M533.8,480.3c0-4.3,1.7-6.6,4.3-6.6c2.6,0,4.3,2.3,4.3,6.6c0,4.3-1.6,6.7-4.3,6.7C535.4,487.1,533.8,484.7,533.8,480.3z
			 M540.4,480.3c0-3.7-1-5-2.3-5c-1.4,0-2.3,1.3-2.3,5s1,5.1,2.3,5.1C539.4,485.4,540.4,484.1,540.4,480.3z"/>
		<path d="M549.4,477.1h3.3v1.5h-3.3v1.2c0.9,0.6,2.8,2.3,3.3,2.7l-1,1.4c-0.5-0.6-1.5-1.6-2.3-2.4v6.7h-1.6v-7.1
			c-0.9,1.9-2,3.7-3.1,4.8c-0.2-0.5-0.6-1.2-0.9-1.6c1.4-1.3,2.8-3.6,3.7-5.7h-3.3v-1.5h3.6v-2.7c-1.1,0.2-2.2,0.4-3.3,0.5
			c-0.1-0.4-0.3-1-0.5-1.3c2.6-0.4,5.6-1,7.3-1.8l1.2,1.3c-0.9,0.4-2,0.7-3.1,0.9V477.1z M555.3,483.8h-1.6v-9.9h1.6V483.8z
			 M559.6,472.1v14.1c0,1-0.3,1.5-0.9,1.8c-0.7,0.3-1.7,0.3-3.4,0.3c-0.1-0.5-0.3-1.2-0.6-1.7c1.2,0.1,2.4,0.1,2.7,0
			c0.3,0,0.5-0.1,0.5-0.4v-14.1H559.6z"/>
		<path d="M578.2,484.7h-7.2v3.6h-1.8v-3.6h-7.2v-1.5h7.2v-1.4h1.8v1.4h7.2V484.7z M566.9,479.9c-1.3,0.7-2.8,1.5-3.9,2l-0.8-1.4
			c1.1-0.4,2.8-1.2,4.4-1.9L566.9,479.9z M573,482.1c-0.1-0.3-0.3-0.6-0.4-0.9c-4.5,0.4-5.1,0.5-5.6,0.7c-0.1-0.3-0.3-1-0.5-1.4
			c0.4-0.1,0.9-0.4,1.5-0.9c0.3-0.2,1-0.8,1.7-1.6c-1.7,0.1-2.1,0.2-2.4,0.3c-0.1-0.3-0.3-1-0.5-1.4c0.3-0.1,0.5-0.3,0.8-0.6
			c0.2-0.2,0.7-0.8,1.2-1.6h-6.4v-1.5h7c-0.2-0.4-0.5-0.9-0.7-1.2l1.7-0.4c0.4,0.5,0.8,1.2,1,1.6h6.5v1.5h-7.5
			c-0.5,0.7-1,1.4-1.5,1.9l2-0.1c0.4-0.5,0.8-1,1.2-1.5l1.3,0.8c-1.3,1.6-2.8,3-4.3,4.2l2.6-0.2c-0.2-0.4-0.5-0.7-0.7-1l1.2-0.5
			c0.8,1,1.7,2.2,2,3.1L573,482.1z M565.3,478.4c-0.6-0.6-1.7-1.5-2.7-2.1l1.1-0.9c0.9,0.6,2.1,1.4,2.7,2L565.3,478.4z M576.8,482.1
			c-0.8-0.7-2.3-1.8-3.5-2.5l1.2-0.9c1.2,0.7,2.8,1.7,3.6,2.4L576.8,482.1z M577.3,476.1c-0.8,0.8-1.8,1.7-2.6,2.2l-1.2-0.8
			c0.8-0.6,1.8-1.5,2.4-2.3L577.3,476.1z"/>
		<path d="M583.9,484.7c-0.6,1.4-1.7,2.7-2.7,3.6c-0.3-0.3-0.9-0.8-1.3-1c1-0.8,1.9-1.9,2.4-3.1L583.9,484.7z M588.7,483.9h-8.8
			v-1.5h1.7v-7h-1.5V474h1.5v-2.1h1.5v2.1h2.8v-2.1h1.5v2.1h1.3v1.5h-1.3v7h1.2V483.9z M583.1,475.5v1.4h2.8v-1.4H583.1z
			 M583.1,479.6h2.8v-1.5h-2.8V479.6z M583.1,482.5h2.8v-1.5h-2.8V482.5z M586.1,484.2c0.7,0.8,1.6,1.9,1.9,2.6l-1.3,0.8
			c-0.4-0.7-1.2-1.9-1.9-2.7L586.1,484.2z M595.9,486.3c0,0.9-0.2,1.4-0.8,1.6c-0.5,0.3-1.4,0.3-2.7,0.3c-0.1-0.4-0.3-1.2-0.5-1.6
			c0.8,0,1.7,0,2,0c0.3,0,0.4-0.1,0.4-0.4v-4h-3.3c-0.2,2.1-0.6,4.4-1.7,6.1c-0.3-0.3-1-0.8-1.3-1c1.4-2.3,1.5-5.7,1.5-8.3v-6.5h6.4
			V486.3z M594.2,480.8v-2.6h-3.2v1c0,0.5,0,1.1,0,1.7H594.2z M591.1,474.1v2.5h3.2v-2.5H591.1z"/>
		<path d="M601.2,475.2c-0.7,0.5-1.4,0.9-2.1,1.2c-0.3-0.3-0.8-0.9-1.2-1.2c1.9-0.8,4-2.2,5.2-3.6l1.5,0.6c-0.5,0.6-1.1,1.3-1.8,1.8
			v3.6h-1.6V475.2z M605,486.1c-1.5,0.9-3.7,1.7-5.5,2.3c-0.3-0.3-0.9-1-1.3-1.3c1.9-0.4,4-1,5.2-1.7L605,486.1z M609,485.3
			c1.8,0.6,3.8,1.4,5,1.9l-1.4,1c-1.1-0.6-3-1.4-4.9-2.1l1-0.8h-8.4v-7.2h11.7v7.2H609z M602.1,480.2h8.4v-1h-8.4V480.2z
			 M602.1,482.2h8.4v-1h-8.4V482.2z M602.1,484.3h8.4v-1h-8.4V484.3z M608.2,477.5c-1.9,0-2.3-0.6-2.3-2.2v-3.5h1.7v1.4h5.6v1.4
			h-5.6v0.8c0,0.6,0.1,0.8,0.8,0.8h3.6c0.6,0,1.5-0.1,1.9-0.1c0.1,0.5,0.1,1,0.2,1.4c-0.4,0.1-1.2,0.1-2,0.1H608.2z"/>
	</g>
</g>
<g>
	<g>
		<path d="M226.3,54.9v14.5h-1.2V66c-1.4,0.2-2.8,0.5-4,0.7l-0.3-1.2c0.3-0.1,0.7-0.1,1.1-0.2V54.9h-0.9v-1.2h5.9v1.2H226.3z
			 M225.1,54.9h-2v2.5h2V54.9z M225.1,58.5h-2v2.6h2V58.5z M225.1,64.8v-2.6h-2v2.9L225.1,64.8z M231.1,58.4c0.4,1,0.8,2.2,0.9,2.9
			l-0.9,0.3c-0.1-0.3-0.1-0.6-0.2-0.9c-3.1,0.4-3.6,0.5-3.9,0.6c0-0.3-0.2-0.9-0.3-1.2c0.3-0.1,0.6-0.4,1-0.9
			c0.2-0.3,0.7-0.8,1.2-1.6c-1.3,0.1-1.6,0.2-1.8,0.3c0-0.3-0.2-0.9-0.3-1.2c0.3,0,0.5-0.3,0.7-0.6c0.3-0.3,1.2-1.7,1.6-3l1,0.5
			c-0.6,1.2-1.3,2.4-2,3.2l1.4-0.1c0.3-0.5,0.6-1,0.9-1.6l1,0.5c-1,1.6-2.1,3.2-3.2,4.4l2.4-0.2c-0.1-0.4-0.3-0.8-0.4-1.2
			L231.1,58.4z M230.3,61.7h1.2v2.8c0,1.7-0.5,3.7-3.1,5c-0.1-0.3-0.5-0.7-0.7-0.9c1.7-0.8,2.3-1.8,2.6-2.8h-2.5v-4h1.1v2.8h1.5
			v-0.1V61.7z M236.3,58.2c0.4,1,0.9,2.3,1.2,3l-0.8,0.3c-0.1-0.3-0.2-0.6-0.3-1c-3.2,0.4-3.6,0.5-3.9,0.7c-0.1-0.3-0.2-0.9-0.3-1.2
			c0.3-0.1,0.6-0.4,1-0.9c0.2-0.3,0.7-0.9,1.2-1.7c-1.4,0.1-1.8,0.2-1.9,0.3c-0.1-0.3-0.2-0.8-0.3-1.2c0.3-0.1,0.5-0.3,0.7-0.6
			c0.3-0.3,1.1-1.7,1.6-3l0.9,0.5c-0.5,1.1-1.2,2.3-1.9,3.1l1.4-0.1c0.3-0.5,0.5-1,0.7-1.5l1,0.5c-0.8,1.6-1.8,3.1-2.8,4.3l2.3-0.3
			c-0.1-0.5-0.3-0.9-0.5-1.3L236.3,58.2z M235.4,61.9h1.1v4.5h-1.1v-0.7h-1.5v3.7h-1.2v-7.7h1.2v2.8h1.5V61.9z"/>
		<path d="M247.8,55.5c-1,0.3-2.2,0.6-3.5,0.9V59h2.9v1.2h-2.9c0,0.8-0.1,1.7-0.2,2.5h3.6v1.3H244c-0.5,2.1-1.5,3.9-3.6,5.5
			c-0.2-0.3-0.7-0.7-1.1-0.9c1.8-1.3,2.8-2.8,3.2-4.5H239v-1.3h3.8c0.1-0.8,0.2-1.7,0.2-2.5h-3.3V59h3.3v-2.3
			c-1.2,0.2-2.3,0.3-3.4,0.5c-0.1-0.3-0.2-0.8-0.4-1.1c1.2-0.1,2.5-0.3,3.8-0.6v-2.5h1.3v2.3c1.1-0.2,2-0.5,2.8-0.8L247.8,55.5z
			 M255.2,54.5c-0.8,1.7-1.9,3.7-2.8,5.3c2,1.6,2.6,3.1,2.6,4.4c0,1.1-0.3,1.9-1,2.3c-0.3,0.2-0.8,0.4-1.3,0.4
			c-0.5,0.1-1.2,0.1-1.7,0c0-0.4-0.1-0.9-0.4-1.3c0.6,0.1,1.2,0.1,1.6,0c0.3,0,0.6-0.1,0.9-0.2c0.4-0.2,0.6-0.8,0.6-1.4
			c0-1.1-0.6-2.5-2.7-4.1c0.9-1.5,1.8-3.4,2.4-4.9h-3.6v14.2h-1.3V53.9h5.6l0.2-0.1L255.2,54.5z"/>
		<path d="M269.5,62.6c1,1.2,2.5,2.2,4.1,2.8c-0.3,0.3-0.7,0.7-0.9,1c-1.7-0.7-3.5-2.2-4.6-3.8h-5.6c-1.1,1.7-3,3.2-4.7,4
			c-0.2-0.3-0.6-0.8-0.9-1c1.5-0.6,3-1.7,4.1-3H257v-1.1h3.6v-5.7h-2.7v-1.1h2.7v-1.7h1.3v1.7h6.5v-1.7h1.4v1.7h2.7v1.1h-2.7v5.7
			h3.5v1.1H269.5z M265.8,67.7h6.2v1.1h-13.6v-1.1h6v-1.9h-3.7v-1.1h3.7v-1.5h1.3v1.5h3.8v1.1h-3.8V67.7z M261.9,55.7v1.2h6.5v-1.2
			H261.9z M261.9,59.2h6.5v-1.2h-6.5V59.2z M261.9,61.5h6.5v-1.3h-6.5V61.5z"/>
		<path d="M283.8,59.5v2.4h6.3v1.2h-6.3v4.4h7.1v1.2h-15.5v-1.2h7v-4.4h-6.2v-1.2h6.2v-2.4h-3.9v-1c-0.9,0.5-1.9,1-2.9,1.3
			c-0.2-0.4-0.6-0.9-0.9-1.2c3.3-1.1,6.7-3.2,8.4-5.9l1.2,0.6c-0.1,0.2-0.3,0.4-0.5,0.6c1.8,1.9,5,3.8,7.7,4.6
			c-0.3,0.3-0.7,0.8-0.9,1.2c-0.9-0.3-1.9-0.8-2.9-1.4v1.1H283.8z M278.9,63.5c0.7,1,1.4,2.4,1.7,3.2l-1.2,0.5
			c-0.3-0.8-1-2.3-1.7-3.3L278.9,63.5z M287.5,58.2c-1.6-1-3.2-2.2-4.4-3.4c-1.2,1.3-2.6,2.4-4.2,3.4H287.5z M285.4,66.9
			c0.6-0.9,1.4-2.3,1.9-3.3l1.3,0.5c-0.7,1.1-1.5,2.4-2.1,3.3L285.4,66.9z"/>
		<path d="M298.2,58.3h3.4v1.2h-3.4v1.3c0.8,0.6,2.9,2.4,3.4,2.9l-0.8,1.1c-0.5-0.6-1.7-1.7-2.6-2.6v7.1h-1.3v-7.8
			c-0.9,2.1-2.2,4.1-3.4,5.3c-0.2-0.4-0.5-0.9-0.7-1.2c1.4-1.4,3-3.9,3.9-6.1h-3.5v-1.2h3.8v-3c-1.2,0.2-2.4,0.4-3.5,0.6
			c-0.1-0.3-0.3-0.8-0.4-1.1c2.6-0.4,5.8-1,7.4-1.7l1,1c-0.9,0.4-2,0.7-3.2,1V58.3z M304.1,64.9h-1.3V55h1.3V64.9z M308.5,53.2v14.3
			c0,0.9-0.3,1.3-0.8,1.6c-0.6,0.2-1.6,0.2-3.2,0.2c-0.1-0.4-0.3-1-0.5-1.4c1.3,0,2.4,0,2.7,0c0.3,0,0.5-0.1,0.5-0.5V53.2H308.5z"/>
		<path d="M327.2,65.5h-7.3v3.8h-1.4v-3.8h-7.3v-1.2h7.3v-1.5h1.4v1.5h7.3V65.5z M315.9,60.8c-1.4,0.7-2.8,1.5-4,2.1l-0.7-1.1
			c1.1-0.5,2.8-1.2,4.4-2L315.9,60.8z M322.1,63.1c-0.1-0.3-0.3-0.6-0.5-1c-4.7,0.5-5.3,0.5-5.7,0.7c-0.1-0.3-0.3-0.8-0.4-1.2
			c0.4-0.1,0.9-0.4,1.5-0.9c0.3-0.3,1.1-1,2-1.9c-2.1,0.2-2.5,0.3-2.7,0.4c-0.1-0.3-0.2-0.8-0.4-1.1c0.3,0,0.5-0.3,0.8-0.6
			c0.2-0.2,0.8-1,1.4-1.8h-6.6v-1.2h7.3c-0.2-0.5-0.6-1-0.8-1.4l1.3-0.3c0.4,0.5,0.8,1.2,1.1,1.7h6.7v1.2h-7.6
			c-0.5,0.8-1.1,1.6-1.7,2.2l2.3-0.1c0.4-0.5,0.8-1,1.2-1.5l1.1,0.6c-1.4,1.7-3,3.2-4.5,4.5l3.2-0.3c-0.3-0.4-0.6-0.8-0.9-1.2l1-0.4
			c0.8,0.9,1.7,2.2,2.1,3L322.1,63.1z M312.7,56.4c1,0.6,2.1,1.4,2.7,2l-0.9,0.8c-0.6-0.6-1.7-1.5-2.7-2.1L312.7,56.4z M325.8,63.1
			c-0.7-0.7-2.3-1.8-3.5-2.5l1-0.7c1.2,0.7,2.8,1.7,3.6,2.4L325.8,63.1z M326.1,57.1c-0.8,0.8-1.9,1.7-2.7,2.3l-1-0.6
			c0.8-0.6,1.9-1.6,2.5-2.3L326.1,57.1z"/>
		<path d="M345.3,63.8v1.2h-16.2v-1.2h1.8l-0.3-9.5c1.1-0.4,2.5-0.9,3.3-1.4l0.6,1.1c-0.8,0.3-1.8,0.7-2.7,1l0.1,2.1h2.4v1.2h-2.4
			l0.1,2.2h2.4v1.2H332l0.1,2.2h10.2c0-0.6,0.1-1.4,0.1-2.1h-2.3v-1.1h2.4c0-0.7,0.1-1.5,0.1-2.2h-2.4v-1.2h2.4c0-0.8,0-1.5,0-2.3
			H340v-1.2h3.8c0,3.2-0.1,7.4-0.3,10.1H345.3z M335.4,66.2c-1.5,1.1-3.6,2.3-5.4,3.1c-0.2-0.3-0.5-0.7-0.8-1c1.7-0.7,3.9-1.9,5-2.9
			L335.4,66.2z M336.8,59.8c-0.2,1.3-0.6,2.5-1.1,3.4c-0.2-0.2-0.7-0.5-0.9-0.6c0.6-0.8,0.8-1.9,1-3L336.8,59.8z M338.1,58.8h-2.9
			V53h1.2v1.7h3v1.1h-3v1.9h2.4v0h0.5v4.7c0,0.6-0.1,0.8-0.5,1c-0.4,0.2-1,0.2-1.9,0.2c-0.1-0.3-0.2-0.6-0.3-0.9c0.6,0,1.2,0,1.4,0
			c0.2,0,0.2-0.1,0.2-0.2V58.8z M339.6,65.3c1.9,0.9,4,2,5.2,2.9l-0.9,1c-1.2-0.9-3.2-2.1-5.1-3L339.6,65.3z"/>
		<path d="M352.2,58.3h3.4v1.2h-3.4v1.3c0.8,0.6,2.9,2.4,3.4,2.9l-0.8,1.1c-0.5-0.6-1.7-1.7-2.6-2.6v7.1h-1.3v-7.8
			c-0.9,2.1-2.2,4.1-3.4,5.3c-0.2-0.4-0.5-0.9-0.7-1.2c1.4-1.4,3-3.9,3.9-6.1h-3.5v-1.2h3.8v-3c-1.2,0.2-2.4,0.4-3.5,0.6
			c-0.1-0.3-0.3-0.8-0.4-1.1c2.6-0.4,5.8-1,7.4-1.7l1,1c-0.9,0.4-2,0.7-3.2,1V58.3z M358.1,64.9h-1.3V55h1.3V64.9z M362.5,53.2v14.3
			c0,0.9-0.3,1.3-0.8,1.6c-0.6,0.2-1.6,0.2-3.2,0.2c-0.1-0.4-0.3-1-0.5-1.4c1.3,0,2.4,0,2.7,0c0.3,0,0.5-0.1,0.5-0.5V53.2H362.5z"/>
		<path d="M381.2,65.5h-7.3v3.8h-1.4v-3.8h-7.3v-1.2h7.3v-1.5h1.4v1.5h7.3V65.5z M369.9,60.8c-1.4,0.7-2.8,1.5-4,2.1l-0.7-1.1
			c1.1-0.5,2.8-1.2,4.4-2L369.9,60.8z M376.1,63.1c-0.1-0.3-0.3-0.6-0.5-1c-4.7,0.5-5.3,0.5-5.7,0.7c-0.1-0.3-0.3-0.8-0.4-1.2
			c0.4-0.1,0.9-0.4,1.5-0.9c0.3-0.3,1.1-1,2-1.9c-2.1,0.2-2.5,0.3-2.7,0.4c-0.1-0.3-0.2-0.8-0.4-1.1c0.3,0,0.5-0.3,0.8-0.6
			c0.2-0.2,0.8-1,1.4-1.8h-6.6v-1.2h7.3c-0.2-0.5-0.6-1-0.8-1.4l1.3-0.3c0.4,0.5,0.8,1.2,1.1,1.7h6.7v1.2h-7.6
			c-0.5,0.8-1.1,1.6-1.7,2.2l2.3-0.1c0.4-0.5,0.8-1,1.2-1.5l1.1,0.6c-1.4,1.7-3,3.2-4.5,4.5l3.2-0.3c-0.3-0.4-0.6-0.8-0.9-1.2l1-0.4
			c0.8,0.9,1.7,2.2,2.1,3L376.1,63.1z M366.7,56.4c1,0.6,2.1,1.4,2.7,2l-0.9,0.8c-0.6-0.6-1.7-1.5-2.7-2.1L366.7,56.4z M379.8,63.1
			c-0.7-0.7-2.3-1.8-3.5-2.5l1-0.7c1.2,0.7,2.8,1.7,3.6,2.4L379.8,63.1z M380.1,57.1c-0.8,0.8-1.9,1.7-2.7,2.3l-1-0.6
			c0.8-0.6,1.9-1.6,2.5-2.3L380.1,57.1z"/>
		<path d="M391.7,65h-8.8v-1.2h1.7v-7.3h-1.5v-1.2h1.5v-2.2h1.2v2.2h3.3v-2.2h1.2v2.2h1.3v1.2h-1.3v7.3h1.3V65z M386.7,65.7
			c-0.6,1.4-1.7,2.8-2.7,3.6c-0.3-0.2-0.8-0.6-1.1-0.8c1-0.8,1.9-2,2.5-3.2L386.7,65.7z M385.9,56.4V58h3.3v-1.6H385.9z M385.9,60.9
			h3.3v-1.8h-3.3V60.9z M385.9,63.8h3.3V62h-3.3V63.8z M389,65.3c0.7,0.8,1.5,1.9,1.9,2.7l-1.1,0.6c-0.3-0.7-1.1-1.9-1.9-2.7
			L389,65.3z M398.8,67.6c0,0.8-0.2,1.2-0.7,1.4c-0.5,0.2-1.4,0.3-2.7,0.3c-0.1-0.4-0.3-1-0.4-1.3c1,0,1.9,0,2.1,0
			c0.3,0,0.4-0.1,0.4-0.4v-4.3h-3.8c-0.2,2.1-0.6,4.4-1.7,6.2c-0.2-0.3-0.8-0.7-1.1-0.8c1.5-2.4,1.6-5.8,1.6-8.4v-6.5h6.2V67.6z
			 M397.5,62v-3h-3.7v1.2c0,0.6,0,1.2,0,1.8H397.5z M393.8,55v2.9h3.7V55H393.8z"/>
		<path d="M404.3,56.1c-0.8,0.5-1.5,1-2.3,1.4c-0.2-0.2-0.7-0.7-1-0.9c2-0.9,4-2.2,5.3-3.7l1.2,0.5c-0.6,0.6-1.2,1.3-1.9,1.8v3.7
			h-1.3V56.1z M407.7,67.2c-1.5,0.9-3.7,1.7-5.5,2.2c-0.2-0.3-0.7-0.8-1-1c1.8-0.4,4-1,5.3-1.7L407.7,67.2z M403.4,59.2h11.6v7.2
			h-11.6V59.2z M404.7,61.3h9v-1.2h-9V61.3z M404.7,63.4h9v-1.2h-9V63.4z M404.7,65.6h9v-1.3h-9V65.6z M411,58.5c-1.6,0-2-0.5-2-1.9
			v-3.6h1.3v1.5h5.8v1.1h-5.8v1.1c0,0.6,0.1,0.8,0.8,0.8h4c0.5,0,1.4,0,1.8-0.1c0,0.4,0.1,0.8,0.1,1.1c-0.3,0.1-1.1,0.1-1.8,0.1H411
			z M411.7,66.6c1.9,0.6,4,1.4,5.3,2l-1.2,0.8c-1.1-0.6-3.1-1.4-5-2L411.7,66.6z"/>
		<path d="M420.8,63.6c1.4-0.6,2.2-1.4,2.3-2.6c-0.1,0-0.2,0-0.3,0c-0.7,0-1.4-0.4-1.4-1.3s0.6-1.3,1.4-1.3c1,0,1.5,0.8,1.5,2.1
			c0,1.9-1.2,3.4-3.1,4.1L420.8,63.6z"/>
		<path d="M436.8,55.2c-0.2,0.9-0.5,1.9-0.7,2.7h6.1v11.5h-1.4v-1.2h-9.1v1.2h-1.3V57.8h4.3c0.2-0.8,0.4-1.8,0.5-2.7h-6.9v-1.3H444
			v1.3H436.8z M440.8,59.1h-9.1v3.3h9.1V59.1z M440.8,66.9v-3.4h-9.1v3.4H440.8z"/>
		<path d="M451.9,53.8c-1,3.1-2.8,5.6-4.9,7.3c-0.2-0.3-0.8-0.8-1.1-1c2.1-1.5,3.8-3.9,4.6-6.7L451.9,53.8z M459.7,59.6
			c0,0,0,0.5,0,0.6c-0.3,5.5-0.5,7.6-1.1,8.3c-0.4,0.4-0.8,0.6-1.4,0.6c-0.6,0.1-1.7,0-2.8,0c0-0.4-0.2-1-0.4-1.4
			c1.2,0.1,2.3,0.1,2.7,0.1c0.4,0,0.6,0,0.8-0.2c0.5-0.5,0.7-2.3,0.9-6.8h-4.6c-0.5,3.6-1.6,6.8-6.2,8.5c-0.2-0.4-0.5-0.9-0.9-1.2
			c4.2-1.4,5.2-4.3,5.7-7.3h-3.7v-1.3H459.7z M457.4,53.2c0.9,2.8,2.8,5.4,5.1,6.7c-0.3,0.3-0.7,0.8-1,1.2c-2.2-1.4-4.1-4-5.1-6.6
			h-3.2v-1.3H457.4z"/>
		<path d="M471.8,65.6c0,0.4,0.1,0.9,0.1,1.2c-5.1,1.4-5.8,1.6-6.2,1.9c-0.1-0.3-0.4-0.9-0.6-1.1c0.3-0.2,0.7-0.6,0.7-1.4V52.9h1.4
			v5.5h4.6v1.3h-4.6v7.1L471.8,65.6z M478.1,67.6c0.8,0,1-0.7,1.1-3.2c0.3,0.3,0.9,0.5,1.2,0.6c-0.2,2.9-0.5,3.9-2.2,3.9h-3
			c-1.7,0-2.2-0.5-2.2-2.5V52.9h1.4v5.5h4.8v1.3h-4.8v6.7c0,1,0.2,1.2,1,1.2H478.1z"/>
		<path d="M226.6,83.9c0-3.5,1-6.4,2.6-9.1l1,0.5c-1.6,2.6-2.3,5.6-2.3,8.7s0.7,6.1,2.3,8.7l-1,0.5
			C227.6,90.4,226.6,87.5,226.6,83.9z"/>
		<path d="M234.8,82.3c0,2.5-0.3,6.1-1.8,8.5c-0.2-0.2-0.8-0.6-1-0.7c1.4-2.3,1.6-5.5,1.6-7.8V78h5.7v-3.5h1.3v1.4h6.2v1h-6.2V78
			h6.2L247,78l0.9,0.3c-0.3,1-0.7,2.1-1,2.8l-1.1-0.3c0.2-0.4,0.4-1,0.5-1.5h-5.8v1.3l4.6-0.4l0.1,1l-4.7,0.4v0.3
			c0,0.5,0.1,0.7,0.7,0.7h4.1c0.5,0,1.4,0,1.8-0.1c0,0.4,0.1,0.8,0.1,1c-0.3,0.1-1.1,0.1-1.9,0.1h-4.3c-1.5,0-1.9-0.5-1.9-1.7v-0.2
			l-3.4,0.3l-0.1-1l3.5-0.3v-1.4h-4.4V82.3z M243.3,89.2h4.6v1.2h-13.3v-1.2h4.4v-1.4h-3v-3.4h1.1v2.4h1.9v-2.6h1.2v5.1h2v-5.1h1.2
			v2.6h2v-2.4h1.1v3.4h-3.1V89.2z"/>
		<path d="M254.9,85.4c0-0.3-0.1-0.7-0.2-1c-3.6,0.5-4.1,0.6-4.5,0.8c-0.1-0.3-0.3-0.9-0.4-1.3c0.4-0.1,0.8-0.5,1.3-1.2
			c0.3-0.3,0.8-1,1.5-2c-1.8,0.2-2.2,0.3-2.5,0.4c-0.1-0.3-0.3-0.9-0.4-1.2c0.3-0.1,0.6-0.5,1-1c0.4-0.5,1.6-2.6,2.3-4.5l1.2,0.5
			c-0.8,1.7-1.7,3.4-2.7,4.8l1.9-0.2c0.5-0.8,0.9-1.6,1.3-2.4l1.2,0.7c-1.2,2.1-2.6,4.1-4,5.8l2.6-0.3c-0.2-0.6-0.3-1.2-0.5-1.8
			l1-0.3c0.4,1.2,0.9,2.9,1,3.8L254.9,85.4z M251.7,86.2c-0.2,1.6-0.5,3.3-0.9,4.4c-0.2-0.1-0.7-0.3-1-0.4c0.4-1.1,0.7-2.7,0.9-4.2
			L251.7,86.2z M253.4,85.9c0.2,1.2,0.4,2.8,0.5,3.8l-1.1,0.2c0-1-0.2-2.6-0.4-3.8L253.4,85.9z M255,85.5c0.4,0.9,0.7,2.1,0.9,2.9
			l-1,0.3c-0.1-0.8-0.5-2-0.8-2.9L255,85.5z M260.4,84.4c-0.6,2.7-2.2,4.6-4,5.7c-0.2-0.3-0.5-0.7-0.8-1c1.4-0.7,2.6-2.1,3.3-3.8
			h-2.3v-1.1h2.8l0.2-0.1L260.4,84.4z M265.9,84.1c-0.8,0.7-1.7,1.6-2.5,2.2c0.8,1.2,1.8,2.2,2.9,2.8c-0.3,0.2-0.7,0.7-0.9,1.1
			c-1.4-0.9-2.6-2.3-3.4-4.1v3.4c0,0.7-0.1,1-0.6,1.3c-0.5,0.2-1.2,0.2-2.4,0.2c-0.1-0.4-0.2-0.9-0.4-1.2c0.8,0,1.6,0,1.8,0
			c0.2,0,0.3-0.1,0.3-0.3v-6.8h-3.6v-6.3h2.8c0.3-0.6,0.5-1.4,0.6-1.9l1.5,0.3c-0.3,0.5-0.5,1.1-0.8,1.6h4.1v6.3h-3.3v0.6
			c0.2,0.7,0.5,1.4,0.8,2.1c0.7-0.6,1.5-1.5,2-2.1L265.9,84.1z M258.5,79h5.6v-1.6h-5.6V79z M258.5,81.6h5.6V80h-5.6V81.6z"/>
		<path d="M283.8,84c0,0,0,0.4-0.1,0.6c-0.3,3.8-0.7,5.3-1.2,5.9c-0.3,0.3-0.7,0.5-1.2,0.5c-0.5,0-1.3,0-2.3,0
			c0-0.4-0.2-0.9-0.4-1.2c0.9,0.1,1.8,0.1,2.1,0.1c0.3,0,0.5,0,0.7-0.2c0.4-0.4,0.7-1.6,1-4.4h-11.1c-0.9,0.8-1.8,1.5-2.9,2.2
			c-0.2-0.3-0.5-0.8-0.7-1.1c3-1.7,5.3-4.4,6.8-7.5h-5.9v-1.2h6.5c0.4-1,0.8-2,1.1-3.1l1.3,0.3c-0.3,0.9-0.6,1.8-1,2.7h4.7
			c-0.2,1.1-0.5,2.3-0.7,3.2h2.1c-0.2,1-0.5,2.3-0.7,3.2H283.8z M268.9,90.1c1-0.9,1.7-2.5,2-3.9l1.1,0.4c-0.4,1.5-1,3.2-2.1,4.3
			L268.9,90.1z M272.6,77.5c-0.3-0.7-1.1-1.7-1.8-2.5l1.2-0.5c0.7,0.7,1.5,1.7,1.8,2.4L272.6,77.5z M280.7,84
			c0.1-0.6,0.3-1.3,0.4-2.1h-7c-0.5,0.7-1,1.4-1.6,2.1H280.7z M274.3,86.4c0.3,1.2,0.5,2.6,0.5,3.6l-1.2,0.2c0-1-0.1-2.4-0.5-3.6
			L274.3,86.4z M276,78.8c-0.3,0.7-0.7,1.4-1.1,2h4.4c0.2-0.6,0.3-1.3,0.5-2H276z M276.9,86.2c0.5,1,0.9,2.3,1.1,3.1l-1.1,0.3
			c-0.1-0.8-0.5-2.2-1-3.2L276.9,86.2z M279.8,88.6c-0.2-0.6-0.8-1.7-1.3-2.4l0.9-0.4c0.6,0.7,1.1,1.7,1.4,2.4L279.8,88.6z"/>
		<path d="M286.1,88.4l0.9-1c0.5,0.6,1.3,1,2.1,1c1.8,0,3.3-1.4,3.4-5.5c-0.8,1-2,1.7-3,1.7c-2.2,0-3.7-1.4-3.7-4
			c0-2.4,1.7-4.1,3.8-4.1c2.5,0,4.4,2.1,4.4,6.2c0,5.1-2.3,7.1-4.9,7.1C287.8,89.8,286.8,89.2,286.1,88.4z M289.8,83.3
			c0.8,0,1.9-0.5,2.7-1.7c-0.2-2.5-1.2-3.8-2.9-3.8c-1.3,0-2.2,1.1-2.2,2.8C287.4,82.2,288.2,83.3,289.8,83.3z"/>
		<path d="M309.8,89c0,0.9-0.3,1.4-0.9,1.6c-0.7,0.2-1.9,0.3-3.8,0.3c-0.1-0.4-0.3-1-0.6-1.4c1.5,0.1,2.9,0,3.3,0
			c0.4,0,0.6-0.1,0.6-0.5v-3.6h-8.6c-0.4,2-1.4,4.1-3.1,5.6c-0.2-0.3-0.7-0.8-1-1c2.9-2.5,3.2-6.2,3.2-9v-5.5h11V89z M308.4,84v-3
			h-8.2c0,0.9-0.1,2-0.2,3H308.4z M300.2,76.7v3h8.2v-3H300.2z"/>
		<path d="M314.9,76.3h7.6v1.4h-5.9v4.5h5v1.4h-5v5.9h-1.7V76.3z"/>
		<path d="M323.8,82.9c0-4.2,2.3-6.8,5.6-6.8s5.6,2.6,5.6,6.8s-2.3,6.9-5.6,6.9S323.8,87.1,323.8,82.9z M333.4,82.9
			c0-3.3-1.6-5.3-3.9-5.3c-2.4,0-3.9,2-3.9,5.3c0,3.3,1.5,5.4,3.9,5.4C331.8,88.3,333.4,86.2,333.4,82.9z"/>
		<path d="M337.9,76.3h2l2.5,7.1c0.3,0.9,0.6,1.8,0.9,2.8h0.1c0.3-0.9,0.6-1.8,0.9-2.8l2.5-7.1h2v13.2h-1.6v-7.3
			c0-1.1,0.1-2.7,0.2-3.9h-0.1l-1,3l-2.5,6.9h-1.1l-2.5-6.9l-1-3h-0.1c0.1,1.2,0.2,2.8,0.2,3.9v7.3h-1.5V76.3z"/>
		<path d="M351.8,82.9c0-4.3,2.5-6.9,5.9-6.9c1.6,0,2.9,0.8,3.6,1.6l-0.9,1.1c-0.7-0.7-1.6-1.3-2.7-1.3c-2.5,0-4.2,2.1-4.2,5.3
			c0,3.3,1.6,5.4,4.1,5.4c1.3,0,2.2-0.6,3.1-1.5l0.9,1c-1,1.2-2.3,1.9-4.1,1.9C354.3,89.8,351.8,87.2,351.8,82.9z"/>
		<path d="M362.9,90.3c0.6-0.8,1-2.2,1.2-3.3l0.9,0.3c-0.2,1.1-0.6,2.5-1.1,3.4L362.9,90.3z M371.1,86.2h-7.9v-1.1h3.3v-1.4h-3v-1.1
			h3v-1.2h-2.9v-6.3h7.1v6.3h-3v1.2h3.1v1.1h-3.1v1.4h3.4V86.2z M364.7,80.4h1.9v-4.3h-1.9V80.4z M365.7,76.8c0.3,0.9,0.5,2,0.6,2.7
			l-0.7,0.2c0-0.7-0.3-1.9-0.6-2.7L365.7,76.8z M366.5,87.2c0.2,1,0.3,2.3,0.3,3.1l-1,0.1c0.1-0.8-0.1-2.1-0.2-3.1L366.5,87.2z
			 M368.3,87.1c0.4,0.9,0.7,2.1,0.8,2.9l-0.9,0.2c-0.1-0.8-0.4-2-0.8-2.9L368.3,87.1z M369.7,76.1h-2.1v4.3h2.1V76.1z M367.9,79.6
			c0.3-0.8,0.6-2,0.8-2.9l0.8,0.3c-0.3,0.9-0.7,2.1-1,2.8L367.9,79.6z M370.2,87c0.5,0.9,1,2,1.2,2.8l-0.9,0.4
			c-0.2-0.8-0.6-2-1.1-2.8L370.2,87z M375.7,79.7V83h3.1v7.9h-1.3v-0.8H373v0.8h-1.2V83h2.6v-8.5h1.3v3.9h3.8v1.3H375.7z
			 M377.5,84.2H373v4.6h4.5V84.2z"/>
		<path d="M386.9,75.7c-0.5,1.5-1.2,3.3-1.8,4.8c1.3,1.5,1.6,2.8,1.6,3.9c0,1-0.2,1.7-0.7,2.1c-0.3,0.2-0.6,0.3-0.9,0.3
			c-0.4,0-0.8,0-1.2,0c0-0.3-0.1-0.9-0.3-1.2c0.4,0,0.8,0,1,0c0.2,0,0.4-0.1,0.6-0.2c0.3-0.2,0.4-0.7,0.4-1.2c0-1-0.3-2.2-1.6-3.6
			c0.5-1.3,1.1-3,1.5-4.2h-2.4v14.4h-1.2V75.2h4.1l0.2-0.1L386.9,75.7z M397.5,88.3h-4.8v2.6h-1.3v-2.6h-5v-1.2h5v-1.7h-4V79h4v-1.6
			h-4.4v-1.2h4.4v-1.7h1.3v1.7h4.6v1.2h-4.6V79h4.1v6.4h-4.1v1.7h4.8V88.3z M388.6,81.7h2.8v-1.6h-2.8V81.7z M388.6,84.3h2.8v-1.7
			h-2.8V84.3z M395.5,80.1h-2.9v1.6h2.9V80.1z M395.5,82.7h-2.9v1.7h2.9V82.7z"/>
		<path d="M414.7,75.2v15.7h-1.3v-0.7H401v0.7h-1.2V75.2H414.7z M413.5,89V76.3H401V89H413.5z M412.6,80.8v0.8h-10.8v-0.8h4.7V80
			h-2.9v-2.8h7.1V80h-3v0.8H412.6z M403.1,82.4h8.3v5.7h-8.3V82.4z M404.1,87.2h6.1v-4h-6.1V87.2z M404.8,79.2h4.8V78h-4.8V79.2z
			 M405.3,84h3.8v2.4h-3.8V84z M406.1,85.8h2.1v-1h-2.1V85.8z"/>
		<path d="M432.4,77.7v8.4h-1.4v-1h-5.2v5.8h-1.4v-5.8h-5.1v1.1H418v-8.5h6.5v-3.2h1.4v3.2H432.4z M424.5,83.8V79h-5.1v4.8H424.5z
			 M431.1,83.8V79h-5.2v4.8H431.1z"/>
		<path d="M440.7,74.9c-0.5,1.3-1.1,2.6-1.8,3.8v12.2h-1.3V80.8c-0.6,0.8-1.2,1.5-1.8,2.2c-0.1-0.3-0.5-1-0.8-1.3
			c1.8-1.7,3.4-4.4,4.4-7.1L440.7,74.9z M451.3,88.9v1.3h-11.2v-1.3h6.3c0.6-2.4,1.4-6.2,1.7-8.9l1.4,0.3c-0.5,2.8-1.2,6.3-1.9,8.7
			H451.3z M450.6,79h-9.7v-1.3h9.7V79z M443.3,88.1c-0.1-1.9-0.7-5.2-1.2-7.7l1.2-0.3c0.6,2.5,1.1,5.7,1.3,7.6L443.3,88.1z
			 M445.3,77.5c-0.1-0.8-0.5-2-0.8-2.9l1.3-0.3c0.3,0.9,0.7,2.1,0.9,2.8L445.3,77.5z"/>
		<path d="M468.1,79.2c-0.3,2.8-0.9,5-1.8,6.9c0.8,1.6,1.9,2.9,3.3,3.7c-0.3,0.2-0.7,0.7-0.9,1c-1.3-0.8-2.3-2-3.2-3.5
			c-1,1.5-2.3,2.7-4.1,3.6c-0.1-0.2-0.4-0.6-0.6-0.9l-0.4,0.4c-0.6-0.3-1.4-0.8-2.3-1.1c-1,0.6-2.5,1.1-4.6,1.6
			c-0.1-0.3-0.4-0.7-0.6-0.9c1.7-0.3,3-0.8,3.9-1.2c-0.8-0.3-1.7-0.6-2.6-0.8c0.3-0.4,0.7-1,1.1-1.6h-2.3v-1h2.9
			c0.2-0.4,0.4-0.8,0.6-1.2h-2.7v-2.9h3.4v-0.8h-3v-2h-1.2v-1h1.2v-1.9h3v-1.2h1.1v1.2h3.2v1.9h1v1h-1v2h-3.2v0.8h3.5v1
			c1.2-2,2-4.9,2.5-7.8l1.2,0.2c-0.2,1.1-0.5,2.2-0.8,3.3h4.7v1.2H468.1z M455.1,83.4h2.2v-1.2h-2.2V83.4z M455.4,76.6v1h1.9v-1
			H455.4z M457.3,79.6v-1.2h-1.9v1.2H457.3z M456.7,86.4c-0.2,0.4-0.4,0.7-0.7,1.1c0.6,0.2,1.3,0.4,2,0.7c0.8-0.6,1.2-1.2,1.4-1.8
			H456.7z M461.3,89.7c1.7-0.9,2.9-2.1,3.7-3.6c-0.6-1.4-1-3-1.3-4.8c-0.3,0.8-0.6,1.4-1,2c-0.2-0.2-0.5-0.5-0.8-0.7v1.7h-4.1
			c-0.2,0.4-0.4,0.8-0.6,1.2h2.3v-0.1v-0.6h1.1v0.6v0.1h1.8v1h-1.9c-0.1,0.7-0.5,1.5-1.4,2.2C460,89,460.7,89.3,461.3,89.7
			L461.3,89.7z M458.3,76.6v1h2.1v-1H458.3z M460.4,79.6v-1.2h-2.1v1.2H460.4z M458.3,82.2v1.2h2.3v-1.2H458.3z M464.4,79.2
			l-0.1,0.2c0.3,1.9,0.7,3.7,1.3,5.3c0.6-1.5,1-3.3,1.2-5.5H464.4z"/>
		<path d="M471,92.6c1.5-2.6,2.3-5.6,2.3-8.7s-0.8-6.1-2.3-8.7l1-0.5c1.7,2.7,2.7,5.6,2.7,9.1c0,3.5-1,6.4-2.7,9.1L471,92.6z"/>
	</g>
</g>
<path class="st1" d="M430.3,188.2l4.3,0.7l0.9,0.3l1,0.7l0.3,0.9v1l-0.3,0.9l-0.7,1l-1,0.3h-0.9l-4.2-0.3l-1.3-0.7l-0.6-0.6l-0.3-1
	l-0.3-1l0.3-0.9l0.9-1l1-0.3H430.3z M408.6,185l10.7,1.6l1.3,0.3l0.6,0.6l0.3,0.9l0.3,1l-0.7,1.3l-0.6,0.6l-1,0.3l-0.9,0.3
	l-11.1-1.7l-0.9-0.3l-0.7-1l-0.6-1v-0.9l0.3-1l0.7-0.9l1-0.3H408.6z M386.6,181.7l11,1.7l0.9,0.3l1,0.7l0.3,1v1.3l-0.3,1l-0.7,0.6
	l-0.9,0.7h-1l-11-1.6l-1-0.3l-0.9-0.7l-0.3-0.9V184l0.3-0.9l0.7-0.7l0.9-0.7H386.6z M364.8,178.5l11,1.6l1,0.3l0.6,0.7l0.6,0.9v1.3
	l-0.3,0.9l-0.7,0.7l-1,0.6h-1.3l-10.7-1.7l-1.3-0.3l-0.7-0.6l-0.3-1v-1.3l0.3-1l0.7-0.7l1-0.6H364.8z M343.1,175.3l11,1.6l1,0.3
	l0.6,1l0.3,0.9l0.3,1l-0.3,1l-0.9,0.6l-1,0.7h-1l-11-1.6l-0.9-0.3l-0.7-0.7l-0.7-0.9v-1l0.3-1.3l1-0.6l0.6-0.3L343.1,175.3z
	 M321.4,172l10.7,1.7l0.9,0.6l1,0.7l0.3,1v0.9l-0.3,1l-0.6,1l-0.9,0.3h-1l-11-1.6l-1-0.3l-0.6-0.7l-0.6-0.9v-1l0.3-1.3l0.6-0.7
	l1-0.3L321.4,172z M299.4,169.1l11,1.6l1,0.3l0.9,0.7l0.3,0.9v1l-0.3,0.9l-0.6,1l-1,0.3h-1.3l-10.7-1.7l-0.9-0.3l-1-0.7l-0.3-1v-0.9
	l0.3-1l0.6-0.9l1-0.3H299.4z"/>
<path class="st2" d="M430.3,188.2l4.3,0.7l0.9,0.3l1,0.7l0.3,0.9v1l-0.3,0.9l-0.7,1l-1,0.3h-0.9l-4.2-0.3l-1.3-0.7l-0.6-0.6l-0.3-1
	l-0.3-1l0.3-0.9l0.9-1l1-0.3H430.3z M408.6,185l10.7,1.6l1.3,0.3l0.6,0.6l0.3,0.9l0.3,1l-0.7,1.3l-0.6,0.6l-1,0.3l-0.9,0.3
	l-11.1-1.7l-0.9-0.3l-0.7-1l-0.6-1v-0.9l0.3-1l0.7-0.9l1-0.3H408.6z M386.6,181.7l11,1.7l0.9,0.3l1,0.7l0.3,1v1.3l-0.3,1l-0.7,0.6
	l-0.9,0.7h-1l-11-1.6l-1-0.3l-0.9-0.7l-0.3-0.9V184l0.3-0.9l0.7-0.7l0.9-0.7H386.6z M364.8,178.5l11,1.6l1,0.3l0.6,0.7l0.6,0.9v1.3
	l-0.3,0.9l-0.7,0.7l-1,0.6h-1.3l-10.7-1.7l-1.3-0.3l-0.7-0.6l-0.3-1v-1.3l0.3-1l0.7-0.7l1-0.6H364.8z M343.1,175.3l11,1.6l1,0.3
	l0.6,1l0.3,0.9l0.3,1l-0.3,1l-0.9,0.6l-1,0.7h-1l-11-1.6l-0.9-0.3l-0.7-0.7l-0.7-0.9v-1l0.3-1.3l1-0.6l0.6-0.3L343.1,175.3z
	 M321.4,172l10.7,1.7l0.9,0.6l1,0.7l0.3,1v0.9l-0.3,1l-0.6,1l-0.9,0.3h-1l-11-1.6l-1-0.3l-0.6-0.7l-0.6-0.9v-1l0.3-1.3l0.6-0.7
	l1-0.3L321.4,172z M299.4,169.1l11,1.6l1,0.3l0.9,0.7l0.3,0.9v1l-0.3,0.9l-0.6,1l-1,0.3h-1.3l-10.7-1.7l-0.9-0.3l-1-0.7l-0.3-1v-0.9
	l0.3-1l0.6-0.9l1-0.3H299.4z"/>
<g>
	<g>
		<path class="st3" d="M711.8,400.5H37.7c-2.8,0-5-2.2-5-5l0-274.6c4.4-5,10-2,10,2.4v267.2h668.8c2.6,0,4.9,1.9,5.2,4.5
			C717,398,714.7,400.5,711.8,400.5z"/>
	</g>
	<g>
		<polygon class="st3" points="26.6,131.5 37.7,126.8 48.8,131.5 37.7,105.2 		"/>
	</g>
	<g>
		<polygon class="st3" points="703.5,406.7 708.2,395.5 703.5,384.4 729.8,395.5 		"/>
	</g>
</g>
<g>
	<line class="st4" x1="43.2" y1="355.2" x2="705.8" y2="355.2"/>
	<line class="st4" x1="43.2" y1="315.3" x2="705.8" y2="315.3"/>
	<line class="st4" x1="43.2" y1="275.8" x2="705.8" y2="275.8"/>
	<line class="st4" x1="43.2" y1="236.2" x2="705.8" y2="236.2"/>
	<line class="st4" x1="43.2" y1="196.4" x2="705.8" y2="196.4"/>
	<line class="st4" x1="43.2" y1="156.8" x2="705.8" y2="156.8"/>
	<path class="st1" d="M562.3,235.6l10.3,3.9l1,0.3l0.6,1v0.9v1.3l-0.6,0.7l-1,0.6l-1,0.3h-0.9l-10.4-3.9l-0.9-0.7l-0.7-0.9v-1v-1
		l0.7-0.9l0.7-0.7l1.3-0.3L562.3,235.6z M541.5,227.8l10.3,3.9l1,0.7l0.6,0.9l0.3,1l-0.3,0.9l-0.6,1l-0.7,0.7l-1.3,0.3l-1-0.3
		l-10.3-3.9l-1-0.3l-0.7-0.9v-1v-1.3l0.7-0.7l1-0.7l0.9-0.3H541.5z M520.8,220.4l10.3,3.9l1,0.3l0.7,1l0.3,0.9l-0.3,1.3l-0.7,0.6
		l-0.7,0.7l-0.9,0.3h-1.3l-10.3-3.9l-0.7-0.7l-0.7-0.7l-0.3-1.3v-1l0.7-0.9l1-0.7l0.9-0.3L520.8,220.4z M500,212.9l10.3,3.6l1,0.6
		l0.7,1l0.3,0.9l-0.3,1l-0.3,1l-1,0.6l-0.9,0.3l-1.3-0.3l-10-3.9l-1-0.3l-0.7-0.9l-0.3-1l0.3-1l0.3-0.9l1-0.7l0.9-0.3L500,212.9z
		 M479.6,205.1L490,209l0.7,0.6l0.7,0.7l0.3,1v1.3l-0.7,1l-1,0.3l-0.9,0.3h-1l-10.3-4l-1-0.7l-0.6-0.6l-0.3-1.3l0.3-0.9l0.3-1l1-0.6
		h1H479.6z M458.9,197.7l10.4,3.5l0.9,0.6l0.7,0.9v1v1l-0.7,0.9l-0.9,0.7l-1,0.3l-1-0.3l-10.3-3.6l-1-0.6l-0.6-1l-0.3-0.9l0.3-1
		l0.6-1l0.7-0.6l1-0.3L458.9,197.7z M438.1,189.9l10.4,3.9l0.9,0.6l0.7,0.7v0.9v1.3l-0.7,0.9l-0.6,0.7h-1.3h-0.9l-10.4-3.9l-0.9-0.7
		l-0.6-0.6v-1.3v-1l0.6-0.9l0.9-0.6h1H438.1z"/>
	<path class="st2" d="M562.3,235.6l10.3,3.9l1,0.3l0.6,1v0.9v1.3l-0.6,0.7l-1,0.6l-1,0.3h-0.9l-10.4-3.9l-0.9-0.7l-0.7-0.9v-1v-1
		l0.7-0.9l0.7-0.7l1.3-0.3L562.3,235.6z M541.5,227.8l10.3,3.9l1,0.7l0.6,0.9l0.3,1l-0.3,0.9l-0.6,1l-0.7,0.7l-1.3,0.3l-1-0.3
		l-10.3-3.9l-1-0.3l-0.7-0.9v-1v-1.3l0.7-0.7l1-0.7l0.9-0.3H541.5z M520.8,220.4l10.3,3.9l1,0.3l0.7,1l0.3,0.9l-0.3,1.3l-0.7,0.6
		l-0.7,0.7l-0.9,0.3h-1.3l-10.3-3.9l-0.7-0.7l-0.7-0.7l-0.3-1.3v-1l0.7-0.9l1-0.7l0.9-0.3L520.8,220.4z M500,212.9l10.3,3.6l1,0.6
		l0.7,1l0.3,0.9l-0.3,1l-0.3,1l-1,0.6l-0.9,0.3l-1.3-0.3l-10-3.9l-1-0.3l-0.7-0.9l-0.3-1l0.3-1l0.3-0.9l1-0.7l0.9-0.3L500,212.9z
		 M479.6,205.1L490,209l0.7,0.6l0.7,0.7l0.3,1v1.3l-0.7,1l-1,0.3l-0.9,0.3h-1l-10.3-4l-1-0.7l-0.6-0.6l-0.3-1.3l0.3-0.9l0.3-1l1-0.6
		h1H479.6z M458.9,197.7l10.4,3.5l0.9,0.6l0.7,0.9v1v1l-0.7,0.9l-0.9,0.7l-1,0.3l-1-0.3l-10.3-3.6l-1-0.6l-0.6-1l-0.3-0.9l0.3-1
		l0.6-1l0.7-0.6l1-0.3L458.9,197.7z M438.1,189.9l10.4,3.9l0.9,0.6l0.7,0.7v0.9v1.3l-0.7,0.9l-0.6,0.7h-1.3h-0.9l-10.4-3.9l-0.9-0.7
		l-0.6-0.6v-1.3v-1l0.6-0.9l0.9-0.6h1H438.1z"/>
	<g>
		<defs>
			<rect id="SVGID_00000136392850498085030290000008095276151641119880_" x="43.2" y="156.8" width="664.5" height="239.8"/>
		</defs>
		<clipPath id="SVGID_00000049192137761840924880000016700903601388950167_">
			<use xlink:href="#SVGID_00000136392850498085030290000008095276151641119880_"  style="overflow:visible;"/>
		</clipPath>
		<path style="clip-path:url(#SVGID_00000049192137761840924880000016700903601388950167_);fill:#910000;" d="M699.6,276.7l7.8,2.3
			l0.9,0.7l0.6,0.7l0.3,0.9l-0.3,1.3l-0.3,0.9l-1,0.7l-0.9,0.3l-1-0.3l-7.7-2.3l-1-0.3l-0.7-0.9l-0.3-1v-1l0.6-0.9l1-0.7l0.9-0.3
			H699.6z M678.5,270.6l10.4,2.9l0.9,0.6l0.7,1l0.3,1v0.9l-0.3,1l-1,0.6l-0.9,0.3h-1l-10.7-3.2l-1-0.3l-0.6-1l-0.3-0.9v-1l0.7-1
			l0.6-0.6l1-0.3H678.5z M657.2,264.4l10.7,2.9l1,0.7l0.6,0.7l0.3,0.9v1.3l-0.7,0.9l-0.6,0.7l-1,0.3h-1.3l-10.4-3.3l-0.9-0.6
			l-0.7-0.7l-0.3-1V266l0.7-1l0.7-0.6l0.9-0.3L657.2,264.4z M636.1,258.2l10.7,2.9l1,0.7l0.6,0.6l0.3,1v1.3l-0.6,1l-0.7,0.7
			l-1.3,0.3l-1-0.3l-10.7-2.9l-1-0.7l-0.6-0.6l-0.3-1l0.3-1.3l0.3-1l1-0.7l0.9-0.3L636.1,258.2z M615,251.8l10.7,3.3l0.9,0.6
			l0.7,0.7l0.3,1l-0.3,0.9l-0.3,1l-1,0.9l-0.9,0.3l-1-0.3l-10.7-2.9l-1-0.7l-0.6-0.7l-0.3-1.3v-1l0.7-0.9l0.9-0.7l1-0.3H615z
			 M594,245.6l10.3,3.2l1,0.3l0.9,1v0.9v1l-0.3,1l-0.9,0.6l-1,0.3h-0.9l-10.7-3.2l-0.9-0.3l-0.7-1l-0.3-0.9v-1l0.6-1l0.7-0.6
			l0.9-0.3H594z M572.9,239.4l10.3,3.3l1,0.3l0.7,1l0.3,0.9v1l-0.6,0.9l-0.7,0.7l-1,0.3h-1.3l-10.3-3.3l-1-0.3l-0.6-0.9l-0.3-1v-0.9
			l0.7-1l0.7-0.7l0.9-0.3H572.9z"/>
		
			<path style="clip-path:url(#SVGID_00000049192137761840924880000016700903601388950167_);fill:none;stroke:#910000;stroke-width:0.14;stroke-linejoin:round;stroke-miterlimit:10;" d="
			M699.6,276.7l7.8,2.3l0.9,0.7l0.6,0.7l0.3,0.9l-0.3,1.3l-0.3,0.9l-1,0.7l-0.9,0.3l-1-0.3l-7.7-2.3l-1-0.3l-0.7-0.9l-0.3-1v-1
			l0.6-0.9l1-0.7l0.9-0.3H699.6z M678.5,270.6l10.4,2.9l0.9,0.6l0.7,1l0.3,1v0.9l-0.3,1l-1,0.6l-0.9,0.3h-1l-10.7-3.2l-1-0.3l-0.6-1
			l-0.3-0.9v-1l0.7-1l0.6-0.6l1-0.3H678.5z M657.2,264.4l10.7,2.9l1,0.7l0.6,0.7l0.3,0.9v1.3l-0.7,0.9l-0.6,0.7l-1,0.3h-1.3
			l-10.4-3.3l-0.9-0.6l-0.7-0.7l-0.3-1V266l0.7-1l0.7-0.6l0.9-0.3L657.2,264.4z M636.1,258.2l10.7,2.9l1,0.7l0.6,0.6l0.3,1v1.3
			l-0.6,1l-0.7,0.7l-1.3,0.3l-1-0.3l-10.7-2.9l-1-0.7l-0.6-0.6l-0.3-1l0.3-1.3l0.3-1l1-0.7l0.9-0.3L636.1,258.2z M615,251.8
			l10.7,3.3l0.9,0.6l0.7,0.7l0.3,1l-0.3,0.9l-0.3,1l-1,0.9l-0.9,0.3l-1-0.3l-10.7-2.9l-1-0.7l-0.6-0.7l-0.3-1.3v-1l0.7-0.9l0.9-0.7
			l1-0.3H615z M594,245.6l10.3,3.2l1,0.3l0.9,1v0.9v1l-0.3,1l-0.9,0.6l-1,0.3h-0.9l-10.7-3.2l-0.9-0.3l-0.7-1l-0.3-0.9v-1l0.6-1
			l0.7-0.6l0.9-0.3H594z M572.9,239.4l10.3,3.3l1,0.3l0.7,1l0.3,0.9v1l-0.6,0.9l-0.7,0.7l-1,0.3h-1.3l-10.3-3.3l-1-0.3l-0.6-0.9
			l-0.3-1v-0.9l0.7-1l0.7-0.7l0.9-0.3H572.9z"/>
	</g>
	<g>
		<defs>
			<rect id="SVGID_00000090266793576227387070000006597286308306653326_" x="43.2" y="156.8" width="664.5" height="239.8"/>
		</defs>
		<clipPath id="SVGID_00000097469519094811648930000000311714529040642957_">
			<use xlink:href="#SVGID_00000090266793576227387070000006597286308306653326_"  style="overflow:visible;"/>
		</clipPath>
		
			<polyline style="clip-path:url(#SVGID_00000097469519094811648930000000311714529040642957_);fill:none;stroke:#910000;stroke-width:2.0604;stroke-linejoin:round;stroke-miterlimit:10;" points="
			43.2,389.8 53.5,389.8 64.9,379.8 76,379.8 87.6,360 98.6,330.2 110,300.4 121.6,300.4 132.7,270.9 144,270.9 155,241.1 
			166.3,221.3 178,221.3 188.4,211.2 199.7,201.2 210.7,201.2 222,191.5 233.4,191.5 244.7,181.4 256,181.4 267.1,181.4 
			278.7,181.4 289.7,181.4 301.1,171.8 		"/>
	</g>
	<g>
		<defs>
			<rect id="SVGID_00000105399081850044248330000013618593503597116605_" x="43.2" y="157.8" width="664.5" height="239.8"/>
		</defs>
		<clipPath id="SVGID_00000120530111331524775170000001339718093111537289_">
			<use xlink:href="#SVGID_00000105399081850044248330000013618593503597116605_"  style="overflow:visible;"/>
		</clipPath>
		
			<polyline style="clip-path:url(#SVGID_00000120530111331524775170000001339718093111537289_);fill:none;stroke:#EF7E00;stroke-width:2.0604;stroke-linejoin:round;stroke-miterlimit:10;" points="
			178,223.9 188.4,211 199.7,208.4 210.7,202.8 222,199.3 233.4,198.6 244.7,198.6 256,200.9 267.1,201.9 278.7,203.8 289.7,208.1 
			301.1,211.7 312.4,214.3 323.2,220.7 334.8,223.6 345.9,228.5 357.2,235.6 368.2,238.2 379.9,241.1 391.2,244.7 402.2,245.7 
			413.9,248.3 424.9,250.5 436.2,251.5 447.6,251.5 457.9,251.5 469.2,251.5 480.6,251.5 491.9,251.5 502.9,251.5 514.3,251.5 
			525.9,251.5 537,251.5 548.3,251.5 559.3,251.5 571,246.9 582.3,242.7 592.7,242.7 604.1,242.7 615.1,242.7 626.7,242.7 
			637.8,242.7 649.1,242.7 660.4,239.8 671.8,239.8 683.1,239.5 694.1,238.5 705.5,237.9 		"/>
	</g>
	<g>
		<defs>
			<rect id="SVGID_00000097476605669333159230000003125081202761898385_" x="43.2" y="156.8" width="664.5" height="239.8"/>
		</defs>
		<clipPath id="SVGID_00000027606406905795766360000008680400978141015446_">
			<use xlink:href="#SVGID_00000097476605669333159230000003125081202761898385_"  style="overflow:visible;"/>
		</clipPath>
		
			<polyline style="clip-path:url(#SVGID_00000027606406905795766360000008680400978141015446_);fill:none;stroke:#FAC090;stroke-width:2.0604;stroke-linejoin:round;stroke-miterlimit:10;" points="
			289.7,183.4 301.1,182.8 312.4,182.4 323.2,180.8 334.8,181.4 345.9,182.4 357.2,185.7 368.2,188.6 379.9,190.5 391.2,195.7 
			402.2,198 413.9,201.2 424.9,205.4 436.2,208.6 447.6,212.2 457.9,217.1 469.2,219.1 480.6,222 491.9,226.5 502.9,228.5 
			514.3,230.1 525.9,231.1 537,231.1 548.3,232.3 559.3,232.3 571,227.5 582.3,230.1 592.7,239.8 604.1,239.8 615.1,239.8 
			626.7,239.8 637.8,239.8 649.1,239.8 660.4,236.5 671.8,236.5 683.1,236.2 694.1,235.6 705.5,234.6 		"/>
	</g>
</g>
<rect x="74.7" y="473.7" class="st1" width="13.1" height="13.1"/>
<rect x="231.2" y="473.7" class="st10" width="13.1" height="13.1"/>
<rect x="443.6" y="473.7" class="st11" width="13.1" height="13.1"/>
</svg>
