<?xml version="1.0" encoding="utf-8"?>
<!-- Generator: Adobe Illustrator 27.8.1, SVG Export Plug-In . SVG Version: 6.00 Build 0)  -->
<svg version="1.1" id="分離模式" xmlns="http://www.w3.org/2000/svg" xmlns:xlink="http://www.w3.org/1999/xlink" x="0px"
	 y="0px" viewBox="0 0 752 487" style="enable-background:new 0 0 752 487;" xml:space="preserve">
<style type="text/css">
	.st0{fill:#DADADA;}
	.st1{fill:#BA1019;}
	.st2{fill:#3C3C3B;}
	.st3{fill:#910000;}
	.st4{fill:#EF7E00;}
	.st5{fill-rule:evenodd;clip-rule:evenodd;fill:#FFFFFF;}
	.st6{fill:none;stroke:#E6E6E6;stroke-width:1.5639;stroke-linejoin:round;stroke-miterlimit:10;}
</style>
<g>
	<path d="M10.1,154.6h4v-9.3H11V144c1.6-0.3,2.7-0.4,3.6-1h1.5v11.6h3.7v1.7h-9.8V154.6z"/>
	<path d="M30.8,144.8h-7.2V143h9.6v1.3c-3.3,4.2-4.3,7.1-4.4,12h-2.2C26.8,151.3,28,148.4,30.8,144.8z"/>
	<path d="M10.1,199.6h4v-9.3H11V189c1.6-0.3,2.7-0.4,3.6-1h1.5v11.6h3.7v1.7h-9.8V199.6z"/>
	<path d="M23.7,200.1c4-3.2,7-5.9,7-8.2c0-1.4-1-2.4-2.6-2.4c-1.3,0-2.3,0.7-3.4,1.9l-1.3-1.2c1.3-1.5,2.9-2.4,4.8-2.4
		c2.7,0,4.5,1.5,4.5,4.1c0,2.6-2.5,5.2-5.7,7.8c0.7-0.1,1.4-0.1,2.1-0.1h4.3v1.7h-9.7V200.1z"/>
	<path d="M24,234.8h-7.2V233h9.6v1.3c-3.3,4.2-4.3,7.1-4.4,12h-2.2C19.9,241.3,21.2,238.4,24,234.8z"/>
	<path d="M16.9,290.1c4-3.2,7-5.9,7-8.2c0-1.4-1-2.4-2.6-2.4c-1.3,0-2.3,0.7-3.4,1.9l-1.3-1.2c1.3-1.5,2.9-2.4,4.8-2.4
		c2.7,0,4.5,1.5,4.5,4.1c0,2.6-2.5,5.2-5.7,7.8c0.7-0.1,1.4-0.1,2.1-0.1h4.3v1.7h-9.7V290.1z"/>
	<path d="M13.3,320.9l1.4,0.6c-2,2.1-3.3,4.6-3.3,8c0,3.3,1.4,5.9,3.3,8l-1.4,0.6c-2.1-2.1-3.6-5-3.6-8.6
		C9.7,325.8,11.2,322.9,13.3,320.9z"/>
	<path d="M16.7,334.3l1-1.3c1,1.1,2.4,1.9,4,1.9c1.6,0,2.8-0.8,2.8-2.2c0-1.5-1.2-2.4-4.4-2.4v-1.5c2.9,0,4.1-1.1,4.1-2.3
		c0-1.1-0.9-1.9-2.5-1.9c-1.3,0-2.5,0.5-3.6,1.7l-1.1-1.3c1.3-1.3,2.9-2.1,4.8-2.1c2.7,0,4.4,1.4,4.4,3.4c0,1.5-0.9,2.7-2.4,3.1v0.1
		c1.6,0.3,2.8,1.5,2.8,3.4c0,2.3-2.1,3.8-4.7,3.8C19.3,336.6,17.7,335.5,16.7,334.3z"/>
	<path d="M30,338.1l-1.4-0.6c2-2.1,3.3-4.6,3.3-8c0-3.3-1.4-5.9-3.3-8l1.4-0.6c2.1,2.1,3.6,5,3.6,8.6C33.6,333.1,32.1,336,30,338.1z
		"/>
	<path d="M13.3,365.9l1.4,0.6c-2,2.1-3.3,4.6-3.3,8c0,3.3,1.4,5.9,3.3,8l-1.4,0.6c-2.1-2.1-3.6-5-3.6-8.6
		C9.7,370.8,11.2,367.9,13.3,365.9z"/>
	<path d="M16.8,377.9c0-1.7,0.9-2.7,2.4-3.6v-0.1c-1.3-0.7-1.9-1.7-1.9-2.9c0-2.1,1.8-3.6,4.4-3.6c2.7,0,4.4,1.5,4.4,3.5
		c0,1.3-0.6,2.3-1.9,3.2v0.1c1.7,0.8,2.4,1.9,2.4,3.3c0,2-1.8,3.6-4.9,3.6C18.6,381.6,16.8,380,16.8,377.9z M24.5,377.9
		c0-1.6-1.6-2.2-4.1-2.9c-1.2,0.7-1.8,1.6-1.8,2.7c0,1.3,1.2,2.3,3.1,2.3C23.5,380.1,24.5,379.1,24.5,377.9z M24.3,371.5
		c0-1.1-0.9-2.2-2.7-2.2c-1.4,0-2.4,0.9-2.4,2.1c0,1.5,1.7,2.1,3.7,2.6C24,373.1,24.3,372.4,24.3,371.5z"/>
	<path d="M30,383.1l-1.4-0.6c2-2.1,3.3-4.6,3.3-8c0-3.3-1.4-5.9-3.3-8l1.4-0.6c2.1,2.1,3.6,5,3.6,8.6C33.6,378.1,32.1,381,30,383.1z
		"/>
</g>
<g>
	<path class="st0" d="M52,375.1c-1.4,0-2.5-1.1-2.5-2.5V173.9c0-1.4,1.1-2.5,2.5-2.5c1.4,0,2.5,1.1,2.5,2.5v198.7
		C54.5,374,53.4,375.1,52,375.1z"/>
</g>
<g>
	<g>
		<path class="st1" d="M88.6,19.5v2.7h7.7v8.1c0,1.4-0.3,2.2-1.3,2.6c-1,0.5-2.4,0.5-4.2,0.5c-0.1-0.8-0.6-2-1-2.8
			c1.2,0.1,2.6,0.1,3,0c0.4,0,0.5-0.1,0.5-0.4V25h-4.8v10.8h-3V25h-4.4v8.4h-2.9V22.2h7.3v-2.7h-9.3v-2.8h9.6
			c-0.4-0.9-0.8-1.8-1.2-2.6l2.8-0.9c0.6,1.1,1.4,2.5,1.8,3.5h8.9v2.8H88.6z"/>
		<path class="st1" d="M112.9,25.5c-0.2,0.4-0.4,0.8-0.7,1.2h9.7c0,0,0,0.6,0,1c-0.3,4.7-0.7,6.6-1.4,7.3c-0.5,0.6-1,0.7-1.6,0.8
			c-0.6,0.1-1.5,0.1-2.4,0c0-0.7-0.3-1.6-0.6-2.2c0.8,0.1,1.4,0.1,1.7,0.1c0.3,0,0.5,0,0.7-0.3c0.3-0.4,0.6-1.6,0.9-4.5h-0.9
			c-1,2.7-2.9,5.6-4.8,7.1c-0.5-0.6-1.3-1.2-2-1.6c1.8-1.2,3.4-3.3,4.5-5.5h-1.4c-1.3,2.3-3.5,4.7-5.6,6c-0.5-0.6-1.2-1.3-1.9-1.7
			c1.8-0.9,3.6-2.6,4.9-4.3h-1.4c-0.9,0.9-1.8,1.7-2.8,2.4c-0.4-0.5-1.3-1.3-1.9-1.7c-1.7,0.9-3.5,1.7-4.9,2.4l-1.1-2.9
			c0.8-0.3,1.8-0.7,3-1.2v-6.8h-2.4v-2.7h2.4v-4.7h2.6v4.7h2.3v2.7h-2.3v5.7l1.9-0.8l0.5,2c0.9-0.7,1.6-1.6,2.2-2.5h-2.7v-2.4h15.1
			v2.4H112.9z M120.8,22.2h-11.4v-8.1h11.4V22.2z M118.1,16H112v1.2h6.2V16z M118.1,19.1H112v1.2h6.2V19.1z"/>
		<path class="st1" d="M130.8,27.7c0.3-0.8,0.6-1.9,0.8-3h-1.4v8.1c0,1.3-0.2,2.1-1.1,2.5c-0.9,0.4-2.1,0.5-3.7,0.5
			c-0.1-0.8-0.5-2-0.9-2.7c1,0,2.2,0,2.5,0c0.3,0,0.4-0.1,0.4-0.4v-8.1h-3.6v-2.5h5.1c-1.2-0.9-2.8-1.8-4.2-2.5l1.4-1.8
			c0.7,0.3,1.5,0.7,2.2,1.1c0.5-0.6,1.1-1.2,1.5-1.9h-5.6v-2.5h7.3l0.5-0.2l1.6,1.2v-1.1h12.2v2.4h-4.5c-0.2,0.6-0.3,1.1-0.5,1.6
			h4.3v12.7h-10.7V18.4h3.5c0.1-0.5,0.2-1.1,0.2-1.6H134v-1.1c-0.9,1.5-2.2,3.1-3.4,4.4c0.6,0.4,1.1,0.8,1.4,1.1l-0.6,0.9h1.2
			l0.4-0.1l1.7,0.4c-0.5,2-1.2,4.2-1.7,5.7L130.8,27.7z M139.4,32.6c-1.3,1.3-3.6,2.6-5.4,3.3c-0.5-0.6-1.3-1.4-1.9-1.9
			c1.9-0.6,4-1.9,5-3L139.4,32.6z M142.7,20.5h-5.4V22h5.4V20.5z M142.7,23.9h-5.4v1.5h5.4V23.9z M142.7,27.5h-5.4V29h5.4V27.5z
			 M142.7,31.3c1.3,0.9,3.1,2.2,4.1,3.1l-2.3,1.6c-0.8-0.9-2.6-2.3-3.9-3.3L142.7,31.3z"/>
		<path class="st1" d="M155.7,14.4c-0.6,1.7-1.4,3.4-2.4,5.1v16.3h-2.7V23.8c-0.5,0.6-1,1.2-1.5,1.8c-0.3-0.7-1.1-2.3-1.6-3
			c2.2-2.2,4.3-5.5,5.5-9L155.7,14.4z M164.1,21.1v4.2h5v10.5h-3v-0.9H159v1h-2.8V25.3h4.9v-4.2h-6v-2.8h6v-4.9h3v4.9h6.3v2.8H164.1
			z M166.1,28H159v4.2h7.1V28z"/>
		<path class="st1" d="M185.6,29.9c2.9,1,6.7,2.5,8.7,3.5l-1.3,2.4c-2.1-1.2-6.5-3-9.6-4.2l1.1-1.8h-0.9c-1.2,3-3.7,4.8-10.1,5.9
			c-0.2-0.8-0.9-2-1.4-2.6c4.8-0.6,7.1-1.7,8.2-3.3H173v-2.4h8.1c0.1-0.4,0.1-0.8,0.2-1.2h-8.8v-2.5h9.2v-1.3h-7.1v-2.4h7.1v-1.2
			h-8.5v-2.5h4.6c-0.4-0.7-0.9-1.5-1.3-2.1l2.5-1c0.7,0.8,1.5,2,1.8,2.8l-0.7,0.3h5.3c0.6-0.9,1.3-2.2,1.7-3.1l3.1,0.8
			c-0.5,0.8-1.1,1.6-1.6,2.3h4.6v2.5h-8.5v1.2h7.3v2.4h-7.3v1.3h9.6v2.5h-9.9c0,0.4-0.1,0.8-0.2,1.2h9.4v2.4H185.6z"/>
		<path class="st1" d="M217.7,24.4c-0.8,3-2.2,5.4-4,7.2c1.4,0.8,3,1.4,4.7,1.8c-0.6,0.6-1.4,1.7-1.8,2.5c-2-0.6-3.7-1.4-5.2-2.4
			c-1.5,1-3.3,1.7-5.2,2.3c-0.3-0.7-0.9-1.8-1.4-2.4c-0.1,0.8-0.3,1.4-0.9,1.8c-0.7,0.5-1.6,0.5-3,0.5c-0.1-0.7-0.4-1.9-0.7-2.7
			c0.7,0,1.5,0,1.7,0c0.3,0,0.4-0.1,0.4-0.4v-4.8c-0.6,0.4-1.3,0.8-1.8,1.2l-0.7-1.7c-0.2,3-0.6,6.2-1.5,8.6
			c-0.5-0.4-1.7-1.1-2.3-1.3c1.2-3.3,1.3-8.1,1.3-11.6v-8.7h7.6v7.2c2.6-1.3,2.9-3,2.9-4.6v-2.6h8.1v5.3c0,0.7,0,1,0.3,1h0.9
			c0.3,0,0.9-0.1,1.2-0.2c0.1,0.7,0.1,1.6,0.2,2.3c-0.4,0.1-0.9,0.2-1.4,0.2h-1.2c-2.3,0-2.7-1-2.7-3.3V17h-2.8
			c0,2.3-0.7,4.9-3.8,6.5c-0.3-0.5-1.1-1.3-1.7-1.8v11c0,0.2,0,0.4,0,0.6c1.6-0.4,3.1-1,4.5-1.7c-1.2-1.3-2.3-2.9-3.1-4.7l1.2-0.4
			h-1.7v-2.7h9.8l0.5-0.1L217.7,24.4z M199.8,23c0,1,0,2.1-0.1,3.3c0.7-0.2,1.6-0.6,2.5-0.9v-2.6l-1,0.8c-0.3-0.5-0.9-1.2-1.5-1.8
			V23z M199.8,16.9v3l0.7-0.5c0.6,0.6,1.2,1.2,1.8,1.8v-4.3H199.8z M208.8,26.5c0.6,1.3,1.5,2.4,2.6,3.4c1.1-0.9,1.9-2.1,2.6-3.4
			H208.8z"/>
		<path class="st1" d="M228.9,22.8c-0.2,0.2-0.4,0.4-0.6,0.6c-0.2-0.3-0.7-0.8-1.2-1.2c0.2,1.4,0.3,2.8,0.3,4.2
			c0,3.3-0.3,6.4-1.3,7.9c-0.4,0.5-0.8,0.8-1.4,0.9c-0.9,0.2-1.9,0.3-3.1,0.2c0-0.9-0.3-1.9-0.7-2.7c1.2,0.1,2.1,0.1,2.6,0
			c0.3,0,0.5-0.2,0.7-0.4c0.5-0.7,0.7-2.9,0.7-5.7c-1,1.4-2.2,2.7-3.3,3.6c-0.3-0.7-1-1.8-1.5-2.4c1.7-1,3.6-3.1,4.6-5.2
			c-0.1-0.8-0.3-1.6-0.6-2.3c-0.9,0.9-1.8,1.8-2.7,2.5c-0.3-0.7-1-1.9-1.5-2.5c0.9-0.6,1.9-1.5,2.9-2.4c-0.6-0.9-1.3-1.7-2.2-2.5
			l1.9-1.5c0.8,0.7,1.5,1.4,2.1,2.1c0.6-0.7,1-1.4,1.4-2l2,1.4c-0.6,0.9-1.2,1.9-2,2.9c0.5,1,0.8,2,1.1,3c1.1-1,2.2-2.3,3-3.5
			l1.4,0.5V17h-3.5v-2h3.5v-1.5h2.5v4.8l1.5-0.8c0.2,0.2,0.4,0.4,0.6,0.7v-4.7h2.6v1.5h3.7v2h-3.7v1.3h-2.5c0.4,0.5,0.8,1,1.1,1.3
			h4.2v1.7h-4.6V22h4.1v1.4h-4.1v0.8h4.1v1.4h-4.1v0.8h4.9v1.7h-10.3v0.5h-2.4V22.8z M241.7,29.9c-1,1.3-2.4,2.3-4,3.2
			c1.6,0.3,3.2,0.5,4.9,0.7c-0.6,0.5-1.3,1.5-1.6,2.2c-2.4-0.3-4.7-0.7-6.8-1.4c-2.1,0.6-4.3,1.1-6.6,1.4c-0.2-0.6-0.8-1.7-1.2-2.2
			c1.6-0.1,3.1-0.3,4.6-0.6c-0.9-0.5-1.7-1.1-2.4-1.7l1-0.4h-1.5v-2h11.5l0.4-0.1L241.7,29.9z M234.3,21.3h-2.9V22h2.9V21.3z
			 M234.3,23.4h-2.9v0.8h2.9V23.4z M234.3,25.7h-2.9v0.8h2.9V25.7z M231.4,18.3l0.8,0.3c-0.2,0.4-0.5,0.7-0.7,1.1h2.7
			c-0.3-0.4-0.6-0.8-1-1.1l0.5-0.2H231.4z M231.7,30.9c0.8,0.5,1.7,0.9,2.7,1.2c1-0.3,1.9-0.7,2.7-1.2H231.7z"/>
		<path class="st1" d="M251.7,24.5c1.2,0.9,3.6,2.9,4.2,3.4l-1.7,2.4c-0.6-0.7-1.6-1.8-2.5-2.8v8.3h-2.8v-8.6
			c-1.1,2.2-2.4,4.2-3.7,5.6c-0.3-0.8-1-2.1-1.4-2.8c1.7-1.7,3.5-4.4,4.6-6.9h-4v-2.6h4.6v-3c-1.4,0.3-2.7,0.5-4,0.6
			c-0.1-0.6-0.5-1.6-0.8-2.2c3.5-0.5,7.3-1.4,9.6-2.5l2,2.2c-1.2,0.5-2.6,0.9-4.1,1.2v3.6h4.1v2.6h-4.1V24.5z M259.7,29.8h-2.8V16.4
			h2.8V29.8z M265.4,13.9v18.5c0,1.7-0.3,2.4-1.3,2.9c-1,0.5-2.6,0.6-4.8,0.6c-0.1-0.8-0.6-2.1-1-3c1.6,0.1,3.1,0.1,3.6,0.1
			c0.5,0,0.6-0.2,0.6-0.6V13.9H265.4z"/>
		<path class="st1" d="M290.2,30.8H282v5.1h-3v-5.1h-10.8V28h3.8v-6.3h7v-2.9h-5.1c-1,1.7-2.1,3.2-3.3,4.4c-0.6-0.5-1.8-1.4-2.5-1.8
			c2.2-1.8,4-4.9,5-8l2.9,0.7c-0.2,0.7-0.5,1.3-0.8,2h13.6v2.8H282v2.9h6.3v2.7H282V28h8.2V30.8z M279,28v-3.6h-4.2V28H279z"/>
		<path class="st1" d="M299.2,27.6l0.5,2.5c-2.3,1-4.8,2-6.9,2.8l-0.9-2.9c0.7-0.2,1.6-0.5,2.6-0.8v-7.5h-2.2v-2.6h2.2v-5.4h2.6v5.4
			h2.1v2.6h-2.1v6.6L299.2,27.6z M313.4,16.9v8.3h-13.3v-8.3h2.9c-0.4-0.8-0.9-1.8-1.5-2.5l2.4-1c0.6,0.8,1.4,2,1.7,2.7l-1.6,0.8
			h3.7c0.6-1,1.4-2.4,1.8-3.5l3,0.9c-0.6,0.9-1.3,1.8-1.9,2.6H313.4z M301.2,26.2h11.1v9.6h-2.7v-1.2h-5.9v1.2h-2.6V26.2z
			 M302.3,23.3h3.3v-4.6h-3.3V23.3z M304,19.1c0.6,1,1.2,2.4,1.4,3.3l-1.5,0.6c-0.2-0.9-0.7-2.3-1.4-3.4L304,19.1z M303.8,28.3v1.3
			h5.9v-1.3H303.8z M309.7,32.7v-1.1h-5.9v1.1H309.7z M307.7,18.8v4.6h3.3v-4.6H307.7z M307.8,22.5c0.5-0.9,1.1-2.3,1.4-3.3l1.8,0.6
			c-0.6,1.1-1.3,2.4-1.8,3.2L307.8,22.5z"/>
		<path class="st1" d="M330.8,27.7c-0.1-0.3-0.3-0.7-0.5-1.2c-5.7,0.6-6.6,0.7-7.2,1c-0.1-0.5-0.5-1.7-0.8-2.3
			c-1.6,0.8-3.3,1.7-4.7,2.4l-1.4-2.3c1.5-0.6,3.8-1.5,6-2.4l0.5,2.1l-0.4,0.2c0.6-0.1,1.2-0.6,2-1.2c0.4-0.3,1.1-0.9,1.9-1.7
			c-1.8,0.1-2.4,0.3-2.7,0.4c-0.1-0.5-0.5-1.6-0.8-2.2c0.4-0.1,0.7-0.4,1.1-0.8c0.2-0.3,0.7-0.9,1.3-1.7h-8.2v-2.6h8.9
			c-0.3-0.5-0.6-1-0.8-1.4l2.9-0.7c0.5,0.6,1,1.4,1.3,2h8.5v2.6h-9.9c-0.5,0.7-1.1,1.5-1.7,2.1l2.2-0.1c0.6-0.6,1.1-1.3,1.5-1.9
			l2.2,1.3c-1.6,1.9-3.6,3.8-5.5,5.3l2.5-0.2c-0.3-0.4-0.5-0.8-0.8-1.2l2.1-0.7c0.4,0.5,0.8,1,1.1,1.6l1.6-1.3
			c1.6,0.8,3.7,2.1,4.8,3l-2.1,1.7c-0.8-0.8-2.4-1.9-3.8-2.8c0.4,0.7,0.7,1.4,0.9,2L330.8,27.7z M338.2,31.5h-9.4v4.4h-3v-4.4h-9.4
			v-2.6h9.4v-1.6h3v1.6h9.4V31.5z M320.5,22.7c-0.7-0.8-2.3-1.9-3.5-2.7l1.9-1.5c1.2,0.7,2.9,1.8,3.7,2.5L320.5,22.7z M331.7,21.4
			c1-0.7,2.3-2,3.1-3l2.4,1.4c-1,1.1-2.4,2.2-3.3,2.9L331.7,21.4z"/>
		<path class="st1" d="M361.5,14.3v21.6h-3.1v-1.3h-14.4v1.3h-3V14.3H361.5z M358.4,31.9V17.2h-14.4v14.7H358.4z M356,20v9.1h-9.8
			V20H356z M353.2,22.5h-4.2v4.2h4.2V22.5z"/>
		<path class="st1" d="M386.2,25.7h-4.9v10.2h-2.9V25.7h-6.2c-0.2,3.8-1.4,7.7-6.1,10.3c-0.4-0.7-1.4-1.7-2.1-2.2
			c4-2.1,5.1-5.1,5.3-8.1h-5.1v-2.7h5.2v-4.3c-1.3,0.4-2.7,0.7-4.1,1c-0.1-0.7-0.6-1.7-1-2.4c3.7-0.8,7.7-2.2,10.2-3.7l2.1,2.4
			c-1.3,0.7-2.9,1.2-4.4,1.8v5.1h6.1v-9.1h2.9v9.1h4.9V25.7z"/>
		<path class="st1" d="M397.3,19.5v8.9h-3v1.4h3.4v2.4h-3.4v3.6h-2.6v-3.6H388v-2.4h3.6v-1.4h-2.9v-8.9h2.9v-1.3h-3.3v-2.4h3.3v-2.3
			h2.6v2.3h3.4v2.4h-3.4v1.3H397.3z M390.9,23h1v-1.5h-1V23z M390.9,26.3h1v-1.5h-1V26.3z M395,21.5H394V23h1.1V21.5z M395,24.8H394
			v1.5h1.1V24.8z M408.3,25.6c-0.1-0.2-0.2-0.3-0.3-0.5c-0.5,1.8-1.2,3.5-2.2,4.9c1.4,1.5,3,2.7,5,3.5c-0.6,0.6-1.5,1.7-1.9,2.4
			c-1.9-0.9-3.5-2.1-4.9-3.6c-1.4,1.5-3.1,2.7-5.1,3.6c-0.4-0.6-1.2-1.7-1.8-2.2c2.1-0.9,3.8-2.2,5.2-3.7c-0.9-1.5-1.7-3.1-2.3-4.9
			c-0.2,0.2-0.4,0.5-0.6,0.7c-0.5-0.5-1.6-1.3-2.3-1.7c1.2-1.2,2.4-3.2,3.2-4.9l2.7,0.9c-0.7,1.4-1.7,3-2.6,4.4l1.9-0.5
			c0.4,1.3,0.9,2.5,1.6,3.6c0.6-1.1,1.1-2.4,1.5-3.7l2.1,0.5c-0.8-1.2-1.8-2.7-2.6-3.9l2.1-1.3h-9.2v-2.6h5.2
			c-0.4-0.7-0.9-1.7-1.3-2.4l2.4-1c0.6,0.9,1.2,2,1.6,2.8l-1.3,0.6h5.7v2.6h-2.9c1.1,1.5,2.7,3.6,3.4,4.8L408.3,25.6z"/>
		<path class="st1" d="M433.8,27.2c-0.4,4.8-0.8,6.9-1.6,7.7c-0.6,0.6-1.1,0.8-1.9,0.9c-0.7,0.1-1.8,0.1-3,0c0-0.8-0.4-1.9-0.8-2.6
			c1,0.1,2,0.1,2.5,0.1c0.4,0,0.6,0,0.9-0.3c0.4-0.4,0.7-1.7,1-4.6h-14c-0.3,0.3-0.7,0.6-1,0.8L418,30c-0.5,2.1-1.2,4.3-2.6,5.8
			l-2.2-1.6c1.2-1.1,1.9-2.9,2.4-4.6c-0.7,0.5-1.5,1-2.3,1.5c-0.3-0.7-1-1.8-1.5-2.5c3.8-1.9,6.7-5.1,8.6-8.6h-7.5v-2.6h4.7
			c-0.5-0.9-1.3-2-2-2.9l2.6-1c0.9,0.9,1.9,2.2,2.4,3.1l-1.9,0.8h3c0.6-1.3,1-2.6,1.3-3.9l2.9,0.7c-0.3,1.1-0.7,2.2-1.1,3.2h6
			c-0.3,1.4-0.6,3.1-1,4.4h2.5c-0.3,1.4-0.6,3-0.9,4.3h2.7L433.8,27.2z M421.1,29.7c0.5,1.5,0.7,3.6,0.7,4.9l-2.4,0.3
			c0.1-1.3-0.2-3.4-0.6-4.9L421.1,29.7z M420.9,24.2c-0.5,0.6-1,1.3-1.5,1.9h9.3c0.1-0.6,0.3-1.2,0.4-1.9H420.9z M424.6,29.3
			c0.6,1.3,1.1,3.1,1.3,4.2l-2.3,0.6c-0.1-1.2-0.7-3-1.2-4.3L424.6,29.3z M423.4,19.9c-0.3,0.6-0.6,1.2-1,1.8h4.6
			c0.1-0.6,0.3-1.2,0.4-1.8H423.4z M427.4,32.6c-0.2-0.8-0.8-2.2-1.4-3.2l2-0.7c0.6,1,1.3,2.3,1.5,3.2L427.4,32.6z"/>
		<path class="st1" d="M439.6,29.4v2.1h-2.6V14.8h8.4v14.7H439.6z M439.6,17.3v3.4h3.1v-3.4H439.6z M442.6,26.8v-3.6h-3.1v3.6H442.6
			z M457.7,32.6c0,1.5-0.3,2.3-1.2,2.7c-1,0.5-2.3,0.5-4.3,0.5c-0.1-0.8-0.6-2-1-2.8c1.3,0.1,2.8,0,3.2,0c0.4,0,0.6-0.1,0.6-0.6
			v-4.2h-5.6c-0.6,2.9-1.9,5.7-4.6,7.7c-0.4-0.6-1.5-1.5-2.1-1.9c4-3,4.4-7.4,4.4-11.1v-8.6h10.8V32.6z M454.9,25.8v-3.1h-5.2v0.4
			c0,0.9,0,1.8-0.1,2.7H454.9z M449.8,17.1v3.1h5.2v-3.1H449.8z"/>
		<path class="st1" d="M459.8,34.8c0.7-1.1,1.3-2.7,1.6-4.1l2.1,0.8c-0.4,1.4-0.9,3.2-1.5,4.3L459.8,34.8z M464.8,30.6
			c0-0.2,0-0.5-0.1-0.7c-3.1,0.3-3.7,0.4-4.1,0.6c-0.1-0.4-0.4-1.4-0.7-1.9c0.4-0.1,0.8-0.4,1.3-1c0.2-0.2,0.5-0.6,1-1.2
			c-0.9,0.1-1.3,0.2-1.5,0.3c-0.1-0.4-0.5-1.4-0.7-1.9c0.2-0.1,0.5-0.3,0.7-0.6c0.2-0.3,0.8-1.4,1.1-2.5h-0.7v-7.3h10.6v7.3h-3.1
			l1.6,0.4c-0.4,0.8-0.9,1.7-1.4,2.4l0.9,0c0.3-0.4,0.5-0.9,0.7-1.3l2.1,0.7c-1,1.5-2.1,3-3.3,4.3l1.4-0.1c-0.1-0.3-0.2-0.6-0.3-0.9
			l1.6-0.6c0.5,1,1,2.4,1.2,3.3V18.4h2.6c0.1-0.5,0.1-1,0.2-1.5h-3.3v-2.4h9.5v2.4h-3.6c-0.1,0.5-0.3,1.1-0.4,1.5h3.5v12.7h-8.5v-1
			l-1.6,0.7c0-0.3-0.1-0.6-0.2-1c-3.4,0.3-4.1,0.4-4.5,0.6v0c-0.1-0.4-0.4-1.4-0.7-2c0.4-0.1,0.8-0.4,1.3-0.9c0.2-0.2,0.6-0.6,1-1.2
			c-1,0.1-1.4,0.2-1.6,0.3c-0.1-0.4-0.5-1.4-0.7-1.9c0.2,0,0.5-0.3,0.7-0.6c0.2-0.3,0.9-1.3,1.2-2.5h-5.7l1.5,0.4
			c-0.3,0.9-0.8,1.8-1.3,2.6l0.8-0.1c0.3-0.5,0.5-0.9,0.8-1.4l2,0.7c-0.9,1.6-2.1,3.1-3.2,4.4l1.3-0.1c-0.1-0.4-0.2-0.7-0.3-1.1
			l1.5-0.4c0.4,1.1,0.8,2.5,0.9,3.5L464.8,30.6z M463.5,17.2h5.8v-1.1h-5.8V17.2z M463.5,19.9h5.8v-1.1h-5.8V19.9z M465.8,31.1
			c0.3,1.3,0.5,3,0.5,4.1l-2.1,0.3c0-1.1-0.1-2.8-0.4-4.1L465.8,31.1z M468.3,30.8c0.4,1.2,0.8,2.7,1,3.7l-2,0.5
			c-0.1-1-0.5-2.6-0.9-3.7L468.3,30.8z M470.7,30.1c0.6,1,1.2,2.3,1.5,3.1l-1.9,0.8c-0.2-0.9-0.8-2.2-1.4-3.2L470.7,30.1z
			 M477.1,32.6c-1.1,1.2-2.7,2.6-4.2,3.3c-0.4-0.5-1.2-1.2-1.7-1.7c1.4-0.7,2.9-2,3.7-3L477.1,32.6z M475.3,21.9h4v-1.4h-4V21.9z
			 M475.3,25.4h4v-1.5h-4V25.4z M475.3,28.9h4v-1.5h-4V28.9z M479.7,31.4c1,0.9,2.3,2.2,3,3.1l-2.1,1.4c-0.6-0.9-1.8-2.3-2.8-3.3
			L479.7,31.4z"/>
		<path class="st1" d="M505.8,17.2c0,0,0,1,0,1.3c-0.3,10.7-0.6,14.5-1.6,15.8c-0.7,0.9-1.3,1.2-2.3,1.3c-0.9,0.1-2.4,0.1-3.8,0
			c0-0.8-0.4-2-0.9-2.8c1.5,0.1,3,0.1,3.6,0.1c0.5,0,0.7-0.1,1.1-0.4c0.7-0.8,1-4.4,1.3-12.8H498c-0.6,1.4-1.4,2.8-2.1,3.8
			c-0.4-0.4-1.2-0.9-1.8-1.3v11.2h-6.4v1.8H485V17.3h2.7c0.3-1.2,0.6-2.7,0.7-3.9l3.1,0.4c-0.4,1.2-0.8,2.4-1.2,3.4h3.7v3.9
			c1.4-2,2.5-4.9,3.2-7.7l2.7,0.6c-0.3,1-0.6,2-0.9,3H505.8z M491.4,19.8h-3.8v3.9h3.8V19.8z M491.4,30.9v-4.7h-3.8v4.7H491.4z
			 M499.4,29.6c-0.7-1.4-2.2-3.8-3.3-5.5l2.2-1.3c1.2,1.7,2.8,3.9,3.5,5.3L499.4,29.6z"/>
		<path class="st1" d="M516.3,31.2h-4.9v2.1h-2.6V14.9h7.5V31.2z M511.4,17.5v4.2h2.2v-4.2H511.4z M513.6,28.7v-4.5h-2.2v4.5H513.6z
			 M524.9,18.5v2.3h4.8v2.5h-1.8v1.9h2.3v2.5h-2.3v5.2c0,1.4-0.3,2.1-1.2,2.5c-0.9,0.4-2.2,0.5-4,0.5c-0.1-0.8-0.5-1.9-0.9-2.7
			c1.2,0,2.5,0,2.8,0c0.4,0,0.5-0.1,0.5-0.4v-5.2h-8.4v-2.5h8.4v-1.9h-7.7v-2.5h4.6v-2.3h-5.4V16h5.4v-2.6h2.8V16h5.4v2.5H524.9z
			 M520,28c1,1.2,2.3,2.8,2.9,3.8l-2.5,1.5c-0.6-1-1.8-2.8-2.8-4L520,28z"/>
		<path class="st1" d="M536,23v12.8h-2.8V14.4h9.2V23H536z M536,16.4v1.3h3.7v-1.3H536z M539.7,21v-1.4H536V21H539.7z M553.4,32.5
			c0,1.5-0.3,2.4-1.3,2.8c-0.9,0.5-2.3,0.6-4.4,0.6c-0.1-0.6-0.3-1.5-0.6-2.2h-6v1.2h-2.6V24.5h1.2v0l8.1,0V33c0.9,0,1.8,0,2.1,0
			c0.4,0,0.6-0.1,0.6-0.5v-9.4H544v-8.7h9.4V32.5z M545.1,26.6h-4V28h4V26.6z M545.1,31.6v-1.5h-4v1.5H545.1z M546.7,16.4v1.3h3.8
			v-1.3H546.7z M550.5,21v-1.4h-3.8V21H550.5z"/>
		<path class="st1" d="M577.9,16.8v2.7H565c-0.8,1.7-1.7,3.3-2.8,4.7v11.6h-2.9v-8.4c-0.7,0.6-1.3,1.2-2.1,1.7
			c-0.3-0.8-1-2.1-1.4-2.8c2.5-1.6,4.5-4.2,6-6.9h-5.2v-2.7h6.5c0.4-1.1,0.8-2.2,1.1-3.3l3,0.7c-0.3,0.9-0.6,1.8-0.9,2.6H577.9z
			 M572.1,32.6h5.7v2.6h-14.4v-2.6h5.8v-5.5h-4.9v-2.6h4.9v-4h2.9v4h4.8v2.6h-4.8V32.6z"/>
		<path class="st1" d="M580.2,31.7c4.6-4.4,7.7-7.4,7.7-10c0-1.8-1-2.8-2.7-2.8c-1.3,0-2.4,0.9-3.3,1.8l-1.9-1.9
			c1.6-1.8,3.2-2.7,5.6-2.7c3.4,0,5.6,2.1,5.6,5.4c0,3-2.8,6.1-6,9.5c0.9-0.1,2.1-0.2,2.9-0.2h3.9v3h-11.9V31.7z"/>
		<path class="st1" d="M594.4,25.1c0-5.9,2.4-8.9,6-8.9s6,3.1,6,8.9c0,5.9-2.4,9.1-6,9.1S594.4,30.9,594.4,25.1z M603.1,25.1
			c0-4.8-1.1-6.1-2.7-6.1s-2.7,1.3-2.7,6.1c0,4.8,1.2,6.3,2.7,6.3S603.1,29.9,603.1,25.1z"/>
		<path class="st1" d="M608.5,31.7c4.6-4.4,7.7-7.4,7.7-10c0-1.8-1-2.8-2.7-2.8c-1.3,0-2.4,0.9-3.3,1.8l-1.9-1.9
			c1.6-1.8,3.2-2.7,5.6-2.7c3.4,0,5.6,2.1,5.6,5.4c0,3-2.8,6.1-6,9.5c0.9-0.1,2.1-0.2,2.9-0.2h3.9v3h-11.9V31.7z"/>
		<path class="st1" d="M629.7,29.5h-7.6v-2.4l6.6-10.6h4.2v10.3h2.1v2.7H633v4.3h-3.3V29.5z M629.7,26.8v-3.5c0-1,0.1-2.7,0.1-3.7
			h-0.1c-0.4,0.9-0.9,1.8-1.4,2.8l-2.8,4.4H629.7z"/>
		<path class="st1" d="M658.7,30.8h-8.2v5.1h-3v-5.1h-10.8V28h3.8v-6.3h7v-2.9h-5.1c-1,1.7-2.1,3.2-3.3,4.4
			c-0.6-0.5-1.8-1.4-2.5-1.8c2.2-1.8,4-4.9,5-8l2.9,0.7c-0.2,0.7-0.5,1.3-0.8,2h13.6v2.8h-6.9v2.9h6.3v2.7h-6.3V28h8.2V30.8z
			 M647.6,28v-3.6h-4.2V28H647.6z"/>
	</g>
</g>
<g>
	<g>
		<path d="M255.7,63.8c-1,1.7-2.6,3.1-4.4,4.3c2.1,1.1,4.5,2,7,2.5c-0.3,0.3-0.7,0.9-0.9,1.2c-2.6-0.6-5.2-1.6-7.4-3
			c-2.5,1.4-5.3,2.4-7.9,3c-0.1-0.4-0.4-0.9-0.6-1.2c2.4-0.5,5-1.4,7.3-2.6c-1.1-0.8-2.1-1.7-3-2.6c-0.9,0.9-1.9,1.6-2.9,2.2
			c-0.2-0.3-0.7-0.8-1-1c2.3-1.2,4.4-3.2,5.7-5.5l1.3,0.4c-0.3,0.5-0.7,1.1-1.1,1.6h6.6l0.2-0.1L255.7,63.8z M244.7,71.4h10.6v6.4
			h-1.4V77H246v0.8h-1.3V71.4z M246,72.6v3.2h7.9v-3.2H246z M246.8,64.6c0.9,1,2,1.9,3.3,2.8c1.4-0.8,2.6-1.8,3.5-2.9h-6.6
			L246.8,64.6z"/>
		<path d="M267.3,66.4c-1.7,1.8-4.4,3.4-6.7,4.2c-0.2-0.3-0.6-0.8-0.8-1c2.1-0.6,4.5-1.9,6.1-3.3h-5.7v-1.2h7.2v-1.8
			c-1.9,0.2-3.9,0.3-5.7,0.3c0-0.3-0.2-0.8-0.3-1.1c4.1-0.1,9.1-0.5,11.7-1.1l1.1,1c-1.5,0.4-3.4,0.6-5.5,0.8v1.9h7.3v1.2h-5.4
			c2.1,1.2,4.4,2.7,5.7,3.8l-0.8,1c-1.4-1.3-4.4-3.2-6.8-4.5v2.8h-1.3V66.4z M268.7,72.9h7.2v1.2h-7.2v2.1c0,0.8-0.2,1.1-0.8,1.3
			c-0.6,0.2-1.7,0.2-3.2,0.2c-0.1-0.4-0.3-0.8-0.5-1.2c1.3,0.1,2.4,0.1,2.8,0c0.3,0,0.4-0.1,0.4-0.3v-2.1h-7.3v-1.2h7.3v-1.1
			c0.9-0.3,1.8-0.7,2.6-1.1H263v-1.1h8.5l0.3-0.1l0.8,0.7c-1.1,0.8-2.6,1.6-4,2.1V72.9z"/>
		<path d="M284.4,66.9c-0.6-0.5-1.6-1.1-2.5-1.7c-0.6,0.9-1.7,1.5-3.4,1.9c-0.1-0.3-0.4-0.7-0.7-1c3.2-0.7,3.7-2,3.9-4.8h1.2
			c-0.1,1.2-0.2,2.1-0.5,2.9c1,0.6,2.1,1.3,2.8,1.8L284.4,66.9z M279.8,64.2c-0.3-0.5-0.9-1.2-1.4-1.8l0.8-0.6
			c0.5,0.5,1.1,1.3,1.4,1.7L279.8,64.2z M293,67.1h0.5v3.2h-1.3v-2.2h-12.3v2.2h-1.3v-3.2h14.2c-0.8-0.6-2.1-1.4-3.3-2
			c-0.6,0.8-1.7,1.5-3.3,1.9c-0.1-0.3-0.4-0.8-0.7-1c3-0.7,3.7-2,3.8-4.6h1.2c-0.1,1.1-0.2,2.1-0.6,2.8c1.3,0.6,2.9,1.5,3.7,2.1
			L293,67.1z M285.7,72.5c-0.2,0.4-0.4,0.7-0.5,1h7.2v4.2H291v-0.5h-9.8v0.5H280v-4.2h4c0.1-0.3,0.3-0.7,0.5-1h-3.3v-3.3h9.7v3.3
			H285.7z M291,74.6h-9.8v1.7h9.8V74.6z M282.4,71.6h7.1v-1.5h-7.1V71.6z M285.7,62.6c-0.5,0.6-1.1,1.3-1.6,1.8l-0.8-0.4
			c0.4-0.5,1-1.3,1.3-1.8L285.7,62.6z M287.4,64.1c-0.3-0.5-0.9-1.2-1.4-1.8l0.8-0.6c0.5,0.6,1.1,1.3,1.4,1.7L287.4,64.1z
			 M293.7,62.6c-0.6,0.7-1.3,1.4-1.8,1.9l-0.8-0.4c0.5-0.5,1.1-1.4,1.5-1.9L293.7,62.6z"/>
		<path d="M300.8,61.6h1.3v16.2h-1.3v-5c-3.3,1.2-3.8,1.5-4.1,1.7c-0.1-0.3-0.4-0.9-0.5-1.2c0.3-0.2,0.6-0.5,0.6-1.2v-8.8h1.3v9.1
			l2.8-0.9V61.6z M310.8,66.1c-0.5,2.8-1.2,5.2-2.4,7.1c1.1,1.5,2.3,2.7,3.9,3.4c-0.3,0.3-0.7,0.7-0.9,1.1c-1.5-0.8-2.7-2-3.7-3.4
			c-1.1,1.4-2.4,2.6-4.1,3.5c-0.1-0.3-0.6-0.8-0.9-1.1c1.8-0.9,3.2-2.1,4.2-3.6c-0.9-1.5-1.6-3.2-2.1-5.1c-0.4,0.9-0.9,1.6-1.4,2.3
			c-0.2-0.3-0.7-0.9-1-1.1c1.5-1.8,2.5-4.8,3-7.9l1.4,0.2c-0.2,1.1-0.5,2.2-0.8,3.3h6.2v1.3H310.8z M305.4,66.3
			c0.5,2,1.2,3.9,2.2,5.6c0.9-1.6,1.4-3.6,1.8-5.9h-3.9L305.4,66.3z"/>
		<path d="M329.3,67.6c-0.8,2.9-2.1,5.1-4,6.7c1.4,1,3,1.7,4.9,2.1c-0.3,0.3-0.7,0.9-0.9,1.3c-2-0.5-3.6-1.4-5.1-2.5
			c-1.7,1.2-3.6,2.1-5.7,2.6c-0.2-0.4-0.5-1-0.8-1.2c1.9-0.5,3.8-1.2,5.4-2.3c-1.6-1.5-2.7-3.5-3.6-5.8H319
			c-0.4,2.9-1.4,6.1-4.3,8.9c-0.2-0.4-0.7-0.9-1-1.1c3.8-3.5,4.1-8,4.1-11.2v-1.6h-3.2v-1.3h11c-0.4,1.7-0.8,3.7-1.2,5.1h3.7
			l0.3-0.1L329.3,67.6z M319.2,65.1c0,0.7,0,1.4-0.1,2.2h3.9c0.3-1.1,0.7-2.5,1-3.8h-4.8V65.1z M320.9,68.6c0.7,1.9,1.9,3.6,3.3,4.9
			c1.5-1.3,2.6-2.9,3.3-4.9H320.9z"/>
		<path d="M337.1,62.3c-0.4,0.8-1,1.6-1.6,2.4c1,1.9,1.2,4.1,1.2,6.2c0,2.6-0.2,4.8-0.9,5.8c-0.2,0.3-0.6,0.5-1,0.6
			c-0.6,0.1-1.3,0.1-2.1,0.1c0-0.4-0.2-0.9-0.4-1.3c0.9,0.1,1.5,0.1,1.9,0c0.3,0,0.4-0.1,0.6-0.3c0.4-0.6,0.6-2.6,0.6-4.9
			c0-0.3,0-0.6,0-1c-0.8,1.4-1.9,2.6-3,3.5c-0.1-0.3-0.5-0.9-0.8-1.1c1.3-0.9,2.8-2.6,3.5-4.3c-0.1-0.8-0.3-1.5-0.6-2.2
			c-0.7,0.8-1.5,1.5-2.3,2.1c-0.1-0.4-0.5-0.9-0.8-1.2c0.8-0.5,1.6-1.2,2.4-2c-0.5-0.7-1.1-1.4-1.8-2.1l0.9-0.7
			c0.7,0.6,1.3,1.3,1.7,1.9c0.5-0.6,1-1.3,1.3-1.9L337.1,62.3z M347.3,73.2c-0.8,1.1-2,1.9-3.4,2.6c1.4,0.4,2.9,0.7,4.5,0.8
			c-0.3,0.3-0.6,0.7-0.8,1.1c-1.8-0.2-3.6-0.7-5.2-1.2c-1.7,0.6-3.5,1-5.3,1.3c-0.1-0.3-0.4-0.8-0.6-1.1c1.5-0.2,3.1-0.5,4.4-0.9
			c-1.1-0.5-2-1.1-2.7-1.8l0.5-0.2h-1.2v-1h8.7l0.2-0.1L347.3,73.2z M340.3,63.7h-3v-1h3v-1.3h1.2v3.4l0.9-0.5
			c0.5,0.5,1.1,1.2,1.4,1.6h3.6v0.9h-3.9v0.8h3.4v0.8h-3.4v0.9h3.4v0.8h-3.4V71h4.1v0.9h-8.2v0.5h-1.2v-4.7
			c-0.3,0.3-0.6,0.6-0.8,0.9c-0.2-0.2-0.6-0.6-0.9-0.8c1-0.8,1.9-2.1,2.5-3.3l1.1,0.4c-0.2,0.4-0.4,0.7-0.6,1.1h2.8
			c-0.3-0.4-0.6-0.8-0.9-1.1v0h-1.2V63.7z M342.4,66.7h-2.9v0.8h2.9V66.7z M342.4,68.4h-2.9v0.9h2.9V68.4z M342.4,70.1h-2.9V71h2.9
			V70.1z M339.6,73.8c0.7,0.6,1.7,1.1,2.8,1.5c1.1-0.4,2.1-0.9,2.8-1.5H339.6z M344.7,64.8h-1.3v-3.5h1.3v1.3h3.4v1h-3.4V64.8z"/>
		<path d="M355,66.7h3.4v1.2H355v1.3c0.8,0.6,2.9,2.4,3.4,2.9l-0.8,1.1c-0.5-0.6-1.7-1.7-2.6-2.6v7.1h-1.3V70
			c-0.9,2.1-2.2,4.1-3.4,5.3c-0.2-0.4-0.5-0.9-0.7-1.2c1.4-1.4,3-3.9,3.9-6.1h-3.5v-1.2h3.8v-3c-1.2,0.2-2.4,0.4-3.5,0.6
			c-0.1-0.3-0.3-0.8-0.4-1.1c2.6-0.4,5.8-1,7.4-1.7l1,1c-0.9,0.4-2,0.7-3.2,1V66.7z M360.9,73.3h-1.3v-9.8h1.3V73.3z M365.3,61.7V76
			c0,0.9-0.3,1.3-0.8,1.6c-0.6,0.2-1.6,0.2-3.2,0.2c-0.1-0.4-0.3-1-0.5-1.4c1.3,0,2.4,0,2.7,0c0.3,0,0.5-0.1,0.5-0.5V61.7H365.3z"/>
		<path d="M384.1,73.6h-6.5v4.1h-1.3v-4.1h-8.3v-1.3h3v-4.8h5.4v-2.7h-4.4c-0.8,1.4-1.8,2.6-2.7,3.5c-0.3-0.2-0.8-0.7-1.2-0.8
			c1.7-1.5,3.2-3.8,4.1-6.2l1.4,0.3c-0.3,0.6-0.5,1.3-0.8,1.9h10.7v1.3h-5.7v2.7h5.3v1.3h-5.3v3.6h6.5V73.6z M376.2,72.3v-3.6h-4
			v3.6H376.2z"/>
		<path d="M391,72.2l0.2,1.2c-1.7,0.7-3.5,1.4-5,2l-0.4-1.3c0.6-0.2,1.3-0.4,2.1-0.7v-6.3H386v-1.2h1.9v-4.2h1.2v4.2h1.8v1.2h-1.8
			v5.9L391,72.2z M401.2,63.9v5.9h-9.6v-5.9h5.7c0.5-0.7,1.2-1.9,1.5-2.6l1.4,0.5c-0.5,0.7-1,1.5-1.5,2.2H401.2z M392.6,71h7.8v6.8
			h-1.3v-0.8h-5.3v0.8h-1.2V71z M392.8,68.9h3.2v-4h-3.2V68.9z M394.1,61.4c0.5,0.6,1.1,1.4,1.3,2l-1.2,0.6
			c-0.3-0.6-0.8-1.4-1.3-2.1L394.1,61.4z M394.1,65.4c0.5,0.8,1.1,1.8,1.3,2.5l-0.8,0.3c-0.2-0.7-0.7-1.8-1.2-2.6L394.1,65.4z
			 M393.9,72v1.5h5.3V72H393.9z M399.1,75.8v-1.4h-5.3v1.4H399.1z M400.1,64.9H397v4h3.1V64.9z M397.4,68c0.5-0.7,1.1-1.8,1.4-2.6
			l0.9,0.3c-0.5,0.9-1.1,1.9-1.6,2.6L397.4,68z"/>
		<path d="M420,74h-7.3v3.8h-1.4V74H404v-1.2h7.3v-1.5h1.4v1.5h7.3V74z M408.7,69.3c-1.4,0.7-2.8,1.5-4,2.1l-0.7-1.1
			c1.1-0.5,2.8-1.2,4.4-2L408.7,69.3z M414.9,71.5c-0.1-0.3-0.3-0.6-0.5-1c-4.7,0.5-5.3,0.5-5.7,0.7c-0.1-0.3-0.3-0.8-0.4-1.2
			c0.4-0.1,0.9-0.4,1.5-0.9c0.3-0.3,1.1-1,2-1.9c-2.1,0.2-2.5,0.3-2.7,0.4c-0.1-0.3-0.2-0.8-0.4-1.1c0.3,0,0.5-0.3,0.8-0.6
			c0.2-0.2,0.8-1,1.4-1.8h-6.6v-1.2h7.3c-0.2-0.5-0.6-1-0.8-1.4l1.3-0.3c0.4,0.5,0.8,1.2,1.1,1.7h6.7v1.2h-7.6
			c-0.5,0.8-1.1,1.6-1.7,2.2l2.3-0.1c0.4-0.5,0.8-1,1.2-1.5l1.1,0.6c-1.4,1.7-3,3.2-4.5,4.5l3.2-0.3c-0.3-0.4-0.6-0.8-0.9-1.2l1-0.4
			c0.8,0.9,1.7,2.2,2.1,3L414.9,71.5z M405.5,64.9c1,0.6,2.1,1.4,2.7,2l-0.9,0.8c-0.6-0.6-1.7-1.5-2.7-2.1L405.5,64.9z M418.6,71.6
			c-0.7-0.7-2.3-1.8-3.5-2.5l1-0.7c1.2,0.7,2.8,1.7,3.6,2.4L418.6,71.6z M419,65.5c-0.8,0.8-1.9,1.7-2.7,2.3l-1-0.6
			c0.8-0.6,1.9-1.6,2.5-2.3L419,65.5z"/>
		<path d="M423.6,72c1.4-0.6,2.2-1.4,2.3-2.6c-0.1,0-0.2,0-0.3,0c-0.7,0-1.4-0.4-1.4-1.3s0.6-1.3,1.4-1.3c1,0,1.5,0.8,1.5,2.1
			c0,1.9-1.2,3.4-3.1,4.1L423.6,72z"/>
		<path d="M439.6,63.6c-0.2,0.9-0.5,1.9-0.7,2.7h6.1v11.5h-1.4v-1.2h-9.1v1.2h-1.3V66.3h4.3c0.2-0.8,0.4-1.8,0.5-2.7h-6.9v-1.3h15.6
			v1.3H439.6z M443.6,67.5h-9.1v3.3h9.1V67.5z M443.6,75.4V72h-9.1v3.4H443.6z"/>
		<path d="M454.7,62.3c-1,3.1-2.8,5.6-4.9,7.3c-0.2-0.3-0.8-0.8-1.1-1c2.1-1.5,3.8-3.9,4.6-6.7L454.7,62.3z M462.5,68.1
			c0,0,0,0.5,0,0.6c-0.3,5.5-0.5,7.6-1.1,8.3c-0.4,0.4-0.8,0.6-1.4,0.6c-0.6,0.1-1.7,0-2.8,0c0-0.4-0.2-1-0.4-1.4
			c1.2,0.1,2.3,0.1,2.7,0.1c0.4,0,0.6,0,0.8-0.2c0.5-0.5,0.7-2.3,0.9-6.8h-4.6c-0.5,3.6-1.6,6.8-6.2,8.5c-0.2-0.4-0.5-0.9-0.9-1.2
			c4.2-1.4,5.2-4.3,5.7-7.3h-3.7v-1.3H462.5z M460.2,61.6c0.9,2.8,2.8,5.4,5.1,6.7c-0.3,0.3-0.7,0.8-1,1.2c-2.2-1.4-4.1-4-5.1-6.6
			h-3.2v-1.3H460.2z"/>
		<path d="M474.6,74.1c0,0.4,0.1,0.9,0.1,1.2c-5.1,1.4-5.8,1.6-6.2,1.9c-0.1-0.3-0.4-0.9-0.6-1.1c0.3-0.2,0.7-0.6,0.7-1.4V61.3h1.4
			v5.5h4.6v1.3h-4.6v7.1L474.6,74.1z M480.9,76.1c0.8,0,1-0.7,1.1-3.2c0.3,0.3,0.9,0.5,1.2,0.6c-0.2,2.9-0.5,3.9-2.2,3.9h-3
			c-1.7,0-2.2-0.5-2.2-2.5V61.3h1.4v5.5h4.8v1.3h-4.8v6.7c0,1,0.2,1.2,1,1.2H480.9z"/>
	</g>
</g>
<g>
	<g>
		<path class="st2" d="M726.1,377.6H52c-2.8,0-5-2.2-5-5V98c4.4-5,10-2,10,2.4v267.2h668.8c2.6,0,4.9,1.9,5.2,4.5
			C731.3,375.1,729,377.6,726.1,377.6z"/>
	</g>
	<g>
		<polygon class="st2" points="40.9,108.6 52,103.9 63.1,108.6 52,82.3 		"/>
	</g>
	<g>
		<polygon class="st2" points="717.8,383.7 722.6,372.6 717.8,361.5 744.2,372.6 		"/>
	</g>
</g>
<rect x="305.3" y="463.5" class="st3" width="13.1" height="13.1"/>
<rect x="389" y="463.5" class="st4" width="13.1" height="13.1"/>
<polygon class="st5" points="56.8,366.3 706.4,366.3 706.4,124.9 56.8,125.9 "/>
<line class="st6" x1="56.5" y1="366.3" x2="706" y2="366.3"/>
<line class="st6" x1="56.5" y1="323.4" x2="706" y2="323.4"/>
<line class="st6" x1="56.5" y1="280.5" x2="706" y2="280.5"/>
<line class="st6" x1="56.5" y1="237.5" x2="706" y2="237.5"/>
<line class="st6" x1="56.5" y1="194.5" x2="706" y2="194.5"/>
<line class="st6" x1="56.5" y1="151.5" x2="706" y2="151.5"/>
<path class="st3" d="M655.2,251.4h18.8v46.4h-18.8V251.4z M590.4,253.9h18.5v43.9h-18.5V253.9z M525.3,256.3h18.5v41.4h-18.5V256.3z
	 M460.5,264H479v33.7h-18.5V264z M395.5,274.5H414v23.2h-18.5V274.5z M330.4,285.7h18.8v12.1h-18.8V285.7z M265.7,293.4h18.5v4.3
	h-18.5V293.4z M200.6,266.8h18.5v30.9h-18.5V266.8z M135.8,247.7h18.5v50.1h-18.5V247.7z M70.7,199.5h18.5v98.3H70.7V199.5z"/>
<path class="st4" d="M673.9,151.5h18.5v146.2h-18.5V151.5z M608.9,219.5h18.5v78.2h-18.5V219.5z M543.8,200.7h18.8v97.1h-18.8V200.7
	z M479,230.7h18.5v67.1H479V230.7z M414,247.7h18.5v50.1H414V247.7z M349.2,243.6h18.5v54.1h-18.5V243.6z M284.2,321.5h18.5v-23.8
	h-18.5V321.5z M219.1,296.8h18.8v1h-18.8V296.8z M154.3,325.2h18.5v-27.5h-18.5V325.2z M89.2,263.1h18.5v34.7H89.2V263.1z"/>
<g>
	<path d="M66.1,182.8h-2v-13c-0.5,0.5-1.1,0.9-1.9,1.4s-1.5,0.8-2.1,1.1v-2c1.1-0.5,2.1-1.2,3-1.9s1.5-1.5,1.8-2.2h1.3V182.8z"/>
	<path d="M79,182.8h-2v-13c-0.5,0.5-1.1,0.9-1.9,1.4s-1.5,0.8-2.1,1.1v-2c1.1-0.5,2.1-1.2,3-1.9s1.5-1.5,1.8-2.2H79V182.8z"/>
	<path d="M85.4,182.8v-2.3h2.3v2.3H85.4z"/>
	<path d="M97.2,182.8v-4H90v-1.9l7.6-10.7h1.7v10.7h2.2v1.9h-2.2v4H97.2z M97.2,176.9v-7.5l-5.2,7.5H97.2z"/>
</g>
<g>
	<path d="M129.7,226.9l2.1-0.2c0.2,1,0.5,1.8,1.1,2.3c0.6,0.5,1.3,0.8,2.1,0.8c1,0,1.8-0.4,2.5-1.1c0.7-0.7,1-1.7,1-2.9
		c0-1.2-0.3-2.1-1-2.7s-1.5-1-2.6-1c-0.7,0-1.2,0.1-1.8,0.4s-0.9,0.7-1.2,1.2l-1.9-0.2l1.6-8.5h8.2v1.9h-6.6l-0.9,4.5
		c1-0.7,2-1,3.1-1c1.4,0,2.7,0.5,3.7,1.5c1,1,1.5,2.3,1.5,3.9c0,1.5-0.4,2.8-1.3,3.9c-1.1,1.3-2.5,2-4.4,2c-1.5,0-2.7-0.4-3.7-1.3
		C130.4,229.5,129.8,228.3,129.7,226.9z"/>
	<path d="M143.7,231.3V229h2.3v2.3H143.7z"/>
	<path d="M152.2,222.3c-0.8-0.3-1.5-0.7-1.9-1.3c-0.4-0.6-0.6-1.3-0.6-2.1c0-1.2,0.4-2.2,1.3-3c0.9-0.8,2-1.2,3.5-1.2
		c1.4,0,2.6,0.4,3.5,1.3c0.9,0.8,1.3,1.9,1.3,3.1c0,0.8-0.2,1.4-0.6,2c-0.4,0.6-1,1-1.8,1.3c1,0.3,1.8,0.9,2.3,1.6s0.8,1.6,0.8,2.6
		c0,1.4-0.5,2.6-1.5,3.6c-1,1-2.3,1.4-4,1.4s-3-0.5-4-1.5c-1-1-1.5-2.2-1.5-3.6c0-1.1,0.3-2,0.8-2.7
		C150.4,223.1,151.1,222.6,152.2,222.3z M151.1,226.5c0,0.6,0.1,1.1,0.4,1.7c0.3,0.5,0.7,1,1.2,1.3c0.5,0.3,1.1,0.4,1.8,0.4
		c1,0,1.8-0.3,2.4-0.9c0.6-0.6,0.9-1.4,0.9-2.4c0-1-0.3-1.8-1-2.4s-1.5-1-2.4-1c-1,0-1.8,0.3-2.4,0.9
		C151.4,224.8,151.1,225.6,151.1,226.5z M151.8,218.9c0,0.8,0.3,1.4,0.8,1.9c0.5,0.5,1.2,0.7,2,0.7c0.8,0,1.4-0.2,1.9-0.7
		c0.5-0.5,0.8-1.1,0.8-1.8c0-0.7-0.3-1.4-0.8-1.9s-1.2-0.8-1.9-0.8c-0.8,0-1.4,0.2-1.9,0.7C152,217.6,151.8,218.2,151.8,218.9z"/>
</g>
<g>
	<path d="M189.2,245.7l2-0.3c0.2,1.2,0.6,2,1.2,2.5c0.6,0.5,1.2,0.8,2.1,0.8c1,0,1.8-0.3,2.4-1c0.7-0.7,1-1.5,1-2.5
		c0-0.9-0.3-1.7-0.9-2.3c-0.6-0.6-1.4-0.9-2.3-0.9c-0.4,0-0.9,0.1-1.4,0.2l0.2-1.8c0.1,0,0.2,0,0.3,0c0.9,0,1.6-0.2,2.3-0.7
		s1-1.1,1-2.1c0-0.7-0.3-1.4-0.8-1.9c-0.5-0.5-1.2-0.7-2-0.7c-0.8,0-1.5,0.2-2,0.7c-0.5,0.5-0.9,1.2-1,2.2l-2-0.4
		c0.2-1.4,0.8-2.4,1.7-3.2c0.9-0.8,2-1.1,3.3-1.1c0.9,0,1.7,0.2,2.5,0.6s1.3,0.9,1.7,1.6s0.6,1.4,0.6,2.1c0,0.7-0.2,1.4-0.6,2
		c-0.4,0.6-1,1.1-1.7,1.4c1,0.2,1.7,0.7,2.3,1.4c0.5,0.7,0.8,1.6,0.8,2.7c0,1.4-0.5,2.7-1.6,3.7c-1.1,1-2.4,1.5-4,1.5
		c-1.5,0-2.7-0.4-3.6-1.3C189.9,248.2,189.4,247.1,189.2,245.7z"/>
	<path d="M203.3,250.1v-2.3h2.3v2.3H203.3z"/>
	<path d="M219.1,237.6l-2,0.2c-0.2-0.8-0.4-1.4-0.8-1.7c-0.6-0.6-1.2-0.9-2-0.9c-0.6,0-1.2,0.2-1.7,0.5c-0.6,0.5-1.1,1.1-1.5,2
		c-0.4,0.9-0.6,2.2-0.6,3.8c0.5-0.7,1.1-1.3,1.8-1.7s1.5-0.5,2.2-0.5c1.4,0,2.5,0.5,3.5,1.5c1,1,1.4,2.3,1.4,3.9c0,1-0.2,2-0.7,2.9
		s-1.1,1.6-1.8,2.1c-0.8,0.5-1.7,0.7-2.7,0.7c-1.7,0-3.1-0.6-4.1-1.9c-1.1-1.2-1.6-3.3-1.6-6.2c0-3.2,0.6-5.5,1.8-7
		c1-1.3,2.4-1.9,4.2-1.9c1.3,0,2.4,0.4,3.2,1.1C218.5,235.3,219,236.3,219.1,237.6z M210.8,244.7c0,0.7,0.1,1.4,0.4,2
		c0.3,0.6,0.7,1.1,1.2,1.5s1.1,0.5,1.7,0.5c0.9,0,1.6-0.3,2.2-1c0.6-0.7,0.9-1.6,0.9-2.8c0-1.1-0.3-2-0.9-2.7c-0.6-0.7-1.4-1-2.3-1
		c-0.9,0-1.7,0.3-2.3,1C211.1,242.8,210.8,243.7,210.8,244.7z"/>
</g>
<g>
	<path d="M259.5,268.5c0-2,0.2-3.5,0.6-4.7c0.4-1.2,1-2.1,1.8-2.8c0.8-0.6,1.8-1,3-1c0.9,0,1.7,0.2,2.3,0.5c0.7,0.4,1.2,0.9,1.7,1.5
		s0.8,1.5,1,2.5c0.2,1,0.4,2.3,0.4,3.9c0,1.9-0.2,3.5-0.6,4.7s-1,2.1-1.8,2.8c-0.8,0.7-1.8,1-3,1c-1.6,0-2.9-0.6-3.8-1.7
		C260,273.9,259.5,271.6,259.5,268.5z M261.6,268.5c0,2.7,0.3,4.5,1,5.4c0.6,0.9,1.4,1.4,2.4,1.4s1.7-0.5,2.4-1.4
		c0.6-0.9,1-2.7,1-5.4c0-2.7-0.3-4.5-1-5.4c-0.6-0.9-1.4-1.3-2.4-1.3c-0.9,0-1.7,0.4-2.2,1.2C261.9,263.9,261.6,265.8,261.6,268.5z"
		/>
	<path d="M273.6,276.7v-2.3h2.3v2.3H273.6z"/>
	<path d="M278.9,272.4l2.1-0.2c0.2,1,0.5,1.8,1.1,2.3c0.6,0.5,1.3,0.8,2.1,0.8c1,0,1.8-0.4,2.5-1.1c0.7-0.7,1-1.7,1-2.9
		c0-1.2-0.3-2.1-1-2.7s-1.5-1-2.6-1c-0.7,0-1.2,0.1-1.8,0.4s-0.9,0.7-1.2,1.2l-1.9-0.2l1.6-8.5h8.2v1.9h-6.6l-0.9,4.5
		c1-0.7,2-1,3.1-1c1.4,0,2.7,0.5,3.7,1.5c1,1,1.5,2.3,1.5,3.9c0,1.5-0.4,2.8-1.3,3.9c-1.1,1.3-2.5,2-4.4,2c-1.5,0-2.7-0.4-3.7-1.3
		C279.5,274.9,279,273.8,278.9,272.4z"/>
</g>
<g>
	<path d="M326.7,269h-2v-13c-0.5,0.5-1.1,0.9-1.9,1.4s-1.5,0.8-2.1,1.1v-2c1.1-0.5,2.1-1.2,3-1.9s1.5-1.5,1.8-2.2h1.3V269z"/>
	<path d="M333.1,269v-2.3h2.3v2.3H333.1z"/>
	<path d="M344.9,269v-4h-7.2v-1.9l7.6-10.7h1.7v10.7h2.2v1.9h-2.2v4H344.9z M344.9,263.2v-7.5l-5.2,7.5H344.9z"/>
</g>
<g>
	<path d="M400.3,255.9v2h-11c0-0.5,0.1-1,0.2-1.4c0.3-0.7,0.7-1.5,1.3-2.2c0.6-0.7,1.5-1.6,2.7-2.5c1.8-1.5,3-2.6,3.7-3.5
		c0.6-0.9,0.9-1.7,0.9-2.4c0-0.8-0.3-1.5-0.9-2c-0.6-0.6-1.3-0.8-2.3-0.8c-1,0-1.8,0.3-2.4,0.9s-0.9,1.4-0.9,2.4l-2.1-0.2
		c0.1-1.6,0.7-2.7,1.6-3.6c0.9-0.8,2.2-1.2,3.8-1.2c1.6,0,2.8,0.4,3.8,1.3c0.9,0.9,1.4,2,1.4,3.3c0,0.7-0.1,1.3-0.4,2
		c-0.3,0.6-0.7,1.3-1.4,2s-1.7,1.7-3.1,2.9c-1.2,1-2,1.7-2.4,2.1c-0.3,0.4-0.6,0.7-0.9,1.1H400.3z"/>
	<path d="M403.7,257.9v-2.3h2.3v2.3H403.7z"/>
	<path d="M409.1,243.5v-2h10.7v1.6c-1.1,1.1-2.1,2.6-3.1,4.5s-1.8,3.8-2.4,5.7c-0.4,1.4-0.7,2.9-0.8,4.6h-2.1c0-1.3,0.3-2.9,0.8-4.7
		c0.5-1.8,1.2-3.6,2.1-5.3c0.9-1.7,1.9-3.2,2.9-4.3H409.1z"/>
</g>
<g>
	<path d="M454.4,243.3l2-0.3c0.2,1.2,0.6,2,1.2,2.5c0.6,0.5,1.2,0.8,2.1,0.8c1,0,1.8-0.3,2.4-1c0.7-0.7,1-1.5,1-2.5
		c0-0.9-0.3-1.7-0.9-2.3c-0.6-0.6-1.4-0.9-2.3-0.9c-0.4,0-0.9,0.1-1.4,0.2l0.2-1.8c0.1,0,0.2,0,0.3,0c0.9,0,1.6-0.2,2.3-0.7
		s1-1.1,1-2.1c0-0.7-0.3-1.4-0.8-1.9c-0.5-0.5-1.2-0.7-2-0.7c-0.8,0-1.5,0.2-2,0.7c-0.5,0.5-0.9,1.2-1,2.2l-2-0.4
		c0.2-1.4,0.8-2.4,1.7-3.2c0.9-0.8,2-1.1,3.3-1.1c0.9,0,1.7,0.2,2.5,0.6s1.3,0.9,1.7,1.6s0.6,1.4,0.6,2.1c0,0.7-0.2,1.4-0.6,2
		c-0.4,0.6-1,1.1-1.7,1.4c1,0.2,1.7,0.7,2.3,1.4c0.5,0.7,0.8,1.6,0.8,2.7c0,1.4-0.5,2.7-1.6,3.7c-1.1,1-2.4,1.5-4,1.5
		c-1.5,0-2.7-0.4-3.6-1.3C455.1,245.8,454.6,244.7,454.4,243.3z"/>
	<path d="M468.5,247.7v-2.3h2.3v2.3H468.5z"/>
	<path d="M474.1,243.9l2-0.2c0.2,0.9,0.5,1.6,0.9,2s1.1,0.6,1.8,0.6c0.6,0,1.2-0.1,1.6-0.4c0.5-0.3,0.9-0.7,1.2-1.1
		c0.3-0.5,0.6-1.1,0.8-1.9s0.3-1.6,0.3-2.5c0-0.1,0-0.2,0-0.4c-0.4,0.6-1,1.2-1.7,1.6s-1.5,0.6-2.3,0.6c-1.4,0-2.5-0.5-3.5-1.5
		c-0.9-1-1.4-2.3-1.4-3.9c0-1.7,0.5-3,1.5-4.1c1-1,2.2-1.5,3.7-1.5c1.1,0,2.1,0.3,3,0.9c0.9,0.6,1.6,1.4,2,2.5
		c0.5,1.1,0.7,2.6,0.7,4.7c0,2.1-0.2,3.8-0.7,5.1c-0.5,1.3-1.1,2.2-2.1,2.9c-0.9,0.7-2,1-3.2,1c-1.3,0-2.4-0.4-3.2-1.1
		C474.7,246.2,474.3,245.2,474.1,243.9z M482.4,236.6c0-1.2-0.3-2.1-0.9-2.8c-0.6-0.7-1.4-1-2.2-1c-0.9,0-1.7,0.4-2.4,1.1
		c-0.7,0.7-1,1.7-1,2.9c0,1.1,0.3,1.9,1,2.6c0.6,0.7,1.4,1,2.4,1c0.9,0,1.7-0.3,2.3-1C482.1,238.6,482.4,237.7,482.4,236.6z"/>
</g>
<g>
	<path d="M526,239.9v-4h-7.2v-1.9l7.6-10.7h1.7v10.7h2.2v1.9h-2.2v4H526z M526,234.1v-7.5l-5.2,7.5H526z"/>
	<path d="M533.6,239.9v-2.3h2.3v2.3H533.6z"/>
	<path d="M542,231c-0.8-0.3-1.5-0.7-1.9-1.3c-0.4-0.6-0.6-1.3-0.6-2.1c0-1.2,0.4-2.2,1.3-3c0.9-0.8,2-1.2,3.5-1.2
		c1.4,0,2.6,0.4,3.5,1.3c0.9,0.8,1.3,1.9,1.3,3.1c0,0.8-0.2,1.4-0.6,2c-0.4,0.6-1,1-1.8,1.3c1,0.3,1.8,0.9,2.3,1.6s0.8,1.6,0.8,2.6
		c0,1.4-0.5,2.6-1.5,3.6c-1,1-2.3,1.4-4,1.4s-3-0.5-4-1.5c-1-1-1.5-2.2-1.5-3.6c0-1.1,0.3-2,0.8-2.7C540.2,231.7,541,231.2,542,231z
		 M540.9,235.2c0,0.6,0.1,1.1,0.4,1.7c0.3,0.5,0.7,1,1.2,1.3c0.5,0.3,1.1,0.4,1.8,0.4c1,0,1.8-0.3,2.4-0.9c0.6-0.6,0.9-1.4,0.9-2.4
		c0-1-0.3-1.8-1-2.4s-1.5-1-2.4-1c-1,0-1.8,0.3-2.4,0.9C541.2,233.4,540.9,234.2,540.9,235.2z M541.6,227.5c0,0.8,0.3,1.4,0.8,1.9
		c0.5,0.5,1.2,0.7,2,0.7c0.8,0,1.4-0.2,1.9-0.7c0.5-0.5,0.8-1.1,0.8-1.8c0-0.7-0.3-1.4-0.8-1.9s-1.2-0.8-1.9-0.8
		c-0.8,0-1.4,0.2-1.9,0.7C541.8,226.2,541.6,226.8,541.6,227.5z"/>
</g>
<g>
	<path d="M584.3,232.8l2.1-0.2c0.2,1,0.5,1.8,1.1,2.3c0.6,0.5,1.3,0.8,2.1,0.8c1,0,1.8-0.4,2.5-1.1c0.7-0.7,1-1.7,1-2.9
		c0-1.2-0.3-2.1-1-2.7c-0.7-0.7-1.5-1-2.6-1c-0.7,0-1.2,0.1-1.8,0.4s-0.9,0.7-1.2,1.2l-1.9-0.2l1.6-8.5h8.2v1.9h-6.6l-0.9,4.5
		c1-0.7,2-1,3.1-1c1.4,0,2.7,0.5,3.7,1.5c1,1,1.5,2.3,1.5,3.9c0,1.5-0.4,2.8-1.3,3.9c-1.1,1.3-2.5,2-4.4,2c-1.5,0-2.7-0.4-3.7-1.3
		C584.9,235.3,584.4,234.2,584.3,232.8z"/>
	<path d="M598.3,237.1v-2.3h2.3v2.3H598.3z"/>
	<path d="M611.3,237.1h-2v-13c-0.5,0.5-1.1,0.9-1.9,1.4s-1.5,0.8-2.1,1.1v-2c1.1-0.5,2.1-1.2,3-1.9s1.5-1.5,1.8-2.2h1.3V237.1z"/>
</g>
<g>
	<path d="M649.3,230.3l2.1-0.2c0.2,1,0.5,1.8,1.1,2.3c0.6,0.5,1.3,0.8,2.1,0.8c1,0,1.8-0.4,2.5-1.1c0.7-0.7,1-1.7,1-2.9
		c0-1.2-0.3-2.1-1-2.7c-0.7-0.7-1.5-1-2.6-1c-0.7,0-1.2,0.1-1.8,0.4s-0.9,0.7-1.2,1.2l-1.9-0.2l1.6-8.5h8.2v1.9h-6.6l-0.9,4.5
		c1-0.7,2-1,3.1-1c1.4,0,2.7,0.5,3.7,1.5c1,1,1.5,2.3,1.5,3.9c0,1.5-0.4,2.8-1.3,3.9c-1.1,1.3-2.5,2-4.4,2c-1.5,0-2.7-0.4-3.7-1.3
		C650,232.8,649.5,231.7,649.3,230.3z"/>
	<path d="M663.4,234.7v-2.3h2.3v2.3H663.4z"/>
	<path d="M675.2,234.7v-4H668v-1.9l7.6-10.7h1.7v10.7h2.2v1.9h-2.2v4H675.2z M675.2,228.8v-7.5l-5.2,7.5H675.2z"/>
</g>
<g>
	<path d="M90,246.4v-4h-7.2v-1.9l7.6-10.7H92v10.7h2.2v1.9H92v4H90z M90,240.6v-7.5l-5.2,7.5H90z"/>
	<path d="M97.5,246.4v-2.3h2.3v2.3H97.5z"/>
	<path d="M102.8,238.3c0-2,0.2-3.5,0.6-4.7c0.4-1.2,1-2.1,1.8-2.8c0.8-0.6,1.8-1,3-1c0.9,0,1.7,0.2,2.3,0.5c0.7,0.4,1.2,0.9,1.7,1.5
		s0.8,1.5,1,2.5c0.2,1,0.4,2.3,0.4,3.9c0,1.9-0.2,3.5-0.6,4.7s-1,2.1-1.8,2.8c-0.8,0.7-1.8,1-3,1c-1.6,0-2.9-0.6-3.8-1.7
		C103.3,243.6,102.8,241.4,102.8,238.3z M104.9,238.3c0,2.7,0.3,4.5,1,5.4c0.6,0.9,1.4,1.4,2.4,1.4s1.7-0.5,2.4-1.4
		c0.6-0.9,1-2.7,1-5.4c0-2.7-0.3-4.5-1-5.4c-0.6-0.9-1.4-1.3-2.4-1.3c-0.9,0-1.7,0.4-2.2,1.2C105.2,233.7,104.9,235.5,104.9,238.3z"
		/>
</g>
<g>
	<path d="M144.9,363.2c-1.1-1.4-2.1-3.1-2.8-5c-0.8-1.9-1.2-3.9-1.2-5.9c0-1.8,0.3-3.5,0.9-5.2c0.7-1.9,1.7-3.8,3.1-5.7h1.5
		c-0.9,1.6-1.5,2.7-1.8,3.4c-0.5,1-0.8,2.1-1.1,3.3c-0.3,1.4-0.5,2.8-0.5,4.3c0,3.6,1.1,7.2,3.4,10.9H144.9z"/>
	<path d="M148.2,353.9l2-0.3c0.2,1.2,0.6,2,1.2,2.5c0.6,0.5,1.2,0.8,2.1,0.8c1,0,1.8-0.3,2.4-1c0.7-0.7,1-1.5,1-2.5
		c0-0.9-0.3-1.7-0.9-2.3c-0.6-0.6-1.4-0.9-2.3-0.9c-0.4,0-0.9,0.1-1.4,0.2l0.2-1.8c0.1,0,0.2,0,0.3,0c0.9,0,1.6-0.2,2.3-0.7
		s1-1.1,1-2.1c0-0.7-0.3-1.4-0.8-1.9c-0.5-0.5-1.2-0.7-2-0.7c-0.8,0-1.5,0.2-2,0.7c-0.5,0.5-0.9,1.2-1,2.2l-2-0.4
		c0.2-1.4,0.8-2.4,1.7-3.2c0.9-0.8,2-1.1,3.3-1.1c0.9,0,1.7,0.2,2.5,0.6s1.3,0.9,1.7,1.6s0.6,1.4,0.6,2.1c0,0.7-0.2,1.4-0.6,2
		c-0.4,0.6-1,1.1-1.7,1.4c1,0.2,1.7,0.7,2.3,1.4c0.5,0.7,0.8,1.6,0.8,2.7c0,1.4-0.5,2.7-1.6,3.7c-1.1,1-2.4,1.5-4,1.5
		c-1.5,0-2.7-0.4-3.6-1.3C148.9,356.4,148.3,355.3,148.2,353.9z"/>
	<path d="M162.3,358.3V356h2.3v2.3H162.3z"/>
	<path d="M178.2,356.4v2h-11c0-0.5,0.1-1,0.2-1.4c0.3-0.7,0.7-1.5,1.3-2.2c0.6-0.7,1.5-1.6,2.7-2.5c1.8-1.5,3-2.6,3.7-3.5
		c0.6-0.9,0.9-1.7,0.9-2.4c0-0.8-0.3-1.5-0.9-2c-0.6-0.6-1.3-0.8-2.3-0.8c-1,0-1.8,0.3-2.4,0.9s-0.9,1.4-0.9,2.4l-2.1-0.2
		c0.1-1.6,0.7-2.7,1.6-3.6c0.9-0.8,2.2-1.2,3.8-1.2c1.6,0,2.8,0.4,3.8,1.3c0.9,0.9,1.4,2,1.4,3.3c0,0.7-0.1,1.3-0.4,2
		c-0.3,0.6-0.7,1.3-1.4,2s-1.7,1.7-3.1,2.9c-1.2,1-2,1.7-2.4,2.1c-0.3,0.4-0.6,0.7-0.9,1.1H178.2z"/>
	<path d="M182.4,363.2H181c2.3-3.6,3.4-7.2,3.4-10.9c0-1.4-0.2-2.8-0.5-4.2c-0.3-1.1-0.6-2.2-1.1-3.3c-0.3-0.7-0.9-1.8-1.8-3.4h1.5
		c1.4,1.9,2.5,3.8,3.1,5.7c0.6,1.6,0.9,3.4,0.9,5.2c0,2-0.4,4-1.2,5.9C184.5,360.1,183.6,361.8,182.4,363.2z"/>
</g>
<g>
	<path d="M213.2,272c0-2,0.2-3.5,0.6-4.7c0.4-1.2,1-2.1,1.8-2.8c0.8-0.6,1.8-1,3-1c0.9,0,1.7,0.2,2.3,0.5c0.7,0.4,1.2,0.9,1.7,1.5
		s0.8,1.5,1,2.5c0.2,1,0.4,2.3,0.4,3.9c0,1.9-0.2,3.5-0.6,4.7s-1,2.1-1.8,2.8c-0.8,0.7-1.8,1-3,1c-1.6,0-2.9-0.6-3.8-1.7
		C213.8,277.3,213.2,275.1,213.2,272z M215.3,272c0,2.7,0.3,4.5,1,5.4c0.6,0.9,1.4,1.4,2.4,1.4s1.7-0.5,2.4-1.4c0.6-0.9,1-2.7,1-5.4
		c0-2.7-0.3-4.5-1-5.4c-0.6-0.9-1.4-1.3-2.4-1.3c-0.9,0-1.7,0.4-2.2,1.2C215.7,267.4,215.3,269.2,215.3,272z"/>
	<path d="M227.3,280.1v-2.3h2.3v2.3H227.3z"/>
	<path d="M240.3,280.1h-2v-13c-0.5,0.5-1.1,0.9-1.9,1.4s-1.5,0.8-2.1,1.1v-2c1.1-0.5,2.1-1.2,3-1.9s1.5-1.5,1.8-2.2h1.3V280.1z"/>
</g>
<g>
	<path d="M275.1,359.7c-1.1-1.4-2.1-3.1-2.8-5c-0.8-1.9-1.2-3.9-1.2-5.9c0-1.8,0.3-3.5,0.9-5.2c0.7-1.9,1.7-3.8,3.1-5.7h1.5
		c-0.9,1.6-1.5,2.7-1.8,3.4c-0.5,1-0.8,2.1-1.1,3.3c-0.3,1.4-0.5,2.8-0.5,4.3c0,3.6,1.1,7.2,3.4,10.9H275.1z"/>
	<path d="M289,352.9v2h-11c0-0.5,0.1-1,0.2-1.4c0.3-0.7,0.7-1.5,1.3-2.2c0.6-0.7,1.5-1.6,2.7-2.5c1.8-1.5,3-2.6,3.7-3.5
		c0.6-0.9,0.9-1.7,0.9-2.4c0-0.8-0.3-1.5-0.9-2c-0.6-0.6-1.3-0.8-2.3-0.8c-1,0-1.8,0.3-2.4,0.9s-0.9,1.4-0.9,2.4l-2.1-0.2
		c0.1-1.6,0.7-2.7,1.6-3.6c0.9-0.8,2.2-1.2,3.8-1.2c1.6,0,2.8,0.4,3.8,1.3c0.9,0.9,1.4,2,1.4,3.3c0,0.7-0.1,1.3-0.4,2
		c-0.3,0.6-0.7,1.3-1.4,2s-1.7,1.7-3.1,2.9c-1.2,1-2,1.7-2.4,2.1c-0.3,0.4-0.6,0.7-0.9,1.1H289z"/>
	<path d="M292.4,354.9v-2.3h2.3v2.3H292.4z"/>
	<path d="M300.8,345.9c-0.8-0.3-1.5-0.7-1.9-1.3c-0.4-0.6-0.6-1.3-0.6-2.1c0-1.2,0.4-2.2,1.3-3c0.9-0.8,2-1.2,3.5-1.2
		c1.4,0,2.6,0.4,3.5,1.3c0.9,0.8,1.3,1.9,1.3,3.1c0,0.8-0.2,1.4-0.6,2c-0.4,0.6-1,1-1.8,1.3c1,0.3,1.8,0.9,2.3,1.6s0.8,1.6,0.8,2.6
		c0,1.4-0.5,2.6-1.5,3.6c-1,1-2.3,1.4-4,1.4s-3-0.5-4-1.5c-1-1-1.5-2.2-1.5-3.6c0-1.1,0.3-2,0.8-2.7
		C299,346.6,299.8,346.2,300.8,345.9z M299.8,350.1c0,0.6,0.1,1.1,0.4,1.7c0.3,0.5,0.7,1,1.2,1.3c0.5,0.3,1.1,0.4,1.8,0.4
		c1,0,1.8-0.3,2.4-0.9c0.6-0.6,0.9-1.4,0.9-2.4c0-1-0.3-1.8-1-2.4s-1.5-1-2.4-1c-1,0-1.8,0.3-2.4,0.9
		C300.1,348.4,299.8,349.1,299.8,350.1z M300.4,342.4c0,0.8,0.3,1.4,0.8,1.9c0.5,0.5,1.2,0.7,2,0.7c0.8,0,1.4-0.2,1.9-0.7
		c0.5-0.5,0.8-1.1,0.8-1.8c0-0.7-0.3-1.4-0.8-1.9s-1.2-0.8-1.9-0.8c-0.8,0-1.4,0.2-1.9,0.7C300.7,341.2,300.4,341.7,300.4,342.4z"/>
	<path d="M312.6,359.7h-1.5c2.3-3.6,3.4-7.2,3.4-10.9c0-1.4-0.2-2.8-0.5-4.2c-0.3-1.1-0.6-2.2-1.1-3.3c-0.3-0.7-0.9-1.8-1.8-3.4h1.5
		c1.4,1.9,2.5,3.8,3.1,5.7c0.6,1.6,0.9,3.4,0.9,5.2c0,2-0.4,4-1.2,5.9C314.6,356.7,313.7,358.3,312.6,359.7z"/>
</g>
<g>
	<path d="M353.6,214.5l-2,0.2c-0.2-0.8-0.4-1.4-0.8-1.7c-0.6-0.6-1.2-0.9-2-0.9c-0.6,0-1.2,0.2-1.7,0.5c-0.6,0.5-1.1,1.1-1.5,2
		c-0.4,0.9-0.6,2.2-0.6,3.8c0.5-0.7,1.1-1.3,1.8-1.7s1.5-0.5,2.2-0.5c1.4,0,2.5,0.5,3.5,1.5c1,1,1.4,2.3,1.4,3.9c0,1-0.2,2-0.7,2.9
		s-1.1,1.6-1.8,2.1c-0.8,0.5-1.7,0.7-2.7,0.7c-1.7,0-3.1-0.6-4.1-1.9c-1.1-1.2-1.6-3.3-1.6-6.2c0-3.2,0.6-5.5,1.8-7
		c1-1.3,2.4-1.9,4.2-1.9c1.3,0,2.4,0.4,3.2,1.1C353,212.2,353.5,213.2,353.6,214.5z M345.3,221.6c0,0.7,0.1,1.4,0.4,2
		c0.3,0.6,0.7,1.1,1.2,1.5s1.1,0.5,1.7,0.5c0.9,0,1.6-0.3,2.2-1c0.6-0.7,0.9-1.6,0.9-2.8c0-1.1-0.3-2-0.9-2.7c-0.6-0.7-1.4-1-2.3-1
		c-0.9,0-1.7,0.3-2.3,1C345.6,219.7,345.3,220.5,345.3,221.6z"/>
	<path d="M357.1,227v-2.3h2.3v2.3H357.1z"/>
	<path d="M362.4,222.6l2-0.3c0.2,1.2,0.6,2,1.2,2.5c0.6,0.5,1.2,0.8,2.1,0.8c1,0,1.8-0.3,2.4-1c0.7-0.7,1-1.5,1-2.5
		c0-0.9-0.3-1.7-0.9-2.3c-0.6-0.6-1.4-0.9-2.3-0.9c-0.4,0-0.9,0.1-1.4,0.2l0.2-1.8c0.1,0,0.2,0,0.3,0c0.9,0,1.6-0.2,2.3-0.7
		s1-1.1,1-2.1c0-0.7-0.3-1.4-0.8-1.9c-0.5-0.5-1.2-0.7-2-0.7c-0.8,0-1.5,0.2-2,0.7c-0.5,0.5-0.9,1.2-1,2.2l-2-0.4
		c0.2-1.4,0.8-2.4,1.7-3.2c0.9-0.8,2-1.1,3.3-1.1c0.9,0,1.7,0.2,2.5,0.6s1.3,0.9,1.7,1.6s0.6,1.4,0.6,2.1c0,0.7-0.2,1.4-0.6,2
		c-0.4,0.6-1,1.1-1.7,1.4c1,0.2,1.7,0.7,2.3,1.4c0.5,0.7,0.8,1.6,0.8,2.7c0,1.4-0.5,2.7-1.6,3.7c-1.1,1-2.4,1.5-4,1.5
		c-1.5,0-2.7-0.4-3.6-1.3C363.1,225.1,362.6,224,362.4,222.6z"/>
</g>
<g>
	<path d="M408.1,226.9l2.1-0.2c0.2,1,0.5,1.8,1.1,2.3c0.6,0.5,1.3,0.8,2.1,0.8c1,0,1.8-0.4,2.5-1.1c0.7-0.7,1-1.7,1-2.9
		c0-1.2-0.3-2.1-1-2.7s-1.5-1-2.6-1c-0.7,0-1.2,0.1-1.8,0.4s-0.9,0.7-1.2,1.2l-1.9-0.2l1.6-8.5h8.2v1.9h-6.6l-0.9,4.5
		c1-0.7,2-1,3.1-1c1.4,0,2.7,0.5,3.7,1.5c1,1,1.5,2.3,1.5,3.9c0,1.5-0.4,2.8-1.3,3.9c-1.1,1.3-2.5,2-4.4,2c-1.5,0-2.7-0.4-3.7-1.3
		C408.8,229.5,408.3,228.3,408.1,226.9z"/>
	<path d="M422.2,231.3V229h2.3v2.3H422.2z"/>
	<path d="M430.6,222.3c-0.8-0.3-1.5-0.7-1.9-1.3c-0.4-0.6-0.6-1.3-0.6-2.1c0-1.2,0.4-2.2,1.3-3c0.9-0.8,2-1.2,3.5-1.2
		c1.4,0,2.6,0.4,3.5,1.3c0.9,0.8,1.3,1.9,1.3,3.1c0,0.8-0.2,1.4-0.6,2c-0.4,0.6-1,1-1.8,1.3c1,0.3,1.8,0.9,2.3,1.6s0.8,1.6,0.8,2.6
		c0,1.4-0.5,2.6-1.5,3.6c-1,1-2.3,1.4-4,1.4s-3-0.5-4-1.5c-1-1-1.5-2.2-1.5-3.6c0-1.1,0.3-2,0.8-2.7
		C428.8,223.1,429.6,222.6,430.6,222.3z M429.6,226.5c0,0.6,0.1,1.1,0.4,1.7c0.3,0.5,0.7,1,1.2,1.3c0.5,0.3,1.1,0.4,1.8,0.4
		c1,0,1.8-0.3,2.4-0.9c0.6-0.6,0.9-1.4,0.9-2.4c0-1-0.3-1.8-1-2.4s-1.5-1-2.4-1c-1,0-1.8,0.3-2.4,0.9
		C429.9,224.8,429.6,225.6,429.6,226.5z M430.2,218.9c0,0.8,0.3,1.4,0.8,1.9c0.5,0.5,1.2,0.7,2,0.7c0.8,0,1.4-0.2,1.9-0.7
		c0.5-0.5,0.8-1.1,0.8-1.8c0-0.7-0.3-1.4-0.8-1.9s-1.2-0.8-1.9-0.8c-0.8,0-1.4,0.2-1.9,0.7C430.5,217.6,430.2,218.2,430.2,218.9z"/>
</g>
<g>
	<path d="M473.1,199.6v-2h10.7v1.6c-1.1,1.1-2.1,2.6-3.1,4.5s-1.8,3.8-2.4,5.7c-0.4,1.4-0.7,2.9-0.8,4.6h-2.1c0-1.3,0.3-2.9,0.8-4.7
		c0.5-1.8,1.2-3.6,2.1-5.3c0.9-1.7,1.9-3.2,2.9-4.3H473.1z"/>
	<path d="M487,214v-2.3h2.3v2.3H487z"/>
	<path d="M495.4,205c-0.8-0.3-1.5-0.7-1.9-1.3c-0.4-0.6-0.6-1.3-0.6-2.1c0-1.2,0.4-2.2,1.3-3c0.9-0.8,2-1.2,3.5-1.2
		c1.4,0,2.6,0.4,3.5,1.3c0.9,0.8,1.3,1.9,1.3,3.1c0,0.8-0.2,1.4-0.6,2c-0.4,0.6-1,1-1.8,1.3c1,0.3,1.8,0.9,2.3,1.6s0.8,1.6,0.8,2.6
		c0,1.4-0.5,2.6-1.5,3.6c-1,1-2.3,1.4-4,1.4s-3-0.5-4-1.5c-1-1-1.5-2.2-1.5-3.6c0-1.1,0.3-2,0.8-2.7
		C493.7,205.8,494.4,205.3,495.4,205z M494.4,209.2c0,0.6,0.1,1.1,0.4,1.7c0.3,0.5,0.7,1,1.2,1.3c0.5,0.3,1.1,0.4,1.8,0.4
		c1,0,1.8-0.3,2.4-0.9c0.6-0.6,0.9-1.4,0.9-2.4c0-1-0.3-1.8-1-2.4s-1.5-1-2.4-1c-1,0-1.8,0.3-2.4,0.9
		C494.7,207.5,494.4,208.3,494.4,209.2z M495,201.6c0,0.8,0.3,1.4,0.8,1.9c0.5,0.5,1.2,0.7,2,0.7c0.8,0,1.4-0.2,1.9-0.7
		c0.5-0.5,0.8-1.1,0.8-1.8c0-0.7-0.3-1.4-0.8-1.9s-1.2-0.8-1.9-0.8c-0.8,0-1.4,0.2-1.9,0.7C495.3,200.3,495,200.9,495,201.6z"/>
</g>
<g>
	<path d="M539.2,184h-2v-13c-0.5,0.5-1.1,0.9-1.9,1.4s-1.5,0.8-2.1,1.1v-2c1.1-0.5,2.1-1.2,3-1.9s1.5-1.5,1.8-2.2h1.3V184z"/>
	<path d="M552.1,184h-2v-13c-0.5,0.5-1.1,0.9-1.9,1.4s-1.5,0.8-2.1,1.1v-2c1.1-0.5,2.1-1.2,3-1.9s1.5-1.5,1.8-2.2h1.3V184z"/>
	<path d="M558.5,184v-2.3h2.3v2.3H558.5z"/>
	<path d="M563.8,179.7l2-0.3c0.2,1.2,0.6,2,1.2,2.5c0.6,0.5,1.2,0.8,2.1,0.8c1,0,1.8-0.3,2.4-1c0.7-0.7,1-1.5,1-2.5
		c0-0.9-0.3-1.7-0.9-2.3c-0.6-0.6-1.4-0.9-2.3-0.9c-0.4,0-0.9,0.1-1.4,0.2l0.2-1.8c0.1,0,0.2,0,0.3,0c0.9,0,1.6-0.2,2.3-0.7
		s1-1.1,1-2.1c0-0.7-0.3-1.4-0.8-1.9s-1.2-0.7-2-0.7c-0.8,0-1.5,0.2-2,0.7s-0.9,1.2-1,2.2l-2-0.4c0.2-1.4,0.8-2.4,1.7-3.2
		s2-1.1,3.3-1.1c0.9,0,1.7,0.2,2.5,0.6c0.8,0.4,1.3,0.9,1.7,1.6c0.4,0.7,0.6,1.4,0.6,2.1c0,0.7-0.2,1.4-0.6,2
		c-0.4,0.6-1,1.1-1.7,1.4c1,0.2,1.7,0.7,2.3,1.4c0.5,0.7,0.8,1.6,0.8,2.7c0,1.4-0.5,2.7-1.6,3.7c-1.1,1-2.4,1.5-4,1.5
		c-1.5,0-2.7-0.4-3.6-1.3C564.5,182.2,563.9,181,563.8,179.7z"/>
</g>
<g>
	<path d="M603.1,199l2-0.2c0.2,0.9,0.5,1.6,1,2c0.5,0.4,1.1,0.6,1.8,0.6c0.6,0,1.2-0.1,1.6-0.4c0.5-0.3,0.9-0.7,1.2-1.1
		c0.3-0.5,0.6-1.1,0.8-1.9c0.2-0.8,0.3-1.6,0.3-2.5c0-0.1,0-0.2,0-0.4c-0.4,0.6-1,1.2-1.7,1.6s-1.5,0.6-2.3,0.6
		c-1.4,0-2.5-0.5-3.5-1.5c-1-1-1.4-2.3-1.4-3.9c0-1.7,0.5-3,1.5-4.1s2.2-1.5,3.7-1.5c1.1,0,2.1,0.3,3,0.9c0.9,0.6,1.6,1.4,2,2.5
		c0.5,1.1,0.7,2.6,0.7,4.7c0,2.1-0.2,3.8-0.7,5.1c-0.5,1.3-1.1,2.2-2.1,2.9c-0.9,0.7-2,1-3.2,1c-1.3,0-2.4-0.4-3.2-1.1
		S603.2,200.3,603.1,199z M611.4,191.7c0-1.2-0.3-2.1-0.9-2.8c-0.6-0.7-1.4-1-2.2-1c-0.9,0-1.7,0.4-2.4,1.1c-0.7,0.7-1,1.7-1,2.9
		c0,1.1,0.3,1.9,1,2.6c0.6,0.7,1.4,1,2.4,1c0.9,0,1.7-0.3,2.3-1C611.1,193.8,611.4,192.9,611.4,191.7z"/>
	<path d="M616.8,202.9v-2.3h2.3v2.3H616.8z"/>
	<path d="M629.8,202.9h-2v-13c-0.5,0.5-1.1,0.9-1.9,1.4s-1.5,0.8-2.1,1.1v-2c1.1-0.5,2.1-1.2,3-1.9s1.5-1.5,1.8-2.2h1.3V202.9z"/>
</g>
<g>
	<path d="M669,134.9h-2v-13c-0.5,0.5-1.1,0.9-1.9,1.4s-1.5,0.8-2.1,1.1v-2c1.1-0.5,2.1-1.2,3-1.9s1.5-1.5,1.8-2.2h1.3V134.9z"/>
	<path d="M674.4,120.5v-2h10.7v1.6c-1.1,1.1-2.1,2.6-3.1,4.5s-1.8,3.8-2.4,5.7c-0.4,1.4-0.7,2.9-0.8,4.6h-2.1c0-1.3,0.3-2.9,0.8-4.7
		c0.5-1.8,1.2-3.6,2.1-5.3c0.9-1.7,1.9-3.2,2.9-4.3H674.4z"/>
	<path d="M688.3,134.9v-2.3h2.3v2.3H688.3z"/>
	<path d="M693.6,126.7c0-2,0.2-3.5,0.6-4.7c0.4-1.2,1-2.1,1.8-2.8c0.8-0.6,1.8-1,3-1c0.9,0,1.7,0.2,2.3,0.5c0.7,0.4,1.2,0.9,1.7,1.5
		s0.8,1.5,1,2.5c0.2,1,0.4,2.3,0.4,3.9c0,1.9-0.2,3.5-0.6,4.7s-1,2.1-1.8,2.8s-1.8,1-3,1c-1.6,0-2.9-0.6-3.8-1.7
		C694.2,132.1,693.6,129.8,693.6,126.7z M695.7,126.7c0,2.7,0.3,4.5,1,5.4c0.6,0.9,1.4,1.4,2.4,1.4s1.7-0.5,2.4-1.4s1-2.7,1-5.4
		c0-2.7-0.3-4.5-1-5.4c-0.6-0.9-1.4-1.3-2.4-1.3c-0.9,0-1.7,0.4-2.2,1.2C696.1,122.1,695.7,124,695.7,126.7z"/>
</g>
<g>
	<path d="M57.9,398.4l1.6-0.2c0.2,0.9,0.5,1.5,0.9,1.9s1,0.6,1.6,0.6c0.7,0,1.4-0.3,1.9-0.8s0.8-1.2,0.8-1.9c0-0.7-0.2-1.3-0.7-1.8
		s-1.1-0.7-1.8-0.7c-0.3,0-0.7,0.1-1.1,0.2l0.2-1.4c0.1,0,0.2,0,0.3,0c0.7,0,1.3-0.2,1.8-0.5s0.8-0.9,0.8-1.6c0-0.6-0.2-1.1-0.6-1.4
		s-0.9-0.6-1.5-0.6c-0.6,0-1.1,0.2-1.5,0.6s-0.7,1-0.8,1.7l-1.6-0.3c0.2-1.1,0.6-1.9,1.3-2.5s1.5-0.9,2.6-0.9c0.7,0,1.4,0.2,1.9,0.5
		s1,0.7,1.4,1.2s0.5,1.1,0.5,1.7c0,0.6-0.1,1.1-0.4,1.5s-0.7,0.8-1.3,1.1c0.8,0.2,1.4,0.5,1.8,1.1s0.6,1.2,0.6,2.1
		c0,1.1-0.4,2.1-1.2,2.9S63.3,402,62,402c-1.1,0-2.1-0.3-2.8-1S58,399.4,57.9,398.4z"/>
	<path d="M78.2,400.4c0.8,0.5,1.5,0.9,2.2,1.2l-0.5,1.2c-0.9-0.3-1.8-0.9-2.8-1.6c-1,0.5-2,0.8-3.2,0.8c-1.2,0-2.2-0.3-3.2-0.8
		s-1.7-1.4-2.2-2.4s-0.8-2.2-0.8-3.4c0-1.3,0.3-2.4,0.8-3.5s1.2-1.8,2.2-2.4s2-0.8,3.2-0.8c1.2,0,2.3,0.3,3.2,0.8s1.7,1.4,2.2,2.4
		s0.8,2.2,0.8,3.4c0,1.1-0.2,2-0.5,2.9S78.9,399.8,78.2,400.4z M74.5,398.2c1,0.3,1.8,0.7,2.4,1.2c1-0.9,1.5-2.3,1.5-4.1
		c0-1-0.2-2-0.5-2.7s-0.9-1.4-1.6-1.8s-1.4-0.6-2.3-0.6c-1.3,0-2.3,0.4-3.2,1.3s-1.3,2.2-1.3,3.9c0,1.7,0.4,3,1.2,3.9
		s1.9,1.3,3.2,1.3c0.6,0,1.2-0.1,1.7-0.3c-0.5-0.3-1.1-0.6-1.7-0.7L74.5,398.2z"/>
	<path d="M90,400.2v1.5h-8.5c0-0.4,0-0.7,0.2-1.1c0.2-0.6,0.6-1.2,1-1.7s1.2-1.2,2.1-2c1.4-1.1,2.3-2.1,2.8-2.7s0.7-1.3,0.7-1.9
		c0-0.6-0.2-1.2-0.7-1.6s-1-0.6-1.8-0.6c-0.8,0-1.4,0.2-1.8,0.7s-0.7,1.1-0.7,1.9l-1.6-0.2c0.1-1.2,0.5-2.1,1.3-2.8s1.7-1,2.9-1
		c1.2,0,2.2,0.3,2.9,1s1.1,1.5,1.1,2.5c0,0.5-0.1,1-0.3,1.5s-0.6,1-1.1,1.6s-1.3,1.3-2.4,2.3c-0.9,0.8-1.6,1.3-1.8,1.6
		s-0.5,0.6-0.7,0.9H90z"/>
	<path d="M99.9,400.2v1.5h-8.5c0-0.4,0-0.7,0.2-1.1c0.2-0.6,0.6-1.2,1-1.7s1.2-1.2,2.1-2c1.4-1.1,2.3-2.1,2.8-2.7s0.7-1.3,0.7-1.9
		c0-0.6-0.2-1.2-0.7-1.6s-1-0.6-1.8-0.6c-0.8,0-1.4,0.2-1.8,0.7s-0.7,1.1-0.7,1.9l-1.6-0.2c0.1-1.2,0.5-2.1,1.3-2.8s1.7-1,2.9-1
		c1.2,0,2.2,0.3,2.9,1s1.1,1.5,1.1,2.5c0,0.5-0.1,1-0.3,1.5s-0.6,1-1.1,1.6s-1.3,1.3-2.4,2.3c-0.9,0.8-1.6,1.3-1.8,1.6
		s-0.5,0.6-0.7,0.9H99.9z"/>
</g>
<g>
	<path d="M129.8,424.8v-3.1h-5.6v-1.5l5.9-8.3h1.3v8.3h1.7v1.5h-1.7v3.1H129.8z M129.8,420.3v-5.8l-4,5.8H129.8z"/>
	<path d="M145,423.4c0.8,0.5,1.5,0.9,2.2,1.2l-0.5,1.2c-0.9-0.3-1.8-0.9-2.8-1.6c-1,0.5-2,0.8-3.2,0.8c-1.2,0-2.2-0.3-3.2-0.8
		s-1.7-1.4-2.2-2.4s-0.8-2.2-0.8-3.4c0-1.3,0.3-2.4,0.8-3.5s1.2-1.8,2.2-2.4s2-0.8,3.2-0.8c1.2,0,2.3,0.3,3.2,0.8s1.7,1.4,2.2,2.4
		s0.8,2.2,0.8,3.4c0,1.1-0.2,2-0.5,2.9S145.6,422.8,145,423.4z M141.2,421.3c1,0.3,1.8,0.7,2.4,1.2c1-0.9,1.5-2.3,1.5-4.1
		c0-1-0.2-2-0.5-2.7s-0.9-1.4-1.6-1.8s-1.4-0.6-2.3-0.6c-1.3,0-2.3,0.4-3.2,1.3s-1.3,2.2-1.3,3.9c0,1.7,0.4,3,1.2,3.9
		s1.9,1.3,3.2,1.3c0.6,0,1.2-0.1,1.7-0.3c-0.5-0.3-1.1-0.6-1.7-0.7L141.2,421.3z"/>
	<path d="M156.8,423.3v1.5h-8.5c0-0.4,0-0.7,0.2-1.1c0.2-0.6,0.6-1.2,1-1.7s1.2-1.2,2.1-2c1.4-1.1,2.3-2.1,2.8-2.7s0.7-1.3,0.7-1.9
		c0-0.6-0.2-1.2-0.7-1.6s-1-0.6-1.8-0.6c-0.8,0-1.4,0.2-1.8,0.7s-0.7,1.1-0.7,1.9l-1.6-0.2c0.1-1.2,0.5-2.1,1.3-2.8s1.7-1,2.9-1
		c1.2,0,2.2,0.3,2.9,1s1.1,1.5,1.1,2.5c0,0.5-0.1,1-0.3,1.5s-0.6,1-1.1,1.6s-1.3,1.3-2.4,2.3c-0.9,0.8-1.6,1.3-1.8,1.6
		s-0.5,0.6-0.7,0.9H156.8z"/>
	<path d="M166.7,423.3v1.5h-8.5c0-0.4,0-0.7,0.2-1.1c0.2-0.6,0.6-1.2,1-1.7s1.2-1.2,2.1-2c1.4-1.1,2.3-2.1,2.8-2.7s0.7-1.3,0.7-1.9
		c0-0.6-0.2-1.2-0.7-1.6s-1-0.6-1.8-0.6c-0.8,0-1.4,0.2-1.8,0.7s-0.7,1.1-0.7,1.9l-1.6-0.2c0.1-1.2,0.5-2.1,1.3-2.8s1.7-1,2.9-1
		c1.2,0,2.2,0.3,2.9,1s1.1,1.5,1.1,2.5c0,0.5-0.1,1-0.3,1.5s-0.6,1-1.1,1.6s-1.3,1.3-2.4,2.3c-0.9,0.8-1.6,1.3-1.8,1.6
		s-0.5,0.6-0.7,0.9H166.7z"/>
</g>
<g>
	<path d="M197.7,401.8h-1.6v-10.1c-0.4,0.4-0.9,0.7-1.5,1.1s-1.2,0.6-1.7,0.8v-1.5c0.9-0.4,1.7-0.9,2.3-1.5s1.1-1.2,1.4-1.7h1V401.8
		z"/>
	<path d="M212,400.4c0.8,0.5,1.5,0.9,2.2,1.2l-0.5,1.2c-0.9-0.3-1.8-0.9-2.8-1.6c-1,0.5-2,0.8-3.2,0.8c-1.2,0-2.2-0.3-3.2-0.8
		s-1.7-1.4-2.2-2.4s-0.8-2.2-0.8-3.4c0-1.3,0.3-2.4,0.8-3.5s1.2-1.8,2.2-2.4s2-0.8,3.2-0.8c1.2,0,2.3,0.3,3.2,0.8s1.7,1.4,2.2,2.4
		s0.8,2.2,0.8,3.4c0,1.1-0.2,2-0.5,2.9S212.7,399.8,212,400.4z M208.3,398.2c1,0.3,1.8,0.7,2.4,1.2c1-0.9,1.5-2.3,1.5-4.1
		c0-1-0.2-2-0.5-2.7s-0.9-1.4-1.6-1.8s-1.4-0.6-2.3-0.6c-1.3,0-2.3,0.4-3.2,1.3s-1.3,2.2-1.3,3.9c0,1.7,0.4,3,1.2,3.9
		s1.9,1.3,3.2,1.3c0.6,0,1.2-0.1,1.7-0.3c-0.5-0.3-1.1-0.6-1.7-0.7L208.3,398.2z"/>
	<path d="M223.9,400.2v1.5h-8.5c0-0.4,0-0.7,0.2-1.1c0.2-0.6,0.6-1.2,1-1.7s1.2-1.2,2.1-2c1.4-1.1,2.3-2.1,2.8-2.7s0.7-1.3,0.7-1.9
		c0-0.6-0.2-1.2-0.7-1.6s-1-0.6-1.8-0.6c-0.8,0-1.4,0.2-1.8,0.7s-0.7,1.1-0.7,1.9l-1.6-0.2c0.1-1.2,0.5-2.1,1.3-2.8s1.7-1,2.9-1
		c1.2,0,2.2,0.3,2.9,1s1.1,1.5,1.1,2.5c0,0.5-0.1,1-0.3,1.5s-0.6,1-1.1,1.6s-1.3,1.3-2.4,2.3c-0.9,0.8-1.6,1.3-1.8,1.6
		s-0.5,0.6-0.7,0.9H223.9z"/>
	<path d="M225.5,398.4l1.6-0.2c0.2,0.9,0.5,1.5,0.9,1.9s1,0.6,1.6,0.6c0.7,0,1.4-0.3,1.9-0.8s0.8-1.2,0.8-1.9c0-0.7-0.2-1.3-0.7-1.8
		s-1.1-0.7-1.8-0.7c-0.3,0-0.7,0.1-1.1,0.2l0.2-1.4c0.1,0,0.2,0,0.3,0c0.7,0,1.3-0.2,1.8-0.5s0.8-0.9,0.8-1.6c0-0.6-0.2-1.1-0.6-1.4
		s-0.9-0.6-1.5-0.6c-0.6,0-1.1,0.2-1.5,0.6s-0.7,1-0.8,1.7l-1.6-0.3c0.2-1.1,0.6-1.9,1.3-2.5s1.5-0.9,2.6-0.9c0.7,0,1.4,0.2,1.9,0.5
		s1,0.7,1.4,1.2s0.5,1.1,0.5,1.7c0,0.6-0.1,1.1-0.4,1.5s-0.7,0.8-1.3,1.1c0.8,0.2,1.4,0.5,1.8,1.1s0.6,1.2,0.6,2.1
		c0,1.1-0.4,2.1-1.2,2.9s-1.9,1.2-3.1,1.2c-1.1,0-2.1-0.3-2.8-1S225.6,399.4,225.5,398.4z"/>
</g>
<g>
	<path d="M266.8,423.3v1.5h-8.5c0-0.4,0-0.7,0.2-1.1c0.2-0.6,0.6-1.2,1-1.7s1.2-1.2,2.1-2c1.4-1.1,2.3-2.1,2.8-2.7s0.7-1.3,0.7-1.9
		c0-0.6-0.2-1.2-0.7-1.6s-1-0.6-1.8-0.6c-0.8,0-1.4,0.2-1.8,0.7s-0.7,1.1-0.7,1.9l-1.6-0.2c0.1-1.2,0.5-2.1,1.3-2.8s1.7-1,2.9-1
		c1.2,0,2.2,0.3,2.9,1s1.1,1.5,1.1,2.5c0,0.5-0.1,1-0.3,1.5s-0.6,1-1.1,1.6s-1.3,1.3-2.4,2.3c-0.9,0.8-1.6,1.3-1.8,1.6
		s-0.5,0.6-0.7,0.9H266.8z"/>
	<path d="M278.8,423.4c0.8,0.5,1.5,0.9,2.2,1.2l-0.5,1.2c-0.9-0.3-1.8-0.9-2.8-1.6c-1,0.5-2,0.8-3.2,0.8c-1.2,0-2.2-0.3-3.2-0.8
		s-1.7-1.4-2.2-2.4s-0.8-2.2-0.8-3.4c0-1.3,0.3-2.4,0.8-3.5s1.2-1.8,2.2-2.4s2-0.8,3.2-0.8c1.2,0,2.3,0.3,3.2,0.8s1.7,1.4,2.2,2.4
		s0.8,2.2,0.8,3.4c0,1.1-0.2,2-0.5,2.9S279.4,422.8,278.8,423.4z M275,421.3c1,0.3,1.8,0.7,2.4,1.2c1-0.9,1.5-2.3,1.5-4.1
		c0-1-0.2-2-0.5-2.7s-0.9-1.4-1.6-1.8s-1.4-0.6-2.3-0.6c-1.3,0-2.3,0.4-3.2,1.3s-1.3,2.2-1.3,3.9c0,1.7,0.4,3,1.2,3.9
		s1.9,1.3,3.2,1.3c0.6,0,1.2-0.1,1.7-0.3c-0.5-0.3-1.1-0.6-1.7-0.7L275,421.3z"/>
	<path d="M290.6,423.3v1.5h-8.5c0-0.4,0-0.7,0.2-1.1c0.2-0.6,0.6-1.2,1-1.7s1.2-1.2,2.1-2c1.4-1.1,2.3-2.1,2.8-2.7s0.7-1.3,0.7-1.9
		c0-0.6-0.2-1.2-0.7-1.6s-1-0.6-1.8-0.6c-0.8,0-1.4,0.2-1.8,0.7s-0.7,1.1-0.7,1.9l-1.6-0.2c0.1-1.2,0.5-2.1,1.3-2.8s1.7-1,2.9-1
		c1.2,0,2.2,0.3,2.9,1s1.1,1.5,1.1,2.5c0,0.5-0.1,1-0.3,1.5s-0.6,1-1.1,1.6s-1.3,1.3-2.4,2.3c-0.9,0.8-1.6,1.3-1.8,1.6
		s-0.5,0.6-0.7,0.9H290.6z"/>
	<path d="M292.2,421.4l1.6-0.2c0.2,0.9,0.5,1.5,0.9,1.9s1,0.6,1.6,0.6c0.7,0,1.4-0.3,1.9-0.8s0.8-1.2,0.8-1.9c0-0.7-0.2-1.3-0.7-1.8
		s-1.1-0.7-1.8-0.7c-0.3,0-0.7,0.1-1.1,0.2l0.2-1.4c0.1,0,0.2,0,0.3,0c0.7,0,1.3-0.2,1.8-0.5s0.8-0.9,0.8-1.6c0-0.6-0.2-1.1-0.6-1.4
		s-0.9-0.6-1.5-0.6c-0.6,0-1.1,0.2-1.5,0.6s-0.7,1-0.8,1.7l-1.6-0.3c0.2-1.1,0.6-1.9,1.3-2.5s1.5-0.9,2.6-0.9c0.7,0,1.4,0.2,1.9,0.5
		s1,0.7,1.4,1.2s0.5,1.1,0.5,1.7c0,0.6-0.1,1.1-0.4,1.5s-0.7,0.8-1.3,1.1c0.8,0.2,1.4,0.5,1.8,1.1s0.6,1.2,0.6,2.1
		c0,1.1-0.4,2.1-1.2,2.9s-1.9,1.2-3.1,1.2c-1.1,0-2.1-0.3-2.8-1S292.3,422.5,292.2,421.4z"/>
</g>
<g>
	<path d="M319.2,398.4l1.6-0.2c0.2,0.9,0.5,1.5,0.9,1.9s1,0.6,1.6,0.6c0.7,0,1.4-0.3,1.9-0.8s0.8-1.2,0.8-1.9c0-0.7-0.2-1.3-0.7-1.8
		s-1.1-0.7-1.8-0.7c-0.3,0-0.7,0.1-1.1,0.2l0.2-1.4c0.1,0,0.2,0,0.3,0c0.7,0,1.3-0.2,1.8-0.5s0.8-0.9,0.8-1.6c0-0.6-0.2-1.1-0.6-1.4
		s-0.9-0.6-1.5-0.6c-0.6,0-1.1,0.2-1.5,0.6s-0.7,1-0.8,1.7l-1.6-0.3c0.2-1.1,0.6-1.9,1.3-2.5s1.5-0.9,2.6-0.9c0.7,0,1.4,0.2,1.9,0.5
		s1,0.7,1.4,1.2s0.5,1.1,0.5,1.7c0,0.6-0.1,1.1-0.4,1.5s-0.7,0.8-1.3,1.1c0.8,0.2,1.4,0.5,1.8,1.1s0.6,1.2,0.6,2.1
		c0,1.1-0.4,2.1-1.2,2.9s-1.9,1.2-3.1,1.2c-1.1,0-2.1-0.3-2.8-1S319.3,399.4,319.2,398.4z"/>
	<path d="M339.5,400.4c0.8,0.5,1.5,0.9,2.2,1.2l-0.5,1.2c-0.9-0.3-1.8-0.9-2.8-1.6c-1,0.5-2,0.8-3.2,0.8c-1.2,0-2.2-0.3-3.2-0.8
		s-1.7-1.4-2.2-2.4s-0.8-2.2-0.8-3.4c0-1.3,0.3-2.4,0.8-3.5s1.2-1.8,2.2-2.4s2-0.8,3.2-0.8c1.2,0,2.3,0.3,3.2,0.8s1.7,1.4,2.2,2.4
		s0.8,2.2,0.8,3.4c0,1.1-0.2,2-0.5,2.9S340.1,399.8,339.5,400.4z M335.7,398.2c1,0.3,1.8,0.7,2.4,1.2c1-0.9,1.5-2.3,1.5-4.1
		c0-1-0.2-2-0.5-2.7s-0.9-1.4-1.6-1.8s-1.4-0.6-2.3-0.6c-1.3,0-2.3,0.4-3.2,1.3s-1.3,2.2-1.3,3.9c0,1.7,0.4,3,1.2,3.9
		s1.9,1.3,3.2,1.3c0.6,0,1.2-0.1,1.7-0.3c-0.5-0.3-1.1-0.6-1.7-0.7L335.7,398.2z"/>
	<path d="M351.3,400.2v1.5h-8.5c0-0.4,0-0.7,0.2-1.1c0.2-0.6,0.6-1.2,1-1.7s1.2-1.2,2.1-2c1.4-1.1,2.3-2.1,2.8-2.7s0.7-1.3,0.7-1.9
		c0-0.6-0.2-1.2-0.7-1.6s-1-0.6-1.8-0.6c-0.8,0-1.4,0.2-1.8,0.7s-0.7,1.1-0.7,1.9l-1.6-0.2c0.1-1.2,0.5-2.1,1.3-2.8s1.7-1,2.9-1
		c1.2,0,2.2,0.3,2.9,1s1.1,1.5,1.1,2.5c0,0.5-0.1,1-0.3,1.5s-0.6,1-1.1,1.6s-1.3,1.3-2.4,2.3c-0.9,0.8-1.6,1.3-1.8,1.6
		s-0.5,0.6-0.7,0.9H351.3z"/>
	<path d="M352.9,398.4l1.6-0.2c0.2,0.9,0.5,1.5,0.9,1.9s1,0.6,1.6,0.6c0.7,0,1.4-0.3,1.9-0.8s0.8-1.2,0.8-1.9c0-0.7-0.2-1.3-0.7-1.8
		s-1.1-0.7-1.8-0.7c-0.3,0-0.7,0.1-1.1,0.2l0.2-1.4c0.1,0,0.2,0,0.3,0c0.7,0,1.3-0.2,1.8-0.5s0.8-0.9,0.8-1.6c0-0.6-0.2-1.1-0.6-1.4
		s-0.9-0.6-1.5-0.6c-0.6,0-1.1,0.2-1.5,0.6s-0.7,1-0.8,1.7l-1.6-0.3c0.2-1.1,0.6-1.9,1.3-2.5s1.5-0.9,2.6-0.9c0.7,0,1.4,0.2,1.9,0.5
		s1,0.7,1.4,1.2s0.5,1.1,0.5,1.7c0,0.6-0.1,1.1-0.4,1.5s-0.7,0.8-1.3,1.1c0.8,0.2,1.4,0.5,1.8,1.1s0.6,1.2,0.6,2.1
		c0,1.1-0.4,2.1-1.2,2.9s-1.9,1.2-3.1,1.2c-1.1,0-2.1-0.3-2.8-1S353,399.4,352.9,398.4z"/>
	<path d="M363.5,401.8v-12.9h8.7v1.5h-7v4h6v1.5h-6v5.9H363.5z"/>
</g>
<g>
	<path d="M391,424.8v-3.1h-5.6v-1.5l5.9-8.3h1.3v8.3h1.7v1.5h-1.7v3.1H391z M391,420.3v-5.8l-4,5.8H391z"/>
	<path d="M406.2,423.4c0.8,0.5,1.5,0.9,2.2,1.2l-0.5,1.2c-0.9-0.3-1.8-0.9-2.8-1.6c-1,0.5-2,0.8-3.2,0.8c-1.2,0-2.2-0.3-3.2-0.8
		s-1.7-1.4-2.2-2.4s-0.8-2.2-0.8-3.4c0-1.3,0.3-2.4,0.8-3.5s1.2-1.8,2.2-2.4s2-0.8,3.2-0.8c1.2,0,2.3,0.3,3.2,0.8s1.7,1.4,2.2,2.4
		s0.8,2.2,0.8,3.4c0,1.1-0.2,2-0.5,2.9S406.8,422.8,406.2,423.4z M402.4,421.3c1,0.3,1.8,0.7,2.4,1.2c1-0.9,1.5-2.3,1.5-4.1
		c0-1-0.2-2-0.5-2.7s-0.9-1.4-1.6-1.8s-1.4-0.6-2.3-0.6c-1.3,0-2.3,0.4-3.2,1.3s-1.3,2.2-1.3,3.9c0,1.7,0.4,3,1.2,3.9
		s1.9,1.3,3.2,1.3c0.6,0,1.2-0.1,1.7-0.3c-0.5-0.3-1.1-0.6-1.7-0.7L402.4,421.3z"/>
	<path d="M418,423.3v1.5h-8.5c0-0.4,0-0.7,0.2-1.1c0.2-0.6,0.6-1.2,1-1.7s1.2-1.2,2.1-2c1.4-1.1,2.3-2.1,2.8-2.7s0.7-1.3,0.7-1.9
		c0-0.6-0.2-1.2-0.7-1.6s-1-0.6-1.8-0.6c-0.8,0-1.4,0.2-1.8,0.7s-0.7,1.1-0.7,1.9l-1.6-0.2c0.1-1.2,0.5-2.1,1.3-2.8s1.7-1,2.9-1
		c1.2,0,2.2,0.3,2.9,1s1.1,1.5,1.1,2.5c0,0.5-0.1,1-0.3,1.5s-0.6,1-1.1,1.6s-1.3,1.3-2.4,2.3c-0.9,0.8-1.6,1.3-1.8,1.6
		s-0.5,0.6-0.7,0.9H418z"/>
	<path d="M419.6,421.4l1.6-0.2c0.2,0.9,0.5,1.5,0.9,1.9s1,0.6,1.6,0.6c0.7,0,1.4-0.3,1.9-0.8s0.8-1.2,0.8-1.9c0-0.7-0.2-1.3-0.7-1.8
		s-1.1-0.7-1.8-0.7c-0.3,0-0.7,0.1-1.1,0.2l0.2-1.4c0.1,0,0.2,0,0.3,0c0.7,0,1.3-0.2,1.8-0.5s0.8-0.9,0.8-1.6c0-0.6-0.2-1.1-0.6-1.4
		s-0.9-0.6-1.5-0.6c-0.6,0-1.1,0.2-1.5,0.6s-0.7,1-0.8,1.7l-1.6-0.3c0.2-1.1,0.6-1.9,1.3-2.5s1.5-0.9,2.6-0.9c0.7,0,1.4,0.2,1.9,0.5
		s1,0.7,1.4,1.2s0.5,1.1,0.5,1.7c0,0.6-0.1,1.1-0.4,1.5s-0.7,0.8-1.3,1.1c0.8,0.2,1.4,0.5,1.8,1.1s0.6,1.2,0.6,2.1
		c0,1.1-0.4,2.1-1.2,2.9s-1.9,1.2-3.1,1.2c-1.1,0-2.1-0.3-2.8-1S419.7,422.5,419.6,421.4z"/>
	<path d="M430.2,424.8v-12.9h8.7v1.5h-7v4h6v1.5h-6v5.9H430.2z"/>
</g>
<g>
	<path d="M458.9,401.8h-1.6v-10.1c-0.4,0.4-0.9,0.7-1.5,1.1s-1.2,0.6-1.7,0.8v-1.5c0.9-0.4,1.7-0.9,2.3-1.5s1.1-1.2,1.4-1.7h1V401.8
		z"/>
	<path d="M473.2,400.4c0.8,0.5,1.5,0.9,2.2,1.2l-0.5,1.2c-0.9-0.3-1.8-0.9-2.8-1.6c-1,0.5-2,0.8-3.2,0.8c-1.2,0-2.2-0.3-3.2-0.8
		s-1.7-1.4-2.2-2.4s-0.8-2.2-0.8-3.4c0-1.3,0.3-2.4,0.8-3.5s1.2-1.8,2.2-2.4s2-0.8,3.2-0.8c1.2,0,2.3,0.3,3.2,0.8s1.7,1.4,2.2,2.4
		s0.8,2.2,0.8,3.4c0,1.1-0.2,2-0.5,2.9S473.9,399.8,473.2,400.4z M469.5,398.2c1,0.3,1.8,0.7,2.4,1.2c1-0.9,1.5-2.3,1.5-4.1
		c0-1-0.2-2-0.5-2.7s-0.9-1.4-1.6-1.8s-1.4-0.6-2.3-0.6c-1.3,0-2.3,0.4-3.2,1.3s-1.3,2.2-1.3,3.9c0,1.7,0.4,3,1.2,3.9
		s1.9,1.3,3.2,1.3c0.6,0,1.2-0.1,1.7-0.3c-0.5-0.3-1.1-0.6-1.7-0.7L469.5,398.2z"/>
	<path d="M485,400.2v1.5h-8.5c0-0.4,0-0.7,0.2-1.1c0.2-0.6,0.6-1.2,1-1.7s1.2-1.2,2.1-2c1.4-1.1,2.3-2.1,2.8-2.7s0.7-1.3,0.7-1.9
		c0-0.6-0.2-1.2-0.7-1.6s-1-0.6-1.8-0.6c-0.8,0-1.4,0.2-1.8,0.7s-0.7,1.1-0.7,1.9l-1.6-0.2c0.1-1.2,0.5-2.1,1.3-2.8s1.7-1,2.9-1
		c1.2,0,2.2,0.3,2.9,1s1.1,1.5,1.1,2.5c0,0.5-0.1,1-0.3,1.5s-0.6,1-1.1,1.6s-1.3,1.3-2.4,2.3c-0.9,0.8-1.6,1.3-1.8,1.6
		s-0.5,0.6-0.7,0.9H485z"/>
	<path d="M491.7,401.8v-3.1h-5.6v-1.5l5.9-8.3h1.3v8.3h1.7v1.5h-1.7v3.1H491.7z M491.7,397.2v-5.8l-4,5.8H491.7z"/>
	<path d="M497.2,401.8v-12.9h8.7v1.5h-7v4h6v1.5h-6v5.9H497.2z"/>
</g>
<g>
	<path d="M528,423.3v1.5h-8.5c0-0.4,0-0.7,0.2-1.1c0.2-0.6,0.6-1.2,1-1.7s1.2-1.2,2.1-2c1.4-1.1,2.3-2.1,2.8-2.7s0.7-1.3,0.7-1.9
		c0-0.6-0.2-1.2-0.7-1.6s-1-0.6-1.8-0.6c-0.8,0-1.4,0.2-1.8,0.7s-0.7,1.1-0.7,1.9l-1.6-0.2c0.1-1.2,0.5-2.1,1.3-2.8s1.7-1,2.9-1
		c1.2,0,2.2,0.3,2.9,1s1.1,1.5,1.1,2.5c0,0.5-0.1,1-0.3,1.5s-0.6,1-1.1,1.6s-1.3,1.3-2.4,2.3c-0.9,0.8-1.6,1.3-1.8,1.6
		s-0.5,0.6-0.7,0.9H528z"/>
	<path d="M540,423.4c0.8,0.5,1.5,0.9,2.2,1.2l-0.5,1.2c-0.9-0.3-1.8-0.9-2.8-1.6c-1,0.5-2,0.8-3.2,0.8c-1.2,0-2.2-0.3-3.2-0.8
		s-1.7-1.4-2.2-2.4s-0.8-2.2-0.8-3.4c0-1.3,0.3-2.4,0.8-3.5s1.2-1.8,2.2-2.4s2-0.8,3.2-0.8c1.2,0,2.3,0.3,3.2,0.8s1.7,1.4,2.2,2.4
		s0.8,2.2,0.8,3.4c0,1.1-0.2,2-0.5,2.9S540.6,422.8,540,423.4z M536.2,421.3c1,0.3,1.8,0.7,2.4,1.2c1-0.9,1.5-2.3,1.5-4.1
		c0-1-0.2-2-0.5-2.7s-0.9-1.4-1.6-1.8s-1.4-0.6-2.3-0.6c-1.3,0-2.3,0.4-3.2,1.3s-1.3,2.2-1.3,3.9c0,1.7,0.4,3,1.2,3.9
		s1.9,1.3,3.2,1.3c0.6,0,1.2-0.1,1.7-0.3c-0.5-0.3-1.1-0.6-1.7-0.7L536.2,421.3z"/>
	<path d="M551.8,423.3v1.5h-8.5c0-0.4,0-0.7,0.2-1.1c0.2-0.6,0.6-1.2,1-1.7s1.2-1.2,2.1-2c1.4-1.1,2.3-2.1,2.8-2.7s0.7-1.3,0.7-1.9
		c0-0.6-0.2-1.2-0.7-1.6s-1-0.6-1.8-0.6c-0.8,0-1.4,0.2-1.8,0.7s-0.7,1.1-0.7,1.9l-1.6-0.2c0.1-1.2,0.5-2.1,1.3-2.8s1.7-1,2.9-1
		c1.2,0,2.2,0.3,2.9,1s1.1,1.5,1.1,2.5c0,0.5-0.1,1-0.3,1.5s-0.6,1-1.1,1.6s-1.3,1.3-2.4,2.3c-0.9,0.8-1.6,1.3-1.8,1.6
		s-0.5,0.6-0.7,0.9H551.8z"/>
	<path d="M558.5,424.8v-3.1h-5.6v-1.5l5.9-8.3h1.3v8.3h1.7v1.5h-1.7v3.1H558.5z M558.5,420.3v-5.8l-4,5.8H558.5z"/>
	<path d="M564,424.8v-12.9h8.7v1.5h-7v4h6v1.5h-6v5.9H564z"/>
</g>
<g>
	<path d="M586.8,398.4l1.6-0.2c0.2,0.9,0.5,1.5,0.9,1.9c0.4,0.4,1,0.6,1.6,0.6c0.7,0,1.4-0.3,1.9-0.8c0.5-0.5,0.8-1.2,0.8-1.9
		c0-0.7-0.2-1.3-0.7-1.8s-1.1-0.7-1.8-0.7c-0.3,0-0.7,0.1-1.1,0.2l0.2-1.4c0.1,0,0.2,0,0.3,0c0.7,0,1.3-0.2,1.8-0.5s0.8-0.9,0.8-1.6
		c0-0.6-0.2-1.1-0.6-1.4s-0.9-0.6-1.5-0.6c-0.6,0-1.1,0.2-1.5,0.6s-0.7,1-0.8,1.7l-1.6-0.3c0.2-1.1,0.6-1.9,1.3-2.5s1.5-0.9,2.6-0.9
		c0.7,0,1.4,0.2,1.9,0.5s1,0.7,1.4,1.2s0.5,1.1,0.5,1.7c0,0.6-0.1,1.1-0.4,1.5s-0.7,0.8-1.3,1.1c0.8,0.2,1.4,0.5,1.8,1.1
		s0.6,1.2,0.6,2.1c0,1.1-0.4,2.1-1.2,2.9s-1.9,1.2-3.1,1.2c-1.1,0-2.1-0.3-2.8-1C587.3,400.3,586.9,399.4,586.8,398.4z"/>
	<path d="M607.1,400.4c0.8,0.5,1.5,0.9,2.2,1.2l-0.5,1.2c-0.9-0.3-1.8-0.9-2.8-1.6c-1,0.5-2,0.8-3.2,0.8c-1.2,0-2.2-0.3-3.2-0.8
		s-1.7-1.4-2.2-2.4c-0.5-1-0.8-2.2-0.8-3.4c0-1.3,0.3-2.4,0.8-3.5s1.2-1.8,2.2-2.4s2-0.8,3.2-0.8c1.2,0,2.3,0.3,3.2,0.8
		s1.7,1.4,2.2,2.4c0.5,1,0.8,2.2,0.8,3.4c0,1.1-0.2,2-0.5,2.9S607.7,399.8,607.1,400.4z M603.3,398.2c1,0.3,1.8,0.7,2.4,1.2
		c1-0.9,1.5-2.3,1.5-4.1c0-1-0.2-2-0.5-2.7c-0.4-0.8-0.9-1.4-1.6-1.8s-1.4-0.6-2.3-0.6c-1.3,0-2.3,0.4-3.2,1.3s-1.3,2.2-1.3,3.9
		c0,1.7,0.4,3,1.2,3.9c0.8,0.9,1.9,1.3,3.2,1.3c0.6,0,1.2-0.1,1.7-0.3c-0.5-0.3-1.1-0.6-1.7-0.7L603.3,398.2z"/>
	<path d="M618.9,400.2v1.5h-8.5c0-0.4,0-0.7,0.2-1.1c0.2-0.6,0.6-1.2,1-1.7c0.5-0.6,1.2-1.2,2.1-2c1.4-1.1,2.3-2.1,2.8-2.7
		s0.7-1.3,0.7-1.9c0-0.6-0.2-1.2-0.7-1.6c-0.4-0.4-1-0.6-1.8-0.6c-0.8,0-1.4,0.2-1.8,0.7s-0.7,1.1-0.7,1.9l-1.6-0.2
		c0.1-1.2,0.5-2.1,1.3-2.8s1.7-1,2.9-1c1.2,0,2.2,0.3,2.9,1s1.1,1.5,1.1,2.5c0,0.5-0.1,1-0.3,1.5s-0.6,1-1,1.6
		c-0.5,0.6-1.3,1.3-2.4,2.3c-0.9,0.8-1.6,1.3-1.8,1.6s-0.5,0.6-0.7,0.9H618.9z"/>
	<path d="M625.5,401.8v-3.1h-5.6v-1.5l5.9-8.3h1.3v8.3h1.7v1.5h-1.7v3.1H625.5z M625.5,397.2v-5.8l-4,5.8H625.5z"/>
	<path d="M631.1,401.8v-12.9h8.7v1.5h-7v4h6v1.5h-6v5.9H631.1z"/>
</g>
<g>
	<path d="M658.9,424.8v-3.1h-5.6v-1.5l5.9-8.3h1.3v8.3h1.7v1.5h-1.7v3.1H658.9z M658.9,420.3v-5.8l-4,5.8H658.9z"/>
	<path d="M674.1,423.4c0.8,0.5,1.5,0.9,2.2,1.2l-0.5,1.2c-0.9-0.3-1.8-0.9-2.8-1.6c-1,0.5-2,0.8-3.2,0.8c-1.2,0-2.2-0.3-3.2-0.8
		s-1.7-1.4-2.2-2.4c-0.5-1-0.8-2.2-0.8-3.4c0-1.3,0.3-2.4,0.8-3.5s1.2-1.8,2.2-2.4s2-0.8,3.2-0.8c1.2,0,2.3,0.3,3.2,0.8
		s1.7,1.4,2.2,2.4c0.5,1,0.8,2.2,0.8,3.4c0,1.1-0.2,2-0.5,2.9S674.7,422.8,674.1,423.4z M670.3,421.3c1,0.3,1.8,0.7,2.4,1.2
		c1-0.9,1.5-2.3,1.5-4.1c0-1-0.2-2-0.5-2.7c-0.4-0.8-0.9-1.4-1.6-1.8s-1.4-0.6-2.3-0.6c-1.3,0-2.3,0.4-3.2,1.3s-1.3,2.2-1.3,3.9
		c0,1.7,0.4,3,1.2,3.9c0.8,0.9,1.9,1.3,3.2,1.3c0.6,0,1.2-0.1,1.7-0.3c-0.5-0.3-1.1-0.6-1.7-0.7L670.3,421.3z"/>
	<path d="M685.9,423.3v1.5h-8.5c0-0.4,0-0.7,0.2-1.1c0.2-0.6,0.6-1.2,1-1.7c0.5-0.6,1.2-1.2,2.1-2c1.4-1.1,2.3-2.1,2.8-2.7
		s0.7-1.3,0.7-1.9c0-0.6-0.2-1.2-0.7-1.6c-0.4-0.4-1-0.6-1.8-0.6c-0.8,0-1.4,0.2-1.8,0.7s-0.7,1.1-0.7,1.9l-1.6-0.2
		c0.1-1.2,0.5-2.1,1.3-2.8s1.7-1,2.9-1c1.2,0,2.2,0.3,2.9,1s1.1,1.5,1.1,2.5c0,0.5-0.1,1-0.3,1.5s-0.6,1-1,1.6
		c-0.5,0.6-1.3,1.3-2.4,2.3c-0.9,0.8-1.6,1.3-1.8,1.6s-0.5,0.6-0.7,0.9H685.9z"/>
	<path d="M692.6,424.8v-3.1H687v-1.5l5.9-8.3h1.3v8.3h1.7v1.5h-1.7v3.1H692.6z M692.6,420.3v-5.8l-4,5.8H692.6z"/>
	<path d="M698.1,424.8v-12.9h8.7v1.5h-7v4h6v1.5h-6v5.9H698.1z"/>
</g>
<g>
	<g>
		<path d="M342.1,461.5c-0.1,1.1-0.2,2-0.5,2.8c1.2,0.6,2.8,1.4,3.6,2l-0.8,0.9h0.6v3.3h-1.7v-2h-11.8v2h-1.6v-3.3h0.2
			c-0.2-0.4-0.5-0.8-0.8-1.1c3.1-0.7,3.6-2,3.7-4.7h1.5c-0.1,1.1-0.2,2.1-0.5,2.9c0.9,0.5,2,1.2,2.7,1.7l-1,1
			c-0.5-0.4-1.4-1-2.3-1.6c-0.6,0.8-1.5,1.3-2.9,1.7h7.2c-0.2-0.4-0.5-0.9-0.8-1.2c3.1-0.7,3.5-1.9,3.7-4.5H342.1z M331.1,464.4
			c-0.3-0.5-0.9-1.2-1.4-1.8l1-0.7c0.5,0.5,1.1,1.2,1.4,1.7L331.1,464.4z M336.9,473.8h7v4.3h-1.7v-0.5H333v0.5h-1.6v-4.3h4
			c0.1-0.3,0.3-0.6,0.4-0.9h-3.2v-3.4h9.7v3.4h-4.9L336.9,473.8z M342.2,475H333v1.4h9.2V475z M334.2,471.8h6.4v-1.3h-6.4V471.8z
			 M337.3,462.8c-0.5,0.7-1.1,1.4-1.6,1.8l-1-0.4c0.4-0.5,0.9-1.3,1.2-1.9L337.3,462.8z M338.7,464.4c-0.3-0.5-0.9-1.2-1.4-1.8
			l1-0.7c0.5,0.5,1.1,1.2,1.4,1.7L338.7,464.4z M343.9,467.3c-0.7-0.5-1.9-1.2-2.9-1.7c-0.6,0.8-1.6,1.3-3.2,1.7H343.9z
			 M345.3,462.8c-0.6,0.7-1.2,1.4-1.7,1.9l-1-0.5c0.4-0.5,1-1.4,1.3-1.9L345.3,462.8z"/>
		<path d="M352.2,461.8h1.7v16.3h-1.7v-4.8c-3.1,1.1-3.6,1.4-4,1.7c-0.1-0.4-0.4-1.2-0.6-1.5c0.3-0.2,0.6-0.5,0.6-1.2v-8.7h1.6v8.9
			l2.4-0.8V461.8z M362.4,466.5c-0.5,2.8-1.2,5-2.3,6.9c1,1.4,2.2,2.4,3.7,3.2c-0.4,0.3-0.9,0.9-1.2,1.4c-1.4-0.8-2.5-1.8-3.5-3.1
			c-1,1.3-2.3,2.4-3.9,3.2c-0.2-0.4-0.7-1.1-1.1-1.4c1.7-0.8,3-1.9,4-3.3c-0.8-1.4-1.4-2.9-2-4.6c-0.4,0.7-0.8,1.3-1.2,1.8
			c-0.2-0.3-0.8-1.1-1.2-1.4c1.5-1.8,2.4-4.7,2.9-7.7l1.7,0.3c-0.2,1.1-0.4,2.1-0.7,3.1h5.8v1.6H362.4z M357.2,466.9
			c0.5,1.8,1.1,3.5,2,5c0.8-1.5,1.3-3.3,1.6-5.4h-3.5L357.2,466.9z"/>
		<path d="M420.4,468.1c-0.2,0.3-0.5,0.5-0.7,0.7c-0.2-0.2-0.6-0.7-1-1c0.2,1.1,0.3,2.2,0.3,3.3c0,2.5-0.2,4.8-0.9,5.8
			c-0.2,0.4-0.6,0.6-1,0.6c-0.6,0.1-1.4,0.1-2.2,0.1c0-0.5-0.2-1.2-0.5-1.6c0.9,0.1,1.5,0.1,1.9,0c0.3,0,0.4-0.1,0.6-0.3
			c0.4-0.6,0.6-2.5,0.6-4.7v-0.5c-0.8,1.2-1.8,2.4-2.8,3.1c-0.2-0.4-0.6-1.1-0.9-1.4c1.3-0.8,2.7-2.5,3.5-4.1
			c-0.1-0.7-0.3-1.3-0.5-2c-0.7,0.8-1.5,1.5-2.1,2c-0.2-0.4-0.6-1.1-0.9-1.5c0.7-0.5,1.5-1.2,2.3-1.9c-0.5-0.7-1-1.3-1.7-2l1.1-0.9
			c0.7,0.6,1.2,1.2,1.7,1.7c0.5-0.6,0.9-1.2,1.2-1.7l1.2,0.8c-0.4,0.7-1,1.5-1.6,2.3c0.5,0.9,0.7,1.8,0.9,2.7c0.9-0.8,1.9-1.9,2.4-3
			l1.2,0.4v-1h-2.8v-1.2h2.8v-1.3h1.5v3.5l1-0.5c0.5,0.5,1.1,1.2,1.4,1.6h3.3v1h-3.7v0.7h3.2v0.9h-3.2v0.8h3.2v0.9h-3.2v0.8h3.9v1
			h-8v0.4h-1.5V468.1z M429.6,473.5c-0.8,1-1.9,1.9-3.2,2.5c1.3,0.3,2.7,0.5,4.1,0.6c-0.3,0.3-0.8,0.9-1,1.3
			c-1.8-0.2-3.6-0.6-5.1-1.2c-1.6,0.5-3.4,0.9-5.1,1.2c-0.1-0.4-0.5-1-0.7-1.3c1.4-0.1,2.8-0.3,4-0.7c-0.9-0.5-1.7-1-2.3-1.6
			l0.6-0.3h-1.2v-1.2h8.7l0.3-0.1L429.6,473.5z M424.4,467.1h-2.6v0.7h2.6V467.1z M424.4,468.7h-2.6v0.8h2.6V468.7z M424.4,470.4
			h-2.6v0.8h2.6V470.4z M422.3,465l0.2,0.1c-0.2,0.3-0.4,0.6-0.6,1h2.5c-0.3-0.3-0.6-0.7-0.8-1l0.1,0H422.3z M422,474.2
			c0.6,0.5,1.5,0.9,2.5,1.3c1-0.4,1.8-0.8,2.5-1.3H422z M427.1,465.1h-1.5v-3.5h1.5v1.2h3.2v1.3h-3.2V465.1z"/>
		<path d="M437.2,466.8h3.3v1.5h-3.3v1.2c0.9,0.6,2.8,2.3,3.3,2.7l-1,1.4c-0.5-0.6-1.5-1.6-2.3-2.4v6.7h-1.6v-7.1
			c-0.9,1.9-2,3.7-3.1,4.8c-0.2-0.5-0.6-1.2-0.9-1.6c1.4-1.3,2.8-3.6,3.7-5.7H432v-1.5h3.6v-2.7c-1.1,0.2-2.2,0.4-3.3,0.5
			c-0.1-0.4-0.3-1-0.5-1.3c2.6-0.4,5.6-1,7.3-1.8l1.2,1.3c-0.9,0.4-2,0.7-3.1,0.9V466.8z M443.1,473.6h-1.6v-9.9h1.6V473.6z
			 M447.5,461.9v14.1c0,1-0.3,1.5-0.9,1.8c-0.7,0.3-1.7,0.3-3.4,0.3c-0.1-0.5-0.3-1.2-0.6-1.7c1.2,0.1,2.4,0.1,2.7,0
			c0.3,0,0.5-0.1,0.5-0.4v-14.1H447.5z"/>
	</g>
</g>
</svg>
